<svg xmlns="http://www.w3.org/2000/svg" viewBox="0 0 1125 2436"><style>.a{fill:none;}</style><path d="M39.9 2431.7c-2 1.1-3.7 2.6-5.2 4.3h5.9c0.4-0.3 0.8-0.6 1.3-0.8 2.3-1.3 5-2 7.8-2 3 0 6.1 0.7 9.3 2.2 0.4 0.2 0.8 0.4 1.1 0.6h7.3c-2.2-1.7-4.4-3.1-6.8-4.2C53.3 2428.4 45.9 2428.4 39.9 2431.7z" class="a"/><path d="M50.3 2386.9c-0.6-0.4-1.4-0.5-2.1-0.1l-41.1 23c-0.6 0.3-1 1-1 1.7s0.3 1.4 0.9 1.7l32.7 21.9c0.3 0.2 0.7 0.3 1.1 0.3 0.6 0 1.3-0.3 1.7-0.9 0.1-0.2 0.2-0.4 0.3-0.6 0.2 0.1 0.4 0.2 0.7 0.2 1.1 0.1 2.1-0.6 2.2-1.7l5.5-43.6C51.3 2388 50.9 2387.3 50.3 2386.9zM41.7 2431.6l-29.8-19.9 34.8-19.5L41.7 2431.6z" class="a"/><path d="M27.9 2413.2c-0.8-0.7-2.1-0.6-2.8 0.2 -0.7 0.8-0.6 2.1 0.2 2.8l8.9 7.8c0.4 0.3 0.9 0.5 1.3 0.5 0.6 0 1.1-0.2 1.5-0.7 0.7-0.8 0.6-2.1-0.2-2.8L27.9 2413.2z" class="a"/><path d="M39.6 2407.1c-1.1-0.2-2.1 0.5-2.4 1.6 0 0.2-0.1 0.7-0.3 11.8 0 1.1 0.9 2 2 2l0 0c1.1 0 2-0.9 2-2 0.1-4.9 0.2-10.4 0.3-11.2C41.3 2408.3 40.6 2407.3 39.6 2407.1z" class="a"/><path d="M1119.4 1242.1c-0.5 0.7-0.6 1.6-0.1 2.4 0.4 0.6 1 0.9 1.7 0.9 0.2 0 0.4 0 0.6-0.1 1.2-0.4 2.3-0.8 3.5-1.2v-10.3C1123.4 1236.6 1121.5 1239.4 1119.4 1242.1z" class="a"/><path d="M1112.1 1018.2c1 7.3 2 14.8 2.6 22.7 1.7 22.1 5.8 44.3 9.8 65.7 0.2 0.8 0.3 1.7 0.5 2.6v-22.5c-2.7-15.2-5-30.7-6.2-46.1 -0.6-8-1.6-15.6-2.6-23 -3.4-25.2-6.4-46.9 8.9-71.6v-7.1C1105.2 967.2 1108.5 991.4 1112.1 1018.2z" class="a"/><path d="M1120.4 1512.8c-2.3-6.9-2.9-16.6 2.5-22.7 0.7-0.8 0.6-2.1-0.2-2.8 -0.8-0.7-2.1-0.6-2.8 0.2 -5.6 6.3-6.8 16.3-3.3 26.7 1.8 5.5 4.7 10.4 7.4 15.2 0.3 0.6 0.7 1.2 1 1.8v-8.2C1123.2 1519.6 1121.6 1516.3 1120.4 1512.8z" class="a"/><path d="M1123.6 421.3c-0.2 9.3 0.2 17 1.4 23.3v-33.9C1124.2 414 1123.7 417.5 1123.6 421.3z" class="a"/><path d="M401.1 2317.7c1.4-17.4 2.1-37.1-10-49.6 -7.5-7.8-18.6-11-29.2-13.5 -39.3-9.3-79.8-13.6-120.2-12.6 -20.9 0.6-43.7 3.3-58 18.6 -21.7 23.1-12.3 60.9-23 90.7 -7.1 19.9-38.6 20.5-41 41.3 -0.6 5.5 2.1 6.1 2.2 6 16.7 9.3 48.8 4.9 64.7-13s21.6-42.6 23.9-66.5c1.2-12.7 3.2-28 14.9-33.3 5.5-2.5 12-2 18.1-1.4 22.1 2.2 44.2 4.5 66.3 6.8 15.3 1.6 31.7 3.6 43.1 13.9 17.9 16.3 15.3 44.6 12.4 68.7 -1 8.6-1.8 17.8 2.3 25.5 4 7.7 15 12.3 21.7 6.9 4.7-3.8 5.6-10.6 6.1-16.5C397 2365.6 399.1 2341.7 401.1 2317.7z" class="a"/><path d="M184.1 2387.8c2.7 20.9 32.6 23 53.4 24.9 33.6 2.8 61.4 5.1 95 8 6.5 0.5 19 1.6 25.1-1.1 6-2.7 13.5-11.4 11.3-17.5" class="a"/><path d="M302.7 2254.2c0 0 20.4 2.8 29.3 4.7 16.1 3.5 27.4 6.3 27.4 6.3" class="a"/><line x1="276.3" y1="2251.7" x2="294.1" y2="2252.9" class="a"/><path d="M296.6 2317c-9.8-1.9-19.8-3.8-29.7-2.7 -9.9 1-20 5.3-25.6 13.5 -4.5 6.6-5.8 15-6.9 23 -1.2 8-2.2 16.7 1 24.1 4.5 10.5 18.8 9.2 29.6 5.3 0 0 12.9 13.5 22.5 16 8.1 2.2 16.2 4.3 23.7 1.2 11.2-4.5 16.9-17.9 19.3-29.7 2.6-12.8 2.6-27.7-5.5-37.9C318.4 2321.5 307.1 2319.1 296.6 2317z" class="a"/><path d="M266.8 2370c-4.9-14.9-0.3-34.2 12.1-39.8" class="a"/><path d="M294.6 2384.1c3.9 0.9 8.2 0.1 11.5-2.3s5.4-6.3 5.6-10.3" class="a"/><path d="M280.5 2345c0.7-2.6 2.4-5 4.6-6.4s5.1-2.2 7.7-1.7" class="a"/><path d="M231.5 2284.1c-4.5-4.8-8.4-13.1-8.5-19.7 -0.1-6.6 2.5-15.6 6.8-20.7" class="a"/><path d="M210.1 2317.3c-10.8 0.9-21.4-5.1-27.6-14 -6.2-8.8-8.5-18.4-8-29.2" class="a"/><path d="M198.1 2367.8c-7.5 1.5-15.3 2.7-22.6 0.8s-14.9-8.1-15.7-15.7" class="a"/><path d="M360.1 2314.9c11.8 1.1 23.8-2.3 32.3-10.4 2.8-2.6 5.2-5.7 6.4-9.3 1.2-3.6 2.9-7.5 0.9-10.7" class="a"/><path d="M366.4 2358.7c0 0 7.8 8.2 13.3 9.9s15.8-4.5 15.8-4.5" class="a"/><path d="M865.3 576.8c-12.4 3.8-22.8 12.3-31.9 21.6 -9.1 9.3-17.1 19.6-26.8 28.2s-21.4 15.7-34.3 17l-4.5-1.5c-9.9-3.9-13.2-0.5-15.8 9.7 -1.3 5.1-1.6 15.3 6.7 19.7 4.9 2.6 10.6-4.4 14.3-6.2 10.6-5.1 22.4-7.7 34.1-7.5 19.4 0.3 38.7 8.1 57.6 4.2 12.8-2.7 24.2-10.5 32.8-20.5 7-8.1 12.3-17.9 13.7-28.5s-1.7-22-9.4-29.4C892.4 574.6 877.7 573 865.3 576.8z" class="a"/><path d="M809.2 634.4c3.4-3.2 6.9-6.4 10.3-9.6" class="a"/><path d="M813.5 642.4c3.8-1 10-3 13.8-4" class="a"/><path d="M815.3 650.3c4.2 2.1 9.1 2.6 13.9 1.9" class="a"/><line x1="823.8" y1="619.7" x2="825.4" y2="617.8" class="a"/><path d="M761.4 652.2c2.5-0.8 5.4-0.2 7.4 1.3" class="a"/><line x1="834.4" y1="636.1" x2="841.2" y2="633.6" class="a"/><line x1="862.3" y1="614.6" x2="862.3" y2="614.6" class="a"/><line x1="869.6" y1="599" x2="869.6" y2="599" class="a"/><line x1="881.7" y1="621.9" x2="881.7" y2="621.9" class="a"/><line x1="892.4" y1="617.1" x2="892.4" y2="617.1" class="a"/><line x1="876.9" y1="636.6" x2="876.9" y2="636.6" class="a"/><line x1="853.5" y1="595" x2="853.5" y2="595" class="a"/><line x1="887" y1="600.7" x2="887" y2="600.7" class="a"/><line x1="877.4" y1="589.1" x2="877.4" y2="589.1" class="a"/><path d="M560.3 391.8c-23.4 1.1-39 32.5-39 32.5 -20 7.5-36.8 26.3-31 46.8 4.3 15.3 16.7 27.1 30.4 35.2 15.4 9.2 33.1 14.7 51 14s35.7-8.1 47.5-21.5c17.2-19.4 19.3-50 6.3-72.4C612.6 404 586.2 390.7 560.3 391.8z" class="a"/><path d="M536 423.8c6.7 1.2 13.5 2.5 19.6 5.6s11.3 8.5 12.7 15.2" class="a"/><path d="M528.8 411c-1.2-3.7-2.5-7.4-4-11 -1.6-3.7-7-3.1-7.8 0.8 -0.6 2.9-1.3 5.8-2 8.7 -3 0-6.1-0.2-9.1-0.5 -3.5-0.4-5.8 3.4-3.9 6.4 0 0 0 0.1 0.1 0.1 1.6 2.5 2.9 5.2 3.9 8 -9.2-0.2-18.4 1.8-26.7 5.8 -3.2 1.5-3.2 6 0 7.5 5.4 2.5 11.1 4.6 16.9 6.2" class="a"/><path d="M505.7 459.1c0.2 2.1-0.2-1.8 0 0.4" class="a"/><path d="M508.5 468.4c0.2 2.1-0.2-1.8 0 0.4" class="a"/><path d="M513.7 459.8c0.2 1.8 0 0 0.2 1.8" class="a"/><path d="M166.8 707.3c-14-16.2-33.9-27.7-55.3-29.3s-43.7 7.7-55.9 25.3 -10.8 49.6-3.9 65.3 24.8 38.4 39.7 50.7c14.8 12.3 30.6 17.5 49.9 18.1 19.3 0.5 39.5-8.7 48.6-25.7 7.6-14.1 6.9-31.1 3.7-46.8C189.4 743.9 180.9 723.4 166.8 707.3z" class="a"/><path d="M127 727c3.2 8.9 12.5 22.6 20.4 27.7 2.4 1.5 5.3 2.7 8 1.9 3.9-1.1 5.7-5.9 4.9-9.9s-3.2-7.1-3.2-7.1" class="a"/><path d="M95.3 678.9c-3.3 1.4-5.8 4.2-8.4 6.6 -2.6 2.5-4.5 6-4.3 9.6s2.9 7.2 6.5 7.6c1.4 0.2 2.9-0.1 4.3 0s3 0.8 3.4 2.2c0.6 1.9-1.3 3.6-2.8 4.8 -4.1 3.3-7.5 7.9-8 13.1 -0.5 5.2 2.7 11 7.9 12.1 3 0.6 6.1-0.4 9.2-1 3-0.6 6.5-0.7 8.9 1.3 3.1 2.7 2.6 7.7 1 11.5s-4 7.5-3.9 11.6c0.1 4.8 3.7 9.1 8.1 11s9.5 1.9 14.2 1.2c-1.4 4.2-2.7 8.5-2.9 12.9s1 9.1 4.1 12.2c3.9 3.9 10.1 4.8 15.4 3.5s10.1-4.3 14.8-7.2c-1.1 4.1 0.6 8.8 4.1 11.3s8.5 2.5 12 0.1c2.8-1.9 4.4-5 6.7-7.5s5.8-4.5 8.9-3.2" class="a"/><line x1="114.4" y1="690.8" x2="121.1" y2="693.7" class="a"/><line x1="175" y1="778.1" x2="175" y2="774.8" class="a"/><line x1="110.6" y1="709.3" x2="114.4" y2="709.3" class="a"/><line x1="177.8" y1="757.6" x2="179.6" y2="752.7" class="a"/><line x1="149.4" y1="778.1" x2="151.4" y2="774.8" class="a"/><line x1="162.1" y1="718.3" x2="165.2" y2="726.4" class="a"/><line x1="135" y1="699.3" x2="140.8" y2="702.9" class="a"/><line x1="143.7" y1="711.5" x2="147.5" y2="714.6" class="a"/><path d="M79.7 790.9c7.9 9.1 17.4 16.8 27.9 22.8" class="a"/><path d="M64.8 766.7c0.9 4.8 2.9 9.3 5.9 13.1" class="a"/><path d="M1059.8 2021.2c-35 6.8-63.1 5.7-69.8 5.3l-22.8-116.7c9-0.1 41.4-1 77.9-8.2 35.9-7 61.2-17.1 68.8-20.4l11.2 57.3v-20.8l-7.7-39.6c-0.1-0.6-0.5-1.1-1.1-1.4 -0.5-0.3-1.2-0.3-1.8 0 -0.3 0.1-27.7 12.8-70.2 21.1 -42.4 8.4-79.2 8.1-79.5 8.1 -0.6 0-1.2 0.3-1.6 0.7 -0.4 0.5-0.5 1.1-0.4 1.7l23.6 120.6c0.2 0.9 0.9 1.5 1.8 1.6 0.1 0 5.2 0.4 13.7 0.4 13 0 34.2-1 58.6-5.7 25.3-4.9 49.6-13.1 64.5-18.6v-4.3C1110.5 2007.7 1085.6 2016.1 1059.8 2021.2z" class="a"/><path d="M1113.4 1938.4c-0.2-1.1-1.3-1.8-2.3-1.6 -1.1 0.2-1.8 1.3-1.6 2.3l10 51.2c0.2 1 1 1.6 2 1.6 0.1 0 0.3 0 0.4 0 1.1-0.2 1.8-1.3 1.6-2.3L1113.4 1938.4z" class="a"/><path d="M1108.7 1914.4c-0.2-1.1-1.3-1.8-2.3-1.6 -1.1 0.2-1.8 1.3-1.6 2.3l2.6 13.5c0.2 1 1 1.6 2 1.6 0.1 0 0.3 0 0.4 0 1.1-0.2 1.8-1.3 1.6-2.3L1108.7 1914.4z" class="a"/><path d="M935.9 1806.5c-6.4 2-11.2 6.5-12.5 11.9 -1.6 6.4 2.3 14.1 6.8 17.5 0.4 0.3 0.8 0.4 1.2 0.4 0.6 0 1.2-0.3 1.6-0.8 0.7-0.9 0.5-2.1-0.4-2.8 -3.5-2.6-6.5-8.8-5.3-13.3 1.2-4.8 5.9-7.8 9.9-9.1 4.1-1.4 9.2 0 12.7 3.4 0.8 0.8 2.1 0.8 2.8 0 0.8-0.8 0.8-2.1 0-2.8C948.2 1806.4 941.4 1804.6 935.9 1806.5z" class="a"/><path d="M1097.2 1797.8c-11.1-2-19.5 3.7-29.3 11.4 -9.8 7.9-27.1 19.3-46.2 27.6 -19.7 8.6-30.5 10-37.5 4.7 -2.9-2.2-3.1-8.9-3.4-16 -0.4-10.5-1-23.6-9.8-31.9 -4.5-4.2-11.6-3.8-16.7-1.9 -3.3 1.2-6 4.3-7.1 8.5 -0.8 3.4-0.7 6.8-0.4 10 0.1 1.1 1 2 2.1 1.9s1.9-1 1.9-2.1c-0.2-2.9-0.3-6 0.3-8.8 0.8-2.8 2.5-4.9 4.6-5.7 1.4-0.5 8.5-2.8 12.6 1.1 7.6 7.1 8.1 18.8 8.5 29.1 0.3 8.4 0.6 15.7 5 19 9.6 7.4 23.6 3.7 41.5-4.2 19.4-8.5 37-20.1 47.1-28.1 9.3-7.3 16.6-12.3 26.1-10.6 9.6 1.8 17.9 9.2 20.6 18.5 2.2 7.6 1 16.4-3.4 24.2 -3.7 6.7-9.5 13.1-17.3 19 -23 17.1-40.1 26.8-64.7 29.2 -12.9 1.3-22.4-0.9-33.9-7.8 -5.5-3.3-11.9-9.7-17.6-15.4 -5-5.1-9.4-9.5-12.7-11.3 -5.6-3.1-10.4 0.7-14.2 3.7 -2 1.5-3.8 3-5.6 3.7 -6.2 2.3-12.3 2.3-17.1 0.1 -9.4-4.5-12.5-11.5-9.5-21.6 1.2-4.2 4.1-6 6.3-6.8 3.5-1.3 7.4-0.8 9.1 0.3 0.9 0.6 2.2 0.4 2.8-0.5s0.4-2.2-0.5-2.8c-3-2-8.4-2.4-12.7-0.8 -4.4 1.6-7.5 5-8.8 9.4 -3.5 11.9 0.5 21 11.7 26.3 5.8 2.7 12.9 2.7 20.2 0.1 2.4-0.9 4.6-2.6 6.7-4.3 4.1-3.2 6.7-5.1 9.8-3.4 2.8 1.6 7.2 6 11.8 10.6 5.8 5.9 12.4 12.5 18.3 16 10.1 6 19 8.7 29.5 8.7 2.2 0 4.5-0.1 6.8-0.3 28.1-2.7 46.9-15.1 66.8-30 8.3-6.2 14.4-13 18.4-20.2 4.8-8.8 6.2-18.7 3.7-27.3C1117.8 1808.4 1108.3 1799.8 1097.2 1797.8z" class="a"/><path d="M1005.2 1890l-1.8 0.3c-6.5 1.1-13.2 2.2-19.6 4.2 -8.2 2.6-14.6 6-19.6 10.5 -0.8 0.7-0.9 2-0.2 2.8 0.4 0.4 0.9 0.7 1.5 0.7 0.5 0 1-0.2 1.3-0.5 4.6-4.1 10.5-7.3 18.2-9.7 6.2-1.9 12.8-3 19.1-4.1l1.8-0.3c1.1-0.2 1.8-1.2 1.6-2.3C1007.4 1890.6 1006.3 1889.8 1005.2 1890z" class="a"/><path d="M1116.1 1875.4c-8.4-3.6-15.6-2.7-24.7-1.6 -2.9 0.4-5.9 0.7-9.3 1 -1.1 0.1-1.9 1-1.8 2.1s1 1.9 2.1 1.8c3.4-0.3 6.5-0.6 9.4-1 8.8-1.1 15.2-1.8 22.6 1.3 0.3 0.1 0.5 0.2 0.8 0.2 0.8 0 1.5-0.5 1.8-1.2C1117.5 1877 1117.1 1875.9 1116.1 1875.4z" class="a"/><path d="M1072.5 1818c-11.4 10.6-25.2 19-39.7 24.1 -1 0.4-1.6 1.5-1.2 2.6 0.3 0.8 1.1 1.3 1.9 1.3 0.2 0 0.4 0 0.7-0.1 15.1-5.3 29.3-13.9 41.1-24.9 0.8-0.8 0.9-2 0.1-2.8C1074.6 1817.3 1073.4 1817.2 1072.5 1818z" class="a"/><path d="M1023.8 1845.9c-1.6 0.4-3.2 0.8-4.8 1.1 -1.6 0.4-3.2 0.8-4.8 1.1 -1.1 0.2-1.8 1.3-1.5 2.4 0.2 0.9 1 1.6 1.9 1.6 0.1 0 0.3 0 0.4 0 1.6-0.4 3.2-0.8 4.8-1.1 1.6-0.4 3.1-0.8 4.7-1.1 1.1-0.2 1.8-1.3 1.5-2.4C1026 1846.4 1024.9 1845.7 1023.8 1845.9z" class="a"/><path d="M752.2 741.9c-31.1-27-74.1-48.2-115.1-52.4 -4.1 1.3-8.6 4.8-12.6 8.6 -3.2 2.9-2.4 7.4-3.4 11.6 -34.1 41.9-68.1 81.8-102 123.7 -6.8 8.3-13.8 17.5-13.6 28.2 0 3.9 2.2 8.6 6.1 8.7 1.4 0 2.7-0.6 4-1.2 10.5-5 103.4-59.5 107.1-61.5 9.4-4.9 19.4-8.8 29.3-12.6 32.3-12.5 64.5-25.2 98.2-33.1 0.1-0.1 0.3-0.9 0.2-0.6C752.3 754.9 753.1 748.5 752.2 741.9z" class="a"/><path d="M637.6 700.6c18 1.4 35.7 6.9 51.4 15.8" class="a"/><path d="M696.1 720.4c3.7 2.2 7.5 4.5 11.2 6.7" class="a"/><path d="M512 855.8c4.7 1.7 10.3 0.6 14-2.7" class="a"/><path d="M622.7 728c-8 6.1-8.6 17.5-5.1 20.5 7 6.1 16.8 3.4 26.1-7.3 5-5.8 1.8-14.5-0.9-17.2C639.2 720.3 628.6 723.4 622.7 728z" class="a"/><path d="M557.3 803.5c-5.7 4.4-6.1 12.5-3.6 14.6 5 4.3 12 2.4 18.6-5.2 3.6-4.2 1.3-10.4-0.6-12.3C569.2 798 561.7 800.2 557.3 803.5z" class="a"/><path d="M623.8 770.1c-2.2-1-5.2-1.7-7.2-0.2s-3.1 5.3-1.1 6.7c-5.3 1.6-10.5 3.3-15.8 4.9 0 0.1 2.1 8.8 4.2 12.6 4.1-1.3 15-6.5 15.6-6 0.7 0.5-0.2 2.3 0.4 3.1 1.3 1.8 3.7 1.9 5.6 0.7 4-2.3 6.4-7.2 5.8-11.8C630.7 775.5 629 772.4 623.8 770.1z" class="a"/><path d="M678.3 735.7c-3.7 1.1-4.7 4.3-6.8 8.6 -3.5-2.8-10.7-2.3-13.2 1.6 -2.5 3.9-2 9.8 0 13.8 2 4.2 5.3 6.8 9.2 8.2 3.4 1.3 12.2 1.3 17-1.1 4.6-2.1 8.1-8.5 8.6-13.4 0.4-4-0.9-10.3-3.1-13.6C687.8 736.5 682.1 734.6 678.3 735.7z" class="a"/><line x1="677.2" y1="746.7" x2="678.2" y2="745.8" class="a"/><line x1="670.3" y1="749.7" x2="668.7" y2="749.7" class="a"/><line x1="680.2" y1="749.9" x2="680.5" y2="749.4" class="a"/><line x1="671.5" y1="754" x2="670.9" y2="754" class="a"/><path d="M865.2 895.9c5.4-0.5 8.4 7 9.7 12.3s-1.9 11.2-6.9 13.2c-6.1 2.4-13.7-0.6-19.1 3.1 -5.5 3.8-5.1 11.9-3.8 18.5 1.4 6.5 2.8 14.2-1.7 19.2 -4.5 4.9-12.2 4.2-18.8 3.4s-16.9-2-20.3 3.7c-2.4 4 0.8 10.5 2.6 14.8s4 6.7 4.7 11.3c0.8 5.6 2.2 8.1-2.4 13.4 -3.7 4.2-13.6 8.2-18.9 6.4 -3.9-1.3-7.2-4.1-11.1-5.5 -3.9-1.4-9.1-0.9-11 2.7 -2 3.8 1.9 8.1 4.2 11.8 2.3 3.7 8.3 8.4 5.1 11.3" class="a"/><path d="M793.5 1048.9c-3.8 3.9-5 5.2-10.2 6.8 -8.4 2.6-18.5-3.2-20.5-11.8 -2.2-9.4 4.2-18.5 10.2-26.1 32.1-40.6 96.6-119.1 96.6-119.1 4.1-4.2 4.9-6.2 7.9-10.2 3.1-4 13.4-7.8 17.8-5.3 10.2 5.8 9.5 12.1 8.7 17.2" class="a"/><path d="M765.4 1064.6c3.3 5.8 10.8 8.9 17.2 7.2 6.5-1.7 13.3-8.9 11.7-15.4 -2.4-9.8-0.1-19.8 5.5-28.2 26.3-40.1 56.8-79.4 84.6-118.4 2.8-3.9 5.8-8 10.3-9.6 6.9-2.4 14.2 1.9 19.5 6.9 19.3 18.3 20.5 43.4 8.5 67.1 -10 19.6-26.2 43.4-38.5 60.1 -18.6 25.1-27.9 46-62.8 64.8 -24 12.9-42.3 2.4-57.5-3 -15.1-5.3-33.9-35.7-31.5-56.3 2.4-20.6 10.5-36 23.1-52.4 24.3-31.8 47.1-63.6 76.8-91 8-7.4 19.1-18.8 29.7-16.1 10.8 2.8 10.1 7.4 12.2 10.9" class="a"/><path d="M810.4 1056.4c-3.7-5.2-4.2-12.5-1.1-18" class="a"/><path d="M814.3 1031.5c25.2-32.7 48-67.3 68.2-103.3" class="a"/><line x1="836.2" y1="1035.8" x2="838.8" y2="1042.4" class="a"/><line x1="854.5" y1="1010.2" x2="857" y2="1016.4" class="a"/><line x1="870.7" y1="984.3" x2="872.8" y2="989.7" class="a"/><line x1="883.4" y1="966.1" x2="885.4" y2="971.3" class="a"/><line x1="854.1" y1="1032.6" x2="856.8" y2="1039.4" class="a"/><line x1="870.8" y1="1005.2" x2="872.8" y2="1010.2" class="a"/><line x1="883.5" y1="985.5" x2="886" y2="991.8" class="a"/><path d="M774.4 1049.8c-1.3-1.8-2.3-3.9-2.9-6.1" class="a"/><path d="M770.2 1047.8c1.8-0.5 3.5-1 5.3-1.5" class="a"/><path d="M153.6 1730.6c-20.1-14.9-30.7-16.8-49-12 -8.4 2.2-31.1 18.4-32 46.4 -0.3 11.5 0.3 25.9 5.3 34.7 4 7 15.4 18 29.2 18.9 16.1 1 24.5-7.5 36.2-14.9C158.5 1794 189.1 1756.9 153.6 1730.6z" class="a"/><path d="M107.2 1725.8c-9.3 3.5-16.7 11.6-19.4 21.2" class="a"/><path d="M86.2 1753.5c-1.5 3.9-2.4 8.1-2.7 12.3" class="a"/><path d="M134.5 1729.6c3.8 5.6 9.5 10 16 12.2" class="a"/><path d="M141.2 1736.4c9.9-12.7 26.3-20 42.3-18.8" class="a"/><path d="M458.8 1781.4C458.8 1781.4 458.8 1781.5 458.8 1781.4 458.9 1781.5 458.9 1781.5 458.8 1781.4z" class="a"/><path d="M655.2 1563.7c-6.9-10.3-11.3-23.5-7.1-35.2 -6.8-4.4-13.6-8.8-20.4-13.1 -2.7 6.4-5.4 12.8-8.1 19.2 16.7 19.9 25.5 35.9 23 61.8 0 0-20.1 92.1-55.3 118.2s-58.1 43.6-114.5 38.6l-5.4 1.6c-2.4 1.1-11.7-2.2-13.1-4.4 -3.6 4.8-7.3 9.7-10.9 14.5 5.1 5.5 14.7 16 15.4 16.6v-0.1c0.1 0.1 0.1 0.1 0 0.1 1.8 17.1 29.7 32.9 46.6 36.3 16.8 3.3 101.6 17.7 167.8-79.7 12.5-18.4 24.4-61.8 26-84s-7.8-43.1-20.6-61.4C671.5 1582.5 662.2 1574 655.2 1563.7z" class="a"/><path d="M587.4 1727.4c18.4-15.8 33.6-35.1 44.7-56.6" class="a"/><path d="M558.8 1745.7c7.3-4.1 14.5-8.1 21.8-12.2" class="a"/><path d="M786.9 1560.1c-11.1-3-23.3-5.3-31-13.8 -5.9-6.5-8-15.5-12.2-23.3 -3.2-6-9.4-11.9-16-10.1 -4.7 1.2-7.6 6.1-9.1 10.8 -4.2 13.5 5.7 31.8 10.3 39s13.3 26.1 15 38.5 2.5 25 7 36.6 13.8 22.3 26.1 24.3c6.7 1.1 13.5-0.5 20.1-2.2 15.8-4.2 32.6-10.8 40.8-25 8.7-15.2 4.6-35.4-6.4-48.9C820.4 1572.5 803.8 1564.7 786.9 1560.1z" class="a"/><path d="M806 1645.5c3.1-3.2 8.1-4.4 12.4-3 -0.3 0.4-0.6 0.7-0.9 1.1" class="a"/><path d="M766.5 1648.9c-8-7.7-12.6-18.9-12-30" class="a"/><path d="M725.1 1539.6c-1.6-4.2-2.1-8.8-1.5-13.3" class="a"/><path d="M727.4 1513.1c-2-17.4 0.4-35.3 6.7-51.7" class="a"/><line x1="786.9" y1="1594.2" x2="790.9" y2="1597.8" class="a"/><line x1="798.5" y1="1581.2" x2="801.7" y2="1584" class="a"/><line x1="797.4" y1="1590.5" x2="801.8" y2="1594.5" class="a"/><line x1="796.3" y1="1609.2" x2="801.4" y2="1613.8" class="a"/><line x1="814" y1="1596" x2="817.9" y2="1599.6" class="a"/><line x1="808.3" y1="1604.5" x2="811.2" y2="1607.1" class="a"/><path d="M245 572.9c7.7 21.7 15.4 43.5 23.1 65.2 2.2 6.3 5.2 13.4 11.5 15.6 5.4 1.9 11.6-0.7 15.6-4.8 4-4.2 6.2-9.6 8.3-15 8.1-20.3 16.2-40.5 24.3-60.8 4.3-10.9 8.8-22.1 8.5-33.9 -0.2-11.7-6.3-24.1-17.4-28.2 -3 28.2-11.8 55.8-25.6 80.6 -3.6-13 1.6-26.5 3.5-39.9 1.9-13.3-1.8-30-14.6-34 -13.1-4-25.2 7.7-33.9 18.3" class="a"/><path d="M354.2 404.5c28.6-24.9 27.6-20.9 57.9-31.5s64.1-22.4 78.8-51c3.5-6.7 6.1-14.7 12.7-18.5 9.4-5.5 22.5 1.7 25.8 12 3.3 10.4-1.2 21.9-8.3 30.1s-16.6 14-25.6 20.2c-31.3 21.7-57.3 50.8-75.4 84.3 -7.7 14.2-14.1 29.5-25.2 41.3 -11 11.8-28.4 19.6-43.5 14 -21.4-7.8-27.4-28.9-23.7-51.3" class="a"/><path d="M252.7 355.3c5.4-29 10.8-58 16.2-87 2.4-12.6 7.6-28 20.4-29.3 11.6-1.1 20.3 11.7 20.2 23.3 -0.1 11.6-6 22.3-10.1 33.2 -4.1 10.9-6.2 24 0.5 33.5" class="a"/><path d="M185.9 504.5c16.9-61.8 60.9-115.6 118.1-144.3" class="a"/><path d="M185.9 637.9c25.3 22.5 70.5 47.6 103.9 41.7 22.6-4 40.5-21.3 54.4-39.6 34.8-45.8 56.4-96.8 55.5-154.3" class="a"/><path d="M234.2 669.2c-27.1 8.1-53.7 12.6-77.7-2.4 -111.1-69.8-54.1-156-29.8-194.3 26.4-41.7 56.3-68 93.1-94.4s78.6-44.9 120.2-62.8c19.4-8.3 39.4-31.2 56.4-43.6 14 6.8 22.2 23.7 18.9 38.9 -3.3 15.2-17.8 27.2-33.3 27.6 9.2 11.4 18.5 23.4 25.7 36.3" class="a"/><line x1="368.8" y1="471.4" x2="372.7" y2="471.4" class="a"/><line x1="354.6" y1="480.2" x2="360.4" y2="480.2" class="a"/><line x1="368.8" y1="488.3" x2="375" y2="488.3" class="a"/><line x1="113.5" y1="595.5" x2="111.7" y2="587.8" class="a"/><line x1="139.3" y1="585" x2="137.8" y2="574" class="a"/><line x1="122.1" y1="555.4" x2="122.1" y2="565.8" class="a"/><line x1="212.9" y1="595.4" x2="216.7" y2="604.2" class="a"/><line x1="227.9" y1="599.2" x2="233.5" y2="607.8" class="a"/><line x1="202.5" y1="615.4" x2="207.7" y2="623.6" class="a"/><line x1="384.2" y1="297.1" x2="394.9" y2="282.6" class="a"/><path d="M515 2212.9c-8.7 11.8-17.7 24-21.2 38.2s-0.2 31.2 11.7 39.8c10.5 7.5 25.6 6.7 36.5-0.2s17.9-18.9 20.9-31.4c3-12.6 1.1-28.3-0.5-41.1" class="a"/><path d="M561.3 2161c-20.5-8-45.6-8.3-62.5 5.8 -3.9 3.3-7.3 7.4-8.6 12.3 -2.1 8 1.9 16.6 8 22.2 6.1 5.6 13.9 8.8 21.6 11.9 -0.2 0 21.6 5.6 39.9 5.1 9.3-0.2 19.5-1.9 25.7-8.9 7.1-7.9 6.6-20.7 1-29.7S571.2 2164.8 561.3 2161z" class="a"/><path d="M499.7 2185.7c1.4-10.5 10.4-19.5 20.9-21" class="a"/><path d="M494.5 2272.9c2-7.7 6.1-14.9 11.8-20.5 -1.4 7.6-2.7 15.2-4.1 22.9 2.9-2.7 5.8-5.5 8.7-8.2 0.9-0.8 2-1.7 3.2-1.4 1.2 0.4 1.6 1.9 1.8 3.2 0.7 5 1.3 10 2 15 2.3-2.6 4.6-5.3 6.9-7.9 0.7-0.9 1.6-1.8 2.8-1.9 1.9-0.2 3.2 2.1 3.2 4.1 0 2.1-0.7 4.1-0.6 6.2 0.1 2.1 1.7 4.3 3.7 4.1 1-0.1 1.9-0.9 2.7-1.6 5.2-5 9.6-10.8 13.1-17.1 1.4 4.3 1.5 9.1 0.2 13.4" class="a"/><path d="M526.7 2163.3c1.9-0.3 3.7-0.6 5.6-0.9" class="a"/><path d="M36.3 1201.2c6.2-21.7 3.1-44.8 0.1-60.2 -1.4-7.6-3.2-15.2-4.9-22.6 -2.7-11.8-5.5-23.9-7-36 -7.1-56.6-9.7-119.3 49.2-149.9 -0.3 11.1-7 20.7-14 30.8 -4.3 6.3-8.8 12.7-11.8 19.7 -9.3 21.9-2.5 46.8 4.9 63.8 3.6 8.2 7.8 16.2 11.9 24 5.7 10.9 11.6 22.1 15.7 33.8 3.8 11 10.8 38.9-4.7 59.7 -0.5 0.7-0.5 1.7 0 2.4s1.5 1 2.3 0.6c17.4-6.9 25-27.9 23.7-44.9 -0.7-8.8-6-27.3-11.6-47 -5.3-18.6-10.8-37.8-11.5-46.2 -2.3-28.1 10.4-51.5 32.1-59.6 1-0.4 1.6-1.5 1.2-2.6 -0.4-1-1.5-1.6-2.6-1.2 -23.5 8.7-37.1 33.7-34.7 63.6 0.7 8.8 6 27.3 11.6 47 5.3 18.6 10.8 37.8 11.5 46.2 1.1 13.2-3.7 28.8-14.5 37.1 7.8-15.2 8.3-35.3 1-56.5 -4.1-12-10.1-23.3-15.9-34.3 -4.1-7.7-8.2-15.7-11.7-23.7 -7.1-16.3-13.7-40.1-4.9-60.6 2.8-6.6 7.2-12.9 11.4-19 7.7-11.1 15.7-22.6 14.6-36.4 -0.1-0.7-0.4-1.3-1-1.6s-1.3-0.4-1.9-0.1c-29.1 14.1-46.8 36.6-54.1 68.7 -6.2 27.6-3.8 58-0.1 86.6 1.6 12.3 4.4 24.5 7.1 36.4 1.7 7.3 3.4 14.9 4.8 22.4 2.8 15.1 5.9 37.5-0.1 58.4 -5.1 17.9-16.7 32.3-31 39 9.2-14.3 12-30.6 12.7-42.4 1-17-1.4-34.1-3.8-50.5 -1.9-13.5-4.5-27.1-6.9-40.3 -1.2-6.3-2.3-12.7-3.5-19.2v22.5c2.3 12.3 4.6 25 6.4 37.6 2.3 16.3 4.8 33.1 3.8 49.7 -0.6 10.4-3 24.5-10.2 37.3v10.3C16.8 1237.6 30.5 1221.5 36.3 1201.2z" class="a"/><path d="M36.4 907.5c29.8-18.6 60-29.6 86.7-39.4 42.2-15.5 78.7-28.8 101.4-65.4 27.4-44.1 82.3-61.1 136.3-74.6 19.1-4.9 38.3-9.7 57.4-14.5s38.3-9.7 57.4-14.5c5.6-1.4 10.6-2.5 15.3-1.2 8.7 2.5 12.8 12.9 11.9 21.6 -1.1 9.5-6.7 18.2-11.7 25.8 -4.8 7.5-9.7 15-14.6 22.4 -4.9 7.5-9.8 15-14.6 22.5 -0.6 0.9-0.3 2.2 0.6 2.8s2.2 0.3 2.8-0.6c4.8-7.5 9.7-15 14.6-22.4 4.9-7.5 9.8-15 14.6-22.5 5.2-8 11.1-17.1 12.3-27.6 1.2-10.3-4-22.8-14.7-25.8 -5.6-1.6-11.4-0.3-17.3 1.2 -19.1 4.9-38.3 9.7-57.4 14.5s-38.3 9.7-57.4 14.5c-54.7 13.8-110.5 31-138.7 76.4 -22 35.4-57.8 48.6-99.4 63.8 -26.9 9.8-57.3 21-87.5 39.8 -0.1 0-0.1 0.1-0.2 0.1 -15.6 12.4-26.5 23.8-34 34.6v7.1C7.3 934.2 18.8 921.6 36.4 907.5z" class="a"/><path d="M401.2 875.2c-12.5 13.7-25 24.4-38.2 32.9 -34.8 22.2-87.8 29.5-121.7 0.6 -3.3-2.8-6.5-6-9.5-9.1 -7-7.1-14.3-14.5-23.8-18.3 -8.5-3.5-19.6-1.9-26.9 3.7 -5.2 4-7.7 9.4-7 15.3 0.1 1.1 1.1 1.9 2.2 1.7 1.1-0.1 1.9-1.1 1.7-2.2 -0.7-5.7 2.6-9.5 5.4-11.7 6.2-4.7 15.9-6 23-3.1 8.8 3.5 15.4 10.2 22.5 17.4 3.1 3.2 6.3 6.4 9.8 9.4 15.4 13.2 35.5 20.1 58.3 20.1 1.2 0 2.5 0 3.8-0.1 22.2-0.7 45.1-7.9 64.4-20.2 13.5-8.7 26.3-19.6 39-33.5 0.7-0.8 0.7-2.1-0.1-2.8C403.2 874.4 401.9 874.4 401.2 875.2z" class="a"/><path d="M442 704.1c-29.2-19.7-77.6-28-112.4-19.2 -35.5 8.9-53.3 43-69 73 -0.5 1-0.1 2.2 0.8 2.7 0.3 0.2 0.6 0.2 0.9 0.2 0.7 0 1.4-0.4 1.8-1.1 15.3-29.3 32.7-62.5 66.4-71 33.9-8.5 80.8-0.5 109.2 18.6 0.9 0.6 2.2 0.4 2.8-0.5C443.1 706 442.9 704.7 442 704.1z" class="a"/><path d="M467.8 743.5c-1-0.4-2.2 0.2-2.5 1.3 -4.9 14.4-5.4 29.9-5.9 44.9 -0.1 3.1-0.2 6.2-0.3 9.3 -0.7 15.8-2.9 35.7-14.2 50.2C431 867.3 407 873.6 381.5 879c-27.9 5.8-59.2 12.3-89.3 8.2 54.6-26.2 105.3-63.4 146.9-107.7 0.8-0.8 0.7-2.1-0.1-2.8 -0.8-0.8-2.1-0.7-2.8 0.1C393.4 822.1 341 860 284.6 886.2c-0.8 0.4-1.3 1.2-1.1 2.1 0.1 0.9 0.8 1.6 1.6 1.7 8.9 1.7 17.9 2.4 26.9 2.4 24.1 0 48.3-5 70.3-9.6 26.3-5.5 51.1-12.1 65.8-31.2 11.9-15.4 14.3-36.1 15-52.4 0.1-3.1 0.2-6.2 0.3-9.3 0.5-14.7 1-29.8 5.7-43.7C469.4 745 468.9 743.8 467.8 743.5z" class="a"/><path d="M361.6 742.5c-37.6 7.9-73.8 23.9-104.9 46.2 -0.9 0.6-1.1 1.9-0.5 2.8 0.4 0.5 1 0.8 1.6 0.8 0.4 0 0.8-0.1 1.2-0.4 30.6-22 66.3-37.7 103.3-45.6 1.1-0.2 1.8-1.3 1.5-2.4C363.7 743 362.6 742.3 361.6 742.5z" class="a"/><path d="M399.5 736.9c-3.8 0.9-7.6 1.7-11.4 2.6 -3.8 0.9-7.5 1.7-11.3 2.6 -1.1 0.2-1.8 1.3-1.5 2.4 0.2 0.9 1 1.6 1.9 1.6 0.1 0 0.3 0 0.4 0 3.8-0.9 7.6-1.7 11.4-2.6 3.8-0.9 7.5-1.7 11.3-2.6 1.1-0.2 1.8-1.3 1.5-2.4C401.7 737.4 400.6 736.7 399.5 736.9z" class="a"/><path d="M205.4 890c-9.8-2.8-19.9 2.8-22.6 12.4 -1.3 4.7-0.7 9.6 1.7 13.8s6.3 7.3 11.1 8.6c1.7 0.5 3.4 0.7 5.1 0.7 8 0 15.3-5.2 17.6-13.1 1.3-4.7 0.7-9.6-1.7-13.8C214.1 894.4 210.2 891.3 205.4 890zM214.4 911.3c-2.1 7.5-10 11.8-17.7 9.7 -3.7-1-6.8-3.4-8.7-6.8 -1.9-3.3-2.4-7.1-1.3-10.7 1.7-6.2 7.5-10.2 13.7-10.2 1.3 0 2.7 0.2 4 0.6 3.7 1 6.8 3.4 8.7 6.8C214.9 903.9 215.4 907.7 214.4 911.3z" class="a"/><path d="M200.1 903.2c-2.7 0-4.9 2.2-4.9 4.9s2.2 4.9 4.9 4.9 4.9-2.2 4.9-4.9S202.8 903.2 200.1 903.2zM200.1 909c-0.5 0-0.9-0.4-0.9-0.9s0.4-0.9 0.9-0.9 0.9 0.4 0.9 0.9S200.6 909 200.1 909z" class="a"/><path d="M246 1093.5c-2.3-3.5-4.7-7-6.9-10.4 -17.5-26.6-33.8-55.6-34.7-87.1 -0.8-29.7 21.7-67.2 53.1-72.9 1.1-0.2 1.8-1.2 1.6-2.3 -0.2-1.1-1.2-1.8-2.3-1.6 -15.4 2.8-29.9 12.9-40.8 28.4 -10.3 14.7-16 32.4-15.6 48.5 0.9 32.5 17.5 62 35.3 89.1 2.3 3.5 4.6 7 7 10.5 15.3 22.8 31.1 46.4 38.4 73 13.8 50-7.6 107.6-49.9 137.2 19.4-36.5 36.1-74.9 26.2-112.5 -7.1-27-22.8-50.2-37.2-69.4 -3.4-4.5-6.9-9.4-10.7-14.6 -17.2-24-36.8-51.2-57.4-59 -1-0.4-2.2 0.1-2.6 1.2 -0.4 1 0.1 2.2 1.2 2.6 19.5 7.4 38.7 34.1 55.6 57.6 3.8 5.2 7.3 10.2 10.7 14.7 14.2 18.9 29.6 41.7 36.6 68 10.2 38.5-9 78.6-29.5 116.4 -0.4 0.8-0.3 1.8 0.4 2.4 0.4 0.4 0.9 0.6 1.4 0.6 0.4 0 0.7-0.1 1-0.3 48.1-29 73.1-91.8 58.2-145.9C277.4 1140.5 261.4 1116.6 246 1093.5z" class="a"/><path d="M198.6 1126.4c-2.9-5-6-10.1-8.7-15.3l-1.4-2.7c-6.6-12.6-12.4-23.6-10.5-37.5 0.1-1.1-0.6-2.1-1.7-2.2 -1.1-0.1-2.1 0.6-2.2 1.7 -2.1 15.2 4 26.7 10.9 39.9l1.4 2.7c2.8 5.3 5.8 10.5 8.8 15.5 4.9 8.3 10 16.9 13.7 25.8 13.6 32.9 9.4 74.6-11 108.9 -22.8 38.1-59.2 60.5-85.8 72.6 -1.7 0.8-3.5 1.5-5.2 2.3 -8.1 3.6-16.5 7.2-23.9 12.6 -6.1 4.5-16.6 14.1-17.7 27.9 -0.4 5.5-1.4 8-3.2 8 -2 0.1-3.3-3.3-3.5-5.8 -1.5-17.6 9.1-32.4 15.5-39.7 9-10.2 20.2-19.6 34.3-29 73.1-48.3 82.5-85.4 81.6-103.2 -2-39.6-19.7-59.9-33.9-76.2 -3.4-3.9-6.6-7.6-9.3-11.2 -17.1-22.9-65.7-98.7-62.4-127.6 0.1-1.1-0.7-2.1-1.8-2.2 -1.1-0.1-2.1 0.7-2.2 1.8 -3.4 30.4 45.1 106.2 63.2 130.4 2.8 3.7 6 7.5 9.4 11.4 13.8 15.9 31 35.6 33 73.8 0.9 16.9-8.4 52.4-79.8 99.6 -14.4 9.5-25.9 19.2-35.1 29.6 -6.9 7.8-18.1 23.6-16.5 42.7 0.4 4.6 2.9 9.4 7.3 9.4 0.1 0 0.2 0 0.4 0 6.2-0.3 6.7-8.3 7-11.7 0.7-8.9 6.6-18 16.1-25 7-5.1 15.2-8.7 23.1-12.2 1.7-0.8 3.5-1.5 5.2-2.3 27.1-12.3 64.3-35.2 87.6-74.2 21-35.3 25.3-78.4 11.2-112.5C208.7 1143.5 203.6 1134.8 198.6 1126.4z" class="a"/><path d="M49.7 908.3c-16.5 5.5-30.5 17.6-38.5 33.2 -0.5 1-0.1 2.2 0.9 2.7 0.3 0.1 0.6 0.2 0.9 0.2 0.7 0 1.4-0.4 1.8-1.1 7.4-14.7 20.6-26.1 36.1-31.2 1-0.3 1.6-1.5 1.3-2.5C51.9 908.5 50.8 907.9 49.7 908.3z" class="a"/><path d="M100.8 1011.1c-0.2-1.1-1.3-1.8-2.3-1.6 -1.1 0.2-1.8 1.3-1.6 2.3 1.8 9.5 5.8 18.7 11.4 26.6 0.4 0.5 1 0.8 1.6 0.8 0.4 0 0.8-0.1 1.2-0.4 0.9-0.6 1.1-1.9 0.5-2.8C106.3 1028.7 102.6 1020 100.8 1011.1z" class="a"/><path d="M272.8 1181c-1.1 0.3-1.7 1.4-1.4 2.5 4 13.5 4 28.4 0 41.9 -0.3 1.1 0.3 2.2 1.4 2.5 0.2 0.1 0.4 0.1 0.6 0.1 0.9 0 1.7-0.6 1.9-1.4 4.2-14.2 4.2-29.9 0-44.1C275 1181.3 273.9 1180.7 272.8 1181z" class="a"/><path d="M287.5 1731.4c-5-13.7-4.4-28.7 2.9-41.6 14.2-25.1 48.6-32.6 76.8-16.7s39.6 49.2 25.4 74.4c-8.1 14.4-22.9 23-39.4 24.7" class="a"/><path d="M285.2 1723.2l-75.8 103.9c0 0 1.5 31 31.7 47.1s58.4 13.1 58.4 13.1l59.4-115.8" class="a"/><path d="M304.5 1745.3c8 6.4 16.9 11.6 26.5 15.3" class="a"/><line x1="246.2" y1="1793" x2="220.6" y2="1827.1" class="a"/><line x1="252" y1="1786.5" x2="258" y2="1779" class="a"/><line x1="345.9" y1="1681.8" x2="350.9" y2="1684.6" class="a"/><line x1="364" y1="1692" x2="369.3" y2="1695" class="a"/><line x1="358.3" y1="1679.4" x2="364.5" y2="1682.9" class="a"/><path d="M287.3 1776.6c7.5 7.9 17.1 13.7 27.6 16.7" class="a"/><path d="M558.2 1362.5l-127.1 151.8c0 0 80 56.4 137-21.1C621.9 1419.9 558.2 1362.5 558.2 1362.5z" class="a"/><path d="M515.4 1519.7c23.5-10.8 43-30.3 53.8-53.8" class="a"/><path d="M573.8 1441.8c-0.6 4.4-1.2 8.8-1.8 13.2" class="a"/><line x1="492.9" y1="1461.2" x2="498.3" y2="1465.7" class="a"/><line x1="504.3" y1="1447.5" x2="509.7" y2="1452" class="a"/><line x1="515.4" y1="1432.7" x2="520.8" y2="1437.2" class="a"/><line x1="527.3" y1="1416.8" x2="532.7" y2="1421.3" class="a"/><line x1="479.6" y1="1476.3" x2="485" y2="1480.8" class="a"/><line x1="496.5" y1="1478.4" x2="502.4" y2="1483" class="a"/><line x1="507.4" y1="1463.4" x2="513.4" y2="1467.9" class="a"/><line x1="519.4" y1="1447.5" x2="525.4" y2="1452" class="a"/><line x1="530.9" y1="1433.8" x2="536.9" y2="1438.3" class="a"/><line x1="513.4" y1="1477.5" x2="519.4" y2="1482" class="a"/><line x1="524.3" y1="1463.7" x2="530.3" y2="1468.2" class="a"/><line x1="533.9" y1="1449.8" x2="539.9" y2="1454.3" class="a"/><path d="M437.7 1506c8.6 6 18.5 10.2 28.8 12.2" class="a"/><polygon points="610.4 1263.2 652.3 1439.9 727.3 1428.4 715.8 1247.1 " class="a"/><rect x="591.9" y="1228.1" transform="matrix(0.9885 -0.1512 0.1512 0.9885 -180.2108 113.7743)" width="132.3" height="27.6" class="a"/><polygon points="602 1208.7 595.9 1237.5 716.4 1219.1 705.5 1192.9 " class="a"/><path d="M675.5 1316c-2.4-1.3-9.4 1.7-12.1 4.2 -3.7 3.5-5.3 7.5-6 12.4 -0.6 5.1 2.9 18.1 6.6 21.2 0 0-0.1-6.7 1.2-9.6 1.4-3 3.8-5.3 6-7.8s4.4-5.1 5.4-8.2C678 1323.9 680.1 1318.9 675.5 1316z" class="a"/><path d="M683.2 1321.5c0 0 0.4 6.7-0.8 9.7s-3.4 5.5-5.5 8.1 -4.2 5.3-5 8.5c-1.1 4.4-0.4 9.9 2.9 12.9 4.8 2.1 9-3 11.3-6 3.2-4.1 4.4-6.8 4.8-12.4C691.2 1337.6 687 1324.4 683.2 1321.5z" class="a"/><line x1="653.8" y1="1411.5" x2="634.9" y2="1336.9" class="a"/><line x1="634" y1="1330.7" x2="631.3" y2="1323.4" class="a"/><line x1="608" y1="1211.8" x2="603.7" y2="1231.7" class="a"/><line x1="710" y1="1248" x2="710.2" y2="1279.8" class="a"/><path d="M643.3 1193c8.6-8.2 17.4-16.9 21.5-28s2-25.6-7.9-32c-5.5-3.5-12.3-4.2-18.8-3.9 -10.1 0.4-22.1 4.7-23.6 14.7 -0.9 6.1 3.4 12.5 9.4 14s12.8-2.1 14.9-7.9" class="a"/><path d="M672.2 1182.3c4.9-9.9 9.8-20.1 11.2-31s-1.3-23-9.7-30.3c-5.1-4.4-11.6-6.5-17.9-8.7 -6.3-2.2-12.8-4.6-17.6-9.2s-7.4-12.2-4.4-18.2" class="a"/><path d="M856.4 704.9c-10.5-3.8-21-6.2-31.8-6.3 -10.5-0.2-21.2 1.8-32.2 6.4 -20.4 8.4-24.3 32.7-14.5 49.1 0 0 16.3 25.7 21.4 37.8 3 6.9 4.8 11.4 14 12.5 15.4 1.8 23.4-11.4 29.3-19.2 8.4-11.1 21.9-19.6 28.8-31.3C881 737.5 877.3 712.4 856.4 704.9z" class="a"/><line x1="791.2" y1="724.1" x2="795.6" y2="738.5" class="a"/><line x1="823.4" y1="724.1" x2="823.4" y2="738.7" class="a"/><line x1="856.7" y1="725.6" x2="849.8" y2="738.5" class="a"/><line x1="800.6" y1="749.6" x2="804.1" y2="761.4" class="a"/><line x1="822.1" y1="748" x2="822.1" y2="759.8" class="a"/><line x1="846.7" y1="749.2" x2="840.7" y2="760.4" class="a"/><line x1="812.8" y1="769.4" x2="814.5" y2="780.1" class="a"/><line x1="832.3" y1="769.1" x2="828.7" y2="780.6" class="a"/><path d="M809 699.9c-5.1-4.3-9.1-7.6-14.2-11.9 9.9 1 19.5 4.5 27.8 10" class="a"/><path d="M829.6 698.7c5-6.8 20.3-10.2 28.3-13 0.3 5.5-8.3 10.5-8.5 16" class="a"/><path d="M839.4 689.9c-4.5-5.3-7.5-10-13.3-13.9 -6 4.7-16.2 15.6-16.2 15.6" class="a"/><path d="M376.6 1503.4c-5.1-11.8-20.2-19.6-32.5-11.2 -6.1 4.2-11.6 9-15.9 14.8 -4.2 5.6-7.3 12.2-9.2 20 -3.4 14.4 8.2 26.1 21 27.2 0 0 20.4 1.3 28.9 3.3 4.9 1.1 8.1 1.9 12.3-2.7 7.1-7.7 3-17.3 1.1-23.5C379.5 1522.4 380.3 1511.7 376.6 1503.4z" class="a"/><line x1="329" y1="1535.2" x2="338.6" y2="1538.5" class="a"/><line x1="341.6" y1="1517.7" x2="349.6" y2="1523.5" class="a"/><line x1="355.6" y1="1500.2" x2="359.9" y2="1509.1" class="a"/><line x1="346.5" y1="1540.1" x2="354.3" y2="1542.9" class="a"/><line x1="354.1" y1="1527.8" x2="360.5" y2="1532.5" class="a"/><line x1="364.5" y1="1514.9" x2="368.1" y2="1522.6" class="a"/><path d="M322.9 1516.1c-4.3 1.1-7.7 1.9-12 3 4.4-5 10.1-8.8 16.4-11.2" class="a"/><path d="M330.3 1504.4c-1.7-5.4 2.4-15 4.1-20.5 3.1 2 2.4 8.7 5.4 10.9" class="a"/><path d="M1053.1 2170.1c-35.2-17-74.1-21-115.7-11.9 -41.6 9.2-75.2 29.1-99.7 59.4 -20.3 25.1-30 51.8-34.5 69.8 -1.2 4.8 0.1 9.8 3.6 13.3 2.7 2.8 6.4 4.3 10.2 4.3 1 0 2.1-0.1 3.1-0.3l286.5-63.1c4.9-1.1 8.7-4.5 10.4-9.2 1.6-4.7 0.7-9.8-2.5-13.6C1102.6 2204.3 1082.3 2184.2 1053.1 2170.1zM819.6 2302.7L819.6 2302.7 819.6 2302.7zM1113.2 2231c-1.2 3.4-4 5.9-7.5 6.6l-286.5 63.1c-3.5 0.8-7-0.3-9.5-2.9 -2.5-2.5-3.4-6.1-2.6-9.5 7.8-31 36.3-105.4 131.2-126.2 14.9-3.3 28.9-4.7 42-4.7 67 0 109.9 38.2 131.1 63.9C1113.7 2224 1114.3 2227.7 1113.2 2231z" class="a"/><path d="M815.4 2367.5c-2.1-0.3-15.8-2.5-18.3-13.9 -2.5-11.6 9-18.7 10.9-19.8l317.1-69.8v-4.1l-318.2 70c-0.2 0-0.4 0.1-0.5 0.2 -0.7 0.4-16.5 9-13.1 24.3 3.4 15.2 21.4 17 22.2 17 0.1 0 0.1 0 0.2 0 0.1 0 0.3 0 0.4 0l309.1-68v-4.1L815.4 2367.5z" class="a"/><path d="M821.1 2302.4c-0.2-1.1-1.3-1.8-2.4-1.5 -1.1 0.2-1.8 1.3-1.5 2.4l5.6 25.3c0.2 0.9 1 1.6 2 1.6 0.1 0 0.3 0 0.4 0 1.1-0.2 1.8-1.3 1.5-2.4L821.1 2302.4z" class="a"/><path d="M1106.9 2239.5c-0.2-1.1-1.3-1.8-2.4-1.5 -1.1 0.2-1.8 1.3-1.5 2.4l5.6 25.3c0.2 0.9 1 1.6 2 1.6 0.1 0 0.3 0 0.4 0 1.1-0.2 1.8-1.3 1.5-2.4L1106.9 2239.5z" class="a"/><path d="M848.8 2348.7l-10.6 2.3c-1.1 0.2-1.8 1.3-1.5 2.4 0.2 0.9 1 1.6 2 1.6 0.1 0 0.3 0 0.4 0l10.6-2.3c1.1-0.2 1.8-1.3 1.5-2.4C850.9 2349.1 849.9 2348.5 848.8 2348.7z" class="a"/><path d="M898.6 2329.5l-39.5 8.7c-1.1 0.2-1.8 1.3-1.5 2.4 0.2 0.9 1 1.6 2 1.6 0.1 0 0.3 0 0.4 0l39.5-8.7c1.1-0.2 1.8-1.3 1.5-2.4C900.8 2330 899.7 2329.3 898.6 2329.5z" class="a"/><path d="M860.3 2327.2l-10.1 2.2c-1.1 0.2-1.8 1.3-1.5 2.4 0.2 0.9 1 1.6 2 1.6 0.1 0 0.3 0 0.4 0l10.1-2.2c1.1-0.2 1.8-1.3 1.5-2.4C862.4 2327.7 861.3 2327 860.3 2327.2z" class="a"/><path d="M913.1 2334.6l-16.7 3.7c-1.1 0.2-1.8 1.3-1.5 2.4 0.2 0.9 1 1.6 2 1.6 0.1 0 0.3 0 0.4 0l16.7-3.7c1.1-0.2 1.8-1.3 1.5-2.4C915.2 2335 914.1 2334.3 913.1 2334.6z" class="a"/><path d="M1124.7 2288l-70.3 15.5c-1.1 0.2-1.8 1.3-1.5 2.4 0.2 0.9 1 1.6 2 1.6 0.1 0 0.3 0 0.4 0l69.8-15.4v-4.1C1124.9 2287.9 1124.8 2288 1124.7 2288z" class="a"/><path d="M1107.9 2272.7c-1.1 0.2-1.8 1.3-1.5 2.4 0.2 0.9 1 1.6 2 1.6 0.1 0 0.3 0 0.4 0l16.2-3.6v-4.1L1107.9 2272.7z" class="a"/><path d="M972.6 2349.5c-44.5 8.9-114.7 24.9-142.9 31.3 -1.3 0.3-2-0.7-2.1-1 -0.2-0.3-0.6-1.4 0.5-2.3l0.1-0.1 11.7-11.4c0.8-0.8 0.8-2 0-2.8s-2-0.8-2.8 0l-11.7 11.3c-2.1 1.8-2.6 4.7-1.4 7.1 1 2.1 3 3.3 5.2 3.3 0.5 0 0.9-0.1 1.4-0.2 28.1-6.4 98.3-22.4 142.8-31.3 43.7-8.8 116.4-25.2 151.6-33.2v-4.1C1090.1 2324.1 1016.6 2340.7 972.6 2349.5z" class="a"/><path d="M1117 2302c-0.5 1-0.1 2.2 0.9 2.7l7.1 3.6v-4.5l-5.3-2.7C1118.7 2300.6 1117.5 2301 1117 2302z" class="a"/><polygon points="855.1 2436 873.7 2436 1125 2380.7 1125 2376.6 " class="a"/><path d="M837.6 2434c-4.4-2.8-7.4-7.1-8.5-12.2l-5.5-24.9 301.4-66.3v-4.1l-304.2 67c-0.5 0.1-1 0.4-1.3 0.9 -0.3 0.4-0.4 1-0.3 1.5l5.9 26.9c1.2 5.5 4.2 10 8.3 13.3h8.2C840.2 2435.5 838.8 2434.9 837.6 2434z" class="a"/><path d="M838.5 2381.6c-0.2-1.1-1.3-1.8-2.4-1.5 -1.1 0.2-1.8 1.3-1.5 2.4l2.1 9.6c0.2 0.9 1 1.6 2 1.6 0.1 0 0.3 0 0.4 0 1.1-0.2 1.8-1.3 1.5-2.4L838.5 2381.6z" class="a"/><path d="M1124.2 2318.4c-0.2-1.1-1.3-1.8-2.4-1.5 -1.1 0.2-1.8 1.3-1.5 2.4l2.2 9.9c0.2 0.9 1 1.6 2 1.6 0.1 0 0.3 0 0.4 0h0.1v-8.7L1124.2 2318.4z" class="a"/><path d="M1046.5 2079.7l-78.1-18.9c-1-0.2-2.1 0.3-2.4 1.4l-30.1 97.3c-0.3 1.1 0.3 2.2 1.3 2.5 0.2 0.1 0.4 0.1 0.6 0.1 0.9 0 1.6-0.6 1.9-1.4l18.9-61.1 76.3 18.5c0.7 0.2 1.5-0.1 2-0.6 0.5-0.6 0.6-1.4 0.3-2.1l-7.8-19.6 17.8-12.6c0.6-0.5 1-1.2 0.8-2C1047.8 2080.5 1047.2 2079.9 1046.5 2079.7zM1025.8 2093.5c-0.8 0.5-1 1.5-0.7 2.4l7 17.5 -72.3-17.5 9.5-30.7 72 17.4L1025.8 2093.5z" class="a"/><path d="M855.9 2220.9c-0.9-0.7-2.1-0.5-2.8 0.4l-9.4 12.3c-0.7 0.9-0.5 2.1 0.4 2.8 0.4 0.3 0.8 0.4 1.2 0.4 0.6 0 1.2-0.3 1.6-0.8l9.4-12.3C857 2222.8 856.8 2221.6 855.9 2220.9z" class="a"/><path d="M870.6 2217.4l-5.2 6.3c-0.7 0.9-0.6 2.1 0.3 2.8 0.4 0.3 0.8 0.5 1.3 0.5 0.6 0 1.1-0.2 1.5-0.7l5.2-6.3c0.7-0.9 0.6-2.1-0.3-2.8C872.6 2216.4 871.3 2216.5 870.6 2217.4z" class="a"/><path d="M892.3 2209.6c-0.9-0.6-2.1-0.4-2.8 0.4l-7.2 10c-0.6 0.9-0.4 2.1 0.4 2.8 0.4 0.3 0.8 0.4 1.2 0.4 0.6 0 1.2-0.3 1.6-0.8l7.2-10C893.4 2211.5 893.2 2210.2 892.3 2209.6z" class="a"/><path d="M874.8 2195.7c-0.9-0.7-2.1-0.6-2.8 0.3l-7.3 9.1c-0.7 0.9-0.6 2.1 0.3 2.8 0.4 0.3 0.8 0.4 1.3 0.4 0.6 0 1.2-0.3 1.6-0.7l7.3-9.1C875.8 2197.6 875.6 2196.4 874.8 2195.7z" class="a"/><path d="M1061.7 2206.6c-0.8-0.8-2.1-0.8-2.8 0 -0.8 0.8-0.8 2.1 0 2.8l7.1 6.9c0.4 0.4 0.9 0.6 1.4 0.6s1-0.2 1.4-0.6c0.8-0.8 0.8-2.1 0-2.8L1061.7 2206.6z" class="a"/><path d="M1057.3 2186.9c-0.8-0.7-2.1-0.7-2.8 0.1 -0.7 0.8-0.7 2.1 0.1 2.8l9.9 9.1c0.4 0.4 0.9 0.5 1.4 0.5s1.1-0.2 1.5-0.6c0.7-0.8 0.7-2.1-0.1-2.8L1057.3 2186.9z" class="a"/><circle cx="638.7" cy="308.6" r="51.6" class="a"/><circle cx="638.7" cy="307" r="17.9" class="a"/><line x1="603.7" y1="288" x2="609.7" y2="284" class="a"/><line x1="613.1" y1="303.4" x2="609.7" y2="297.3" class="a"/><line x1="606.7" y1="335" x2="611.4" y2="324.9" class="a"/><line x1="632" y1="335" x2="643.5" y2="329.9" class="a"/><line x1="672.7" y1="320.2" x2="677.6" y2="329.9" class="a"/><line x1="665.2" y1="307" x2="672.7" y2="298.5" class="a"/><line x1="661.6" y1="279.7" x2="672.7" y2="284" class="a"/><line x1="650.7" y1="281.8" x2="646.2" y2="274.1" class="a"/><line x1="624.2" y1="274.1" x2="630.5" y2="266" class="a"/><line x1="597.4" y1="318.6" x2="601.3" y2="310.9" class="a"/><line x1="643.5" y1="343.5" x2="650.7" y2="349.2" class="a"/><line x1="618.8" y1="346.3" x2="627.4" y2="343.5" class="a"/><line x1="659.8" y1="332.5" x2="665.2" y2="326.6" class="a"/><line x1="677.6" y1="310.9" x2="683.3" y2="305.8" class="a"/><circle cx="422.7" cy="561.7" r="14.7" class="a"/><circle cx="475.6" cy="562.3" r="14" class="a"/><path d="M422.7 547c0 0 2.7-23.6 11.2-32 8.4-8.4 24.8-19.1 24.8-19.1s-5.7 20.9 2.8 33.3c8.6 12.4 14 19.2 14 19.2" class="a"/><path d="M480.4 496.3c-5.2-2.7-21.7 0-21.7 0s3.8 15.3 17.2 17.2c13.5 1.9 19 0 19 0S485.6 499 480.4 496.3z" class="a"/><line x1="458.7" y1="496.3" x2="472.5" y2="504.7" class="a"/><path d="M419.9 569.7c-3-2-4.9-5.5-5.2-9.1" class="a"/><path d="M1082.5 2120.7c-9.2 0-16.7 7.5-16.7 16.7s7.5 16.7 16.7 16.7 16.7-7.5 16.7-16.7S1091.8 2120.7 1082.5 2120.7zM1082.5 2150.1c-7 0-12.7-5.7-12.7-12.7s5.7-12.7 12.7-12.7 12.7 5.7 12.7 12.7S1089.5 2150.1 1082.5 2150.1z" class="a"/><path d="M1123.4 2138c0-2.1 0.6-4.1 1.6-5.9v-6.2c-3.4 2.9-5.6 7.3-5.6 12.1s2.2 9.2 5.6 12.1v-6.2C1124 2142.2 1123.4 2140.2 1123.4 2138z" class="a"/><path d="M1123 2103.8c-7.9-11.5-2.6-31.4-2.5-31.6 0.2-0.8-0.1-1.7-0.8-2.1 -0.7-0.5-1.6-0.5-2.3-0.1 -0.7 0.4-16.7 10.9-25.1 19.4 -8.9 8.8-11.7 32.2-11.8 33.2 -0.1 1.1 0.7 2.1 1.8 2.2 1.1 0.1 2.1-0.7 2.2-1.8 0-0.2 2.7-23 10.6-30.8 5.6-5.6 15-12.4 20.4-16.1 -1.2 7.2-2.3 20.7 4.1 30 1.9 2.8 3.7 5.3 5.3 7.5v-6.9C1124.4 2105.7 1123.7 2104.8 1123 2103.8z" class="a"/><path d="M1121.2 2073.7c1.2-0.2 2.5-0.3 3.8-0.4v-4c-3.4 0.3-6.1 0.7-6.8 0.9 -0.6 0.1-1 0.4-1.3 0.9s-0.4 1-0.3 1.6c0.1 0.5 2.2 8.4 8.4 13.9v-5.9C1123.1 2078 1121.9 2075.4 1121.2 2073.7z" class="a"/><path d="M1119.6 2070.3c-0.9-0.6-2.2-0.3-2.7 0.7 -0.6 0.9-0.3 2.2 0.7 2.7l7.5 4.6v-4.7L1119.6 2070.3z" class="a"/><path d="M1080.9 2143.8c-2.4-1.6-4.1-4.5-4.3-7.6 -0.1-1.1-1-1.9-2.2-1.8 -1.1 0.1-1.9 1.1-1.8 2.2 0.4 4.3 2.6 8.3 6.1 10.6 0.3 0.2 0.7 0.3 1.1 0.3 0.6 0 1.3-0.3 1.7-0.9C1082 2145.6 1081.8 2144.4 1080.9 2143.8z" class="a"/><path d="M848.5 320c-42.2-45.7-3.3-74-3.3-74l-44.3-37.4L654.4 419.8l115.1 99.7 196-161.1 -40.7-35.6C924.8 322.8 890.7 365.8 848.5 320z" class="a"/><path d="M797.8 243.1c-15.7 24.8-32.2 49-47.9 73.8" class="a"/><polyline points="822.4 226.3 869.3 117.6 894.9 126.9 838.2 239.4 " class="a"/><polyline points="830.3 289.6 892 200.8 913.2 218.2 888.3 248.4 866.9 281.4 911.2 249.6 920.6 266.6 848.5 320 " class="a"/><polyline points="939.6 335.8 976.1 314 988.3 330.8 956.3 350.4 " class="a"/><polyline points="928.6 326.2 984.6 248.4 964.4 238.5 942.8 264.7 970.1 188.9 943.8 179 931.6 203 872.3 174.4 " class="a"/><path d="M931.8 277.5c-10.3 12.4-20.5 24.9-30.8 37.3" class="a"/><line x1="739.2" y1="329.9" x2="722.7" y2="355.8" class="a"/><circle cx="794.6" cy="390.9" r="42.3" class="a"/><circle cx="794.6" cy="390.9" r="26.9" class="a"/><path d="M429.9 601.9c-25.3 11.5-30.7 35.4-30.7 35.4l-16.3 0.3c-2.4 0-3.9 2.5-2.8 4.6l10.7 21c1.1 2.2 4.2 2.4 5.5 0.3l9.1-14c0 0 26.1 7.3 47.6-4.9s19.6-35 19.6-35S455.1 590.3 429.9 601.9z" class="a"/><path d="M448.7 598.9c0.4 13.4 5.5 25.6 15.5 34.6" class="a"/><polyline points="574.9 638.4 557.3 635.7 532.4 658.4 515.9 640.2 540.8 617.6 538 594.4 " class="a"/><line x1="553.1" y1="628.3" x2="570.2" y2="625.4" class="a"/><path d="M587.6 568.9c-1-4.8-3.3-9.4-6.9-13.3 -10.7-11.8-29-12.7-40.7-2 -11.8 10.7-12.7 29-2 40.7 6.2 6.8 14.8 9.9 23.3 9.4" class="a"/><path d="M571.5 626.8c-13.2-14.5-14.2-37.7-0.6-50s35.3-10.5 48.5 4 8.4 41.2-7.2 50.8" class="a"/><path d="M620.1 625c-1.3 5.2-2.7 12-7.2 16.1 -10.8 9.8-26.5 10.2-35 0.9 -3.6-3.9-5.3-8.9-5.3-14.1" class="a"/><path d="M619.7 603.1c0.3 6.2-2 12.4-6.2 17" class="a"/><path d="M560.8 611.2c-1.9 1.9-3.7 3.7-5.6 5.6" class="a"/><path d="M542.4 1959.5c-10.8 8-24.3 12.7-38.8 12.7 -36.1 0-65.3-29.2-65.3-65.3 0-36.1 29.2-65.3 65.3-65.3s65.3 29.2 65.3 65.3c0 16-5.8 30.7-15.4 42.1" class="a"/><path d="M490.1 1949.2c-4.7-1.5-9.1-3.8-12.9-6.7" class="a"/><path d="M467.4 1932.6c-5.1-7.2-8.2-16.1-8.2-25.7 0-24.5 19.9-44.4 44.4-44.4" class="a"/><path d="M530.6 1907c-4.9-6.5-19-13.7-27-9.4 -7.9 4.3-1.6 24.3 3.9 29.2 5.6 4.8 17.7 8.7 17.7 8.7l43.8 52.8 11.2-8.7 -45.9-52.8C534.3 1926.8 535.5 1913.5 530.6 1907z" class="a"/><path d="M745.6 1774.3c-23.8-9.8-41.1 18.4-41.1 18.4L691.6 1903c-0.5 4.4 5.2 6.6 7.8 3l66.2-93.3C765.5 1812.8 769.4 1784.2 745.6 1774.3z" class="a"/><line x1="701.9" y1="1814.5" x2="719.9" y2="1820.7" class="a"/><line x1="733.7" y1="1857" x2="721.9" y2="1851.8" class="a"/><line x1="696.3" y1="1861.8" x2="714.8" y2="1868.3" class="a"/><line x1="733.9" y1="1772.3" x2="754.4" y2="1688.1" class="a"/><line x1="745.6" y1="1774.3" x2="758.2" y2="1741.8" class="a"/><line x1="753.2" y1="1777.9" x2="791.7" y2="1727.7" class="a"/><circle cx="321.9" cy="1964.7" r="33.8" class="a"/><line x1="336.5" y1="1986.1" x2="373.3" y2="2047.8" class="a"/><path d="M305.8 1976.8c-3-6.4-2.3-14.3 1.7-20s11.3-9.1 18.3-8.4c2.8 0.3 5.5 1.1 7.7 2.8 4.1 3 6.1 8.3 6.1 13.4 0 4.7-1.5 9.6-4.9 13 -3.4 3.3-8.8 4.7-13.1 2.8s-6.9-7.5-4.9-11.8 8.7-5.7 11.8-2.2" class="a"/><polyline points="706.1 2199.7 719.4 2171.4 738.9 2197.3 708 2202.2 " class="a"/><polyline points="668.9 2224.6 639.4 2226 659.2 2252.5 671.3 2227.7 " class="a"/><polyline points="351.9 1002.4 357.7 971.9 383.3 991.8 355.2 1005 " class="a"/><polyline points="324.6 1037.5 295 1045.8 321 1066 326.2 1039 " class="a"/><path d="M327.4 1012.1c7.8 5.7 15.5 11.4 23.3 17.2" class="a"/><path d="M34.6 37.7c4.4 7.8 10.8 14 17.9 17.3 3.7 1.7 7.4 2.6 11 2.6 3.5 0 6.8-0.8 9.7-2.5 12.1-6.8 14.5-25.6 5.3-42 -2.9-5.2-6.7-9.7-11-13.1h-7.3c5.9 3.1 11.2 8.4 15 15 8.1 14.4 6.4 30.9-3.8 36.6 -4.8 2.7-10.9 2.6-17.1-0.2 -6.4-3-12.1-8.5-16.1-15.6C30.4 21.9 31.6 6.3 40.6 0h-5.9C27.4 8.7 27 24.1 34.6 37.7z" class="a"/><path d="M112.8 74.6L75.9 50c-0.9-0.6-2.2-0.4-2.8 0.6 -0.6 0.9-0.4 2.2 0.6 2.8L108 76.2 73.1 95.6l-1.6-41.1c0-1.1-1-2-2.1-1.9 -1.1 0-2 1-1.9 2.1L69.3 99c0 0.7 0.4 1.3 1 1.7 0.3 0.2 0.6 0.3 1 0.3 0.3 0 0.7-0.1 1-0.3L112.7 78c0.6-0.3 1-1 1-1.7S113.4 75 112.8 74.6z" class="a"/><path d="M74.6 12.2C64.3 18.4 53.3 25 38.9 33.4c-1 0.6-1.3 1.8-0.7 2.7 0.4 0.6 1 1 1.7 1 0.3 0 0.7-0.1 1-0.3 14.3-8.4 25.3-15 35.6-21.2 0.9-0.6 1.3-1.8 0.7-2.7C76.7 12 75.5 11.7 74.6 12.2z" class="a"/><path d="M76.9 63.6c-1.1 0.1-1.9 1-1.9 2.1l0.8 11.8c0.1 1.1 0.9 1.9 2 1.9h0.1c1.1-0.1 1.9-1 1.9-2.1L79 65.5C78.9 64.4 78 63.5 76.9 63.6z" class="a"/><path d="M90.9 69.1c-0.6-0.4-5.1-3.7-9-6.6 -0.9-0.7-2.1-0.5-2.8 0.4 -0.7 0.9-0.5 2.1 0.4 2.8 8.9 6.7 9.3 6.9 9.5 7 0.3 0.1 0.6 0.2 0.9 0.2 0.7 0 1.4-0.4 1.8-1.1C92.2 70.8 91.8 69.6 90.9 69.1z" class="a"/><path d="M414.9 1225.6c-4.6-1.2-9.3-2.4-14.1-2.4s-9.8 1.6-13 5.2c-4.6 5.1-4.5 12.8-3.2 19.6 4.4 22.4 20.5 42.1 41.5 50.9 4.1 1.7 8.5 3.1 12.9 2.4 9.1-1.4 14.8-11.4 14.7-20.6 -0.1-9.2-4.5-17.7-8.8-25.8" class="a"/><path d="M470.7 1179.5c-5.4-2.8-11-5.3-16.8-7.3 -1.8-0.6-3.8-1.2-5.5-0.3 -1.7 1-2.2 3.4-1.6 5.2 0.6 1.9 2 3.4 3.4 4.8 9.2 9.1 19.8 16.7 29 25.9 9.1 9.2 17 20.5 18.6 33.3" class="a"/><path d="M496.3 1154.9c-5.4-2.8-11-5.3-16.8-7.3 -1.8-0.6-3.8-1.2-5.5-0.3 -1.7 1-2.2 3.4-1.6 5.2 0.6 1.9 2 3.4 3.4 4.8 9.2 9.1 19.8 16.7 29 25.9s17 20.5 18.6 33.3" class="a"/><path d="M473 1216.6c6.1-5.3 12.2-10.6 18.3-16" class="a"/><path d="M500.6 1192.2c3.3-3.7 6.5-7.3 9.8-11" class="a"/><path d="M527 1173.9c4.5-5 8.9-10 13.4-15 1.2-1.4 2.5-2.8 3.2-4.5s0.7-3.8-0.4-5.3c-1.7-2.4-5.5-2.1-8-0.7 -5.3 3-7.8 9.4-8.5 15.4 -0.5 4-0.3 8.1 1.5 11.7s5.4 6.4 9.4 6.2c4-0.2 7.7-4 7-7.9" class="a"/><path d="M554.4 1140.2c3.2-3.6 6-7.5 8.2-11.8 0.9-1.7 1.7-3.8 0.6-5.4 -1.2-1.9-4.2-1.7-5.9-0.2s-2.3 3.8-2.8 6c-0.9 3.9-1.8 8-1.1 12s3.1 7.9 7 9.1c3.8 1.2 8.8-1.3 9-5.4" class="a"/><path d="M880 1902c-0.5-5.7-0.7-8.2-1.2-13.9 -88.4 16.4-96.5 112.1-95.8 147.7 -16.9 3.7-40.4 1.2-52.5 13.7 -4.2 4.3-6 13.6-5.1 19.6 1.2 8.1 10.7 16.4 18.4 19.2 9.9 3.5 15.6-7.2 23.1-11.9 4.2-2.6 10.9-7.9 14.5-5.9 3.3 1.8 3.3 11.8 3.3 15.6 0.2 11-0.3 18.9 8.2 23.7 3.6 2 25.5 2.8 29.2 1.1 12.2-5.5 10.9-19.2 10.2-23.5 -2.8-17.1-16.7-26.9-24.9-37.6l-1.5-2.2c37.2-17.7 65.4-35.6 84.4-67.3 13.7-22.9 18.7-51.7 1.8-83.9C885 1899.3 885.9 1898.8 880 1902z" class="a"/><circle cx="867" cy="1917.9" r="6.8" class="a"/><path d="M755.7 2048.4c8.7-0.5 17.4-1.7 25.8-3.7" class="a"/><path d="M768.8 2059.5c4.4-2.3 8.7-4.5 13.1-6.8" class="a"/><path d="M802.3 2055.7c2 5.2 4.5 10.2 7.6 14.8" class="a"/><path d="M795.1 2061.6c-0.5 5.4-0.1 10.8 1.3 16.1" class="a"/><path d="M786.2 1994.4c-9.9-15.1-12.3-38-4-54s25.7-26.9 43.8-27.4" class="a"/><path d="M782.6 1964.4c1.7 0.2 3.4 0.4 5.1 0.6" class="a"/><path d="M786.6 1942.7c2.4 1.3 4.8 2.5 7.2 3.8" class="a"/><path d="M799.5 1928.7c1.1 1.8 2.1 3.5 3.2 5.3" class="a"/><line x1="793.8" y1="1936.6" x2="796.1" y2="1938.5" class="a"/><line x1="785.1" y1="1953.7" x2="788.8" y2="1954.7" class="a"/><path d="M829.9 1910.2c2.9 16 11.4 29.3 24.1 39.5s27.5 16.1 43.7 15.4" class="a"/><path d="M264 2153.8c0 0 46.7 46.1 102.6 9.8s27.6-94.4 27.6-94.4L264 2153.8z" class="a"/><line x1="302.6" y1="2213.1" x2="432.8" y2="2128.5" class="a"/><path d="M325.5 2096c-5.8 6.8-15.5 10-24.2 7.8 -5.7-1.4-10.7-4.9-14.9-8.9 -5.6-5.2-10.3-11.9-11.3-19.5s2.7-16.1 9.8-18.9c4.6-1.8 10.2-1 14 2.1 3.9 3.1 5.9 8.3 5.1 13.2 -0.3 1.9-1.1 3.8-2.5 5.1 -2.7 2.3-7.2 1.5-9.4-1.1 -2.3-2.7-2.5-6.7-1.1-10" class="a"/><circle cx="449.9" cy="2216.9" r="10" class="a"/><circle cx="423.5" cy="2259" r="5.5" class="a"/><circle cx="463.4" cy="2253.7" r="6.7" class="a"/><path d="M631.3 2403.9c-15.5-11.8-31.7-24.5-38.3-42.8 -2.8-7.7-3.7-16-4.3-24.2 -0.8-10.1-1-20.6 3.2-29.8s14.2-16.4 24.1-14.3c7 1.5 12.4 7.4 15.5 13.8 3.5 7 4.8 15.5 1.6 22.7s-11.7 12.1-19.1 9.6c-7.4-2.5-10.7-13.6-4.9-18.8" class="a"/><path d="M651.9 2354.7c12.5-15.3 15.8-37.5 8.4-55.7 -3.5-8.5-9-16-14.3-23.5 -11.7-16.6-22.5-34.3-26.9-54.1s-1.2-42.2 12.4-57.2" class="a"/><path d="M482.2 1643c0 0 41.3 47.5 73.5 27.5s7.7-77.9 7.7-77.9L482.2 1643z" class="a"/><path d="M567.9 1605.6c0 0 1.5-16.5 12.9-14.5s8.3 11.1 5.7 31.9c-2.5 20.8-14.4 5.2-14.4 5.2" class="a"/><line x1="526.1" y1="1698.9" x2="600.7" y2="1652.7" class="a"/><path d="M521.3 1611.3c-10.9 0.4-21.9-3.1-30.6-9.8 -8.6-6.7-14.8-16.5-17-27.2 -0.9-4.5-1.2-9.2 0.5-13.5 1.7-4.2 5.6-7.8 10.1-8 5.7-0.3 10.4 4.6 13 9.7 1.6 3.2 2.8 6.8 2.3 10.3s-2.7 7.1-6.1 8.1c-3.4 1.1-7.7-1-8.3-4.5" class="a"/><path d="M618.4 2031.7c-11.2-6.2-25.3-3.5-37.1 1.5 -30.4 12.8-53.4 38.2-75.3 62.8 0 0-11.2 12.3-11.2 28.2 0 7.7 12.8 16.2 20.2 18.6 11.5 3.6 21.4-12.6 30-21 14.7-14.2 32.2-25.6 51.1-33.3 11.6-4.7 24.6-8.7 31.5-19.1 6.3-9.5 5-22.8-2-31.6C623.6 2035.3 621.2 2033.2 618.4 2031.7z" class="a"/><polyline points="625.6 2037.8 627.6 2029.4 637.4 2040.4 628.8 2043 " class="a"/><polyline points="500.9 2134.3 491 2136.4 503.5 2146.8 505.8 2138.1 " class="a"/><path d="M646.3 1829.3c-12.3-10-41.1 5.8-52.6 19.9s-10.8 33.7 1.6 43.7c12.3 10 31.6 6.6 43-7.5C649.8 1871.3 658.6 1839.3 646.3 1829.3z" class="a"/><path d="M594 1875.1c-0.4-10.4 4.6-20.9 12.9-27.1" class="a"/><path d="M402 1942l-9-35 13.9-35.2c0 0-6.5-12.2 0-20.4s17.2-9.9 17.2-9.9 3.9 9.5 0.5 20 -17.7 10.3-17.7 10.3" class="a"/><path d="M392.9 1906.9l-34.1-44.4c0 0-8.8 1.6-12.3-2.3 -3.5-4-4.4-18.7-4.4-18.7s12.1 2.3 15.7 7.2 1 13.8 1 13.8" class="a"/><path d="M754.6 2258c17-31.7 12.4-73.7-11-101 -16-18.7-38.8-30-58.6-44.7s-30.5-27.8-29.7-52.4" class="a"/><polyline points="704.4 2410 730.2 2381.4 775.2 2376.3 730.7 2336.2 730.2 2381.4 " class="a"/><line x1="730.5" y1="2360.4" x2="751.5" y2="2379.4" class="a"/><line x1="693.7" y1="2403.1" x2="712.5" y2="2420.2" class="a"/><path d="M319.2 1148.7c13.5 9.8 16.9 31.9 19 48.5 3.1 24.5-12.1 45.4-14.4 61.9" class="a"/><path d="M304.5 1114c-10.9-14.4-20.3-29.9-28.1-46.1" class="a"/><path d="M265.2 1022.5c-3.5-17.5 3.2-36.7 16.9-48.2" class="a"/><path d="M359.6 938.9c43.2-10.9 82.9-34.6 112.9-67.5" class="a"/><circle cx="422.7" cy="1005.2" r="9" class="a"/><path d="M602.2 1092.4c-3 0-5.4 2.4-5.4 5.4s2.4 5.4 5.4 5.4 5.4-2.4 5.4-5.4C607.6 1094.9 605.2 1092.4 602.2 1092.4z" class="a"/><circle cx="358.7" cy="1139.9" r="15.7" class="a"/><line x1="311.6" y1="1308.9" x2="309.1" y2="1315.3" class="a"/><line x1="321.2" y1="1319.1" x2="318.7" y2="1325.6" class="a"/><line x1="310.3" y1="1329" x2="308.2" y2="1338.4" class="a"/><path d="M285.8 1401.3c-19.3 9.1-33.2 20.3-31 25 2.2 4.7 19.7 1.1 39-8s33.2-20.3 31-25C322.6 1388.6 305.1 1392.2 285.8 1401.3z" class="a"/><path d="M254.8 1426.3l22.6 47.9c0 0 18.2-0.5 38.1-9.9s32.6-21.7 32.6-21.7l-23.3-49.3" class="a"/><path d="M266.2 1429.8c0.3 2.6 0.6 5.3 1.7 7.7 1.2 2.4 3.4 4.4 6.1 4.5 2.6 0.1 5.4-2.3 4.9-4.9 -0.3-2-2.2-4.1-1-5.7 1.3-1.8 4.1-0.3 5.6 1.5 2.7 3.3 5 6.9 6.7 10.8 0.7 1.7 1.5 3.6 3.2 4.3 2.7 1.1 5.5-2.1 5.6-5s-1.4-5.6-2.2-8.4 -0.6-6.4 1.9-7.9c2.2-1.3 5.1-0.3 7.2 1.2 2 1.6 3.7 3.7 5.9 4.9 2.3 1.2 5.5 1.3 7-0.8 1.6-2.4-0.1-5.7-1.9-8s-3.9-5.2-2.6-7.9c0.7-1.4 2.1-2.3 3.4-3.1 1.3-0.8 2.7-1.7 3.3-3.2 0.6-1.5-0.3-3.5-1.8-3.6" class="a"/><path d="M196.3 1501.6c-6.3-3.8-14.8-2.4-20.8 1.8 -6.1 4.2-10 10.8-12.9 17.6 -5.6 13.5-17.1 43.8-17 43.7 -0.3 2.9 37.5-10.2 43.2-16.5 6.1-6.8 12.3-13.8 14.9-22.5C206.3 1517 204.1 1506.2 196.3 1501.6z" class="a"/><path d="M185.7 1499.6c17.6-10 41.7-7.4 55.7 7.2 14.8 15.4 16.5 36.8 11 56.5 -2.7 9.6-4.8 11.9-0.4 21 4.3 8.9 14 12.8 11.8 24.7 -1 5.5-5.6 10.5-11.2 11 -5.6 0.4-11.3-4.8-10.4-10.3 2.4 6.9-4 15.3-11.3 14.8s-12.5-9.6-9.2-16.1c-1.3 6.4-9.8 9.6-15.6 6.5 -5.8-3-8.3-10.6-6.8-16.9 1.5-6.4 6.4-11.5 12-14.9 9.6-5.8 16.4-4.1 20.3-15.5 2.6-7.6 0.5-17.5-3.7-24.1 -5.5-8.8-15.6-14.4-25.9-14.6 -0.4 1.4-0.8 2.7-1.2 4.1" class="a"/><path d="M218.6 1533c6.5-9.8 9.6-21.9 8.5-33.6" class="a"/><path d="M228.8 1544.5c9.8 0.5 19.7-4.1 25.6-11.9" class="a"/><path d="M233.1 1562.5c3.3 1.1 6.7 2.3 10.2 2.2 3.5-0.1 7.2-1.6 8.9-4.6" class="a"/><path d="M288.6 1595.6c13.7-31.2 5.1-70.9-20.3-93.6 -7.4-6.6-16-11.9-23-19s-12.3-16.8-10.9-26.6" class="a"/><line x1="350.9" y1="1645.5" x2="350.9" y2="1615.4" class="a"/><line x1="402.3" y1="1670.4" x2="431.1" y2="1659.2" class="a"/><line x1="383.8" y1="1652.7" x2="402.3" y2="1618.9" class="a"/><line x1="350.9" y1="1605.2" x2="350.9" y2="1595.6" class="a"/><line x1="406.8" y1="1611.4" x2="412.5" y2="1602.4" class="a"/><line x1="439.4" y1="1656.6" x2="452.1" y2="1651.3" class="a"/><path d="M845 1818.4c-12-11.8-23.9-23.5-35.9-35.3 6-8.6 10.8-16.8 16.8-25.4" class="a"/><path d="M828.1 1800.9c7-8.1 14-16.2 20.9-24.3 -1 1.7-2 3.4-3 5.1" class="a"/><path d="M882.9 1656.2c20 22.2 59.1 64.9 58.7 63.9" class="a"/><path d="M918.2 1697.2c-2.4 4.8-4.8 9.6-5.6 14.9s0.2 11.1 3.9 14.9c3.3 3.4 8.6 4.7 13.1 3.3 4.5-1.4 8.1-5.5 8.9-10.2" class="a"/><path d="M411.1 1464.1c24-5.6 45.5-21.4 58-42.6 6.8-11.5 11.1-24.9 9.3-38.1 -3-23.1-24.2-40.8-46.9-45.6 -11.4-2.4-24-2-33.8 4.3 -9.4 6.1-15 17.4-14.2 28.6s8 21.6 18.2 26.2c9.2 4.2 21 3.4 28.3-3.6s8.1-20.3 0.4-27" class="a"/><path d="M511.7 1365.5c5-50.3 28.1-98.6 64.2-134" class="a"/><path d="M601 1351.5c8.6 45.1 17.8 91.6 43.7 129.6 4.5 6.5 9.6 12.9 16.4 16.9s15.7 5.3 22.6 1.4" class="a"/><path d="M372.9 1099.2c0 0 59.9 56.7 116.8 2.2 56.9-54.4 3-116.8 3-116.8L372.9 1099.2z" class="a"/><line x1="476.6" y1="1000" x2="508.7" y2="902.9" class="a"/><line x1="463.4" y1="1012.7" x2="468.8" y2="918.8" class="a"/><rect x="793.4" y="1360.8" transform="matrix(0.9528 -0.3036 0.3036 0.9528 -391.4883 331.314)" width="152.8" height="127.8" class="a"/><line x1="768.7" y1="1379.5" x2="900.8" y2="1297.6" class="a"/><polyline points="822.3 1345.7 813 1332.4 849.1 1311.4 857.5 1324.5 " class="a"/><line x1="820.9" y1="1491.5" x2="800.9" y2="1429" class="a"/><line x1="797.6" y1="1418.5" x2="791.9" y2="1400.9" class="a"/><path d="M922.1 1339.4c14.6 0.6 29.2-7.4 36.6-19.9s7.4-29.2-0.2-41.7c15.1-12.8 28.4-29.5 30.4-49.1s-11.5-41.5-31.2-42.9c-1.5-18.5-12.8-35.8-29-44.8s-36.9-9.2-53.4-0.8c-6.5 3.3-12.5 8-19.4 10.3 -7.8 2.5-16.2 1.8-24.3 2.8 -18.4 2.1-35.5 13.4-44.9 29.5 -9.3 16-10.6 36.5-3.3 53.5 -10 7.2-20.3 17.2-19.6 29.6 0.8 13.4 15.1 22.8 28.5 23 13.4 0.3 26-6.1 38-12.2 5.9 9.1 16.8 14.6 27.6 14s21-7.3 25.9-16.9c7.8 7.8 13.1 13.6 17.2 23.8" class="a"/><path d="M792.9 1226.2c-4.2-11.6-2.7-25.2 4-35.6s18.4-17.4 30.7-18.4" class="a"/><path d="M876.1 1150.2c12.6-8.6 30.7-7.8 42.5 1.9" class="a"/><polyline points="930.5 1406.2 945 1453.5 923.8 1460.2 " class="a"/><path d="M939.3 1573.2l-16.4-11.1c-3.4-2.3-7.4-3.1-11.4-2.3 -4 0.8-7.4 3-9.7 6.4l-15.8 23.3c-2.3 3.4-3.1 7.4-2.3 11.4s3 7.4 6.4 9.7l16.3 11.1c2.6 1.8 5.5 2.6 8.5 2.6 4.9 0 9.7-2.3 12.7-6.7l15.8-23.3c2.3-3.4 3.1-7.4 2.3-11.4C945 1578.9 942.7 1575.4 939.3 1573.2zM940.1 1592l-15.8 23.2c-3.5 5.1-10.5 6.5-15.5 3l0 0 -16.4-11.1c-2.5-1.7-4.1-4.2-4.7-7.1 -0.6-2.9 0.1-5.9 1.7-8.4l15.8-23.3c1.7-2.5 4.2-4.1 7.1-4.7 0.7-0.1 1.4-0.2 2.1-0.2 2.2 0 4.4 0.7 6.3 1.9l16.4 11.1c2.5 1.7 4.1 4.2 4.7 7.1C942.3 1586.6 941.7 1589.6 940.1 1592z" class="a"/><path d="M1039.6 1641.3l-16.4-11.1c-3.4-2.3-7.4-3.1-11.4-2.3 -4 0.8-7.4 3-9.7 6.4l-15.8 23.3c-4.7 7-2.9 16.4 4 21.1l16.3 11.1 0 0c2.6 1.7 5.5 2.6 8.5 2.6 1 0 1.9-0.1 2.9-0.3 4-0.8 7.4-3 9.7-6.4l15.8-23.3c2.3-3.4 3.1-7.4 2.3-11.4C1045.2 1647 1043 1643.6 1039.6 1641.3zM1040.4 1660.2l-15.8 23.3c-1.7 2.5-4.2 4.1-7.1 4.7 -2.9 0.6-5.9-0.1-8.4-1.7l-16.4-11.1c-5.1-3.4-6.4-10.4-3-15.5l15.8-23.3c1.7-2.5 4.2-4.1 7.1-4.7 2.9-0.6 5.9 0.1 8.4 1.7l16.4 11.1c2.5 1.7 4.1 4.2 4.7 7.1C1042.6 1654.7 1042 1657.7 1040.4 1660.2z" class="a"/><path d="M971.4 1593.9c-12.3-8.4-29.9-4-39.3 9.7s-6.9 31.7 5.5 40.1c4.2 2.8 9 4.3 14.1 4.3 2.2 0 4.5-0.3 6.8-0.9 7.4-1.9 13.9-6.5 18.4-13.1s6.4-14.4 5.4-21.9C981.3 1604.5 977.4 1598 971.4 1593.9zM973.5 1631.8c-3.9 5.8-9.6 9.9-16.1 11.5 -6.3 1.6-12.6 0.6-17.6-2.8 -10.5-7.1-12.5-22.6-4.4-34.5 5.3-7.9 13.8-12.2 21.9-12.2 4.2 0 8.3 1.2 11.8 3.6 5.1 3.4 8.3 8.9 9.2 15.4C979.2 1619.2 977.5 1626 973.5 1631.8z" class="a"/><path d="M1009.6 1627l-20.7-14.1c-0.4-0.3-1-0.4-1.5-0.3s-1 0.4-1.3 0.8l-24.7 36.3c-0.3 0.4-0.4 1-0.3 1.5 0.1 0.5 0.4 1 0.8 1.3l20.7 14.1c0.3 0.2 0.7 0.3 1.1 0.3 0.6 0 1.3-0.3 1.7-0.9l24.7-36.3C1010.7 1628.8 1010.5 1627.6 1009.6 1627zM983.2 1662.2l-17.4-11.8 22.4-33 17.4 11.8L983.2 1662.2z" class="a"/><path d="M1069.6 1661.5c-5.6-3.8-12.5-4.7-19.6-2.7 -7 2-13.2 6.7-17.6 13.2s-6.5 14-5.8 21.3c0.7 7.4 4.2 13.5 9.7 17.3 3.7 2.5 8 3.7 12.4 3.7 9.1 0 18.7-5.1 24.9-14.2C1082.7 1686.5 1081 1669.2 1069.6 1661.5zM1070.3 1697.8c-7.9 11.7-22.2 15.9-31.7 9.5 -4.6-3.1-7.4-8.2-8-14.3 -0.6-6.3 1.2-12.9 5.1-18.6s9.4-9.8 15.4-11.6c2.1-0.6 4.1-0.9 6.1-0.9 3.7 0 7.2 1 10.2 3C1076.9 1671.3 1078.2 1686.1 1070.3 1697.8z" class="a"/><path d="M896.6 1577.6l-22.3-16c-0.9-0.6-2.1-0.4-2.8 0.5 -0.6 0.9-0.4 2.1 0.5 2.8l22.3 16c0.4 0.3 0.8 0.4 1.2 0.4 0.6 0 1.2-0.3 1.6-0.8C897.7 1579.5 897.5 1578.2 896.6 1577.6z" class="a"/><path d="M1127.4 1723.3c-0.2-1.1-1.2-1.8-2.3-1.7h-0.1v4c0.2 0 0.5 0 0.7-0.1C1126.8 1725.4 1127.5 1724.4 1127.4 1723.3z" class="a"/><path d="M1118.5 1715.6c-1 2.3-0.5 5.2 1.1 7.4 1.4 1.8 3.3 2.8 5.3 2.7v-4c-1.1 0.1-1.9-0.8-2.2-1.1 -0.8-1-1-2.4-0.6-3.3 0.5-1.1 1.5-1.9 2.8-2.3v-4.1C1122.1 1711.2 1119.6 1713 1118.5 1715.6z" class="a"/><path d="M1121 1731.2c-17.2-9.9-32.8-19.2-49.3-31.9 -0.9-0.7-2.1-0.5-2.8 0.4 -0.7 0.9-0.5 2.1 0.4 2.8 16.7 12.9 32.4 22.2 49.7 32.2 1.7 1 3.7 2.1 6 2.7v-4.2C1123.7 1732.7 1122.4 1732 1121 1731.2z" class="a"/><path d="M1019 1593.6c-15.7-10.2-35.2-12.9-51.9-21.4s-31.2-27.9-23.9-45.1c5-11.7 20.1-17.8 31.8-13s18.1 19.8 13.3 31.6" class="a"/><path d="M1004.4 1496.4c16.8-19.7 22.4-48.3 14.4-72.8 -4.2-12.9-11.8-24.4-15.6-37.4s-3-28.8 7.3-37.6" class="a"/><path d="M1018.8 1760.4c-12.3 13.2-9.2 39.8-9.2 39.8s23.2-2.1 37.4-19.4c15.3-18.6 9.8-40.4 9.8-40.4S1031.1 1747.2 1018.8 1760.4z" class="a"/><line x1="1009.6" y1="1800.2" x2="1040.7" y2="1762.2" class="a"/><path d="M1109.2 1311.9c-7.2-16.2-5-41.1-4.2-48.4 3.7 0.9 11.8 3.5 20 9.4v-5c-10.8-7-20.7-8.7-21.4-8.8 -0.5-0.1-1.1 0-1.5 0.4 -0.4 0.3-0.7 0.8-0.8 1.3 -0.2 1.3-4.7 32.5 4.2 52.8 3.9 8.8 11.7 15.5 19.4 20.3v-4.8C1118.5 1324.7 1112.3 1319 1109.2 1311.9z" class="a"/><path d="M1121.6 1288.4c-0.5-1-1.7-1.4-2.7-0.9s-1.4 1.7-0.9 2.7l7 13.4v-8.7L1121.6 1288.4z" class="a"/><circle cx="714.6" cy="1115.3" r="14.5" class="a"/><circle cx="72.4" cy="2349.1" r="14.5" class="a"/><circle cx="516.3" cy="2023.8" r="23.8" class="a"/><polyline points="459.3 2123.3 444 2080.1 417.6 2071.9 " class="a"/><polyline points="450.8 2055.6 444 2080.1 425.9 2047.8 " class="a"/><path d="M145.3 1852.3c-8.2-7.8-19.4-13.4-30.7-12.2 -26.8 2.9-48.3 42.2-50.2 68.8 -1 13.7 10.4 25.4 19.2 36 9.7 11.7 21.3 22.8 35.8 27.2 14.2 4.3 30.5 1.6 42.5-7.3s19.5-23.6 19.5-38.5c0-16.6-8.3-31.8-16.5-46.2C159.3 1870.2 153.5 1860.1 145.3 1852.3z" class="a"/><path d="M133.2 1843c23.1 0.2 40.6 14.2 57.8 29.7s32.9 33.3 53.3 44.2c7.7 4.1 17.4 9.4 16.7 18.1 -0.3 4.4-3.4 8-6.7 10.9 -27.6 24.1-106.1 28.1-107.2 26.6" class="a"/><path d="M102.3 1940.7c-5.3-4-10.4-8.5-14.3-13.9s-6.4-12-6.1-18.7c0.4-7.2 4-14 9.1-19.2 5-5.2 11.3-9 17.8-12.3 3.9-2 8-3.9 10.7-7.3s3.4-8.9 0.2-11.9" class="a"/><path d="M103 1924.1c3.1 2.6 6.3 5.2 10 6.6 3.8 1.4 8.4 1.3 11.5-1.2 2.3-1.9 3.5-4.8 4.4-7.7 2.8-9.4 2.9-19.6 0.2-29.1 -1.2-4.2-2.8-9.2 0-12.7" class="a"/><path d="M139.5 1910.6c0.3 5.1 0.1 10.3-1.2 15.3s-3.8 9.7-7.5 13.2c-2.8 2.6-6.3 4.5-10.1 5.3" class="a"/><path d="M157.2 1887.6c10.3 18.3 9.4 42.4-2.2 59.9" class="a"/><path d="M175.7 1876.5c15.8 13.6 31.6 27.2 47.3 40.9 4 3.5 9.3 7.1 14.1 4.9" class="a"/><path d="M637.6 642.4c11.5-14.1 23.6-34.5 26.9-58s-3.2-48.2-17.6-66.9" class="a"/><path d="M661.6 493c20.5 26.7 32.6 59.7 34.1 93.3" class="a"/><path d="M524.6 780.7c44.7-64.4 104.9-118 174.1-154.9" class="a"/><path d="M750.6 555.1c53.3-39 106.6-78 159.9-117.1" class="a"/><path d="M738.2 596.4c31.9-22.3 63.7-44.7 95.6-67" class="a"/><path d="M430.5 334.4c16.4-5.1 28.5-18.7 38.8-32.5s19.8-28.7 34-38.3c14.2-9.6 34.9-12.4 47.8-1.1 8 6.9 11.5 17.8 12.7 28.3 2.2 19.3-3.6 41.2-20.2 51.3" class="a"/><path d="M472.8 260c19.1-18.7 47.5-27.4 73.9-22.6" class="a"/><path d="M375.2 216.7c0 0 27.8 39.2 66.9 21.9 44.2-19.5 28.9-64.2 28.9-64.2L375.2 216.7z" class="a"/><line x1="414.9" y1="264.3" x2="481.9" y2="234.7" class="a"/><line x1="399.4" y1="237.2" x2="472" y2="205.1" class="a"/><path d="M844 1852.4c-2.1 0-3.8 1.6-3.8 3.6s1.7 3.6 3.8 3.6 3.8-1.6 3.8-3.6S846 1852.4 844 1852.4z" class="a"/><circle cx="863.4" cy="1846.9" r="10.5" class="a"/><path d="M604.3 960.1c-80.2 31.2-50 109-50 109l158.9-62.5C713.2 1006.6 679.9 930.7 604.3 960.1z" class="a"/><line x1="556.7" y1="1075.3" x2="715.9" y2="1013.5" class="a"/><line x1="592.6" y1="956.6" x2="611.8" y2="949.2" class="a"/><path d="M560.7 1043.9c-5.1-11.8-3-26.4 5.2-36.3" class="a"/><path d="M645.9 938.8c2.7-13.9 5.3-28.3 2.1-42.1 -1.1-4.5-2.8-9-6-12.4s-7.9-5.5-12.5-4.6 -8.4 5.3-7.8 9.9 6.4 7.9 10.4 5.4" class="a"/><path d="M620.4 933.9c-14.2-6.2-22.9-23-19.7-38.1 0.7-3.4 1.9-6.6 2.4-10s0.2-7.1-1.9-9.9" class="a"/><path d="M576.2 961.7c-4.9-4.2-9.7-8.7-13.5-14s-6.3-11.6-6.1-18.1c0.1-6.5 3.3-13.1 8.9-16.4" class="a"/><path d="M572.5 933.6c-1.9-5.2-1.1-11.3 2.1-15.9 2.1-3.1 5.1-5.4 7.2-8.4 3.3-4.7 4.2-11 2.3-16.4" class="a"/><path d="M555 980.8c1.3-6.1 2.6-12.3 1.9-18.4 -0.7-6.2-3.9-12.4-9.5-15.1 -2.4-1.2-5.5-1.5-7.6 0.2 -2 1.7-1.4 5.9 1.2 6.2" class="a"/><path d="M624.5 863.8c-2.9-14.1 8.8-27.6 22.2-32.9 13.4-5.2 28.2-4.7 42.5-6s29.7-5.5 38.2-17" class="a"/><path d="M733.5 846.1c8.1-3.7 16.9-5.9 24.9-9.7 8.1-3.8 15.7-9.7 18.7-18.1 3-8.4-0.1-19.4-8.4-22.7 -3.1-1.2-6.8-1.2-9.6 0.6 -2.8 1.9-4.2 5.8-2.7 8.8s6.2 3.9 8.4 1.4" class="a"/><path d="M651.3 859c13.7-6.6 29.8-5.4 44.7-2.1 14.8 3.2 29.4 8.4 44.5 9.5 15.2 1.1 31.7-2.8 41.4-14.5" class="a"/><path d="M826.4 819.6c24.5-9.9 48.1-24.9 61.6-47.6s14.5-54.2-2.8-74.1" class="a"/><path d="M907.7 700c-9.2-16.4-3.3-37.2 5.5-53.8 8.8-16.7 20.5-32.5 23.1-51.2 3.2-23.4-10.3-48.1-31.7-57.9" class="a"/><path d="M919 585.1c-4.2-11-8.3-22-14.6-31.9s-14.9-18.6-25.8-23.1" class="a"/><path d="M231.1 2023.8c-3.4 0.2-6.6 1.7-9.6 3.4 -15.1 8.6-27.4 22.3-34.3 38.3 -1.9 4.4-2.8 9.3-2.4 14.1v0.1c0.3 3.4 2.4 6.8 5.7 7.5 3 0.6 5.9-1.1 8.4-2.9 16-11.4 29.5-26.4 39-43.6 2.2-3.9 4.1-8.8 2-12.7C238.2 2025 234.5 2023.6 231.1 2023.8z" class="a"/><path d="M308.2 2019.7c-15.6-7.4-33.6-9.7-50.6-6.3 -5 1-9.6 3.1-13.5 6.3 0 0-0.1 0-0.1 0.1 -2.6 2.1-4.2 5.8-2.8 8.9 1.2 2.8 4.3 4.2 7.2 5.2 18.5 6.6 38.5 9 58.1 7 4.4-0.4 9.5-1.6 11.5-5.6 1.6-3.1 0.6-6.9-1.5-9.6C314.4 2022.9 311.3 2021.2 308.2 2019.7z" class="a"/><path d="M180.1 2087c-2.7 1.4-4.9 3.9-6.8 6.5 -9.8 13.2-15.7 30.3-16.7 47.7 -0.3 4.8 0.5 9.6 2.2 14.1v0.1c1.2 3.1 3.9 5.6 6.8 5.1 2.6-0.5 4.4-3.1 5.9-5.6 9.7-16.2 16.2-34.9 18.9-54.3 0.6-4.4 0.8-9.6-2.1-12.6C186.2 2085.7 182.8 2085.7 180.1 2087z" class="a"/><path d="M159.5 2159.9c-2.7-1.4-6-1.7-9.2-1.8 -17-0.5-34.8 4.7-49.8 14.3 -3.3 2.1-6.1 4.8-8.3 7.9 -0.3 0.4-0.6 0.8-0.9 1.2 -1.9 2.7-2.4 6.4-0.3 8.5 1.9 1.9 5.1 1.9 8 1.7 18.8-1.3 37.8-6.7 55.3-15.6 3.9-2 8.3-4.8 9.1-8.9C164 2164.2 162.2 2161.4 159.5 2159.9z" class="a"/><polygon points="93.2 1661.1 237.2 1729.3 265.2 1681.2 130.5 1592.8 " class="a"/><rect x="58.5" y="1611.8" transform="matrix(0.479 -0.8778 0.8778 0.479 -1370.4946 935.1907)" width="88.1" height="20.7" class="a"/><polyline points="91.6 1620.7 68.9 1603.8 35.8 1625.4 " class="a"/><path d="M444.1 2399.9c5.4 6.9 15.1 9.6 23.7 8s16.1-7.1 21.8-13.8c3.4-4 6.2-8.5 7.4-13.7 1.2-5.2 0.6-10.7-2.3-15 -3.8-5.7-10.9-8.2-17.7-9 -8.5-1-17.5 0.3-24.9 4.7s-13.1 11.9-14.2 20.5c-1 8.5 2.9 17.8 10.4 21.9" class="a"/><path d="M499.9 2373.2c20-11.3 37.4-21.8 59.4-28.2 4.4 4.4 13.2 1.7 14.4-4.3 1.2-6.1-5.9-12-11.6-9.6 2.3-1.8 3.5-4.9 2.8-7.6 -0.7-2.8-3.5-5-6.3-4.6 -3.2 0.4-5.2 3.3-7.1 6 -14.2 20.3-39.4 25.5-62.3 35.1" class="a"/><circle cx="1077.1" cy="1181.2" r="28" class="a"/><path d="M18.6 1448.1c-3-11.9 0.2-24.6 5.5-35.7s12.4-21.2 17.9-32.3c2.4-4.8 4.5-10.1 3.3-15.3s-6.8-9.7-11.7-7.8" class="a"/><path d="M162.3 1231c-20.1 27.4-45.4 50.9-74.2 68.8" class="a"/><path d="M93.5 1233.2c7.9-4.1 15.9-8.4 22.6-14.2 6.8-5.9 12.1-13.8 13.4-22.6 0.4-2.9 0.2-6.3-2.2-8.1 -2.3-1.8-5.6-1.2-7.9 0.5 -2.3 1.6-3.7 4.2-5.1 6.7 -1.1 2-2.3 4.2-1.8 6.6 0.4 2.3 3.3 4.1 5.1 2.7" class="a"/><path d="M115.1 1400.3c-0.5-9.9 5.9-19 13.9-24.8s17.6-8.9 26.8-12.4c24.7-9.4 48.1-22.3 69.3-38.3" class="a"/><path d="M175.4 1408.1c28.5-6 58.5-12.7 79.8-32.5 2.5-2.3 4.8-4.8 6-7.9 1.1-3.1 0.8-7.1-1.7-9.3 -2.3-2.1-5.8-2.3-8.6-1.3s-5.2 3.1-7.3 5.4c-1.8 1.9-3.5 4.4-2.9 6.9 0.7 2.5 5.2 3.2 5.5 0.6" class="a"/><path d="M285.5 1373.7c17.4-3.1 35.9 0 51.4 8.6" class="a"/><path d="M117.2 1433.9c-4.5 0.2-8.8 1.4-12.9 2.6 -1.4 0.4-2.8 0.8-4.1 1.1 -6.9 1.7-14.2 2.5-21.2 3.2 -8.8 0.9-17.8 1.8-26.4 4.6 -16 5.1-30.4 19.8-28 35.9 -5.1 2.7-22.1 13.1-17.5 28.7 2.3 7.6 7.9 14.7 12.9 21 0.7 0.8 1.3 1.7 1.9 2.5 9.9 12.8 21.9 26.6 38.3 28.4 1.1 0.1 2.1 0.2 3.2 0.2 11.2 0 22.9-6 31.8-16.4 8.7-10.1 13.8-22.9 18.2-34.2 6.3-15.7 12.6-31.5 19-47.3l0.2-0.6c2.8-7.2 5.5-15.4 1.4-22.2C130.4 1435.6 123 1433.7 117.2 1433.9zM128.8 1462.2l-0.2 0.6c-6.3 15.8-12.6 31.6-19 47.3 -4.4 11-9.3 23.4-17.6 33 -8.9 10.4-20.7 15.9-31.6 14.8 -14.8-1.6-25.7-14.1-35.5-26.8 -0.6-0.8-1.3-1.6-2-2.5 -4.7-6-10.1-12.8-12.2-19.7 -4.3-14.6 16.5-24.5 16.7-24.6 0.8-0.4 1.3-1.3 1.1-2.2 -3.1-14.5 10.3-28 25.1-32.8 8.2-2.7 17.1-3.6 25.6-4.5 7.2-0.7 14.6-1.5 21.8-3.3 1.4-0.4 2.8-0.8 4.3-1.2 3.9-1.1 8-2.3 12-2.5 0.2 0 0.4 0 0.7 0 4.3 0 9.9 1.5 12.5 5.7C133.7 1448.7 131.3 1455.9 128.8 1462.2z" class="a"/><path d="M66.8 1470.7c-11.7 0-21.3 11.1-21.3 24.7s9.6 24.7 21.3 24.7 21.3-11.1 21.3-24.7C88.1 1481.8 78.5 1470.7 66.8 1470.7zM66.8 1516.1c-9.5 0-17.3-9.3-17.3-20.7s7.8-20.7 17.3-20.7 17.3 9.3 17.3 20.7S76.3 1516.1 66.8 1516.1z" class="a"/><path d="M70.8 1476.9c-1-0.4-2.2 0.1-2.6 1.2 -0.4 1 0.1 2.2 1.2 2.6 4.8 1.8 8.4 6.7 8.8 11.8 0.1 1 1 1.8 2 1.8 0.1 0 0.1 0 0.2 0 1.1-0.1 1.9-1.1 1.8-2.2C81.6 1485.4 77.1 1479.3 70.8 1476.9z" class="a"/><path d="M120.6 1464.4c-1-0.4-2.2 0.1-2.6 1.2 -3.5 9.3-7.2 19.2-11.2 30.2 -0.4 1 0.2 2.2 1.2 2.6 0.2 0.1 0.5 0.1 0.7 0.1 0.8 0 1.6-0.5 1.9-1.3 4-11 7.7-20.9 11.2-30.2C122.2 1466 121.6 1464.8 120.6 1464.4z" class="a"/><path d="M147.2 1434.9c-0.9 0.6-1.2 1.9-0.5 2.8 4.1 6.1 4.5 14.9 1.2 24.1 -2 5.4-4.9 10.5-7.7 15.4 -1.5 2.7-3.1 5.4-4.6 8.2 -5.3 10.4-7.1 19.3-5.3 27.3 0.2 0.9 1 1.6 1.9 1.6 0.1 0 0.3 0 0.4 0 1.1-0.2 1.8-1.3 1.5-2.4 -1.6-7 0-15 4.9-24.5 1.4-2.7 3-5.4 4.5-8.1 2.9-5.1 5.9-10.3 8-16.1 3.8-10.4 3.2-20.5-1.6-27.7C149.3 1434.6 148.1 1434.3 147.2 1434.9z" class="a"/><path d="M6.1 1560.9c-0.4 1 0.1 2.2 1.1 2.6 0.2 0.1 0.5 0.2 0.8 0.2 0.8 0 1.5-0.5 1.8-1.2 3.9-9.4 0.7-19.8-2.8-26.7 -1.4-2.9-3-5.7-4.5-8.4 -0.8-1.5-1.7-3-2.5-4.4v8.2c1.2 2.1 2.4 4.2 3.4 6.4C6.4 1543.7 9.4 1552.9 6.1 1560.9z" class="a"/><path d="M1031.8 619.2c-18.7-2.9-35.3 8.5-48.3 20.8 -33.1 31.2-57.1 71.8-68.8 116.5 0 0-19.7 36.3-35.5 63.8 -3.5 6-3.3 13.6 0.9 19.2 7 9.4 20.4 15.1 32 13.7 16.1-2 28.5-13.9 37-27.2 8.5-13.2 14.2-28.2 23.4-41 14.2-19.9 35.7-33 55-48.1 19.3-15 37.7-33.7 41.8-58.3S1057.3 623.2 1031.8 619.2z" class="a"/><path d="M929.6 816.8c-2.8 2.8-5.7 5.6-9.4 7.2 -3.7 1.6-8.4 1.6-11.8-1 -4.1-3.1-5-9-3.5-13.6s4.7-8.3 7.6-12c14.1-18.7 20.2-42.3 29.6-63.9 12.4-28.6 31.1-54.2 54.4-74.6 2.8-2.4 5.8-4.9 9.6-5.4 5-0.6 10.2 2.5 13.5 6.6 6.5 8 7 19.3 3.4 28.2 -3.6 8.9-10.7 15.8-18.3 21.6s-15.9 10.8-22.9 17.3C956.6 750.6 950.7 789.7 929.6 816.8" class="a"/><path d="M989.5 687.2c-8.1 9.2-12.4 18.5-9.8 20.8 2.7 2.3 11.3-3.2 19.4-12.4 8.1-9.2 12.4-18.5 9.8-20.8S997.6 678.1 989.5 687.2z" class="a"/><line x1="884.9" y1="844.5" x2="930.4" y2="884.5" class="a"/><path d="M1055.7 633l45.2 39.7c4 3.5 5.8 8.8 4.9 14 -5.1 28.5-8.8 60.9-31.9 76.3 -9.9 6.6-21.5 10.6-31.5 17 -14 8.9-24.6 22.1-34.8 35.1 -14.7 18.6-29.5 37.2-44.2 55.8 -3.7 4.6-7.4 9.3-12.5 12.5s-11.7 4.5-17.5 2.1" class="a"/><circle cx="725.2" cy="926.8" r="42.3" class="a"/><polygon points="725.2 904.9 723.1 916.5 720.3 923.5 706.5 929.5 721.8 933.6 729.6 944.5 730.8 930.3 745.8 923 733.5 917.5 " class="a"/><circle cx="221" cy="2205.8" r="11.8" class="a"/><path d="M245.2 700.7c-4.8-1.4-9.9 0.1-14.2 2.5 -11.8 6.4-19.7 19.4-20 32.8 0 0 0 14.3 15.6 16.4 6.2 0.9 9.6-1.7 14.6-5.4s8.5-9.1 11.1-14.8c2.5-5.6 4.4-11.7 3.6-17.8C255.1 708.4 251.1 702.4 245.2 700.7z" class="a"/><path d="M226.8 744.8c-5.6-10.4-2.7-24.5 6.4-32" class="a"/><polygon points="946.2 534.2 986.5 580.7 1114.5 498.1 1078.4 445.8 " class="a"/><polyline points="1034.9 441.4 1054 421.4 1078.4 445.8 " class="a"/><line x1="946.2" y1="534.2" x2="1014.1" y2="463.2" class="a"/><line x1="971.4" y1="537.7" x2="1074.5" y2="472.6" class="a"/><line x1="983.9" y1="555.2" x2="1085" y2="488.5" class="a"/><circle cx="1027.1" cy="454.2" r="13.6" class="a"/><path d="M1023.4 445.5c-4.6-10.5-6-22.4-4.1-33.6" class="a"/><path d="M1060.2 1033.5c-2.4-6.3 6-13 3.8-19.4 -1.9-5.4-9.6-5.8-15.2-4.3s-12.3 3.5-16.6-0.4c-5.9-5.2-2.7-17.3-9.8-20.5 -10.4-4.6-18.3 18.7-28.5 13.6 -3.2-1.6-4.6-5.6-7.4-7.8 -5-4-13-0.7-16.3 4.8 -3.2 5.6-17.7 33.9-22.4 39.7 -4.8 6.1-7.8 14.1-6 21.6 0.9 4.2 3.3 8.1 3.2 12.3 -0.1 7.4-7.4 15.4-2.9 21.3 5.2 6.9 16.9-1 24.6 2.8 4 2 5.8 6.7 8 10.7 6.5 12 34.9 11.1 39.8 10.5 4.9-0.6 9.6 1.6 14.5 2.3 10.5 1.5 21-4.3 27.2-12.9 8.9-12.4 9.4-29 15.7-43 3.2-7 7.6-15.8 2.4-21.5C1070.3 1039 1062.3 1038.9 1060.2 1033.5z" class="a"/><path d="M1076.4 1444.1c-19-27.4-31.5-60.6-28.3-93.8 1.6-16.5 7-32.8 6-49.4s-11.3-34.5-27.8-36.5" class="a"/><path d="M1036.4 1214.6c17.6 4.6 30.9 19.8 37.6 36.8 6.6 16.9 7.5 35.5 7.2 53.7 -0.2 13.9-0.9 27.9 2.2 41.4s10.8 26.7 23.3 32.8" class="a"/><path d="M249.7 20.4c0 0-98.6 102.1 0.3 172.4s161.2-50 161.2-50" class="a"/><path d="M232.5 179.7c-11 20.3-26.2 38.1-44.5 52.2 -3.9 3-8.1 5.9-11.2 9.8 -3.1 3.9-5.1 8.9-4 13.9 1.2 5.7 6.6 10.4 12.4 10.7s11.4-3.6 12.9-9.1c-0.8 3.7-1.7 7.6-1 11.4s3.3 7.7 7.1 8.6c3.7 0.9 7.5-1 9.7-3.8s3.3-6.5 4.4-10c3.6-12.5 7-25 12.8-36.6 5.8-11.5 14.3-22 25.9-27.9" class="a"/><path d="M241.9 46.7c-13.2 15.7-21.8 35.1-24.7 55.6" class="a"/><path d="M81.6 386.9c-20.1-14.9-30.7-16.8-49-12 -8.4 2.2-31.1 18.4-32 46.4 -0.3 11.5 0.3 25.9 5.3 34.7 4 7 15.5 18 29.2 18.9 16.1 1 24.5-7.5 36.2-14.9C86.5 450.3 117.1 413.2 81.6 386.9z" class="a"/><path d="M35.3 382.1c-9.3 3.5-16.7 11.6-19.4 21.2" class="a"/><path d="M14.2 409.8c-1.5 3.9-2.4 8.1-2.7 12.3" class="a"/><path d="M62.6 385.9c3.8 5.6 9.5 10 16 12.2" class="a"/><path d="M69.3 392.8c9.9-12.7 26.3-20 42.3-18.8" class="a"/><path d="M144.9 335.3c0 0-9.9 14.1-10.5 19.9 -0.4 5.8 8.2 20.1 8.2 20.1s12.7-9.2 9.4-22.4C148.7 339.7 144.9 335.3 144.9 335.3z" class="a"/><path d="M372.3 19.5c0 0 8.2 15.1 13.1 18.3 5 2.9 21.6 1.6 21.6 1.6s-2.6-15.5-15.9-18.4C377.9 18 372.3 19.5 372.3 19.5z" class="a"/><path d="M7 122c0 0-4 16.8-2.4 22.4 1.8 5.5 15 15.7 15 15.7s8.4-13.2 0.5-24.3S7 122 7 122z" class="a"/><path d="M216.8 328.3c-26.4 0.4-52.6-12.1-68.8-33 -16.2-20.8-21.9-49.4-15-74.8" class="a"/><path d="M148.2 194.7c13-25.9 21.9-53.9 26.2-82.6" class="a"/><path d="M104.6 267c-1.7-36.5 6.5-73.5 23.5-105.8" class="a"/><path d="M71.7 647.1c-17.1-22-25.7-50.4-23.7-78.2s14.6-54.7 34.7-74" class="a"/><path d="M28.9 615.4c-5.3-14.8-7.5-30.8-6.4-46.5 0.9-12.2 3.8-24.2 8.5-35.5" class="a"/><path d="M711.2 113.5c-71.8 25.3-48.7 100.3-48.7 100.3l149.7-52.9C812.2 160.9 783 88.2 711.2 113.5z" class="a"/><path d="M670.3 141.1c0 0-12.2-50.1 28-64.3s59.3 33.5 59.3 33.5" class="a"/><polyline points="664.9 154.8 643.5 150.6 640 168.3 660.2 171.6 " class="a"/><polyline points="662.5 213.8 666.5 225 816.2 172.1 812.2 160.9 " class="a"/><path d="M751.3 116.7c13.5 1.5 26.1 9.1 33.8 20.2" class="a"/><path d="M633 140.5c-10.1-0.9-13.5 8.6-13.5 8.6l24 1.5C643.5 150.6 643.2 141.4 633 140.5z" class="a"/><path d="M634 174.4c-7.7 10.8-13.8 15.9-24.1 24.3 -10.3 8.4-23.5 14-36.7 12.3s-25.6-11.9-27-25.1c-9.2 9.1-25.5 9-35.4 0.7s-13.1-23.3-8.6-35.4 15.8-21.1 28.4-24.2c-13.5-9.8-12.4-32.1-0.8-44.2 11.5-12.1 29.7-15.4 46.3-14 9.3 0.8 18.7 2.9 26.6 7.8 7.9 4.9 14.2 13 15.3 22.3 0.9 7.4-1.3 15.6 2.8 21.9 2.5 3.9 4 2.5 6.9 6.1" class="a"/><circle cx="707.8" cy="103.8" r="6.8" class="a"/><path d="M546.7 107.6c0 0 3.6-25.6 29.1-14.1" class="a"/><path d="M523.3 155c0 0-9.6 15.5 7.2 21.5" class="a"/><path d="M572.7 174.4c0 0 10.9 23 34 5.3" class="a"/><path d="M1125.1 219.7c-1.1-0.5-2.2-0.9-3.3-1.1l0 0c-7.7-1.7-16.5 1.1-25.5 8.3 -18 14.4-28.6 36.2-37.9 55.5 0 0 0 0.1-0.1 0.2l-1.5 3.8c-2.5 5.6-2 12.9-0.6 17.8 1.9 6.4 13.1 9.6 18.4 9.8 0.1 0 0.3 0 0.4 0 7.3 0 11-7.8 14.3-14.7 0.9-2 1.8-3.9 2.8-5.5 6.8-11.8 16-22.4 26.5-30.6 0.8-0.6 1.6-1.3 2.4-1.9 1.3-1 2.7-2.1 4-3.2L1125.1 219.7 1125.1 219.7zM1118.7 258.2c-0.8 0.6-1.7 1.3-2.5 1.9 -10.9 8.5-20.5 19.5-27.5 31.8 -1 1.7-1.9 3.7-2.9 5.8 -2.9 6.2-6 12.7-10.9 12.5 -5.1-0.2-13.7-3.3-14.8-6.9 -1.1-4.1-1.7-10.5 0.4-15.1v-0.1l1.5-3.8c9.1-18.9 19.4-40.2 36.7-54 5.6-4.4 14-9.4 22.1-7.5 0.7 0.2 1.4 0.4 2.1 0.7v31.6C1121.6 255.9 1120.1 257.1 1118.7 258.2z" class="a"/><polyline points="1064.1 309.1 1058 312.3 1068.1 316.6 1068 310.6 " class="a"/><path d="M965.8 466.9c0.8-26 2.4-54.1 19-74.2 28.4-34.5 85-28 119.9-55.8" class="a"/><path d="M1124.9 350.7c-12.1 11.1-26.7 18.2-40.9 24.2 -1 0.4-1.5 1.6-1.1 2.6 0.3 0.8 1.1 1.2 1.8 1.2 0.3 0 0.5-0.1 0.8-0.2 13.6-5.7 27.5-12.4 39.4-22.6L1124.9 350.7 1124.9 350.7z" class="a"/><circle cx="901.7" cy="483.8" r="14.7" class="a"/><circle cx="939.7" cy="449.6" r="6.5" class="a"/><circle cx="1000.3" cy="288" r="15.7" class="a"/><path d="M1007.4 278.9c7.2-4.8 13.2-15.3 12.7-24 -0.5-8.7-4-16.8-7.4-24.8" class="a"/><path d="M998.4 83c-21.2 2.7-57.6 21.4-57.6 21.4l99.7 111.6c4.1 4.6 11.3 5 15.9 0.9l45.3-40.5c4.6-4.1 5-11.3 0.9-15.9l-60.7-67.9C1041.9 92.6 1019.6 80.5 998.4 83z" class="a"/><path d="M977.8 100.5c10.9-3.5 22.4-5.2 33.8-5.1" class="a"/><polyline points="998.4 83 1002.8 48.9 1047.5 98.9 " class="a"/><path d="M956.9 94.9c-3-0.5-5.4-3.3-5.4-6.4 0-3 2.5-5.8 5.5-6.3 -0.3-5.3 1.9-10.4 4.7-14.9 4.5-7.3 11.2-13.8 19.5-15.7 8.3-2 16.5-0.6 19.4 7.4" class="a"/><path d="M950.2 99.3c-11.8-4.2-21.7-8.8-32.7-14.9 5.2-14.8 12.3-28.9 21-41.9 9.4 5.7 18.8 11.4 28.1 17.1" class="a"/><path d="M971.8 55.8c-5.2-7.1-15.7-21.4-15.7-21.4l8.8-5.3 14.9 22.2" class="a"/><line x1="1000.6" y1="171.3" x2="1062.7" y2="115.8" class="a"/><path d="M969.8 67.6c2.9-4.1 7.6-7 12.7-7.7" class="a"/><circle cx="719.6" cy="261.6" r="18.5" class="a"/><circle cx="714.6" cy="2297.7" r="18.5" class="a"/><path d="M970.9 925.9c4.3-38.7 38.4-66 69.2-89.8 30.8-23.8 63.6-53.9 63.4-92.8" class="a"/><path d="M1106.5 945.5c-14.4-12.9-25-29.9-30.3-48.5 -1.6-5.5-3.1-11.6-7.9-14.6 -5.2-3.1-12.4-1-16.3 3.6 -4 4.6-5.3 10.9-5.6 16.9 -0.2 4.4 0.1 9 2.3 12.9 2.2 3.9 6.6 6.7 10.9 5.9 4.4-0.8 7.6-6.1 5.4-10" class="a"/><path d="M1101.2 819.8c17.7-42.4 30.9-88 26.4-133.7s-29.6-91.4-71.4-110.5" class="a"/><path d="M1125.1 557.2c-1.4-1.6-3.1-2.9-5.1-3.9 -4.1-2-8.5-1.9-12.1 0.2 -0.9 0.6-1.2 1.8-0.7 2.7 0.6 0.9 1.8 1.2 2.7 0.7 2.3-1.4 5.3-1.4 8.3 0 3.2 1.6 5.5 4.5 5.9 7.6 0.4 2.9-0.5 5.9-2.5 8.4 -2.2 2.9-5.6 4.8-8.9 5.2 -6.5 0.8-13.6-3.1-17.1-9.4 -3.2-5.6-4-13.2-2-20.8 1.6-6.2 4.7-12.3 10.1-19.7 0.6-0.9 0.5-2.1-0.4-2.8 -0.9-0.6-2.1-0.4-2.8 0.4 -5.7 7.9-9 14.4-10.7 21.1 -2.2 8.6-1.3 17.3 2.4 23.8 4 7.1 11.4 11.5 18.9 11.5 0.7 0 1.4 0 2.2-0.1 4.5-0.5 8.7-3 11.6-6.7 0.1-0.1 0.2-0.2 0.2-0.3V557.2z" class="a"/><path d="M1017 6.1c4.8 15 15.9 27.8 30.1 34.7 14.1 6.9 31.1 7.7 45.9 2.1 5.5-2.1 10.8-5.1 14.4-9.6 3.7-4.6 5.4-11 3.5-16.5 -3.2-9.4-15.4-12.6-25.2-11 -5.7 1-11.7 3.5-14.2 8.8 -2.4 5.3 1.3 13 7.1 12.5" class="a"/><path d="M775.9 65.4c34.3 17.5 75.1 21.7 112.2 11.7" class="a"/><path d="M745 22.1c25.3 17.5 56 27 86.8 26.7" class="a"/><path d="M453.3 128c10.5-8.4 21.2-17 28.8-28.2 7.6-11.2 11.7-25.4 7.7-38.3 -5.3-17.2-26.1-27.8-43.1-22 -8.3 2.8-15.7 9.4-17.9 17.9s1.6 18.6 9.6 22.2c8 3.6 19.1-1.3 20.6-10" class="a"/><path d="M508.9 83.3c5.6-12.8 4.1-28.5-3.9-40s-22.2-18.4-36.2-17.6" class="a"/><path d="M90.1 208.5c15.6-34.5 19.8-73 32.4-108.7s37.5-71.1 74.4-79.1" class="a"/><path d="M79.1 156.2c-3.7 21.2-15.8 39.8-26.5 58.5s-20.8 39.1-19.4 60.6c0.6 9.2 3.8 19 11.3 24.4s20 4.2 24-4.1c4.5-9.1-4.5-20.7-14.6-21.2" class="a"/><path d="M177 2210.2c-11.6 13.1-19.4 29-29.2 43.5s-22.6 28.1-39.4 32.9 -37.9-2.5-43.4-19.1c-4.4-13.3 2.1-28.1 11.4-38.6 4.4-4.9 9.6-9.5 16-11.1s14.1 0.5 17.3 6.3 -0.5 14.6-7 15" class="a"/><path d="M238.5 2087.4c0 0-9.9 14.1-10.5 19.9 -0.5 5.7 8.2 20.1 8.2 20.1s12.7-9.2 9.4-22.4S238.5 2087.4 238.5 2087.4z" class="a"/><line x1="236.2" y1="2127.4" x2="237.1" y2="2114.5" class="a"/><polygon points="85.9 2045.6 108 2077.4 139.7 2063.8 133.4 2025.3 " class="a"/><path d="M85.9 2045.6c-5.3 0.2-9.2-2.3-11.4-7.2 -2.2-4.9-8.2-24.4 25-38.7 17.2-7.4 33 1 35.9 7.7 2.4 5.8 2.1 12.1-1.2 17.4" class="a"/><line x1="126.2" y1="2034.4" x2="131.4" y2="2059.9" class="a"/><line x1="112.9" y1="2067.4" x2="97.8" y2="2046.1" class="a"/><line x1="122.3" y1="2063.6" x2="112.5" y2="2040.6" class="a"/><line x1="88.2" y1="2014" x2="91.2" y2="2010.3" class="a"/><line x1="97.5" y1="2005.7" x2="102.6" y2="2005.5" class="a"/><line x1="110.8" y1="2005.2" x2="116" y2="2003" class="a"/><line x1="96.5" y1="2015.4" x2="100.8" y2="2013.5" class="a"/><line x1="80.1" y1="2020" x2="83.6" y2="2020.9" class="a"/><path d="M59.7 2177.8c12.4-10.8 24.2-22.9 30.8-38s7.2-33.5-1.8-47.3c-4.9-7.3-12.9-13.1-21.7-13s-17.5 7.7-16.9 16.5" class="a"/><path d="M89.1 1975.4c-22-11.2-39.2-31.2-47.1-54.6s-6.2-49.8 4.5-71.9" class="a"/><path d="M654.7 8.1c-31.7-7.8-54.1 10.3-54.1 10.3l-14.4-11c-1.7-1.3-4.1 0.4-3.5 2.4l0 0c2.8 8.7 1.1 18.3-4.5 25.5l-1 1.3c-1.3 1.7 0.4 4.2 2.5 3.5l17.7-6c0 0 18.7 25.7 47.4 30.1s43.5-18 43.5-18S686.3 15.8 654.7 8.1z" class="a"/><path d="M674.2 19c-9.4 12.6-13.6 27.6-10.9 43.2" class="a"/><path d="M677.3 39.6c-1.4-1.1-3.3-0.9-4.4 0.4 -1 1.3-0.8 3.3 0.6 4.4s3.3 0.9 4.4-0.4C678.9 42.6 678.6 40.7 677.3 39.6z" class="a"/><path d="M644.8 18c0 0 5.8 7.8-2 11.7" class="a"/><path d="M625.5 29.7c0 0 5.8 7.8-2 11.7" class="a"/><path d="M644.8 40.1c0 0 5.8 7.8-2 11.7" class="a"/><path d="M902.1 2100.3c-30-14-55.2 22.8-30.2 39.4 18.9 12.6 39.8-2.8 34.1-20.6 -4.7-14.6-29.7-16.5-31.2 1.1 -1.4 16.6 22.4 11.1 14.8-1.7" class="a"/><path d="M61.3 847.1c-7.8-38.7-60.9-36.8-59.2-1.1C3.4 873.1 33 882.2 46 864.2c10.7-14.8-5.2-40.1-23.1-29.1 -16.9 10.3 5.2 29.3 12.1 13" class="a"/><path d="M15.8 1998.6l-15.8-81v20.8l11.6 59.3c-2 0.8-6.1 2.5-11.6 4.5v4.3c9-3.3 14.5-5.7 14.7-5.7C15.5 2000.5 16 1999.5 15.8 1998.6z" class="a"/><path d="M23.6 2276.3c-1.6-7.4-4.7-12.6-9.2-15.3 -5-3.1-9.8-2-10-1.9l-4.5 1v4.1l5.4-1.2c0 0 3.4-0.8 7 1.4 3.5 2.2 6 6.5 7.4 12.8 3.6 16.6-6.6 19.4-7 19.5L0 2299.4v4.1l13.6-3C13.8 2300.4 28.2 2296.8 23.6 2276.3z" class="a"/><path d="M2.1 2289.5c-0.2-1-1.1-1.6-2.1-1.6v4.1l0.6-0.1C1.6 2291.6 2.3 2290.6 2.1 2289.5z" class="a"/><path d="M8.7 2269.1c-0.2-1.1-1.3-1.8-2.4-1.5L0 2269v4.1l7.2-1.6C8.3 2271.2 9 2270.2 8.7 2269.1z" class="a"/><path d="M11 2313.7c0.3-2.5-1-4.9-3.2-6l-7.8-3.9v4.5l6 3c1.1 0.6 1.1 1.6 1 1.9 0 0.3-0.3 1.4-1.5 1.6 -1.7 0.4-3.6 0.8-5.6 1.3v4.1c2.3-0.5 4.5-1 6.5-1.5C8.9 2318.2 10.7 2316.2 11 2313.7z" class="a"/><path d="M26.7 2350.9l-5.9-26.9c-0.2-1.1-1.3-1.8-2.4-1.5l-18.4 4v4.1l17.3-3.8 5.5 24.9c2.3 10.4-4.3 20.8-14.8 23.1l-8.1 1.8v4.1l8.9-2C21.5 2375.9 29.5 2363.4 26.7 2350.9z" class="a"/><path d="M1.4 2328.3L0 2322v8.7C1 2330.3 1.6 2329.3 1.4 2328.3z" class="a"/><path d="M26.4 2138c0-8.8-7.2-16-16-16 -4 0-7.6 1.5-10.4 3.9v6.2c2.1-3.6 6-6.1 10.4-6.1 6.6 0 12 5.4 12 12s-5.4 12-12 12c-4.5 0-8.4-2.5-10.4-6.1v6.2c2.8 2.4 6.5 3.9 10.4 3.9C19.3 2154 26.4 2146.9 26.4 2138z" class="a"/><path d="M10.3 2126.1c0.4 0 0.9-0.1 1.2-0.4 0.9-0.7 1-1.9 0.3-2.8 0-0.1-4.6-5.8-11.9-16.2v6.9c5.4 7.6 8.7 11.7 8.8 11.8C9.2 2125.9 9.8 2126.1 10.3 2126.1z" class="a"/><path d="M21.6 2092.1c5.9 0 8.6-0.9 8.8-1 0.6-0.2 1-0.7 1.2-1.2 0.2-0.6 0.1-1.2-0.2-1.7 -1-1.5-9.7-15-15.3-17.9 -3.5-1.8-10.7-1.6-16.2-1.1v4c5.6-0.5 11.9-0.7 14.3 0.6 3.2 1.7 8.8 9.3 12.1 14 -2.8 0.3-7.7 0.5-15.4-0.6 -5-0.7-8.6-3.6-11-6.8v5.9c2.7 2.3 6.1 4.2 10.5 4.8C15 2091.9 18.7 2092.1 21.6 2092.1z" class="a"/><path d="M7.3 2082.4c0.7 0 1.3-0.3 1.7-1 0.6-0.9 0.3-2.2-0.7-2.7l-8.4-5.1v4.7l6.3 3.8C6.6 2082.3 7 2082.4 7.3 2082.4z" class="a"/><path d="M5.3 1737.8c2.9-0.5 5.3-2.3 6.9-5 2.1-3.6 2.5-8.6 1.1-12.6 -1.4-4.4-4.5-7.8-8.1-9.1 -1.7-0.6-3.5-0.7-5.1-0.4v4.1c1.2-0.4 2.5-0.4 3.8 0 2.5 0.9 4.7 3.3 5.7 6.6 1.1 3 0.8 6.7-0.8 9.3 -0.7 1.2-2 2.7-4.2 3.1 -1.5 0.3-3 0-4.5-0.6v4.2c1.1 0.3 2.2 0.5 3.4 0.5C4 1737.9 4.6 1737.9 5.3 1737.8z" class="a"/><path d="M2.4 1723.3c-0.2-1.1-1.2-1.8-2.3-1.7H0v4c0.2 0 0.5 0 0.7-0.1C1.8 1725.4 2.5 1724.4 2.4 1723.3z" class="a"/><path d="M22.1 1343.9c0.8 0 1.6-0.5 1.9-1.4 0.4-1.1 8.8-27.8-3.8-52.2 -5.5-10.6-13-17.6-20.2-22.3v4.9c6 4.3 12.2 10.5 16.7 19.2 10 19.3 5.8 40.8 4.1 47.2 -3.8-1.3-12.6-4.7-20.8-10.2v4.8c10.4 6.5 20.8 9.7 21.6 9.9C21.8 1343.9 22 1343.9 22.1 1343.9z" class="a"/><path d="M22.1 1343.9c0.3 0 0.6-0.1 0.9-0.2 1-0.5 1.4-1.7 0.9-2.7L0 1295v8.7l20.4 39.2C20.7 1343.5 21.4 1343.9 22.1 1343.9z" class="a"/><path d="M11.3 243.9c2.5-8-0.9-17.4-8-22.4 -1-0.7-2.1-1.3-3.3-1.8v4.5c0.3 0.2 0.7 0.4 1 0.6 5.7 4.1 8.4 11.6 6.5 18 -1.3 4-4.1 7.3-7.4 10.3v5.2C4.9 254.4 9.3 250 11.3 243.9z" class="a"/><path d="M-0.1 217.5l0.1 2.8v-3.7C-0.1 216.9-0.2 217.2-0.1 217.5z" class="a"/><path d="M2.3 225.1c1.1-0.1 2-1 1.9-2.1L4 221.1l2.5 1.6 -2.4 1.6c-0.9 0.6-1.2 1.8-0.6 2.8 0.4 0.6 1 0.9 1.7 0.9 0.4 0 0.8-0.1 1.1-0.3l5-3.3c0.6-0.4 0.9-1 0.9-1.7s-0.4-1.3-0.9-1.7l-8.4-5.3c-0.6-0.4-1.4-0.4-2.1 0 -0.4 0.2-0.7 0.6-0.8 1v3.7l0.2 3C0.2 224.4 1.1 225.2 2.3 225.1z" class="a"/><path d="M4.6 685.9c-0.8-8.6-2.4-17.1-4.6-25.3v20.5c0.2 1.7 0.4 3.5 0.6 5.2C2 700 1.8 714.1 0 729v24.1C5.2 729 6.7 706.9 4.6 685.9z" class="a"/><path d="M3.2 563.9C2.9 561.4 1.7 559 0 557v18.1C2.6 571.7 3.7 567.8 3.2 563.9z" class="a"/><path d="M852.2 0.6c-3.6 0.8-7.2 0.5-10.5-0.6h-8.2c0.6 0.5 1.3 1 2 1.4 3.8 2.4 8.1 3.7 12.5 3.7 1.7 0 3.4-0.2 5.1-0.6L873.7 0h-18.6L852.2 0.6z" class="a"/><path d="M938.5 1972.2c0 0 15.9 57.5-40.8 93" class="a"/><path d="M919.4 1988.3c0 0 8.5 40.7-26 54.7" class="a"/><path d="M590.7 2043c0 0 24.7-14.9 30.3 14.5" class="a"/><path d="M526.7 2126.5c0 0 17-24.1 35.8-28.9" class="a"/></svg>