<svg xmlns="http://www.w3.org/2000/svg" viewBox="0 0 1125 2436"><path d="M1 2265c22.5-5.5 45.4-9.5 67.2-16.8 36.7-12.4 72.7-26.9 109.1-40.4 12.1-4.5 24.3-8.4 36.9-12.7 -35.3-27.9-70.9-56.5-107.1-84.4 -17.1-13.2-35.2-25.2-53-37.5 -4-2.8-8.7-4.8-13.4-7.3 -1.3 2.5-2.2 4.4-3.2 6.3 -11.7 23-23.3 46-35 69.1 -0.3 0.7-1 1.2-1.5 1.9 0-6 0-12 0-18 0.8-1.4 1.7-2.8 2.3-4.3 7.2-17 14.2-34.2 21.6-51.1 2.2-5 5.4-9.5 8.3-14.1 2.5-4 6.4-5 10.9-4.2 7.7 1.4 14.5 4.9 20.5 9.9 20.2 16.9 40.6 33.5 60.8 50.5 29.4 24.7 59.7 48.1 92 68.9 11.5 7.4 12 20.9 1.3 29.3 -1.2 1-2.9 1.5-4.5 1.9 -13.5 3.4-27.2 6.2-40.6 10.3 -55.5 16.8-110.8 34-166.2 51 -2.1 0.6-4.1 1.3-6.2 2C1 2271.7 1 2268.3 1 2265z"/><path d="M1 2186c1.4-1 3.2-1.8 4.1-3.2 9.1-13.9 20-25.9 34.9-33.6 21.6-11.3 44.2-12.8 67.4-5.7 4.8 1.5 9.4 3.3 14.2 4.9 0.3 0.1 0.6 0 1.3 0 0.5-0.8 1.2-1.8 1.7-2.7 4.4-7.4 9.6-8.7 17.2-4.8 3.9 2 4.9 4.6 3 8.6 -3 6.3-7.2 8.7-14.5 7.9 -2.5-0.3-4.2-0.3-5.8 2.3 -16.5 25.4-40.5 38.3-70.1 41.5 -16 1.7-31.9 1.5-47.3-4.7 -1.4-0.6-3.9 1.7-5.9 2.7C1 2194.7 1 2190.3 1 2186zM8.8 2189.6c32 17.7 103.2-5.1 110.3-35C75.6 2134.6 30.6 2148.7 8.8 2189.6zM129.6 2150.6c4.1 1.2 7.4 0.8 9-3.9C133.2 2143.8 131.7 2144.5 129.6 2150.6z"/><path d="M1126 2148c-0.3 0.4-0.8 0.6-1 1.1 -14.1 33.4-29 66.5-39 101.5 -2 7-4.1 14-2 21.5 1 3.5 2.2 4.5 5.9 3.4 12-3.4 24.1-6.3 36.1-9.5 0 3 0 6 0 9 -11.4 3.6-22.9 7.2-34.3 10.8 -5.3 1.7-10.2 1.6-14.4-2.6 -4.3-4.4-6.1-9.6-4.2-15.5 7.2-22 13.8-44.2 22-65.7 8.9-23.5 19.4-46.4 29.3-69.5 0.4-0.9 1-1.6 1.6-2.4C1126 2136 1126 2142 1126 2148z"/><path d="M1126 2201c-1.7 0.7-3.6 2.3-4.9 1.9 -3.8-1.1-7.7-2.5-10.8-4.9 -1-0.8 0-5.2 1.1-7.4 1.9-3.9 5.2-6.5 9.9-6 1.6 0.2 3.1 1 4.7 1.5C1126 2191 1126 2196 1126 2201zM1124.8 2192.5c-5.5-2.6-6.5-2.2-8.4 2.8C1120.4 2198.4 1122.6 2196 1124.8 2192.5z"/><path d="M447.6 2239.4c0.2-47.6 23.2-80.5 64.9-94.9 16-5.5 32.2-10.8 48.7-14.8 18.5-4.4 35.6 0.1 51.1 11.3 22 15.9 40.8 34.2 50.3 60.5 12 33.2 8.2 64.4-12.8 92.8 -18.8 25.5-43.7 41.8-75.5 46.1 -16.3 2.2-31.9-1.1-46.8-7.6 -21.3-9.2-40.2-22.5-57.3-37.8C452.6 2279.5 448.2 2258.3 447.6 2239.4zM582.9 2231.2c17.6-2 39.7-4.5 61.9-7 7.8-0.9 9.3-3 7.6-10.9 -4.5-20.7-14.8-38.2-31.1-51.7 -13.3-10.9-29.7-12.9-46.2-12.9 -7.3 0-10.5 3.7-11.1 11 -0.6 7.8-1 15.6-0.8 23.4 0.3 11.8 1.1 23.6 1.6 35.4C565.4 2231.4 565.3 2231.4 582.9 2231.2zM553.8 2229.9c-0.5-19.3-0.9-37.9-1.6-56.5 -0.2-4.5-0.8-9-1.8-13.3 -1.7-7.6-5.6-10.4-13-8.4 -9.8 2.7-19.8 5.3-28.7 9.8 -21.1 10.6-34.6 27.7-40 50.9 -2.4 10.4 0.9 14.7 11.2 16.8C504.3 2234 528.9 2230.1 553.8 2229.9zM554.9 2242.2c-18.7 0-36.8-0.4-54.8 0.2 -7.4 0.2-14.8 2-22.1 3.7 -7.6 1.8-9.5 5.9-7.2 13.5 0.3 1 0.6 1.9 1 2.8 12.1 32 35.4 50.7 68.7 57.4 3.5 0.7 7.3 0.5 10.8 0.1 3.5-0.4 5.4-2.7 5.7-6.5C559.2 2289.4 557.7 2265.6 554.9 2242.2zM583.4 2237.2c-5 0.5-9.8 0.8-14.6 1.6 -1.2 0.2-3 2.2-2.9 3.4 0.5 23.7 1.5 47.3 6.7 70.5 1 4.4 3.5 6.6 7.6 6.2 5.6-0.5 11.4-1 16.5-3.1 22.6-9.6 39.6-25.4 50.6-47.5 2-4 3.6-8.3 4.7-12.6 1.8-6.9-1.2-10.9-8.2-11.7 -4.6-0.5-9.3-0.9-13.9-1.4C614.3 2240.7 598.8 2239 583.4 2237.2z"/><path d="M585.8 1111.6c21.6 0.1 42.4 4.1 62.2 13 36.4 16.3 55 45 58 84.2 2.6 33.7-7 64.3-24.9 92.5 -3.1 4.9-7.2 9.2-11.3 13.3 -47.9 47.4-124.8 59.2-184.3 28.4 -33.2-17.2-54.8-43.1-59.3-81.1 -7.9-66.1 32-124.4 96.6-140.5C543.3 1116.1 564.2 1111.5 585.8 1111.6zM577.3 1124.3c-7.1 0.5-16.3 0.9-25.4 1.9 -47.7 5.4-82.7 28.7-100.4 74.2 -21.4 55-0.5 107.3 52.3 133.5 29.3 14.5 59.6 16.4 90.3 6.1 41.4-13.8 72.7-39.5 89-80.8 4.4-11.1 6.4-23.5 7.4-35.5 3.6-45.4-17.9-77-61-91.7C613.2 1126.4 596.5 1124.1 577.3 1124.3z"/><path d="M338.9 360.1c11.9-3.4 23.3-6.3 34.5-9.9 7-2.2 11.9-7.3 14.4-14.3 3-8.4 0.3-14.1-8.6-17.5 -0.7 1.6-1.4 3.2-2.2 4.8 -3.1 6.6-8.7 9.3-15.7 9.9 -3.3 0.3-5-1.4-5-4.7 -0.1-8.9 5.8-16.6 14.7-17.4 5.2-0.5 11.1 0.4 15.9 2.4 8.8 3.6 12.1 12.1 9.3 21.1 -3.6 11.3-11.5 18.7-22.5 22.4 -8.2 2.8-16.7 4.6-25 6.9 -2.9 0.8-5.7 1.6-9.2 2.6 8.2 11.3 14 23 11.7 37 -2.3 14.4-13.7 21.4-24.6 29.4 0.8 1.5 1.5 3 2.2 4.4 9.6 18.2 7.9 30.8-7.4 44.7 -5.7 5.1-6.9 8.8-3.9 16 6.2 15 3.2 24.2-10 35.1 -3.6 3-4.5 5.4-2.6 9.9 3.8 8.8 3.7 18.3-0.3 26.8 -4.8 10.4-11 20-16.8 29.9 -0.5 0.9-2.3 1.8-3.3 1.6 -1-0.2-2.2-1.6-2.4-2.6 -2.3-12.3-4.6-24.6-2.3-37.2 1.5-8.5 5-16 11.5-21.6 3.4-2.9 3.7-5.5 1.4-8.9 -0.7-1.1-1.2-2.4-1.7-3.6 -6.9-15.3-5-25.5 7.6-36.6 3.6-3.1 4.2-5.6 2.1-9.7 -1.4-2.6-2-5.6-2.8-8.5 -3.8-14.2-0.2-26 11.5-35.2 2.2-1.7 4.4-3.6 6.6-5.4 -6.6-11.8-15-22.8-12.3-37.3 2.7-14.2 12.7-22.9 25.1-30.4 -3.3-2.6-6.1-4.9-8.9-7.2 -6.1-5.1-12.7-9.8-18.3-15.4 -7.9-7.9-11.7-17.8-9.8-29.2 1.5-8.8 7.8-14.5 16.7-14 5.4 0.3 11.2 2 15.9 4.7 7.2 4.1 9.1 13.9 5.4 21.3 -1.4 2.9-3.5 3.4-6.1 1.9 -5.8-3.3-9.8-7.9-9.9-15.1 0-1.8 0-3.6 0-5.3 -8.9-1.4-14.4 2.5-15.5 10.9 -1.2 8.4 1.6 15.7 7.7 21.2 8.2 7.3 16.8 14.1 25.7 21.5 0.6-1.7 1.2-2.7 1.4-3.7 2.9-13.7 6-27.3 8.6-41.1 0.5-2.6-0.3-6.1-1.8-8.2 -2.6-3.5-6.1-6.5-9.6-9.3 -2.3-1.9-4.9-3.5-7.7-4.6 -22.4-9.1-29.4-27-28.1-49.5 0.2-4.2-0.4-6.9-4.3-9.3 -6.9-4.3-8.2-11.4-7.1-19 0.5-3.8 3-4.8 6.6-3.1 11.1 5.4 22.1 10.8 33.2 16.2 7.1 3.5 10.4 9.1 9.5 17 -0.5 4.3-1.6 8.5-2.1 12.8 -1.1 8.1 1.1 11.8 8.7 14.6 3.4 1.3 7 2 11 3.2 0.8-3.1 1.7-5.8 2-8.5 0.1-1.1-0.9-2.7-1.8-3.4 -5.7-4.4-7.5-8.5-5.9-14 1.6-5.4 5.8-8.5 12.4-9.1 4.8-0.4 11.4 3.4 13.5 7.9 2.6 5.5 0.4 13.2-5.7 15 -7.2 2.2-6.6 7.5-7.8 13.3 8 1.1 15.5 1.7 22.7-2 3.7-1.9 5.3-5.2 4.9-9.1 -1.6-17 7.5-21.7 22.3-22 11.3-0.2 22.7-0.5 34-0.6 5.9-0.1 7.2 1.9 5.1 7.4 -2.3 5.9-5.7 10.4-12.2 12.2 -1.5 0.4-2.9 2-3.8 3.3 -1.6 2.5-2.6 5.4-4 8.1 -9 18.2-23.5 27.9-44 28.5 -9.7 0.3-19.3 1.4-27.9 6.6 -3.2 1.9-5.1 4.2-5.9 8.1 -2.5 12.9-5.4 25.8-8.1 38.7C339.1 356.6 339.1 357.9 338.9 360.1zM324.7 424.9c21.5-11.9 26.6-36.8 11.1-52.5C332.1 389.9 328.5 407 324.7 424.9zM319.5 419.2c3.4-15.9 6.6-31.5 10-47.9C311.3 381.4 306.4 405.7 319.5 419.2zM438.9 251.1c-0.3-0.5-0.6-1.1-0.9-1.7 -17-2.6-37.9 0.5-42.3 6.7 11.8 0 23.4 0.3 34.9-0.2C433.4 255.8 436.1 252.8 438.9 251.1zM422.9 263.3c-9.4-2-28.4-1.1-31.7 2.2 6.2 2 11.9 3.9 17.6 5.7C419.2 274.4 419.2 274.4 422.9 263.3zM313.8 476.6c13.1-7.4 16.8-25.2 7.3-34.7C318.7 453.5 316.3 464.8 313.8 476.6zM322.4 241.8c0.3-0.6 0.7-1.1 1-1.7 -8.3-11.5-22.8-13.6-34.1-21.9 -0.4 5.3 1.3 8.8 4.9 10.5C303.4 233.4 313 237.5 322.4 241.8zM314.9 441.3c-13.4 7.5-16.6 22.8-7.2 34.1C310.1 463.9 312.4 452.9 314.9 441.3zM300.5 238.8c0 4.3-0.2 7.2 0.1 10.2 0.1 1.1 1.4 2.9 2.3 3 6.5 0.9 13.1 1.5 21.3 2.3 -1.4-2.9-1.8-5.4-3.1-6C314.7 245 308.1 242.3 300.5 238.8zM413.7 279.3c-7.3-2.3-14.4-4.7-21.6-6.7 -1-0.3-2.5 0.7-3.7 1.1 0.4 1.2 0.5 2.9 1.4 3.6 2.8 2.3 6 4.3 9 6.3 8 5.5 8.4 5.5 14.3-2.6C413.2 280.7 413.3 280.4 413.7 279.3zM309.4 497.8c-2.2 10.5-4.3 20.3-6.4 30.4C315.1 521.8 318.5 506.7 309.4 497.8zM398.8 292.6c0-0.5 0.1-0.9 0.1-1.4 -4.7-3.3-9.4-6.7-14.3-9.7 -1-0.6-3.1-0.1-4.4 0.5 -0.5 0.2-0.5 2.3-0.2 3.3 0.8 2.5 1.9 5 3.2 7.3 0.6 1.1 2.2 2.4 3.2 2.3C390.6 294.5 394.7 293.5 398.8 292.6zM301.3 258.3c1 3.5 1.5 6.1 2.5 8.4 0.4 0.9 2.3 1.8 3.3 1.6 4.7-1 9.3-2.3 13.9-3.8 0.8-0.3 1.9-1.6 1.9-2.3 -0.1-0.8-1.3-1.9-2.2-2C314.6 259.5 308.5 259 301.3 258.3zM303.3 495.9c-10.6 6.4-13 17.6-6.4 27.9 0.4-0.7 0.8-1.2 0.9-1.8C299.6 513.6 301.4 505.2 303.3 495.9zM356.9 258.7c4.1 0 7.4-2.5 7.5-5.9 0.1-3.4-3.6-6.3-8.2-6.3 -3.9 0.1-6.3 2-6.5 6C349.6 256.1 352.9 258.7 356.9 258.7zM350.7 302c10.8-2.7 12.2-4.9 9.5-16.2 -2.3 0.9-5.8 1.1-6.3 2.6C352.2 292.6 351.7 297.3 350.7 302zM344.5 301c1.2-5.7 2.2-10.5 3.2-15.2 -6.8-3.3-8.1-2.4-11.2 6.2C339 294.9 341.4 297.6 344.5 301zM307.7 274.9c3 2.5 5 4.4 7.3 5.8 0.9 0.6 2.9 0.5 3.8-0.1 2.6-1.8 4.9-4 7.1-6.2 0.6-0.6 1-2.2 0.6-2.8 -0.5-0.7-2-1.2-2.8-1C318.7 271.7 313.8 273.1 307.7 274.9zM298.8 547.8c-2.3 10.8-4.6 21.5-6.8 32.3C298.7 570.3 302.8 560 298.8 547.8zM292.2 548.7c-0.5 0-0.9-0.1-1.4-0.2 -6.3 9.2-6.9 19.4-4.9 30.2C288 568.7 290.1 558.7 292.2 548.7zM377.5 295.8c-1.4-3.5-2.5-6.4-3.9-9.1 -0.4-0.8-2.2-1.5-3.1-1.2 -1.1 0.3-2.8 1.5-2.9 2.5 -0.4 2.8-0.1 5.8-0.1 9.1C371.1 296.6 373.8 296.3 377.5 295.8zM323.6 285.7c2.3 1.3 4.3 2.3 6.5 3.5 1.2-1.9 2.2-3.4 3.1-4.9 0.8-1.2 1.4-2.5 2.1-3.7C331.8 276.9 330 277.7 323.6 285.7zM322.8 319.7c0.6-0.1 1.2-0.2 1.8-0.4 2.3-6 0.6-10.1-6.5-12.1C319.9 312.1 321.4 315.9 322.8 319.7zM362.4 324.5c0.4 0.4 0.8 0.8 1.3 1.3 5.5-0.8 7.8-3.3 6.7-9.3C367.7 319.1 365.1 321.8 362.4 324.5z"/><path d="M81.5 1864.2c0.3 8.6-2.2 13.2-8.9 16.1 -6.7 2.9-13.4 1.4-19-4.5 -9.3-9.7-8.7-21.2 2.3-29.1 6.8-4.9 14.4-8.9 20.8-12.8 -1.5-6.6-3.2-13-4.3-19.4 -5.3-32.5-19.7-60.2-42.7-83.6 -7.4-7.6-7.3-7.7-3.1-15.6 -4.3-3.6-9.1-6.5-12.2-10.6 -4.9-6.3-4.3-13.5 0.7-19.9 5.8-7.3 13.5-10.7 22.8-9.8 7.2 0.7 12.3 4.9 14.4 11.5 1.4 4.5 1 9.6 0.2 14.5 0.2 0.2 0.5 0.5 0.7 0.6 9.2 0.6 9.5 0.5 11.4 9.7 7.1 34.4 25.4 61.9 52 84.3 2.3 1.9 4.9 3.6 6.7 5.9 1.7 2.1 2.7 4.9 4.3 7.9 4-2.3 8-4.6 12.1-6.8 3.8-2.1 7.4-4.5 11.4-6.1 9.4-3.8 18-0.3 22.7 8.7 4.7 9.1 2.8 20.1-5.3 24.9 -3.4 2-8.1 1.9-13 2.9 0.4 1.3 1.1 3.9 2.1 6.4 18.2 41.8 40.8 81.3 63.5 120.7 29.1 50.4 58.4 100.6 87.4 151 2.7 4.6 4.6 10.1 5.4 15.3 2.4 17.6 2.7 35.2 0.5 52.8 -0.7 5.4-2.1 6.3-7.3 4.7 -20.5-6.4-38.1-17.5-52.9-32.9 -1.8-1.9-3.2-4.3-4.5-6.6 -41.5-73-82.8-146.1-124.6-218.9 -10.8-18.7-23.3-36.5-35.1-54.7 -1.9-2.9-4.2-5.6-6.3-8.3C82.8 1863.1 82.1 1863.6 81.5 1864.2zM143.9 1840.6c-0.6 0.2-1.3 0.4-1.9 0.5 0.6 3 0.6 6.4 1.9 9.1 10.1 19.5 20.5 38.9 30.8 58.4 0.8 1.5 1.5 3 2.3 4.5 -0.3 0.1-0.5 0.3-0.8 0.4 -12.1-19.9-24.1-39.8-36.2-59.8 -3.4 4.8-5.6 10.9-9.8 13.2 -4.1 2.2-10.4 0.5-16.4 0.5 10.7 20 21.1 39.4 31.5 58.9 -1.8-1-2.9-2.5-3.8-4 -10.7-17.5-21.5-34.9-31.9-52.5 -2.8-4.8-6.7-6.3-12.1-7.5 0.5 1.3 0.7 2 1 2.7 9.3 17.5 18.3 35.2 28 52.5 42.5 75.1 85.3 150.1 128 225.1 1.2 2.2 2.7 4.3 4.4 6 12.5 12.6 26.9 22.3 43.7 28.3 1.8 0.7 3.7 1.2 6.9 2.2 0.2-11.6 1-22.4 0.3-33.1 -0.9-13.3-4.4-25.8-11.3-37.8 -38.7-67.5-76.6-135.5-115.1-203.1 -12.1-21.3-25.4-41.9-38.2-62.8C144.8 1841.5 144.3 1841 143.9 1840.6zM122.4 1812c-2.5-3.2-4.2-6.2-6.6-8.3 -26.6-23.2-45.3-51.7-56.8-85 -0.5-1.3-1.1-2.7-1.2-3.1 -7.4 3.7-14.6 7.2-21.9 10.8 0 0 0.5 1.1 1.2 1.9 22.3 28.1 37.2 59.4 43.1 95 0.4 2.6 2 5 3.1 7.8C96.5 1824.7 108.9 1818.6 122.4 1812zM75 1861.6c-3.1 1.5-5.5 2.9-8.1 3.9 -1 0.4-2.4-0.2-3.6-0.4 0.3-1.3 0.5-2.7 1.1-3.9 0.4-0.8 1.6-1.2 2.4-1.7 9-5.6 18.4-6.7 28.7-4 8.5 2.2 17.2 3.3 25.9 4.9 3.6 0.7 6.2-0.6 7.8-3.9 3.6-7.8 7.4-15.6 10.5-23.6 3.4-8.7 8.8-15.2 17.1-19.3 1.5-0.7 3.6-0.3 5.4-0.4 -0.8 1.6-1.3 3.4-2.5 4.7 -1.4 1.5-3.3 2.5-5 3.7 4.4 7.8 9.7 8.1 14.3 1.3 2.7-3.9 3-8.1 0.7-12.3 -2.8-5-7.1-8.7-12.9-7.6 -6.4 1.2-12.9 3.3-18.7 6.3 -18.1 9.6-35.9 19.6-53.7 29.7 -7.2 4.1-14.3 8.5-21.1 13.3 -6.1 4.3-7.7 9.7-5.6 16.7 1.1 3.8 3 7.9 7.4 7.7 3.5-0.1 7.4-1.8 10.1-4C78.2 1869.9 77 1865.8 75 1861.6zM30.1 1709.1c9.4 0 17.2-5.5 18.4-13.4 0.4-2.6-0.6-6.6-2.4-8.3 -5.9-5.2-16.9-4.1-22.4 1.5 -3.5 3.5-5.9 11.3-4.1 14.7C21.9 1708.2 26.4 1708.9 30.1 1709.1zM53.6 1709.5c-3.2-2.1-5.7-2.8-8.7-0.1 -2 1.8-4.9 3-7.5 3.6 -3.7 0.8-4.3 3-4 6.4C41.7 1719.3 48.4 1716.2 53.6 1709.5z"/><path d="M661.2 1761.4c-0.3-5.4-0.7-9.4-0.6-13.3 0-1.3 1.5-2.6 2.3-3.9 1.3 0.9 3.3 1.4 3.7 2.6 8.7 27.3 16.5 54.7 11 83.8 -1 5.5-2.8 11-4.9 16.2 -16.8 42.1-63.3 74.2-108.6 72.9 -48-1.4-84.5-24-108.3-65.8 -13.4-23.5-13.5-49.1-8.3-74.9 2.2-10.9 5.8-21.5 9.2-32.1 0.7-2.1 3.1-3.7 4.7-5.5 1 2.2 2.7 4.4 2.8 6.7 0.7 17.7 2.8 35.2 7.8 52.3 12.5 42.9 38.9 64.3 83.7 65.9 11.8 0.4 24.1-0.9 35.6-3.9 38.9-10 64.2-41 68.7-82.3C660.6 1773.3 660.9 1766.7 661.2 1761.4zM457.2 1785.5c-9.6 32.6 9.4 77.4 42.8 101.6 39.2 28.3 85.1 29.2 123.6 2.5 35.2-24.4 54.3-69.9 44.2-106 -0.4 1.7-0.6 3.4-0.8 5.2 -4.9 39.8-24.7 68.4-62.8 82.8 -25.9 9.8-52.4 10.7-79 3.1 -33.4-9.6-54.9-31-63.2-65C460 1801.8 458.8 1793.8 457.2 1785.5z"/><path d="M249.8 1378.6c3.5 4.4 3 8.5 0.6 12.4 -4 6.6-10.3 10.3-17.3 12.8 -1.7 0.6-3.5 1.1-5.6 1.8 0.5 1.2 0.8 2.2 1.4 3.1 28 48.6-4.5 95.4-47.9 103 -8.1 1.4-16.6 0.4-24.8 0.8 -1.5 0.1-3.9 0.8-4.2 1.8 -4.5 15-8.6 30-13.1 45.8 5.5 1 10.7 1.8 15.9 3 4.3 1 9 1.8 12.7 4 2.4 1.4 3.3 5.2 4.9 8 -2.9 1.6-5.6 4.2-8.6 4.6 -3 0.4-6.5-1-9.6-2.2 -5.7-2.2-11.3-4.7-17.6-7.4 -1.9 8.1-3.4 15.7-5.6 23.2 -1.8 6.2-4.1 12.2-6.7 18.1 -0.7 1.6-3.2 2.3-4.9 3.4 -0.9-1.9-3-4-2.7-5.8 1.7-9.8 3.9-19.5 6.2-29.2 0.9-4 2.6-7.8 4.1-12.4 -6.5-1.2-12.6-1.7-18.4-3.5 -4.1-1.2-8.2-3.5-11.3-6.4 -3-2.8-2-6.9 2-7.8 4.1-0.9 8.9-1 13 0.1 6.2 1.7 11.9 4.8 18.4 7.5 1-3.6 1.9-6.5 2.6-9.6 2.6-11.4 5-22.8 7.6-34.1 0.7-2.9 0.3-4.4-2.8-5.6 -38.9-15.5-53.8-50.4-38.3-89.5 6.5-16.2 17-29.3 31.7-38.9 1-0.6 1.9-1.3 3.3-2.3 -7-11.1-11.9-22.7-6.2-35.7 1.1-2.6 4-4.4 6.1-6.5 0.7 0.3 1.3 0.5 2 0.8 0 3.3 0.3 6.7-0.1 9.9 -0.8 6.6 0 12.6 4.2 17.9 4.1 5.1 8.4 8.4 16 7 11-2 21.6 1.2 31.4 6.2 7.8 4 15.1 9.1 22.8 13.4 2.6 1.5 5.8 2.6 8.7 2.6 10 0.2 19.2-1.9 25.6-10.7C246.1 1380.8 248 1379.9 249.8 1378.6zM105.7 1444.9c0.6 4.4 0.9 9 1.9 13.3 5.5 23.6 22.1 35.7 44.3 41.2 38 9.6 69.3-11.5 73.5-49.5 1.9-16.9-2.6-32.1-15.1-44.3 -11.5-11.3-25.7-17.8-41.4-20.7 -4.8-0.9-10-0.9-14.8-0.1C127.7 1389.5 106.1 1416.8 105.7 1444.9z"/><path d="M950.4 938.5c13.1-3.4 25.3-6.5 37.5-9.9 1-0.3 2.1-2.7 2-4 -0.2-4.8-1.5-9.6-1.3-14.4 0.2-6.1 1-12.2 2.4-18.1 0.5-2 3.3-4.8 5.1-4.9 1.7 0 4.5 2.8 5.1 4.9 1.4 5.4 2.2 11.1 2.6 16.7 0.4 5.3 0.1 10.6 0.1 16.5 5.9-1 11.1-2.3 16.3-2.6 6.6-0.4 13.3-0.3 19.9 0.3 1.9 0.2 4.8 2.7 4.9 4.3 0.1 1.7-2.2 4.7-4 5.2 -8 2.3-16.1 3.9-24.2 5.6 -3.6 0.7-7.2 0.9-11.7 1.5 0.6 4.5 0.6 8.8 1.7 12.8 4.5 16.9 9.1 33.7 13.9 50.5 2.4 8.3 5.9 16.4 7.6 24.8 1.2 5.8 0.7 12.2-0.3 18.2 -0.9 5.6-6.3 6.7-9.3 1.9 -3.2-5.1-6.3-10.7-7.5-16.6 -6.1-28.5-11.6-57.1-17.3-85.7 -0.3-1.3-0.7-2.5-1.3-4.6 -10.4 2.3-20.7 4.2-30.7 6.9 -8.8 2.3-17.5 5.3-26.2 8.1 -7.6 2.4-11.2 0.1-10.1-7.9 0.6-4.7 2.6-9.7 5.3-13.6 10.6-14.8 20.3-30.1 27.2-47 6.5-16.1 9.2-32.6 6.6-49.9 -3.3-22.6-13.4-33.5-42.1-28.8 -16.6 2.8-27.1 13-32.5 29 -2.5 7.3-6.4 14.1-10.1 20.9 -0.9 1.7-3.9 3.5-5.5 3.1 -1.5-0.3-3.2-3.4-3.3-5.3 -0.1-5.4-0.8-11.5 1.3-16.1 12-26.1 32.1-43.9 60-50.9 26.8-6.8 46.9 9.5 49 38 1.5 20.3-2.6 40-8.8 59 -5.2 15.9-12.6 31.1-19 46.6C952.5 934.5 951.6 936 950.4 938.5z"/><path d="M1048.4 1946.5c-3.6-18.2-1.7-21.4 18.6-31.5 0.7-10.5 4.3-15.9 11.6-17.1 7.1-1.2 14.1 2.1 16.8 8 3 6.6 1.4 11.4-6.1 17.4 6.5 21.4 5 29.8-11.1 37 1.6 2 3.1 3.9 4.6 5.9 2.2 2.9 2 6-1.8 6.4 -9 0.9-12.3 7.3-15.5 14.2 -15.4 34-31.1 67.8-46.3 101.9 -35.3 79.3-70.5 158.6-105.6 238 -5.9 13.4-11 27.2-16.6 40.7 -1.4 3.4-1.4 5.5 2.6 6.8 1.3 0.4 3 2.2 3 3.3 0 1.2-1.7 2.8-3 3.4 -3.6 1.7-7.4 2.9-11.1 4.3 -1.1 12.4-4.6 17.1-13.4 18.6 -7.2 1.2-14.2-2.8-17.8-10.1 -3.7-7.6-2.4-12.2 6-19.4 -1.2-3.1-2.6-6.3-3.4-9.7 -0.5-2.2-0.1-4.7-0.1-7 2.2 0.2 4.4 0.4 7.4 0.7 0.5-1 1.6-2.6 2.4-4.3 18.8-41.2 37.8-82.3 56.3-123.7 34.1-76.2 67.9-152.5 101.8-228.8 4.8-10.8 9-21.9 13.7-32.7 1.6-3.6 1.6-6.6-0.6-9.8 -0.1-0.1-0.2-0.3-0.2-0.4 -4.8-9.2-5.6-12.6 6.5-11.5C1047.4 1946.9 1047.9 1946.7 1048.4 1946.5zM1048.2 1971.1c-5.3 11.2-10.9 22.3-16 33.6 -31.5 70.6-63.1 141.2-94.2 211.9 -20.5 46.7-40.3 93.6-60.4 140.5 -0.7 1.6-1.2 3.4-1.8 5.2 4 2 7.5 3.7 11.3 5.6 0.8-1.3 1.6-2.4 2.2-3.5 6.3-12.9 12.9-25.6 18.8-38.7 36-80.6 71.8-161.3 107.5-242.1 14.9-33.8 29.4-67.9 44-101.8 0.7-1.6 1.1-3.3 1.5-4.7C1056.6 1975 1052.7 1973.2 1048.2 1971.1zM1085.8 1938.5c-0.6-3.4-1-6.9-1.7-10.3 -0.8-3.7-10.8-9.5-14-7.6 -4.8 2.8-9.8 5.9-13.4 10 -5.8 6.6-2.8 16.4 5.2 19.9 2.8 1.2 5.4 2.7 8.3 3.4 2 0.5 4.7 0.5 6.5-0.5C1082.5 1950.4 1086 1945.5 1085.8 1938.5zM1045.2 1952.7c5.3 9.2 20.5 16.3 30.7 14.6C1072.1 1959.4 1056 1951.6 1045.2 1952.7zM875.9 2396.6c0.2-0.4 0.5-0.8 0.7-1.3 3.5 0.2 5.7-1.1 6.2-4.9 0.6-3.8-1.3-4.6-4.7-5.2 -3-0.5-6.2-1.8-8.4-3.8 -2.7-2.4-4.5-1.9-6.7 0.2 -2.4 2.3-2.7 5.2-0.3 7C866.7 2391.7 871.4 2394 875.9 2396.6zM1082.5 1918.1c6.7-0.1 9.5-3.2 7.7-6.5 -3-5.6-11.5-7.1-15.7-2.5 -0.8 0.9-0.8 4.2 0 4.7C1077.3 1915.9 1080.7 1917.2 1082.5 1918.1zM888.1 2378.9c-6.6-3-13.5-6.2-20.1-9.2C871 2379.1 879 2382.8 888.1 2378.9z"/><path d="M993.5 594c2.5 11 4.9 21.3 7.2 31.7 1.5 6.8 3.4 13.7 0.4 20.6 -0.8 1.8-2.4 4.3-3.9 4.4 -1.5 0.2-4-1.8-4.7-3.4 -1.9-4.2-3.8-8.6-4.5-13 -1.7-11.2-2.8-22.5-4.2-33.7 -0.2-1.4-0.6-2.8-1.1-4.8 -7.2 1.9-14.1 4-21 5.4 -3.8 0.8-7.9 0.6-11.8 0.3 -1.3-0.1-3.2-1.7-3.4-3 -0.2-1.2 0.9-3.5 2.1-4 4.2-1.8 8.6-3.6 13-4.3 6.5-1.1 13.2-1.2 20.3-1.8 -1.5-10-2.9-19.3-4.3-28.6 -1.5-10-1.6-9.5-11.6-10.2 -8.9-0.7-18-1.7-26.4-4.4 -15.5-5-24.2-16.7-24.5-33 -0.2-12.2 2.1-24.5 2.8-36.8 1.1-19.3 1.7-38.6 3-57.9 0.4-5.7 2-11.4 3.4-17 0.3-1.3 2.5-3.2 3.3-3 1.4 0.4 3.3 2.1 3.5 3.4 0.8 6.1 2 12.3 1.5 18.3 -1.5 16.8-4.7 33.4-5.6 50.1 -0.7 12.7 0.4 25.6 1.9 38.3 2 16.9 12.7 26.2 29.2 28.8 5.2 0.8 10.5 1 16.6 1.6 -0.7-8.3-1.5-15.6-2-23 -1-17.8-2-35.6-2.7-53.4 -0.2-4.6 0.5-9.3 1.4-13.9 0.3-1.5 2.3-2.8 3.5-4.1 1.1 1.3 2.9 2.5 3.1 4 1 5.4 1.7 10.9 2 16.3 1.5 22.8 2.8 45.6 4.2 68.3 0.1 1.1 0.4 2.2 0.6 3.3 20.9 0 40.5-17.6 42.4-37.9 1.9-19.9-2.2-39.1-6.6-58.3 -3-13.2-6.5-26.2-9-39.5 -1-5.2-0.2-10.8 0.4-16.2 0.2-1.7 2.1-4 3.7-4.5 1.1-0.4 3.8 1.5 4.5 3 2.2 4.3 4.8 8.7 5.3 13.3 2.9 28.7 8.1 57 14.1 85.2 1.2 5.7 1.4 11.6 1.5 17.4 0.1 15.9-6.7 28.2-19.8 37.2 -8.9 6.2-18.9 9.8-29.4 12 -1.8 0.4-3.5 0.8-6 1.4 1.9 12.6 3.8 25 5.9 38.2 6.4-1.5 12-2.9 17.6-4.2 6-1.3 12-2.9 18.1-3.5 3.6-0.3 8.9-0.6 9.4 4.2 0.5 4.7-4.7 5.9-8.2 6.5 -9.2 1.5-18.5 2.2-27.8 3.2C998.7 593.2 996.5 593.6 993.5 594z"/><path d="M116.4 224.9c-11.3 0.2-22.4 1-33.4 0.3 -13-0.9-24.6-6.8-35.8-13.1 -1.9-1.1-4.8-1.6-6.7-0.9 -4.4 1.6-7.1 0.3-9-3.5 -2.1-4.2-4.4-6.7-10.1-6.3 -8.6 0.6-12.9-8-8.5-15.9 1.5-2.8 2.7-5 0.6-8.1 -2-3 0.1-5.2 2.5-7.1 29.4-22.2 59.7-43.1 92.9-59.4 12.1-5.9 24.5-11.4 36.6-17.2 4.1-2 7.1-1.9 9.6 2.5 0.8 1.4 3.3 2.6 5.1 2.6 10.6 0.4 15.9 8.5 11.8 18.2 -0.7 1.8-0.7 4.5 0.1 6.2 1.7 3.6 1.4 6.2-1.5 8.9 -1.1 1-1.8 3.2-1.6 4.7 4.7 26.7-2.8 49.4-21.8 68.5 -0.3 0.4-0.6 0.8-0.9 1.2 -0.1 0.1 0 0.3 0 0.5 7.1 5.6 7 5.6 4.5 15 -0.5 1.8-0.2 4.4 0.7 6 14.3 25.4 28.7 50.8 43.2 76 1.1 1.9 4 2.7 5.6 4.4 9.8 10.7 20.4 4.9 30.6 1.4 5.7-2 11.1-3.6 17-1.9 1.7 0.5 4 1.9 4.3 3.3 0.3 1.3-1.3 3.7-2.7 4.6 -25.6 17.7-51.3 35.3-77.1 52.8 -1.5 1-4.1 1.8-5.3 1.2 -1.2-0.6-1.9-3.3-2-5.1 -0.3-5.8 2.7-10.3 6.2-14.8 5.1-6.7 9.7-13.9 14.1-21.1 0.9-1.5 0.6-4.4-0.2-6.1 -14.1-30.9-36.1-56.8-53.6-85.7 -0.8-1.3-2.7-2.2-4.3-2.7C119.1 231.2 117.9 233.5 116.4 224.9zM19.5 175.5c6.4 9.8 12.4 19.1 19.1 29.2 20.4-10.8 40.9-20.3 59.9-32.1 21.6-13.4 42-28.8 62.8-43.5 1.3-0.9 2.8-3.6 2.4-4.5 -4.5-8.7-9.4-17.1-14.3-26C103.6 120.6 60.5 145.6 19.5 175.5zM51.4 207c1.3 0.8 2.7 1.7 4.1 2.5 30.2 16.3 63.8 11.4 88.6-13 8.7-8.6 15.3-18.5 18.2-30.5 2.2-8.9 2-17.9 0.2-26.7 -18.4 12.4-35.8 25.2-54.3 36.5C89.9 186.9 70.6 196.5 51.4 207zM171.8 359.5c0.3 0.3 0.6 0.6 1 1 22.6-15.5 45.2-30.9 67.8-46.4 -0.2-0.4-0.4-0.7-0.6-1.1 -1.8 0.6-3.7 1.1-5.5 1.9 -7.8 3.7-16.1 5.4-24.7 5.1 -3.1-0.1-5.1 0.7-7.1 3.3 -1.5 1.9-4.5 2.5-6.6 3.9 -1.8 1.1-3.8 2.2-4.9 3.9 -5.3 7.6-10.4 15.4-15.5 23.1C174.4 355.9 173.1 357.7 171.8 359.5zM137.8 234.9c16.3 24.8 32.5 49.5 48.7 74.2 0.6-0.2 1.3-0.4 1.9-0.6 -0.4-1.6-0.5-3.4-1.2-4.8 -13.2-23.3-26.4-46.6-39.7-69.9 -0.6-1-1.3-1.8-2-2.8C143 232.3 140.7 233.5 137.8 234.9zM131.8 228.3c8 0.2 11.4-2.6 13.2-10.3 0.3-1.3 0.1-3.8-0.7-4.2 -1.8-0.9-4.5-1.8-6.2-1 -4.5 2-8.8 4.6-13 7.3 -1.1 0.7-1.9 2.7-1.8 4 0 1 1.5 2.5 2.6 2.9C128.1 227.8 130.7 228.1 131.8 228.3zM200.6 317.9c-2.9-2.3-4.5-4.5-6.3-4.7 -1.3-0.2-2.9 2.3-4.3 3.6 1.3 1.4 2.5 3.6 4 3.9C195.6 321 197.5 319.3 200.6 317.9zM23.6 194.8c-1.8-2.7-3.1-4.8-4.7-7.3C16.3 193.3 17.2 194.7 23.6 194.8zM166 113.7c1.4-6.2 0.1-8-5.1-8C162.6 108.2 164 110.5 166 113.7z"/><path d="M1028.1 1653.1c1.7 6.5 3.7 12.3 4.5 18.1 0.9 5.8 0.9 11.9 0.7 17.8 0 1.6-1.8 4.2-3 4.4 -1.4 0.2-3.8-1.4-4.5-2.9 -2.5-5.3-5.1-10.8-6.6-16.5 -1.5-5.7-1.8-11.8-2.8-18.5 -5.8 1.7-11.4 3.3-16.8 5 -5.4 1.6-10.8 2.1-16.1-0.1 -5.6-2.3-6.3-5.7-1.3-8.9 3.8-2.4 8.4-4 12.8-4.7 6.5-1 13.2-0.9 20.2-1.2 -1.4-14-2.4-27.5-8.6-39.8 -0.7-1.3-3.5-2.3-5.2-2.2 -43.2 2.5-89.2-47.8-70.1-97.1 8.7-22.6 24.9-35.7 49.4-37.7 8-0.6 16-1.5 24-1.1 27.3 1.1 47.8 14 58.8 38.8 11.2 25.4 7.6 49.9-10.4 71.6 -7.9 9.5-18 16.3-29.6 20.7 -2.6 1-4 2.2-4.1 5.3 -0.2 9.8 3.1 29.5 7 39.1 5.7-1.6 11.3-3.7 17.1-4.6 5.3-0.9 10.8-0.7 16.3-0.5 1.4 0.1 3.7 1.7 3.9 3 0.3 1.2-1.2 3.6-2.5 4.2 -4.3 2-8.8 4-13.4 5.1C1041.4 1651.5 1035.1 1652.1 1028.1 1653.1zM998.6 1479.1c-12.5-0.5-24.1 3.2-35 9.3 -21 11.8-30.2 40.7-20.1 62.7 17.9 38.6 70.9 47.3 100 16.4 20.3-21.5 18.3-55.8-4.3-74.8C1027.4 1482.8 1013.8 1478.8 998.6 1479.1z"/><path d="M193.6 873c-9.3-4.2-18.7-6.4-28.7-6.4 -5.8 0-11.7 0.8-17.5 0.3 -4-0.3-8.2-1.5-11.8-3.3 -3.8-1.8-3.6-5.4 0.3-7.1 3.6-1.5 7.8-3.1 11.5-2.5 18.9 3.1 37.7 6.7 56.4 10.3 4.8 0.9 7.4 4.4 8.1 9.1 2.9 20.6 5.8 41.2 8.5 61.8 0.8 5.9-2.1 11.4-5.4 11.7 -3.3 0.3-7-4.5-7.4-10.5 -0.3-5.3-0.1-10.6 0-16 0.2-12.5-0.3-25-5.7-37.7 -19.2 16.1-38.1 31.9-57.1 47.8 11.5 17.8 10.4 36.6 9 55.2 -2.4 31-25 52.2-56.5 54.3 -32.6 2.2-59.6-19.9-65-54.2 -1.4-9-1.3-18.8 0.4-27.7 5.1-26.9 26.1-44.3 55.5-47 15.6-1.5 30.5 0.7 44.4 8.7 1.4 0.8 4.6 0.3 6-0.8 11.8-9.2 23.5-18.6 35-28.1C180.3 885.3 186.7 879.2 193.6 873zM143.4 971.1c-0.5-4.6-0.8-9.3-1.7-13.8 -2.1-11.7-7.2-21.3-18.3-27 -18.8-9.7-47.2-7-63.1 7.1 -15.4 13.6-23 31-18.6 51.4 4.2 19.8 19 30.2 37.5 35.6 21.4 6.2 46.1-3.5 55.9-21.6C140.3 992.9 143.2 982.4 143.4 971.1z"/><path d="M558 1559.8c-13.4-0.3-31.3-4.9-48.9-11.5 -4.4-1.6-4.4-4.6-3.3-8.4 9.6-34.1 19.6-68.2 28.1-102.6 2.2-8.7 6.4-11.2 13.9-12.9 14.6-3.2 29-3.2 43.6-0.3 3.7 0.7 5.8 2.5 7 6.2 11.2 33.8 22.6 67.6 34 101.4 1.1 3.2 1.1 5.8-2.2 7.7C611.7 1549.7 586.8 1560.3 558 1559.8zM613.3 1494.7c-3 3-5.4 5.4-7.9 7.8 -17.6 17.3-37.7 29.6-62.8 32 -8.6 0.8-17.3 0.8-25.9 0.7 -3.1 0-3.8 1.6-4 3.8 -0.1 1.4 0.2 3.8 0.9 4 5.1 1.8 10.3 3.2 15.6 4.8 0.7-2.2 0.9-3.9 1.7-5 1.2-1.6 2.9-3.8 4.4-3.9 1.5 0 3.3 2.2 4.4 3.8 0.9 1.3 0.8 3.2 1.4 4.8 0.4 1 1.1 2.4 1.9 2.5 4.8 0.7 9.7 1.1 14.5 1.6 0.6-4 0.8-7 1.6-9.8 0.5-1.5 2.3-3.6 3.4-3.5 1.6 0.1 3.5 1.7 4.3 3.2 1.1 2.2 1.2 4.8 2.1 7.2 0.4 1 1.6 2.5 2.4 2.4 3.6-0.2 7.6-0.1 10.7-1.7 1.4-0.7 1-5 1.4-7.7 0.1-0.8-0.1-1.8 0.3-2.4 1-1.5 2.2-3.9 3.5-4.1 1.4-0.2 3.5 1.6 4.4 3 1.5 2.6 2.4 5.7 3.5 8.7 1.9-0.5 3.3-1.1 4.8-1.3 4.6-0.7 6.1-3 5-7.6 -0.6-2.5-0.9-5.4-0.5-7.9 0.3-1.8 1.9-3.4 2.9-5.1 1.6 1.2 3.8 2.1 4.6 3.7 1.7 3.3 2.7 7 4.1 10.8 3.1-1.5 5.7-2.5 8.1-4 1-0.6 2.2-2.5 1.9-3.3C621.8 1519.8 617.6 1507.6 613.3 1494.7zM561 1521.3c10.1-2.4 10.2-2.6 9.9-12.1 0-0.7-0.3-1.4 0-2 0.9-1.8 2-3.4 3-5.1 1.7 1.1 3.7 1.9 4.9 3.4 1.4 1.5 2 3.7 3 5.5 9.9-4.7 10.2-5.2 8.5-15.1 -0.1-0.8-0.5-1.8-0.2-2.5 0.6-1.6 1.2-3.8 2.4-4.3 1.2-0.5 3.5 0.4 4.7 1.4 1.8 1.5 3.2 3.6 5.9 6.9 2.3-3 4.4-5.4 6.1-8.1 0.7-1.1 1.4-2.8 1-3.9 -2.2-7.3-4.7-14.5-7.2-21.9 -0.8 0.5-1.4 0.7-1.6 1 -19.9 25-45.1 40.5-77.6 42.8 -1 0.1-2.5 1.2-2.8 2.2 -1.9 6.2-3.5 12.4-5.5 19.6 5.1-0.4 9.5-0.2 13.4-1.5 1.3-0.5 1.2-5 1.8-7.7 0.1-0.3 0-0.7 0.2-1 1.2-1.3 2.3-3.3 3.8-3.7 0.9-0.2 2.9 1.9 3.5 3.3 1.1 2.5 1.4 5.4 2.1 8 9.7-0.5 9.7-0.5 10.6-9.1 0-0.2 0-0.4 0.1-0.5 1.3-2 2.6-4.1 3.9-6.1 1.6 1.8 3.4 3.5 4.7 5.6C560.3 1517.6 560.4 1519.3 561 1521.3zM558.3 1489.9c4.1-0.7 6.4-2.6 6.2-7 -0.1-2.3 0.1-4.8 0.9-6.9 0.6-1.6 2.2-3.8 3.6-4 1.4-0.2 3.3 1.6 4.5 2.9 1 1.1 1.5 2.7 2.1 4 5.1-2.2 6.6-5.5 5.9-10.5 -0.4-3.2-1.5-7.9 3-8.8 1.8-0.4 4.4 3.2 7.1 5.4 1.4-1.5 3.6-3.7 5.6-6.1 1.1-1.3 2.6-3.3 2.3-4.6 -1.4-5.4-3.3-10.6-5.6-17.3 -1.1 1.9-1.4 2.5-1.8 3 -15.6 20.2-35.8 33-60.8 38.3 -0.9 0.2-2.2 1.1-2.4 1.9 -2 6.6-3.8 13.3-5.6 19.9 0.6 0.4 1.2 0.7 1.8 1.1 1.2-1.5 2.7-2.8 3.4-4.5 0.9-2.1 0.9-4.7 1.9-6.7 0.8-1.5 2.8-3.4 4.2-3.3 1.4 0.1 3 2.2 3.8 3.8 0.9 1.8 1 4.1 1.5 6.1 6.5-1 6.5-1 7.2-6.8 0.2-1.8 0.4-3.8 1.2-5.3 0.7-1.3 2.2-2.9 3.4-3 1.3-0.1 3.1 1.2 3.9 2.4C556.9 1485.6 557.4 1487.8 558.3 1489.9zM592.1 1430.1c-8.1-0.8-14.7-1.5-21.2-1.9 -1.3-0.1-3.1 1.1-4 2.3 -7.2 9.3-16.6 15.8-27.3 20.5 -1.1 0.5-2.7 1.3-3 2.3 -1.8 5.8-3.3 11.7-5 17.6 0.5 0.3 1 0.6 1.5 1 1-1.3 2.5-2.4 3-3.9 0.9-2.5 0.9-5.3 2.1-7.7 0.8-1.7 2.7-3.5 4.4-3.8 0.9-0.2 2.7 2.3 3.7 3.9 0.8 1.3 0.9 3 1.4 4.7 4.4-1 6.7-2.9 6.4-7.5 -0.2-2.9 0.3-6 1.2-8.8 0.4-1.4 2.3-3 3.7-3.3 1.1-0.2 3 1.2 3.8 2.4 1.3 2 2.1 4.3 3.1 6.5 5.6-1.8 3.2-6.2 3.8-9.4 0.6-3.3-0.7-8.1 3.8-8.7 2.4-0.3 5.2 2.9 8.6 5C584.3 1438.5 587.6 1434.9 592.1 1430.1zM539.8 1444.3c6.9-5.2 12.6-9.6 18.4-13.9C543.5 1430 541 1431.9 539.8 1444.3z"/><path d="M797.5 2153c3-16.1 5.9-32.2 9-49.1 -4.7-0.6-8.8-1.3-12.8-1.7 -13.3-1.3-26.5-2.4-39.8-3.8 -2.8-0.3-5.7-0.9-8.1-2.3 -1.8-1-3.9-3.4-3.8-5 0.1-1.5 2.9-3.7 4.7-4 3.9-0.5 8-0.3 11.8 0.4 14.1 2.8 28 5.9 42 8.9 1.9 0.4 3.9 0.6 6.6 1 1.4-8.4 2.6-16.5 4.1-25.5 -7.5-0.6-14.3-1.3-21.3-1.8 -5-0.4-10-0.3-14.9-0.9 -3.1-0.4-7.6-0.9-7.4-5.2 0.3-4.6 5-4.4 8.3-4.3 4.6 0.1 9.3 1 13.8 1.8 7.2 1.3 14.3 2.8 22 4.4 0.7-8 1.2-15.5 2.1-22.9 0.5-4.4 1.5-8.8 2.8-13 0.5-1.3 3-2.8 4.5-2.7 1.1 0 2.8 2.4 3 3.9 0.4 2.6 0.2 5.3-0.3 7.9 -1.7 9.1-3.7 18.2-5.7 27.7 10 1.5 19.4 2.6 28.7 4.3 4.4 0.8 8.6 2.5 12.7 4.3 1.1 0.5 2.3 2.8 2.1 3.9 -0.3 1.1-2.4 2.5-3.6 2.5 -4-0.2-7.9-0.8-11.8-1.7 -9.5-2.2-19-4.6-29-7.1 -1.4 8.9-2.7 16.9-4.1 25.5 3.8 0.5 7.1 1.2 10.5 1.5 13.6 1.3 27.2 2.4 40.8 3.9 3.2 0.4 6.5 1.6 9.3 3.3 3.6 2.1 3.1 6-0.9 6.9 -3.4 0.8-7.3 1-10.8 0.4 -14.9-2.7-29.8-5.7-44.6-8.6 -1.6-0.3-3.2-0.5-5.7-0.9 -1.8 14.8-3.5 29-5.3 43.5 10.2-2.1 19.2-4.8 28.3-5.6 9.2-0.8 18.7-0.8 27.8 0.5 11.1 1.6 20.2 7.7 26.6 17.1 7.6 11.1 6.4 23.6-2.9 33.3 -13.1 13.7-35.9 17.3-51.8 6.4 -10.1-6.8-18.6-16-27.5-24.5 -2.8-2.7-4.6-3.5-8.4-1.8 -16.2 7.1-33.1 12.4-50.9 13.7 -16.8 1.3-30-5.2-38.5-19.9 -8-14-4.4-29.2 9.1-38.1 12.8-8.4 26.6-10 41-4 12.1 5 21.9 13.2 31.1 22.3 1.8 1.8 3.1 4.3 4.6 6.5C795.9 2153.8 796.7 2153.4 797.5 2153zM790.4 2157.3c-5.6-7.8-19.4-19.3-29.1-24 -4.1-2-8.6-3.6-13.1-4.5 -10.8-2.2-22 3.5-28.1 13.9 -5.4 9.1-4.5 19.4 2.4 28.4 7.3 9.5 16.8 12.5 28.3 8.9 3.3-1 6.7-2.3 9.6-4.1C770.3 2169.8 780.1 2163.6 790.4 2157.3zM809 2168.6c9.3 10.2 17.7 19.7 28.6 26.4 14 8.5 30.8 5.7 41.5-6.8 7-8.1 7.4-16.8 1.2-25.6 -9.1-12.9-23.8-17.9-38.2-11.6C831 2155.7 820.6 2162.2 809 2168.6z"/><path d="M312.6 1174.5c3.1-10.9 0.7-21-0.2-31 -1.7-20.1-3.9-40.1-5.6-60.2 -0.3-3.7 0.9-7.5 1.4-11.2 0.3-2.3 0.6-4.6 0.5-6.8 -0.3-6.8-0.9-13.6-1.1-20.3 0-2.4-0.1-4.1-2.7-5.1 -1.6-0.6-3.1-2-4.2-3.4 -5-6.2-12.3-7.7-19.1-3.1 -3.8 2.6-7.1 6-10.7 8.9 -6.2 4.9-12.5 9.7-19.4 15 0.1 0.3 0.6 1.9 1.1 3.5 5.4 15.6 10.9 31.1 16.3 46.7 4 11.4 0.1 22.3-9.8 27.4 -10.3 5.3-24 2.1-30.3-7.4 -4.2-6.3-6.1-12.8-3.3-20.7 5.4-15 9.9-30.4 14.8-45.6 0.6-1.7 1.1-3.4 1.7-5.3 -1.3-0.8-2.3-1.4-3.2-2 -3.3-2.3-5.1-5.4-3.9-9.4 1.3-4.4 4.4-7.1 8.8-7.9 4.2-0.7 7.1 1.6 9 5 0.7 1.2-0.1 3.2-0.2 4.9 -1.5-0.3-3-0.5-4.4-1 -1.3-0.6-2.5-2.4-3.5-2.2 -1.3 0.2-2.4 1.9-3.5 2.9 1.1 1 2 2.7 3.2 2.9 4.6 0.9 9 0.3 12.6-2.9 4.2-3.7 8.7-7.4 12.1-11.8 7.8-10 16.9-15 29.3-9.3 8.3-9.6 10.4-10 21.3-4.4 7.7-16.3 21.1-17.1 36.4-12.9 3.7 1 7.6 1.2 11.4 1.5 2.6 0.2 5.2 0.6 6.3-3.1 0.4-1.2 3.3-1.6 6.1-2.8 -0.6-0.7-1.3-2.6-2.4-2.9 -1.2-0.3-2.8 0.9-4.1 1.6 -0.5 0.3-0.4 1.4-0.9 1.7 -1.2 0.9-2.6 1.5-3.9 2.2 -0.6-1.4-1.8-2.8-1.7-4.2 0.5-5.5 5.7-9.1 11.2-8 5.8 1.1 9.1 5.8 7.9 11.3 -0.1 0.5-0.1 1.1-0.4 1.4 -5.7 5.8-1.9 11.7 0.1 17.4 4.4 12.9 9 25.8 13.5 38.7 4 11.5 0.1 22.3-9.8 27.4 -10.1 5.2-23.6 2.3-30-7 -4.4-6.3-6.6-13-3.6-21.1 4.9-13.3 8.8-26.9 13.2-40.4 0.6-1.7 1-3.4 1.7-6 -9.8-0.7-19-1.9-28.2-1.7 -9.8 0.2-17.7 8.4-19.8 17.8 -0.6 2.9-2.5 6-4.7 7.8 -2.5 2-2.9 3.7-2.2 6.3 0.2 0.8 0.5 1.7 0.4 2.5 -1 18.6 5.1 36.5 4.3 55.2 -0.8 18.6 0.1 37.3 0.3 56 0 2.7 0.3 5.3 0.7 8 0.6 4.2 1.5 7.8 7.4 6.6 1.5-0.3 4.1 1.5 5.1 3.1 3.6 5.8 8.5 8.9 15.3 10.1 3.3 0.6 6.5 2.5 9.2 4.5 1.5 1.1 1.9 3.5 2.8 5.4 -1.8 0.9-3.6 2.4-5.4 2.5 -19.5 1.1-38.9 2-58.4 3 -4.2 0.2-8.3 0.6-12.5 0.6 -1.6 0-4.3-0.9-4.5-1.9 -0.4-1.5 0.4-4.1 1.6-5 3.3-2.4 6.8-4.8 10.7-6.1 4.4-1.6 8.1-3.9 9.4-8.2C303.4 1175.6 306.6 1173.3 312.6 1174.5zM377.1 1018.8c-0.3 0-0.7 0.1-1 0.1 -5 15.6-10.1 31.2-15.1 47 11 0 21.4 0 32.6 0C387.8 1049.6 382.4 1034.2 377.1 1018.8zM230.9 1110.7c11.1 0 21.5 0 32.6 0 -5.7-16.2-11-31.5-16.4-46.9 -0.4 0.1-0.7 0.1-1.1 0.2C241 1079.5 236 1095 230.9 1110.7zM345.5 1193.5c0.1-0.4 0.3-0.8 0.4-1.2 -7.5-0.8-12.5-5.1-16.5-10.8 -1.8-2.5-18.8-1.9-20.8 0.6 -0.1 0.1-0.2 0.3-0.3 0.4 -2.5 5.8-6.5 10.3-12.3 13.4C312.5 1195.1 329 1194.3 345.5 1193.5zM361.8 1072.7c1.7 8.7 9.8 14.2 18.7 13.2 7.8-0.9 13.1-6.4 13-13.2C383 1072.7 372.4 1072.7 361.8 1072.7zM231.6 1117.6c2.6 9.4 10.5 14.4 19.3 13.3 7.5-1 12.5-6.2 12.8-13.3C253.1 1117.6 242.5 1117.6 231.6 1117.6zM312.6 1035.2c1-1.5 3.1-3.4 3.5-5.7 0.6-3.1-3.3-6.8-6.2-6.5 -3.6 0.4-5 3-5.1 6.3C304.8 1033.5 307.6 1034.6 312.6 1035.2z"/><path d="M888.7 1911.5c-4.5-13.2-8.6-26.5-13.6-39.5 -4.8-12.3-14.1-19.5-27.4-21.2 -5.6-0.7-11.2-1.9-16.7-3.1 -8.2-1.8-13.2-6.9-14.4-15.2 -0.9-6.2-1.5-12.6-2.5-18.8 -1-6.4-3.7-8.5-10.2-8.4 -16.7 0.2-29.2 17-24.6 33.1 1.3 4.6 4.1 7.6 9.1 8 3.8 0.3 7.7 0.5 11.5 0.7 12.5 0.9 20.5 9 21.4 21.5 0.7 9.3-1.5 18-5.6 26.1 -4.1 8-8.7 15.7-13.5 23.4 -5.4 8.7-10.5 17.4-12.7 27.5 -0.2 1-0.3 2.1-0.9 2.8 -1.2 1.3-2.7 2.4-4.1 3.6 -1-1.5-2.9-3.2-2.8-4.6 0.5-4.7 0.9-9.8 3-13.9 3.2-6.5 8-12.2 11.7-18.5 4.9-8.4 10-16.9 14-25.8 3.9-8.7 3.7-18.1 0.9-27.4 -1.4-4.7-4.2-7.5-9.1-7.9 -3.8-0.3-7.6-0.5-11.5-0.8 -11.1-0.7-16.6-5.8-18.2-16.8 -2.9-19.6 14.2-39.4 34-39.4 9.8 0 15.8 5.3 16.5 15 0.4 5.3-0.1 10.7-0.1 16 0 9.6 2.2 12.2 11.5 13.6 5.1 0.7 10.3 1.1 15.4 1.6 13.5 1.2 24.1 7.5 30.1 19.5 4.9 9.6 8.5 19.9 12.1 30 3.2 9.1 5.3 18.6 8.5 27.7 3 8.4 6.9 9.4 13.7 3.6 3.8-3.3 7.2-7.5 9.7-11.8 4.5-7.6 3.9-15.5-1.9-22.3 -4-4.6-8.4-9-13.1-12.9 -7.5-6.3-15.6-12-23-18.5 -5.7-5-11.3-10.5-15.8-16.6 -10.2-13.8-9.1-29.1 2.2-42.1 10.7-12.3 28.6-16.1 42.8-8.9 13.4 6.8 18.8 23.5 11.9 36.8 -4.2 8.1-12.6 11.3-21.2 8.1 -7.4-2.7-10.8-9.4-8-16.9 0.5-1.5 2.6-2.4 3.9-3.6 0.7 1.6 2.3 3.5 1.9 4.8 -2.5 8 4.4 11.1 10.3 10.4 4-0.5 6.3-2.9 7.2-6.6 1.7-6.6-0.1-12.6-3.6-18.1 -5.4-8.7-17.2-12.7-28.3-9.7 -9.9 2.7-15.4 9.9-16 21 -0.4 8.7 1.9 16.7 7.7 23.1 6.2 6.9 13 13.3 19.8 19.7 7.1 6.8 15 12.8 21.7 19.9 15.4 16.3 13.3 38.4-4.5 52.3 -10.9 8.5-22.5 6.8-29.9-4.8 -3.4-5.3-5.9-11.2-9-16.7 -3.5-6.1-6.9-12.2-10.9-17.8 -4.6-6.3-11.2-9.8-19-10.9 -6.6-0.9-10.9 1.6-13.6 7.7 -4 9.3-2.1 21.7 5.4 28.7 4.1 3.9 9 6.8 13.7 10 2.9 2 6.2 3.3 9 5.4 4.7 3.4 4.2 8.5-1.3 9.5 -12.9 2.4-26 3.8-39 5.3 -1 0.1-2.2-1.8-3.3-2.8 1.3-1.1 2.5-2.8 3.9-3 7.1-1 14.3-1.5 21.4-2.3 4.1-0.5 8.2-1.3 13.7-2.2 -5-3-8.8-5.2-12.5-7.5 -10.3-6.2-17.9-14.8-19.6-27 -0.8-6.1-0.6-12.8 1.1-18.6 3.1-10.7 12.7-15.2 23.4-11.9 11.5 3.6 19.7 11.6 26.1 21.5 3.7 5.7 6.7 11.8 10 17.8C887.7 1911.9 888.2 1911.7 888.7 1911.5z"/><path d="M574 254.1c1.1 24.3 2.1 48 3.2 72.4 7.3-0.8 13.7-1.8 20.1-2.1 4.6-0.2 9.4-0.1 13.7 1.1 4.8 1.4 5.1 6.1 0.6 8.4 -3.3 1.7-7.2 2.6-10.9 2.8 -6.9 0.4-13.9 0.1-21.6 0.1 0.2 2.6 0.4 4.7 0.4 6.7 -0.2 9.3-0.2 18.5-0.9 27.8 -0.3 3.7-2.2 7.3-6.8 7.3 -4.6 0-6.4-3.4-7-7.2 -1-7-1.6-14.1-2.2-21.2 -0.3-4.1 0-8.2 0-13.2 -6.3 0.5-12.5 1.1-18.7 1.3 -3.3 0.1-6.7-0.1-9.8-1 -1.5-0.4-3.5-2.5-3.7-4 -0.2-1.5 1.3-4.2 2.7-4.7 3.6-1.4 7.6-2.5 11.4-2.8 6.3-0.4 12.6-0.1 19.5-0.1 0-23.3 0-47 0-71.1 -6.5-0.8-12.8-1.5-19-2.5 -14.3-2.4-27.8-6.9-40-14.7 -19.8-12.7-30-31.3-32.6-54.1 -0.7-6.7 1.2-13.8 2.4-20.7 0.3-1.6 2.6-2.9 4-4.4 1.5 1.5 3.8 2.8 4.4 4.6 2.1 6.7 4.2 13.4 5.2 20.3 4.5 32.2 24.5 49.9 54.3 58.2 20.5 5.7 40.6 3.7 60.2-4.3 22.1-9 34.3-25.3 36.1-49.5 0.9-11.9 2.8-23.8 4.5-35.7 0.3-1.8 2-3.4 3.1-5.1 1.4 1.5 3.4 2.7 4.1 4.4 5.5 14.8 7.3 29.9 3.5 45.6 -5.1 21.3-17.2 36.8-36.7 46.6C603.9 249.9 589.5 253 574 254.1z"/><path d="M947.9 1203c3.1-16.9 5.5-33.2 9.2-49.3 3.6-16 3-13.6 17-11.4 3.6 0.5 4.9-0.6 5.4-3.8 0.7-5.5 4-6.8 9.2-6.6 22.2 0.9 39.6 11.5 55 26.3 1.6 1.5 2.4 4.4 2.4 6.8 0.7 21.6 1.8 43.3 1.5 64.9 -0.4 31-1.8 61.9-2.9 92.8 -0.3 7.9-0.7 8.5-8.1 10 -22.4 4.6-44.9 8.1-67.9 5.4 -3.8-0.4-7.6-1.2-11.2-2.2 -14-3.8-22.1-12.4-23.7-27.4 -1-9.4-3.2-18.7-5-28 -1.6-8.6-1-16.9 2.5-24.9 2.2-5.1 3.1-10.3 2.4-16 -0.4-2.7 1.1-6.3 2.9-8.4 2.5-3 3.1-5.7 1.9-9.1 -1.2-3.3-2.4-6.6-3.3-9.9 -2-7 1.1-10.7 8.4-9.8C945 1202.4 946.8 1202.8 947.9 1203zM1005.7 1140.8c-0.3 2.3-0.5 3.5-0.6 4.8 -1.1 27.6-2.2 55.3-3.4 82.9 -0.1 2-0.1 4.1-0.6 5.9 -0.3 1-1.8 2.2-2.7 2.2 -0.9 0-2.4-1.3-2.7-2.3 -0.5-1.9-0.3-4-0.2-5.9 1.1-28 2.3-55.9 3.4-83.9 0.1-1.6 0-4.5-0.6-4.6 -3.5-0.9-7.2-1.5-10.7-1.3 -1 0.1-2.3 3.2-2.7 5.1 -5.5 28.9-4.2 58.1-4.7 87.2 0 1.4 1.4 2.7 2.3 4.4 -5.6 0-11.1 0-17.7 0 0.6 8 0 15.9 2 23.1 1.9 7 6.4 13.4 10.1 20.7 -3.5-2.6-6.3-5-9.4-6.9 -4.5-2.8-7-6.6-7.1-11.9 -0.2-11.1-0.8-22.3-0.5-33.4 0.2-10.7-8.5-19.3-19.2-17.6 1.2 3.7 2.5 7.2 3.6 10.9 1.7 5.4 1.7 10.4-2.9 14.7 -1 1-1.8 3-1.6 4.4 1.3 6.9-0.4 13.2-3.1 19.5 -2.7 6.3-3.2 12.9-2 19.6 2 10.7 4.1 21.3 5.7 32 1.4 9.7 6.7 16.3 15.9 18.5 9.7 2.2 19.7 2.8 29.5 4.1 4.1 0.6 5.3-1.4 4.9-5.2 -1.1-10.4-2.2-20.8-3.3-30.9 2.1 5.8 4.4 12.1 6.9 19.1 1.5-4.3 2.8-7.9 3.7-10.6 0 8.4 0 17.4 0 27.7 13.2-2.3 25.8-4.3 38.3-6.7 1-0.2 2-2.8 2.1-4.3 0.6-9.6 1-19.3 1.3-29 0.2-5.9 0-11.9 0-18.9 -7 1.7-13.7 3.2-21.4 5 3.1-1.8 5.3-3.3 7.6-4.5 4.8-2.7 11.8-4.1 14.1-8.1 2.5-4.5 0.7-11.4 1.1-17.2 0.2-3.5-0.7-5.1-4.4-5.6 -6.9-1-13.7-2.5-20.1-3.8 0.6-1.4 1.4-2.5 1.4-3.6 1.1-28.3 2.1-56.6 3.1-84.9 0-1.2-0.7-3.2-1.7-3.7C1015.2 1145.2 1010.7 1143.2 1005.7 1140.8zM1027.5 1152.7c-1.1 29.2-2.1 57.4-3.2 85.9 5.8 0 11.2 0 16.8 0 0.2-1.6 0.4-3 0.4-4.3 -0.3-21.1-1.1-42.3-0.8-63.5C1040.7 1161.3 1034.3 1157.9 1027.5 1152.7zM976.2 1149c-1.4-0.2-3.2-0.4-4.9-0.9 -4.7-1.6-7 0-7.8 5 -2.5 16.4-5.4 32.8-7.8 49.3 -0.3 1.9 1.1 4.8 2.7 6.2 4.8 4.3 7.6 9.2 7.6 15.7 0 5.7 1.1 6.6 7.3 6.4C974.3 1203.5 975.2 1176.6 976.2 1149z"/><path d="M789.6 1152c-15-1.8-30.1-3.4-45-5.5 -2.7-0.4-6.3-2.5-7.3-4.8 -8.2-18-13.9-36.7-13.6-56.8 0.2-8.9 1.3-17.5 7-25 1.2-1.5 1.1-4.4 0.7-6.6 -2.5-16.4-2.9-32.8 1.5-49.1 1.4-5.1 4.2-7.7 9.3-8.2 8-0.7 15.9-1.2 22.9 4.2 1.3 1 3.8 0.7 5.8 0.8 24.3 1.3 48.5 2.6 72.8 3.8 6 0.3 9.1 3.2 11.1 8.9 6 17 8.6 34.2 3.9 52 -0.6 2.2-0.5 4.7 0 6.9 4.1 20.4 3.3 40.7 0 61.1 -0.9 5.5-3.7 8.8-9.4 10.1C829.5 1148 809.8 1151 789.6 1152zM763.3 1088.7c0-0.5 0.1-0.9 0.1-1.4 4.4 0 8.9 0.3 13.3-0.1 7.3-0.6 14.6-1 21.7-2.6 8.1-1.8 13.2-7.5 15.2-15.7 1.5-6.1-0.2-8.4-6.5-7.3 -13.4 2.5-26.4 0.7-39.6-2 -7.3-1.4-15.1-0.6-22.6 0.3 -2.7 0.3-6.5 3.3-7.2 5.9 -2.5 8.5-5 17.4-5.4 26.2 -0.7 15.7 3.7 30.7 9.8 45 0.6 1.5 2.6 3.2 4.2 3.5 20.2 3.6 40.6 5.7 61.1 3.4 10.1-1.1 12.6-4.7 9.7-14.3 -1.6-5.2-4-10.2-6.5-16.4 7.8 8.7 15 16.4 13.3 29.1 8.4-1.6 16.1-3.3 23.9-4.7 2.9-0.5 4.4-1.8 4.6-4.8 0.7-14.3 1.9-28.5 2.2-42.8 0.1-5.7-1.4-11.4-2.2-16.6 -11.5 1-22.1 1.8-32.7 2.8 -1.2 0.1-2.6 1.3-3.3 2.4 -4 6.5-9.8 10.3-16.9 12.5 -2.6 0.8-5.4 1.4-8.4 2.2 2.7 2.9 5.1 5.4 8.1 8.4C786.6 1097.1 774.9 1092.9 763.3 1088.7zM792 1008.2c5.6 15.8 6.4 31.6 4.7 48.1 3.2-0.3 5.7-0.5 8.1-0.8 11.9-1.5 15 1.1 15.6 13 0 0.3 0.3 0.6 0.5 0.9 2.7 0.6 4.9 0.6 5-3.2 0.5-18.8-1.6-37.2-9-54.7 -0.6-1.4-2.8-3.1-4.3-3.1C806 1008 799.5 1008.2 792 1008.2zM831.9 1069.4c6-0.9 11.2-1.8 16.4-2.5 2.8-0.4 3.9-1.8 4.2-4.5 1.7-15.8 0-31.2-5.7-46.1 -0.4-1.1-1.4-2.7-2.3-2.9 -6.9-1.4-13.8-2.6-21.7-4C830.6 1029.1 832.6 1048.5 831.9 1069.4zM791.3 1041.9c0.4-0.1 0.7-0.2 1.1-0.2 -1.8-9.8-3.7-19.5-5.5-29.3 -0.6-3.3-2.3-4.3-5.6-3.7 -4.3 0.7-8.6 1.1-12.9 1.4 -2.6 0.2-3.4 1.3-3.3 3.8 0.6 12 0.9 24 1.6 36 0.1 1.3 1.6 3.3 2.9 3.7 5.3 1.4 10.7 2.3 16.1 3.4 3.3 0.7 5.1-0.3 5.1-3.9C790.8 1049.2 791.1 1045.5 791.3 1041.9zM760.3 1051.1c-0.5-13.9-1-27.8-1.6-41.8 -0.3-6.4-0.9-6.9-7.4-6.9 -1.3 0-2.6 0.2-4 0.3 -4.1 0.2-6.2 2.1-6.5 6.5 -0.7 12.3-1.8 24.5-2.6 36.8 -0.2 2.9 0.2 5.8 0.3 8.5C745.8 1053.3 752.6 1052.3 760.3 1051.1z"/><path d="M839.7 1592.8c-3 14-5.8 28-9.2 41.9 -0.9 3.8-0.2 6 2.5 8.7 9.3 9.5 18.4 19.3 27.3 29.2 1.6 1.7 3 5.1 2.3 6.9 -0.7 1.7-4.1 3.2-6.4 3.4 -12.6 1-25.2 1.7-37.9 2.2 -3.4 0.1-4.9 1.3-6.3 4.3 -7.5 16-15.1 31.9-23.1 47.6 -1.2 2.4-4.5 5.5-6.7 5.3 -2.2-0.2-4.9-3.6-5.9-6.2 -5.8-16.1-11.3-32.4-16.6-48.7 -1.1-3.6-2.7-4.9-6.5-5.3 -12.7-1.4-25.4-3.1-38.1-5.2 -2.2-0.4-5.3-2.4-5.9-4.2 -0.5-1.8 1.1-5.2 2.8-6.6 10.6-8.8 21.4-17.5 32.4-25.8 3.1-2.4 3.9-4.5 3.4-8.3 -1.9-14.2-3.7-28.4-5-42.6 -0.7-8.1 3.4-10.6 10.3-6.3 10.6 6.6 21.2 13.2 31.2 20.7 5.3 3.9 8.9 4.5 14.8 0.9 10.3-6.3 21.3-11.6 32.2-17C836.6 1585.2 839.4 1587.3 839.7 1592.8zM789.9 1679c0-0.1 0-0.3 0-0.4 5.3 0 10.7-0.1 16 0 3.1 0.1 4.9-1 5.9-4.1 3-9.5 6.3-19 9-28.6 0.5-1.7-0.3-4.8-1.6-6 -7.8-7.2-16-14.1-24-21.2 -2.6-2.3-4.8-2.2-7.5-0.3 -9.5 6.5-19 12.9-28.6 19.2 -2.9 1.9-3.9 4.2-3 7.6 2.3 9.2 4.6 18.4 6.7 27.7 0.7 3 2.2 4.1 5.2 4.2C775.3 1677.7 782.6 1678.4 789.9 1679zM765.6 1683.5c5.8 15.3 11.4 29.9 16.9 44.4 0.7 0 1.3 0 2 0 7.6-13.9 15.2-27.7 23.2-42.3C793 1684.9 780 1684.2 765.6 1683.5zM753.6 1593.5c-0.5 0.3-0.9 0.6-1.4 0.9 0.6 12.6 1.2 25.3 1.9 38.9 11.1-7.4 21.1-14 31.9-21.2C774.8 1605.6 764.2 1599.5 753.6 1593.5zM831.1 1596.2c-11.9 5.9-22.4 11.2-33.4 16.7 9.1 7.5 17.4 14.2 26.5 21.6C826.4 1621.7 828.6 1609.7 831.1 1596.2zM827.4 1647.7c-3.6 10.6-6.8 20.2-10.4 30.6 11.8-1 22.6-2 35-3.1C843.2 1665.4 835.6 1656.8 827.4 1647.7zM722.7 1669c11.9 2.3 22.4 4.4 33.6 6.6 -2.2-10.6-4.2-20.1-6.4-30.6C740.7 1653.1 732.2 1660.6 722.7 1669z"/><path d="M739.4 874.4c-0.7 0-1.8 0-3 0 -9 0.1-12.9-2.9-14.3-11.9 -2.2-13.5-4.2-27-6-40.5 -3-23.1-5.7-46.3-8.5-69.4 -1.1-9.1 2.2-13.8 11.3-14.7 15.6-1.6 31.2-2.6 46.8-3.9 7.5-0.7 14.9-1.7 22.3-2.4 7.8-0.7 11.3 1.8 12.7 9.3 6.3 34.2 12.5 68.5 18.6 102.7 0.5 2.6 0.7 5.3 0.6 8 -0.1 7.9-3.6 12.1-11.4 13.3 -19.4 2.9-38.8 5.8-58.3 8.6C746.9 873.9 743.4 874.1 739.4 874.4zM803.1 793.3c-11.8 2.2-22.4 5.6-31.8 11.9 -1.3 0.9-2.5 3.6-2.2 5.2 3.1 16.3 6.5 32.6 10 48.8 0.2 1.1 2.1 2.8 3.1 2.7 8.1-0.9 16.2-2.1 24.2-3.5 4.3-0.7 6.2-3.7 5.5-8 -0.9-6.3-2.3-12.5-2.7-18.8 -0.3-5.6-2.8-7.1-7.9-6.4 -6.8 1-13.5 1.7-20.3 2.5 -0.1-0.3-0.2-0.7-0.3-1 8.7-2.5 17.4-5 26.4-7.6C805.8 810.6 804.5 802.2 803.1 793.3zM718.6 793c2.2 16 4.1 30.7 6.2 45.3 0.2 1.2 2.3 3.4 3 3.2 4.5-1.3 10.6-1.8 13.1-5 10.7-13.7 25.5-26.2 18.1-47 0-0.1-0.1-0.3-0.1-0.5 0.1-3.2-1.4-4.3-4.7-3.8 -10.8 1.8-21.7 3.3-32.5 5.2C720.4 790.6 719.3 792.3 718.6 793zM799.9 772.9c-1.8-10.9-3.5-20.8-5.2-30.8 -0.5-2.8-1.8-4.7-5-4.3 -9.5 1.2-19.1 2.3-29.3 3.6 1.1 12.3 2.1 24.2 3.1 36.6C776 776.2 787.6 774.6 799.9 772.9zM762.3 813.7c-0.6-0.1-1.1-0.3-1.7-0.4 -2.4 4.7-5.3 9.2-7.1 14.1 -4.5 12.6-12.5 20.2-26.3 20.8 -0.3 0-0.5 0.4-1 0.7 0.7 9.5 8.9 4.1 13.7 6.9 -4.1 1.2-7.9 2.3-13.3 3.9 2.6 2.7 4.5 6.3 6.4 6.2 12.2-0.2 24.4-1.1 37.1-1.8C767.4 846.5 764.9 830.1 762.3 813.7zM717.2 781.1c13.7-0.7 26.7-1.5 40.4-2.2 -2-12.6-3.9-24.2-5.9-36.6 -11.3 1.6-22.2 2.9-33 4.7 -3.2 0.5-5.2 2.7-4.8 6.5C715.1 762.3 716.1 771.2 717.2 781.1zM767.4 801.3c11.2-4.6 21.7-8.9 32.2-13.5 1.1-0.5 2-2.3 2-3.5 0-0.9-1.7-2.7-2.5-2.6 -11.2 0.7-22.4 1.6-34.4 2.5C765.6 790.5 766.6 796.3 767.4 801.3z"/><path d="M392.2 1649.3c9 12.8 9.1 28.2 13 42.6 0.9 3.2-1 5.5-4 6.6 -19.2 7.5-39 11.7-59.6 8.2 -15.4-2.6-27.7-11.1-38.5-21.8 -1.1-1.1-0.9-3.4-1.3-5.1 1.8 0.3 3.5 0.6 5.3 0.9 0.1 0 0.2 0.2 0.4 0.3 20.5 21.1 45 24.8 72.3 16.5 4.6-1.4 9.2-3 13.8-4.5 0.9-0.3 1.8-0.8 3.5-1.6 -2.7-11.2-5.1-22.6-8.3-33.7 -1.4-5-6-7.3-10.9-8.5 -1.9-0.5-3.9-0.8-6.3-1.3 5.5-2 10.5-3.9 15.5-5.7 3.4-1.2 4.3-3.2 2.6-6.5 -5.6-10.8-10-22.3-16.8-32.2 -16.5-24-40.9-31.2-68.8-28.8 -18.5 1.6-34.6 9.1-48 22.2 -27.2 26.6-20.2 77.8 14.9 93.3 7.9 3.5 15.7 7.3 23.4 11.3 17.8 9.4 26.4 26.8 23.1 46.7 -0.2 1.4-2 2.5-3 3.8 -0.9-1.4-2.4-2.7-2.6-4.1 -1-7.1-1-14.3-2.5-21.2 -1.8-8.8-7.5-14.7-16-17.7 -5-1.7-10.1-3.3-15.3-4.7 -29.6-8.2-45.7-28.6-46.8-59.5 -1.4-41.2 27.4-73.9 69.5-78.6 39.6-4.5 68.8 10.5 87.9 45.4 3.8 7 7 14.4 9.9 21.8C402.4 1643.8 402 1644.3 392.2 1649.3z"/><path d="M757 381.5c-1.9 6-3.5 11.4-5.3 16.7 -0.5 1.4-0.8 3.1-1.8 4.1 -1.3 1.4-3.2 2.4-4.9 3.5 -1.1-1.7-3.2-3.3-3.2-5 0-10.1 0.1-20.3 0.7-30.4 0.4-6-0.1-10.9-4.2-16.1 -3.9-5-5.9-11.4-8.5-17.4 -3-6.9-5.1-8.4-12.7-7.4 -4.6 0.6-9.1 1.7-13.7 2.8 -6.6 1.5-10.8-1.9-8.5-8.2 2.2-6.1 6.4-11.5 9.8-17.1 0.5-0.8 1.2-1.5 2.5-3 -5.6 0.7-10.1 1.5-14.6 1.8 -4.4 0.3-9.6 1.4-12-3.7 -2.3-4.7 1.5-8.1 3.9-11.6 0.5-0.7 1-1.6 1.6-1.8 1.8-0.7 3.7-1.1 5.5-1.6 -0.3 1.8-0.2 3.7-1 5.2 -1.2 2.3-3 4.2-4.1 7.1 24-1.5 47-6.7 69.4-14.6 0.1-0.6 0.1-1.2 0.2-1.9 -2.3-1.5-4.7-2.8-6.7-4.7 -1.1-1-1.5-2.9-2.2-4.3 1.6-0.3 3.2-0.6 4.9-0.7 0.6 0 1.2 0.5 1.8 0.9 3.7 2.4 8.5 4.4 8.2 9.8 -0.3 5.5-5.3 6.7-9.4 8.5 -3.1 1.3-6.5 2.3-11 3.9 4.2 1.1 7.2 1.9 10.2 2.7 26.4 7.8 52.8 15.4 79 23.6 7.1 2.2 13.8 5.8 20.3 9.5 5.7 3.3 9 8.6 8.2 15.5 -1.4 11.7 5.1 18.8 13.7 24.8 2.3 1.6 5 2.7 7.1 4.6 1 0.8 1 2.8 1.4 4.3 -1.5 0.4-2.9 1.1-4.4 1.1 -1 0-2.1-0.9-3.1-1.5 -12.4-8-26.3-11.9-40.8-14.2 -5.2-0.8-6.1 0.1-6.3 5.2 -0.2 5.3-0.4 10.7-1.3 15.9 -0.3 2-2.5 5-4.1 5.2 -1.7 0.2-4.5-2-5.5-3.8 -2.5-5-4.4-10.4-6.2-15.8 -0.9-2.7-2.1-3.6-5-3.4 -8.3 0.4-16.7 0.6-25 0.4 -3.5-0.1-4.8 1.2-5.1 4.4 -0.5 7.1-0.9 14.3-1.9 21.4 -0.3 2.5-2.2 4.7-3.4 7 -2.1-1.6-5.2-2.7-6.2-4.8C760.8 393.1 759.3 387.6 757 381.5zM766.2 389.8c0.3-0.1 0.6-0.2 0.8-0.3 0.1-1.3 0.3-2.6 0.4-3.9 0.5-11.3 3.1-22.1 8.6-32 0.7-1.3 3-1.8 4.5-2.7 0.2 1.8 0.9 3.6 0.6 5.2 -0.6 2.6-1.9 5-3.4 8.7 13.8-0.7 26.4-1.3 39-1.9 -3.9-4.6-7.9-7.6-11.3-11.1 -1.3-1.3-1.2-3.9-1.8-5.9 2 0.6 4.1 0.8 5.8 1.9 5.3 3.3 10 8.3 15.7 10.2 10.3 3.4 21.2 5.1 30.8 7.2 -0.8-5.3-2.3-10.8-2.3-16.2 0-5.6-1.6-10-6.4-12.5 -6-3.2-12.1-6.4-18.6-8.4 -26.1-8.1-52.2-15.9-78.5-23.4 -6.6-1.9-13.7-3.1-20.6-3.3 -12.6-0.3-26.2 12.2-27.8 24.9 2.1-0.5 3.9-0.8 5.8-1.3 4-1.1 7.9-2.6 12-3.3 7.9-1.5 13.3 1.5 16.4 8.9 1.2 2.8 1.6 5.8 2.9 8.5 3 6 5.5 12.7 9.8 17.6 8 9.3 15 18.7 16.8 31.1C765.5 388.4 765.9 389.1 766.2 389.8zM748.6 367.2c-0.4 7.4-0.7 13.9-1.1 21.5C753.2 378.7 753.7 371.5 748.6 367.2zM814.5 368.9c1.8 4.9 3.3 9.1 4.7 13.3 0.4-0.1 0.8-0.2 1.2-0.3 0-4.5 0-9 0-13.9C818.7 368.3 817.1 368.5 814.5 368.9z"/><path d="M822.4 1302.1c0.6 22.2-5.6 42.1-16.8 60.7 -9.3 15.5-20.9 29.3-34 41.7 -3.6 3.5-4.2 6.4-2.1 10.8 3.9 8.1 7.5 16.3 10.8 24.7 0.9 2.3 0.1 5.2 0.1 7.8 -2.6-0.1-5.8 0.9-7.8-0.3 -11.1-6.8-22.9-10.4-35.9-10.8 -2-0.1-5.4-2.1-5.6-3.5 -0.3-2 1.4-4.9 3.1-6.4 7-6 14.2-11.6 21.5-17.2 2.8-2.1 3.3-4.2 2.2-7.6 -6.6-20.2-11.2-40.8-11-62.2 0.1-20.4 5.4-39.3 17.5-55.8 7.5-10.2 16.1-19.5 24.3-29.2 4.1-4.8 8.1-9.7 12.4-14.3 1.6-1.6 4.2-3.2 6.2-3 1.7 0.1 4.1 2.5 4.6 4.4C817.3 1261.6 822.7 1281.5 822.4 1302.1zM813.4 1304c-8.9 5.9-16.9 10.8-26.6 9 -10.5-1.9-14.7-10.2-18.1-19.3 -16.5 21.4-18.4 81.6-3.3 107.1C792.1 1374.2 811.8 1344.4 813.4 1304zM805.4 1250.3c-0.8-0.2-1.6-0.4-2.4-0.5 -9 10.7-18 21.3-26.9 32 -0.8 1-1.1 2.8-1 4.2 0.6 9.1 10.6 18.4 18.9 16.8 6.2-1.2 12.6-3.7 17.7-7.2 1.8-1.2 0.3-7.3 0.4-11.2 0-0.3 0-0.7-0.1-1C809.8 1272.3 807.6 1261.3 805.4 1250.3zM769.9 1437.5c-3-8.5-5.5-15.5-8.1-23.1 -5.9 5.2-11.3 10-17.5 15.4C753 1432.4 760.8 1434.7 769.9 1437.5z"/><path d="M127.5 478.6c-5.9 2.1-11.1 4.4-16.5 5.8 -3.7 1-7.9 1.5-11.7 1.1 -4.1-0.4-5.3-4.1-2.2-6.8 2.9-2.5 6.6-4.6 10.3-5.6 6-1.7 12.4-2.4 19.1-3.6 -0.7-7.1-1.8-14-2-20.9 -0.1-5.6 0.5-11.2 1.4-16.7 0.2-1.5 2.4-3.3 3.9-3.6 1.1-0.2 3.3 1.8 3.7 3.2 1.4 4.6 2.6 9.3 3.2 14 0.9 6.9 1.1 13.9 1.6 21.3 6.8-1.2 13.1-2.6 19.5-3.2 3.7-0.3 7.6 0.3 11.2 1.1 1.4 0.3 3.2 2.5 3.2 3.8 0 1.3-1.9 3.2-3.3 3.7 -2.8 1-5.8 1.4-8.7 1.7 -5.6 0.6-11.3 1-16.9 1.5 -2.5 0.2-3.9 1.1-3.5 4.1 1.5 11.4 2.7 22.8 4.2 35.4 2.1-2.3 3.4-3.9 4.9-5.3 11-10.3 33.1-10.5 44.4-0.4 6.2 5.5 8.3 12.6 6.3 20.4 -1.7 6.6-4.3 12.9-7 19.2 -3.9 9-8.3 17.8-12.3 26.8 -1.3 3-2.4 6.2-3.1 9.5 -2.9 13.7 0.6 21.4 12.8 28.2 0.6 0.3 1.3 0.5 1.7 1 2.1 1.8 6.1 4.3 5.8 5.5 -1.1 4.4-5.5 2.8-8.5 2.3 -4.5-0.8-9.2-1.9-13.3-4 -8.5-4.3-12.7-11.8-10.7-21.1 2.5-11.5 6.1-22.8 9.7-34 3.2-9.6 7.4-18.9 10.6-28.6 3.8-11.4 1.6-16-8.5-19.5 -11.7-4.1-21.6-0.7-25.3 8.8 -3.7 9.5-3.2 19.3-1.9 29.1 0.3 2.3 0.7 4.6 1 6.9 0.5 3.4 0.3 6.7-3.8 7.5 -4.4 0.8-5.8-2.6-6.3-6 -1.5-9.7-2.8-19.4-4.3-29.2 -2.5-16.5-5.1-32.9-7.6-49.4C128.2 481.3 127.9 480.4 127.5 478.6z"/><path d="M626.3 167.2c0.5 16-6.1 28.8-19.1 37.4 -22.6 14.9-47.2 19.1-72.8 9.1 -42-16.4-40-65.4-20.1-89 16.6-19.7 42.7-28 66.1-20.5 27.4 8.8 43.6 28.9 45.7 56.9C626.1 163.2 626.2 165.2 626.3 167.2zM564.7 207.2c0.1-0.3 0.1-0.6 0.2-0.9 2.2-0.1 4.3-0.1 6.5-0.4 15.3-1.6 28.8-8 38.1-19.7 12.9-16.2 9.2-40-6.4-53.7 -4-3.5-8-7-12.4-10.1 -21.2-14.9-45.5-12.2-63.9 6.2 -19.8 19.8-17.8 61.9 16.7 73.6C550.2 204.7 557.6 205.6 564.7 207.2z"/><path d="M405.1 2068.5c13.1 5.1 24.2 0.7 34.8-5.9 1.5-0.9 2.5-3.6 2.7-5.6 0.5-3.6 0.5-7.3 0.3-10.9 -0.7-10.3-1.7-20.5-2.5-31 -0.5-0.2-1.3-0.5-2.1-0.8 -9.2-3-13.6-10.1-11.1-18.2 2.3-7.4 11.3-11.3 19.9-8.6 5.5 1.7 8.8 5.3 9.6 11 0.9 5.8-0.9 10.7-6.1 13.7 -2.8 1.6-3.6 3.5-3.4 6.5 0.7 9.3 1.1 18.6 2.1 27.9 1.4 13.5-3.4 24.1-13.7 32.6 -5.6 4.7-12.4 6.2-19.2 5.6 -8.7-0.8-17.4-2.5-26.1-4.2 -7.2-1.4-14.2-4-21.4-4.8 -6.6-0.7-13.5 0.2-20.2 0.5 -2.5 0.1-4.9 0.7-7.4 0.7 -7.5 0.1-8.2-1.1-5.2-8.1 0.9-1.9 2.4-3.6 3.4-5.5 2.2-4 5.5-7.9 6-12.2 1.6-13.8 2.2-27.8 3.2-41.9 -1.1-0.4-2.2-0.8-3.3-1.2 -7-2.5-10.6-7.8-9.9-14.4 0.8-7.2 6.8-13.2 14.5-14.4 5.8-1 12.6 3.2 15.1 9.2 2.4 5.9 0.5 13.7-5.2 17.3 -3.7 2.4-5 5.1-5.3 9.2 -0.6 10.8-1.4 21.6-2.2 32.4 -0.3 3.6-1 7.2-1.5 11.2 13.1-1.2 25.3 2.3 37.4 5.9 4 1.2 6.2 0.1 7-3.8 0.6-2.9 1.2-5.9 1.2-8.8 -0.1-11.5-0.5-23-0.5-34.5 0-3.1-0.8-4.6-3.9-5.7 -7.6-2.9-11-10.4-8.5-17.4 2.6-7.2 10.7-10.9 19.1-8.8 7 1.8 11.4 8.9 10.1 16.2 -0.8 4.4-3.2 7.7-7.3 9.5 -2.6 1.1-3.5 2.5-3.4 5.2 0.5 15.1-1.2 30.3 2.9 45.2C405.3 2063.6 405 2066 405.1 2068.5zM350.4 2002.6c5 0.1 9.4-4.1 9.4-9 0-3.9-3.3-7.5-7-7.7 -6-0.3-11.1 3.9-11.1 9C341.7 1999.3 345.4 2002.5 350.4 2002.6zM450.7 2000.6c-0.1-5-3.7-7.7-9.8-7.4 -5.2 0.2-8.2 3-8 7.5 0.2 4.4 4.4 7.9 9.3 7.8C447.2 2008.4 450.8 2005 450.7 2000.6zM406.5 1999.1c0-5-3.2-7.9-8.8-7.9 -5.3 0-8.8 3-8.8 7.5 0 4.4 4.2 7.9 9.3 7.8C403.2 2006.3 406.5 2003.3 406.5 1999.1z"/><path d="M1065.9 176.9c2.7 68.9-61.5 112.3-120 105.6 -19.2-2.2-37.1-7.8-53.5-18 -31.1-19.4-45.5-47.8-44-84.1 1.4-33.9 15.1-62.5 40-85.6 29.9-27.7 64.7-31.9 102.4-20.2 4.8 1.5 9.4 3.4 13.9 5.5C1046.7 99.2 1066.5 130.7 1065.9 176.9zM1059.9 174.3c0-40.1-16.1-67.6-51.9-85.8 -10.4-5.3-21.8-9.3-33.3-11.8 -28.6-6.2-55.1-0.8-77.8 18.4 -26.2 22-40.8 50.2-42.6 84.5 -1.8 35.7 12.5 63.2 43.6 81.1 8.6 4.9 18 8.9 27.4 11.8C986.7 291 1062.4 252.9 1059.9 174.3z"/><path d="M301.8 1852.6c-4 15.1-10.6 28.2-9.4 43.2 0.4 5.1 0.1 10.3-0.2 15.5 -0.1 2.3-0.8 4.8-2.1 6.5 -1.5 1.9-4 4.3-6 4.3 -2 0-4.7-2.4-5.8-4.4 -8.1-15.2-12.2-31.5-12.2-48.9 0-14.1-0.4-28.3-1.2-42.4 -0.4-6.4-2.4-12.8-3.3-19.2 -2.3-16.4 7.2-29.7 23.3-33.3 5.3-1.2 10.2 0.3 14 3.7 9.5 8.5 20.9 11.7 33.2 13.4 15 2.1 19 7.6 19.4 22.7 0.4 14.9-2.6 29.2-6.8 43.3 -5.5 18.6-10.1 37.3-11.6 56.7 -0.3 3.9-0.4 8.8-5.5 9.5 -4.9 0.7-7.2-3.6-8.3-7.2 -2.5-8.2-4.7-16.6-6-25 -0.9-5.9 0.1-12-0.2-18C312.6 1865 308.9 1858.7 301.8 1852.6zM326.6 1914.3c1-7.5 1.3-15.2 3-22.5 3.6-15.7 8.3-31.2 11.7-47 2.1-9.5 3.3-19.4 3.6-29.1 0.3-8.7-3.8-14.3-11.4-16.2 -13.7-3.3-26.7-8.1-38.9-15.2 -5.9-3.4-11.8-2-17.4 1.8 -8.9 6.1-9.3 15.1-7.9 24.2 3.1 19.7 3.8 39.4 3.1 59.3 -0.5 14.8 3.1 28.7 9.5 42 0.6 1.2 1.4 2.3 2.1 3.4 0.5-0.1 1.1-0.2 1.6-0.3 0.2-4.9 0.8-9.9 0.5-14.7 -1-16 2.7-31.5 5.9-47 0.9-4.4 2.9-8.4 7.9-9.4 4.9-1 8.8 1.5 11.1 5.2 3.2 5.3 6.5 11.1 7.8 17 1.4 6.4 0.9 13.2 0.6 19.9C318.9 1895.8 320.4 1905.4 326.6 1914.3z"/><path d="M370.3 1391.4c-2.6 18.3-1.9 36.3 6.8 53.2 0.8 1.6 0.4 5.3-0.7 6 -2.9 1.9-4.5-0.9-5.5-3.2 -6.6-15.5-18.2-26.5-31.5-36.1 -5.1-3.7-10.1-7.7-15.2-11.4 -17.5-12.7-23.8-29.7-20-50.8 1.1-5.9 1.8-11.9 2.8-17.8 2.1-12.3 2-24.5-1.5-36.6 -0.7-2.4-1.4-4.9-1.3-7.3 0.1-1.4 1.6-3.2 3-3.8 0.7-0.3 3 1.3 3.5 2.5 1.3 3 2.2 6.3 3 9.5 2.1 8.7 7.1 15.4 14 20.7 6.2 4.7 12.5 9.4 19.1 13.7 17.1 11.2 24.9 26.7 23.5 47.1C370 1381.7 370.3 1386.5 370.3 1391.4zM313.3 1361.1c0.1 14.7 11 26 24.8 25.8 11.8-0.1 20.9-9.1 20.9-20.3 -0.1-14.2-11.3-27.6-23-27.6C322.8 1339.2 313.2 1348.5 313.3 1361.1zM332.6 1394c9.3 7.6 18.5 15.3 27.7 22.8 0-11.2 0-22.2 0-34.2C352.3 1390.9 343.3 1394.2 332.6 1394zM317.3 1318.7c-0.7 7.4-1.3 14.1-1.9 20.8 6.2-2.6 11.9-5 17.8-7.5C328.1 1327.7 323 1323.5 317.3 1318.7z"/><path d="M605.3 939.5c-0.5 11.3-4.7 24.4-12.3 36.3 -3.8 6-7.9 8-11.6 6.5 -3.9-1.6-5.7-6.6-4.5-13.1 1.1-5.9 4-10.6 9.3-13.5 6.1-3.3 12.4-6.3 11.8-14.9 -0.7-10.2-3-19.6-12.5-25.2 -16.3-9.5-42.9-0.9-50.8 16.3 -2.6 5.7-2.7 11.6 0.5 16.8 3.5 5.8 7.3 11.6 11.9 16.5 8.5 9.2 17.7 17.7 26.4 26.6 8.6 8.8 14 18.9 12.8 31.8 -2.2 23.7-24.1 38-46.6 30.2 -19.6-6.8-24.7-29.6-9.1-44.2 4.8-4.5 12.1-6.6 18.3-9.4 1-0.5 2.8 0.8 4.2 1.2 -1.1 1-2 2.4-3.3 3.1 -2.3 1.2-5 1.9-7.3 3.1 -8.9 4.6-12.1 11.2-10.4 21 1.8 10.6 11.2 19.3 21.9 20.4 9.5 1 18-4.8 22.1-15.2 3.9-9.7 3.8-19.5-1.9-28.3 -4.6-7.1-10.1-13.6-15.8-19.9 -6.2-6.9-13.1-13.2-19.8-19.8 -0.3-0.3-0.7-0.7-1-1.1 -9.4-10.6-17-22-10.8-37 6.7-16 19.5-24.7 36.5-26.4 6.4-0.7 13.4 0.2 19.6 2.1C598 907.9 605.5 919.7 605.3 939.5zM595 959.4c-10.4 3-13.2 7.8-9.5 15.1C588.8 969.2 591.9 964.3 595 959.4z"/><path d="M369.4 836.1c-20.7-1.6-39.1 4.1-55.8 16.3 -4.9 3.6-10.5 6.3-16 9 -1.5 0.7-3.9-0.4-5.8-0.7 0.4-1.8 0.2-4.3 1.4-5.3 4.7-4.3 9.7-8.5 14.9-12.2 2.3-1.6 3.4-3 3.4-5.9 0.2-31.8-7.1-61.7-22-89.8 -1.6-3-3.3-3.7-6.6-3.6 -5.6 0.1-11.3-0.4-16.8-1.2 -1.4-0.2-2.5-2.2-3.7-3.3 1.2-1.2 2.2-3.2 3.6-3.5 6-1.1 12.2-2.6 18.2-2.2 20.5 1.6 39.2-4.1 57.4-12.6 4.2-1.9 8.7-3.2 13.2-4.2 1.5-0.3 3.5 1.1 5.2 1.7 -0.7 1.7-1 4.3-2.2 5 -5.6 3.2-11.3 6.2-17.2 8.7 -3.1 1.3-4.3 2.5-4.2 6 0.8 31.1 10.2 59.6 25.9 86.1 0.8 1.3 3.4 2 5.3 2.2 7.2 0.9 14.5 1.3 21.7 2.4 1.5 0.2 2.7 2.7 4 4.1 -1.5 1-3 2.8-4.6 2.9C382 836.3 375.7 836.1 369.4 836.1zM296.2 742.1c13.2 30.9 20.9 62.3 24.2 94.8 11.2-3.2 21.7-6.2 32.5-9.2 -12.9-29.1-21.3-59.4-26.1-91C316.5 738.4 306.8 740.2 296.2 742.1z"/><path d="M727.9 472.2c21.5 5.8 40 14.2 47.7 36.1 4.4 12.6 7.6 25.5 11.3 38.3 1.7 5.9 3.2 11.9 4.8 17.9 1.1 3.8 0.2 6.4-3.9 7.7 -17.8 5.7-35.5 11.4-53.2 17.3 -3.9 1.3-5.9-0.2-7.3-3.7 -6.4-15.2-12.6-30.5-19.4-45.5 -8.3-18.2-6.4-35.3 4.3-51.8 2.8-4.3 5.9-8.5 9.3-12.3C723.2 474.2 726.1 473.3 727.9 472.2zM726.7 485.8c-9.4 12.3-16.3 24.2-14.4 39.2 2.7 20.8 13.4 38.7 20.7 58.3 8.1-2.6 15.6-5.1 23.4-7.6C746.4 545.7 736.7 516.3 726.7 485.8zM785.2 566.4c-0.2-1.5-0.2-2.7-0.5-3.7 -3.2-11.5-6-23.2-9.9-34.5 -2.8-8.1-6.5-16.1-11-23.4 -6.8-11-17.9-16.1-31-20.3 10 30.5 19.7 59.7 29.5 89.4C770.3 571.2 777.7 568.8 785.2 566.4z"/><path d="M574 476.7c-4-0.3-5.8 1.2-6.2 5.3 -0.5 6 1.5 10.4 6.8 13.3 1.9 1 3.9 2 5.9 2.8 5.5 2.3 6.5 3.6 3.9 9 -3 6.4-7 12.4-10.5 18.6 -3 5.1-5.8 10.3-9 15.3 -0.9 1.4-2.7 2.2-4.1 3.3 -0.6-1.6-2.1-3.6-1.6-4.6 2.6-5.6 5.6-11.2 8.8-16.5 3.7-6 7.8-11.8 12.1-18.3 -11-4.6-19.3-9.9-18.4-22.5 -0.6 0-1.1-0.1-1.7-0.1 -1.2 2.8-3.3 5.4-3.4 8.3 -0.7 12.2-5.3 22.9-10.5 33.6 -2.2 4.6-2.8 9.9-4.6 14.7 -0.7 1.8-2.5 3.2-3.8 4.8 -0.8-2-2.5-4.2-2.1-5.8 1.5-6.3 3.1-12.7 5.9-18.4 4.5-9.2 8.1-18.5 8.8-28.9 0.6-9.5 6.8-14.9 15.2-17.9 3.7-1.4 7.7-2.3 11.6-3 3.9-0.7 5.9 1.4 4.8 5.3 -4 13.5 1.3 12.9 10.6 14.3 4.1 0.6 8.2 1.3 13.8 2.2 -6.7-6.6-5.9-14.1-7-21.3 -2.6-17.3-11.7-31-26-40.9 -5.4-3.8-11.6-3.6-16.2 0.7 -5.8 5.3-10.8 11.6-15.7 17.8 -3 3.8-4.9 8.3-7.6 12.3 -3.5 5.2-9 6.7-14.9 6.3 -1.4-0.1-2.7-2.2-4-3.3 1.5-0.7 3-2.2 4.5-2.1 9 0.4 9.6 0.3 13.1-8.4 3.8-9.4 8.5-18.1 15.9-25.1 12.6-12 25.1-11.3 35.9 2.3 5.2 6.5 9.8 13.4 14.4 20.4 5 7.5 7.2 15.9 7.7 25 0.2 4 1.8 8.7 4.3 11.8 6.7 8 9.8 17.1 11.9 27.1 1.7 8.1 4.7 15.9 6.9 23.9 0.5 1.7-0.3 3.8-0.5 5.7 -1.8-0.9-4.7-1.4-5.3-2.9 -2.7-6.2-4.9-12.7-7.1-19.1 -0.4-1.2-0.7-2.6-1-3.9 -4.4-18.1-6.4-19.9-24.8-22.3 -2-0.3-4-0.6-5.9-1 -7.5-1.8-10.3-5.5-10.1-13.2C574.1 479.4 574 478.1 574 476.7z"/><path d="M552.6 1981c-2.4 0.1-3.9 0.3-5.4 0.3 -11.4 0.6-18.7-5.9-19.3-17.4 -0.1-1.5 1.2-3.1 1.8-4.6 1.4 1.1 3.4 1.9 4 3.3 3.2 7.2 6.9 9.6 14.5 7.5 7.5-2.1 14.8-5.1 22.3-7.3 5.9-1.7 11.9-3.2 18-3.8 9.4-0.9 16 3.4 20.6 11.9 6.5 12 9 25 11.8 38 1.6 7.5 3.3 15 4.6 22.5 0.5 3.1 3.3 8-1.6 9 -5.2 1.1-4.1-4.5-4.8-7.5 -2.9-13.5-5.3-27.1-8.4-40.6 -3.2-14-12.2-20.2-26.3-18.4 -5.9 0.7-11.8 2.2-17.6 3.5 -6.2 1.5-9.3 7.7-6.7 13.7 2.1 4.7 5.1 9 7 13.8 3.1 8.2 5.9 16.5 8.3 25 0.7 2.4 0.2 5.3-0.5 7.8 -1.3 4.5-4.6 6.8-9.3 6.9 -3.7 0.1-9.9-4.1-10.5-7.4 -0.2-1.3 0.8-2.9 1.6-4.1 0.5-0.7 1.8-0.7 2.7-1 8.4-2.8 10.3-6.1 6.5-14.2 -3.6-7.5-8-14.6-12.3-21.7C550.9 1991.5 549.4 1986.8 552.6 1981z"/><path d="M174.2 1105.3c-0.5-3.1-1.2-6.2-1.3-9.4 0-1.3 1.2-2.7 1.9-4.1 1.4 0.7 3.2 1.1 4 2.2 8.2 11.9 1.9 28.4-12.2 30.9 -5.9 1.1-12.3 0.4-18.3-0.6 -18-2.8-26.6 5.8-23.5 23.8 1 6.1 2.3 12.2 2.2 18.3 -0.2 14.8-9.9 23.9-24.7 23.3 -5.8-0.2-11.6-1.2-17.3-2.2 -15.6-2.7-26.2 7.1-24.3 22.9 0.6 4.8 2 9.4 2.9 14.2 1.8 9.8-3.5 19.8-12.6 23.7 -6.3 2.7-13 1.6-17.3-3.4 -1.1-1.3-1.1-3.7-1.6-5.6 1.8-0.1 3.7-0.4 5.4-0.1 2.9 0.5 5.8 2.2 8.6 2.1 7.6-0.3 12.8-7.5 11.2-15.1 -1-4.7-3-9.3-3.4-14 -0.4-5.7-0.4-11.8 1.2-17.2 3.1-10.9 13.6-17 24.9-15.4 3.8 0.5 7.4 2.4 11.2 2.5 5.7 0.1 11.8 0.4 17-1.5 11-4 15.3-14.9 10.9-25.7 -3.3-8.1-4.3-16-0.9-24.2 5-12.2 15-17.2 27.7-14 4 1 8 2.3 12.1 2.9C168.7 1120.9 174 1116.2 174.2 1105.3z"/><path d="M205.2 1146.2c-0.4-3-1.2-5.9-1.2-8.9 0-1.5 1.2-3 1.9-4.5 1.4 0.9 3.4 1.4 4.2 2.7 8.6 14.1-0.3 30.6-17 31.2 -5.9 0.2-11.9-1.1-17.8-1.9 -12.2-1.5-20.3 5.4-20 17.9 0.1 4.8 1.5 9.5 2.1 14.3 0.5 3.8 0.9 7.6 0.7 11.4 -0.8 13.8-10 22.5-23.8 22.2 -6.1-0.1-12.3-1.2-18.3-2.2 -15.4-2.6-25.9 6.9-24.3 22.5 0.5 4.9 2 9.8 3 14.7 1.8 9.8-3.6 19.8-12.7 23.7 -6.4 2.7-13.5 1.4-17.7-3.9 -1-1.3-0.8-3.5-1.1-5.2 1.7-0.1 3.4-0.5 5-0.2 1.6 0.3 3 1.4 4.6 1.9 8.6 2.5 17.2-5.1 15.7-13.8 -0.6-3.6-2.3-7-2.6-10.6 -0.6-6.2-1.6-12.7-0.5-18.7 2.4-12.9 13.8-20.2 26.8-18 3.6 0.6 7.1 1.8 10.7 2.6 6.4 1.5 12.6 0.6 18.4-2.5 9.4-5.1 13-14.7 9.1-24.6 -2.9-7.4-4.4-14.6-1.9-22.4 4.4-13.7 15.2-19.7 29.2-16.1 3.9 1 7.7 2.2 11.7 2.7C199.8 1161.9 205 1157.2 205.2 1146.2z"/><path d="M199.5 733.8c0 28.1-24.8 51-55.2 51.1 -30.3 0-54.4-22.9-54.2-51.8 0.1-30.4 25.3-55.8 55.3-55.8C174.1 677.4 199.6 703.9 199.5 733.8zM193.2 733.5c-0.1-25.8-23.6-50.1-48.2-49.9 -26.6 0.2-48.6 22.6-48.7 49.6 0 25.3 21.2 45.4 48 45.4C171.3 778.7 193.3 758.4 193.2 733.5z"/><path d="M551 1691.9c-4.1-2.5-7.7-4.1-10.5-6.6 -2-1.7-2.9-4.6-4.3-6.9 2.8 0 6.2-1 8.3 0.2 4.1 2.3 7.6 5.9 11.7 9.3 19.4-14.8 39.1-29.8 58.7-44.7 -0.1-0.4-0.2-0.8-0.3-1.2 -4 0.2-8.1 0.3-12.1 0.7 -5.2 0.4-10.2-1.6-9.4-4.1 1.3-4.5 5.4-5.2 9.3-4.8 6.6 0.7 13.3 1.6 19.7 3.1 1.9 0.5 4.5 3.4 4.5 5.3 0.2 6.8-0.2 13.6-0.9 20.4 -0.4 3.6-2.3 6.6-6.7 7.4 -5.2-7.3 1.9-14.3 0.4-22.1 -19.4 15.8-38.4 31.3-57.4 46.8 3.7 8.2 12.4 14.6 7.5 25.2 -5-1.8-5.8-6-7.4-9.8 -1.5-3.6-3.4-7.1-5.4-11.2 -6.6 5.4-12.4 10.3-18.5 14.9 -3.1 2.4-6.5 4.7-10.1 6.4 -1.6 0.8-3.9 0.1-5.9 0.1 0.4-1.9 0.2-4.5 1.3-5.7 3.9-4.1 8.2-7.8 12.5-11.3C540.7 1699.6 545.4 1696.2 551 1691.9z"/><path d="M959.2 724.4c-2.2-0.3-4.4-0.3-6.5-1 -5.4-1.7-7.3-6.4-4.7-11.5 3.9-7.8 22.1-18 30.7-17.4 6.1 0.5 8.9 5.4 5.4 10.6 -2.6 3.8-1.8 6.4 0 9.9 10.1 20.4 20.1 41 30 61.5 1.3 2.7 2.5 5.5 3 8.4 0.3 1.8-0.9 3.8-1.5 5.7 -1.8-0.5-4-0.5-5.3-1.6 -2.1-1.8-3.9-4.1-5.5-6.4 -12.2-17.9-24.5-35.7-36.5-53.7C965.9 725.5 963.8 722.6 959.2 724.4zM1002.9 770.1c0.5-0.3 0.9-0.5 1.4-0.8 -9.2-18.5-18.4-36.9-27.6-55.5 -3.3 1.6-5.7 2.9-8.4 4.2C979.9 735.6 991.4 752.8 1002.9 770.1zM956 715.4c5.4 2.1 18-6 20.7-13C967.6 702.1 958.4 707.9 956 715.4z"/><path d="M493.7 426.8c5.3 0.3 9.6 0.7 13.9 0.8 1.6 0.1 3.4-0.8 4.9-0.5 1.2 0.2 3 1.3 3.2 2.3 0.2 1-1.1 3-2 3.3 -7.9 2.1-15.9 2.6-23.3-1.7 -4.1-2.3-4.6-6.4-1.8-10.3 0.6-0.8 1.2-1.6 2-2.2 10.8-8 22.8-10.9 35.8-7.5 7.7 2.1 10.2 8.4 6.3 15.2 -2.9 5-6.8 9.4-10.4 14 -4.5 5.8-9.5 11.2-13.5 17.3 -5.7 8.9-3.5 14.1 6.7 17 5.1 1.5 10.5 2.1 15.6 3.3 8.5 2 12.3 6.5 11 15 -0.9 5.4-3.4 10.7-6.3 15.4 -2.6 4.2-6.6 7.4-10.1 11 -4.7 4.7-8.1 10.1-9.7 16.6 -0.4 1.7-2.5 2.9-3.7 4.3 -0.7-1.9-2.5-4.3-2-5.7 2.5-5.9 5.3-11.8 8.9-17 2.9-4.2 7.5-7.2 10.5-11.4 3.2-4.5 5.8-9.7 7.5-14.9 1.5-4.7-0.6-7.2-5.5-8.2 -2.4-0.5-4.9-0.6-7.4-1 -3.9-0.6-8-0.9-11.8-2 -12.2-3.5-16.3-12.3-10.3-23.5 3.8-7.1 9.2-13.4 13.9-20.1 3.1-4.3 6.4-8.5 9.5-12.9 1.4-2 1.6-3.9-1.2-5.3C517.1 415 500.1 419.1 493.7 426.8z"/><path d="M347 1613c3.4 1.5 9.3 4 14.9 6.9 1.1 0.6 1.4 3 2 4.5 -1.6 0.5-3.2 1.1-4.8 1.5 -0.7 0.2-1.6-0.3-2.4-0.5 -9.8-2.3-18.4-0.1-26.1 6.2 -1.4 1.1-3.8 1.1-5.7 1.6 0-2.1-0.8-4.6 0-6.3C328.6 1618.8 334.6 1613.5 347 1613z"/><path d="M69.1 1968.5c0 5.9-3.7 9.5-9.8 9.4 -6.2-0.1-10.5-4-10.4-9.7 0-6 4.5-10.8 10.1-10.9C65 1957.2 69.1 1961.7 69.1 1968.5zM63.6 1968.1c-2.1-1.8-3.5-3.7-4.5-3.5 -1.3 0.3-2.2 2.2-3.3 3.4 1.2 1 2.2 2.6 3.6 2.9C60.2 1971 61.5 1969.5 63.6 1968.1z"/><path d="M478.9 1622.4c0.1 5.6-3.6 9.2-9.4 9.2 -5.9 0-10.3-3.7-10.4-9.1 -0.1-5.9 4.3-10.7 10-10.8C474.9 1611.7 478.8 1615.9 478.9 1622.4zM473.9 1622c-2.3-1.8-3.9-3.9-4.9-3.7 -1.4 0.4-2.4 2.5-3.6 3.9 1.4 1 2.7 2.5 4.3 2.9C470.5 1625.3 471.9 1623.6 473.9 1622z"/><path d="M248.9 806.5c0 5.6-3.6 9.1-9.5 9.1 -5.9 0-10.2-3.8-10.4-9.1 -0.1-5.9 4.4-10.7 10-10.8C245 795.7 248.9 799.9 248.9 806.5zM239.3 810.7c1.5-2 3.2-3.4 3-4.2 -0.4-1.6-1.9-3-2.9-4.4 -1.3 1.4-3.1 2.6-3.7 4.3C235.4 807 237.5 808.7 239.3 810.7z"/><path d="M1012.9 1412.8c-0.1 5.5-3.9 9-9.8 8.9 -6-0.1-10.1-4-10.1-9.4 0-5.9 4.6-10.6 10.3-10.5C1009.2 1401.8 1013 1406.2 1012.9 1412.8zM997.7 1412c2.5 1.6 3.9 3.1 5.2 3.1 1.2 0 3.5-2 3.3-2.7 -0.4-1.6-1.8-3.9-3-4C1001.9 1408.1 1000.3 1410.1 997.7 1412z"/><path d="M696.9 1408.6c0 5.6-3.7 9.1-9.6 9 -6 0-10.2-3.9-10.3-9.2 -0.1-5.9 4.5-10.7 10.1-10.7C693.1 1397.8 696.9 1402 696.9 1408.6zM691.9 1408.3c-2.1-1.9-3.6-4.2-4.7-4 -1.4 0.2-2.5 2.3-3.8 3.6 1.4 1.1 2.6 2.7 4.1 3.1C688.4 1411.3 689.8 1409.7 691.9 1408.3z"/><path d="M1114.9 1064.7c0 5.6-3.8 9-9.7 9 -6-0.1-10.2-3.9-10.2-9.3 0-5.9 4.5-10.6 10.2-10.6C1111.1 1053.8 1114.9 1058.1 1114.9 1064.7zM1106.1 1059.5c-0.6 0-1.2 0-1.9 0 -0.9 1.5-2.7 3.2-2.5 4.5 0.2 1.2 2.4 2.5 4 3 0.6 0.2 2.6-1.9 2.6-2.9C1108.1 1062.6 1106.8 1061.1 1106.1 1059.5z"/><path d="M868.9 292.3c0.1 5.7-3.4 9.2-9.3 9.3 -5.9 0.1-10.3-3.6-10.5-8.9 -0.2-5.9 4.2-10.8 9.9-10.9C864.9 281.6 868.8 285.8 868.9 292.3zM859.4 296.9c1.5-2.3 3.1-3.7 2.8-4.6 -0.4-1.6-2-2.8-3-4.3 -1.3 1.3-3.3 2.5-3.5 3.9C855.5 293.1 857.6 294.6 859.4 296.9z"/><path d="M102.9 618.4c0.1 5.6-3.6 9.2-9.4 9.2 -5.9 0-10.3-3.7-10.4-9.1 -0.1-5.9 4.3-10.7 10-10.8C99 607.7 102.8 611.9 102.9 618.4zM97.8 618.7c-2-2.1-3.2-4.4-4.4-4.4 -1.4 0.1-2.7 2.2-4 3.4 1.3 1.2 2.4 2.8 3.9 3.4C94.1 621.4 95.7 619.9 97.8 618.7z"/><path d="M466.9 356.5c0 5.6-3.6 9.1-9.5 9.1 -5.9 0-10.2-3.8-10.4-9.1 -0.1-5.9 4.4-10.7 10-10.8C463 345.7 466.8 349.9 466.9 356.5zM461.9 356c-2.3-1.8-3.9-3.9-4.9-3.7 -1.4 0.4-2.4 2.5-3.6 3.9 1.4 1 2.7 2.5 4.3 2.9C458.5 359.3 459.9 357.6 461.9 356z"/><path d="M406.9 2142.4c0.1 5.6-3.5 9.2-9.3 9.3 -5.9 0.1-10.3-3.7-10.5-9 -0.2-5.9 4.3-10.8 9.9-10.9C402.9 2131.6 406.8 2135.8 406.9 2142.4zM401.9 2142.4c-2.1-2-3.5-4.2-4.6-4.1 -1.4 0.2-2.6 2.3-3.8 3.6 1.3 1.1 2.5 2.7 4.1 3.2C398.3 2145.3 399.8 2143.7 401.9 2142.4z"/><path d="M920.9 2044.6c0 5.6-3.7 9.1-9.5 9.1 -5.9 0-10.2-3.8-10.3-9.2 -0.1-5.9 4.4-10.7 10.1-10.7C917.1 2033.7 920.9 2038 920.9 2044.6zM910.8 2048.7c1.7-1.9 3.6-3.2 3.4-3.9 -0.5-1.7-2-3.1-3.1-4.7 -1.2 1.3-3.1 2.5-3.5 4C907.4 2045 909.3 2046.5 910.8 2048.7z"/><path d="M1074.9 2142.6c0 5.6-3.7 9.1-9.5 9.1 -5.9 0-10.2-3.8-10.3-9.2 -0.1-5.9 4.4-10.7 10.1-10.7C1071.1 2131.7 1074.9 2136 1074.9 2142.6zM1065.2 2146.7c1.5-2 3.3-3.3 3.1-4.2 -0.4-1.6-1.8-3-2.8-4.5 -1.3 1.4-3.1 2.6-3.8 4.3C1061.3 2143 1063.5 2144.6 1065.2 2146.7z"/><path d="M456.9 1388.5c0 5.6-3.6 9.1-9.5 9.1 -5.9 0-10.2-3.8-10.3-9.1 -0.1-5.9 4.4-10.7 10.1-10.7C453 1377.7 456.9 1381.9 456.9 1388.5zM451.8 1388.8c-1.9-2.1-3.2-4.5-4.3-4.5 -1.3 0-2.7 2.2-4 3.4 1.3 1.2 2.3 2.9 3.8 3.4C448.1 1391.4 449.6 1389.9 451.8 1388.8z"/><path d="M74.9 1372.8c-0.1 5.5-3.9 9-9.8 8.9 -6-0.1-10.1-4-10.1-9.4 0-5.9 4.6-10.6 10.3-10.5C71.2 1361.8 75 1366.2 74.9 1372.8zM69.9 1372.5c-2.1-2-3.4-4.3-4.5-4.2 -1.4 0.2-2.6 2.3-3.9 3.5 1.3 1.1 2.5 2.7 4 3.2C66.3 1375.3 67.7 1373.8 69.9 1372.5z"/><path d="M1088.9 320.6c0 5.6-3.7 9.1-9.6 9 -5.9 0-10.2-3.9-10.3-9.2 -0.1-5.9 4.5-10.7 10.1-10.7C1085.1 309.8 1088.9 314 1088.9 320.6zM1078.8 324.7c1.7-1.9 3.6-3.2 3.4-3.9 -0.5-1.7-2-3.1-3.1-4.7 -1.2 1.3-3.1 2.5-3.5 4C1075.4 321 1077.3 322.5 1078.8 324.7z"/><path d="M727.2 1999.6c-6-0.1-10.1-4-10.1-9.3 0-5.9 4.6-10.6 10.3-10.5 5.9 0.1 9.7 4.4 9.6 11C736.8 1996.3 733.1 1999.7 727.2 1999.6zM727.4 1994.9c1.5-2.3 3.1-3.7 2.8-4.6 -0.4-1.6-2-2.8-3-4.3 -1.3 1.3-3.3 2.5-3.5 3.9C723.5 1991.1 725.6 1992.6 727.4 1994.9z"/><path d="M96.9 272.7c0 5.6-3.8 9-9.6 9 -6-0.1-10.2-3.9-10.2-9.3 0-5.9 4.5-10.6 10.2-10.6C93.1 261.8 96.9 266.1 96.9 272.7zM87.1 276.7c1.6-2 3.4-3.4 3.2-4.1 -0.6-1.7-2.1-3-3.3-4.5 -1.2 1.4-3 2.6-3.3 4.2C83.4 273.2 85.4 274.6 87.1 276.7z"/><path d="M1098.9 674.3c0.1 5.7-3.5 9.2-9.3 9.3 -5.9 0.1-10.3-3.7-10.5-9 -0.2-5.9 4.3-10.8 9.9-10.9C1094.9 663.6 1098.8 667.8 1098.9 674.3zM1093.9 674.5c-2.1-2-3.5-4.3-4.6-4.2 -1.4 0.2-2.6 2.3-3.9 3.6 1.3 1.1 2.5 2.7 4 3.2C1090.3 677.3 1091.7 675.8 1093.9 674.5z"/><path d="M64.9 344.5c0 5.6-3.6 9.1-9.5 9.1 -5.9 0-10.2-3.8-10.3-9.1 -0.1-5.9 4.4-10.7 10.1-10.7C61 333.7 64.9 338 64.9 344.5zM59.9 344.1c-2.2-1.8-3.8-4-4.8-3.8 -1.4 0.3-2.5 2.4-3.7 3.8 1.4 1.1 2.7 2.6 4.3 3C56.5 347.3 57.8 345.6 59.9 344.1z"/><path d="M996.9 1904.5c0 5.6-3.7 9.1-9.5 9.1 -5.9 0-10.2-3.8-10.3-9.2 -0.1-5.9 4.4-10.7 10.1-10.7C993 1893.7 996.9 1898 996.9 1904.5zM991.9 1904.4c-2.1-2-3.5-4.2-4.6-4.1 -1.4 0.2-2.6 2.3-3.8 3.6 1.3 1.1 2.5 2.7 4.1 3.2C988.3 1907.3 989.7 1905.8 991.9 1904.4z"/><path d="M722.9 246.7c0 5.6-3.8 9-9.7 8.9 -6-0.1-10.1-3.9-10.2-9.3 0-5.9 4.5-10.6 10.2-10.6C719.1 235.8 722.9 240.1 722.9 246.7zM713.2 250.7c1.5-2 3.3-3.3 3.1-4.2 -0.4-1.6-1.8-3-2.8-4.5 -1.3 1.4-3.1 2.6-3.8 4.3C709.3 247 711.5 248.6 713.2 250.7z"/><path d="M58.9 748.7c0 5.6-3.8 9-9.7 8.9 -6-0.1-10.1-3.9-10.1-9.3 0-5.9 4.5-10.6 10.2-10.6C55.2 737.8 59 742.1 58.9 748.7zM53.8 748.7c-2-2.1-3.3-4.4-4.4-4.4 -1.4 0.1-2.7 2.2-4 3.4 1.3 1.2 2.4 2.8 3.9 3.3C50.2 751.4 51.7 749.9 53.8 748.7z"/><path d="M416.9 1872.8c-0.1 5.5-3.9 9-9.8 8.9 -6-0.1-10.1-4-10.1-9.4 0-5.9 4.6-10.6 10.3-10.5C413.2 1861.8 417 1866.2 416.9 1872.8zM411.9 1872.3c-2.1-1.9-3.6-4.2-4.7-4 -1.4 0.2-2.5 2.4-3.8 3.7 1.4 1.1 2.6 2.7 4.1 3.1C408.4 1875.3 409.8 1873.7 411.9 1872.3z"/><path d="M833.3 483.6c-5.9 0-10.2-3.8-10.3-9.2 -0.1-5.9 4.4-10.7 10.1-10.7 5.9 0 9.7 4.3 9.7 10.8C842.9 480.1 839.2 483.6 833.3 483.6zM834.1 469.5c-0.6 0-1.2 0-1.8-0.1 -1 1.5-2.8 3.1-2.6 4.5 0.1 1.2 2.3 2.6 3.9 3.1 0.6 0.2 2.7-1.9 2.7-2.8C836.2 472.6 834.9 471.1 834.1 469.5z"/><path d="M858.9 566.5c0.1 5.6-3.6 9.1-9.5 9.2 -5.9 0-10.2-3.8-10.4-9.1 -0.1-5.9 4.4-10.7 10-10.8C855 555.7 858.8 559.9 858.9 566.5zM853.9 566.1c-2.2-1.9-3.8-4-4.8-3.8 -1.4 0.3-2.5 2.4-3.7 3.8 1.4 1.1 2.7 2.6 4.2 3C850.5 569.3 851.8 567.6 853.9 566.1z"/><path d="M225.6 211.6c-5.9 0.1-10.3-3.6-10.5-9 -0.2-5.9 4.2-10.8 9.9-10.9 5.9-0.1 9.8 4 10 10.6C235 208 231.4 211.5 225.6 211.6zM229.9 202.4c-2.1-2-3.5-4.2-4.6-4.1 -1.4 0.2-2.6 2.3-3.8 3.6 1.3 1.1 2.5 2.7 4 3.2C226.3 205.3 227.7 203.8 229.9 202.4z"/><path d="M246.9 1288.5c0 5.6-3.6 9.1-9.5 9.1 -5.9 0-10.2-3.8-10.3-9.1 -0.1-5.9 4.4-10.7 10.1-10.7C243 1277.7 246.9 1282 246.9 1288.5zM237.3 1292.7c1.5-2 3.2-3.4 3-4.2 -0.4-1.6-1.9-3-2.9-4.4 -1.3 1.4-3.1 2.6-3.7 4.3C233.4 1289 235.5 1290.7 237.3 1292.7z"/><path d="M246.9 2264.3c0.1 5.6-3.5 9.2-9.3 9.3 -5.9 0.1-10.3-3.7-10.5-9 -0.2-5.9 4.3-10.8 9.9-10.9C242.9 2253.6 246.8 2257.8 246.9 2264.3zM237.2 2268.7c1.5-2 3.3-3.3 3.1-4.2 -0.4-1.6-1.8-3-2.8-4.5 -1.3 1.4-3.1 2.6-3.8 4.3C233.3 2265 235.5 2266.6 237.2 2268.7z"/><path d="M172.9 1716.7c-0.1 5.6-3.9 9-9.7 8.9 -6-0.1-10.1-4-10.1-9.4 0-5.9 4.6-10.6 10.3-10.5C169.2 1705.8 173 1710.2 172.9 1716.7zM167.8 1716.7c-2-2.1-3.2-4.5-4.4-4.4 -1.4 0-2.7 2.2-4 3.4 1.3 1.2 2.3 2.8 3.8 3.4C164.1 1719.4 165.7 1717.9 167.8 1716.7z"/><path d="M876.9 1270.7c-0.1 5.6-3.9 9-9.7 8.9 -6-0.1-10.1-4-10.1-9.4 0-5.9 4.6-10.6 10.3-10.5C873.2 1259.8 877 1264.2 876.9 1270.7zM861.7 1270c2.5 1.6 3.9 3.1 5.2 3.1 1.2 0 3.5-2 3.3-2.7 -0.4-1.6-1.8-3.9-3-4C865.9 1266.1 864.3 1268.1 861.7 1270z"/><path d="M410.9 656.6c0 5.6-3.7 9.1-9.5 9.1 -5.9 0-10.2-3.8-10.3-9.2 -0.1-5.9 4.4-10.7 10.1-10.7C407.1 645.7 410.9 650 410.9 656.6zM402.1 651.5c-0.6 0-1.2 0-1.8-0.1 -1 1.5-2.8 3.1-2.6 4.5 0.1 1.2 2.3 2.6 3.9 3.1 0.6 0.2 2.7-1.9 2.7-2.8C404.2 654.6 402.9 653.1 402.1 651.5z"/><path d="M776.7 181.6c-6-0.4-9.9-4.4-9.6-9.8 0.3-6 5-10.3 10.7-10 5.7 0.3 9.4 5 9.1 11.4C786.6 178.6 782.6 181.9 776.7 181.6zM781.9 172.1c-2.2-1.9-3.8-4-4.8-3.8 -1.4 0.3-2.5 2.4-3.7 3.8 1.4 1.1 2.7 2.6 4.2 3C778.5 175.3 779.8 173.6 781.9 172.1z"/><path d="M1091.3 1265.6c-5.9 0-10.2-3.8-10.3-9.2 -0.1-5.9 4.4-10.7 10.1-10.7 5.9 0 9.7 4.3 9.7 10.8C1100.9 1262.1 1097.2 1265.6 1091.3 1265.6zM1095.8 1256.8c-1.9-2.1-3.2-4.5-4.3-4.5 -1.4 0-2.7 2.2-4 3.4 1.3 1.2 2.3 2.9 3.8 3.4C1092.1 1259.4 1093.6 1257.9 1095.8 1256.8z"/><path d="M361.2 2283.6c-6-0.1-10.2-3.9-10.2-9.3 0-5.9 4.5-10.6 10.2-10.6 5.9 0.1 9.7 4.4 9.6 10.9C370.8 2280.2 367.1 2283.7 361.2 2283.6zM355.7 2274c2.5 1.6 3.9 3.1 5.2 3.1 1.2 0 3.5-2 3.3-2.7 -0.4-1.6-1.8-3.9-3-4C359.9 2270.1 358.3 2272.1 355.7 2274z"/><path d="M410.9 776.6c0 5.6-3.7 9.1-9.6 9.1 -5.9 0-10.2-3.8-10.3-9.2 -0.1-5.9 4.5-10.7 10.1-10.7C407.1 765.7 410.9 770 410.9 776.6zM400.9 780.7c1.7-1.9 3.6-3.3 3.4-4 -0.6-1.7-2.1-3.1-3.2-4.6 -1.2 1.3-3 2.5-3.4 4.1C397.4 777 399.3 778.6 400.9 780.7z"/><path d="M320.9 1498.8c-0.1 5.5-3.9 9-9.8 8.8 -6-0.2-10.1-4-10-9.4 0.1-5.9 4.7-10.6 10.3-10.4C317.2 1487.9 321 1492.3 320.9 1498.8zM315.9 1498.5c-2.1-2-3.4-4.3-4.5-4.2 -1.4 0.2-2.6 2.3-3.9 3.5 1.3 1.1 2.5 2.7 4 3.2C312.3 1501.3 313.7 1499.8 315.9 1498.5z"/><path d="M746.9 668.7c-0.1 5.6-3.8 9-9.7 8.9 -6-0.1-10.1-4-10.1-9.4 0-5.9 4.6-10.6 10.3-10.5C743.2 657.8 747 662.2 746.9 668.7zM738.3 663.6c-0.6 0-1.2-0.1-1.8-0.1 -1 1.5-2.7 2.9-2.8 4.4 -0.1 1.1 2 3 3.2 3.1 1 0.2 3.3-1.6 3.3-2.7C740.3 666.8 739 665.2 738.3 663.6z"/><path d="M863.6 1517.6c-5.9 0.1-10.3-3.6-10.5-8.9 -0.2-5.9 4.2-10.8 9.8-10.9 5.9-0.1 9.8 4 10 10.6C873 1514 869.4 1517.5 863.6 1517.6zM867.8 1508.7c-2-2.1-3.2-4.4-4.4-4.4 -1.4 0.1-2.7 2.2-4 3.4 1.3 1.2 2.4 2.8 3.9 3.4C864.1 1511.4 865.7 1509.9 867.8 1508.7z"/><path d="M300.9 666.7c-0.1 5.6-3.9 9-9.7 8.9 -6-0.1-10.1-4-10.1-9.4 0-5.9 4.6-10.6 10.3-10.5C297.2 655.8 301 660.2 300.9 666.7zM295.8 666.7c-2-2.1-3.2-4.5-4.4-4.4 -1.4 0-2.7 2.2-4 3.4 1.3 1.2 2.3 2.8 3.8 3.4C292.1 669.4 293.7 667.9 295.8 666.7z"/><path d="M362.9 162.7c0 5.6-3.8 9-9.7 8.9 -6-0.1-10.1-3.9-10.1-9.3 0-5.9 4.5-10.6 10.2-10.6C359.2 151.8 363 156.1 362.9 162.7zM357.8 162.7c-2-2.1-3.2-4.5-4.4-4.4 -1.4 0-2.7 2.2-4 3.4 1.3 1.2 2.3 2.8 3.8 3.4C354.1 165.4 355.7 163.9 357.8 162.7z"/><path d="M244.9 427.3c-0.3 5.4-4.4 8.7-10.3 8.3 -6-0.4-9.9-4.4-9.5-9.9 0.4-6 5-10.3 10.8-9.9C241.6 416.1 245.3 420.8 244.9 427.3zM239.9 426.3c-2.1-1.9-3.6-4.2-4.7-4 -1.4 0.2-2.5 2.4-3.8 3.7 1.4 1.1 2.6 2.7 4.1 3.1C236.4 429.3 237.8 427.7 239.9 426.3z"/><path d="M470.9 1518.7c-0.1 5.6-3.9 9-9.7 8.9 -6-0.1-10.1-4-10.1-9.4 0-5.9 4.6-10.6 10.3-10.5C467.2 1507.8 471 1512.2 470.9 1518.7zM465.9 1518.4c-2.1-2-3.6-4.2-4.6-4.1 -1.4 0.2-2.6 2.3-3.8 3.6 1.3 1.1 2.5 2.7 4.1 3.2C462.3 1521.3 463.8 1519.7 465.9 1518.4z"/><path d="M416.9 550.4c0.1 5.6-3.6 9.2-9.4 9.2 -5.9 0-10.3-3.7-10.4-9.1 -0.1-5.9 4.3-10.7 10-10.8C413 539.7 416.8 543.9 416.9 550.4zM408.1 545.5c-0.6 0-1.2 0-1.9 0 -0.9 1.5-2.7 3.2-2.5 4.5 0.2 1.2 2.4 2.5 4 3 0.6 0.2 2.6-1.9 2.6-2.9C410.1 548.6 408.8 547.1 408.1 545.5z"/><path d="M738.9 1748.4c0.1 5.6-3.5 9.2-9.4 9.2 -5.9 0.1-10.3-3.7-10.4-9 -0.2-5.9 4.3-10.8 9.9-10.8C734.9 1737.7 738.8 1741.8 738.9 1748.4zM733.9 1748.4c-2.1-2-3.5-4.2-4.6-4.1 -1.4 0.2-2.6 2.3-3.8 3.6 1.3 1.1 2.5 2.7 4 3.2C730.3 1751.3 731.7 1749.8 733.9 1748.4z"/><path d="M896.9 660.7c-0.1 5.6-3.9 9-9.7 8.9 -6-0.1-10.1-4-10.1-9.4 0-5.9 4.6-10.6 10.3-10.5C893.2 649.8 897 654.2 896.9 660.7zM891.9 660.3c-2.1-1.9-3.6-4.2-4.7-4 -1.4 0.2-2.5 2.4-3.8 3.7 1.4 1.1 2.6 2.7 4.1 3.1C888.4 663.3 889.8 661.7 891.9 660.3z"/><path d="M398.9 1146.3c0.1 5.7-3.5 9.2-9.3 9.3 -5.9 0.1-10.3-3.6-10.5-9 -0.2-5.9 4.2-10.8 9.9-10.9C394.9 1135.6 398.8 1139.8 398.9 1146.3zM393.9 1146.4c-2.1-2-3.6-4.2-4.6-4.1 -1.4 0.2-2.6 2.3-3.8 3.6 1.3 1.1 2.5 2.7 4.1 3.2C390.3 1149.3 391.8 1147.7 393.9 1146.4z"/><path d="M1017.2 1783.6c-6-0.1-10.2-3.9-10.2-9.3 0-5.9 4.5-10.6 10.2-10.6 5.9 0.1 9.7 4.4 9.6 10.9C1026.9 1780.2 1023.1 1783.7 1017.2 1783.6zM1016.8 1778.7c1.7-1.9 3.6-3.2 3.4-3.9 -0.5-1.7-2-3.1-3.1-4.7 -1.2 1.3-3.1 2.5-3.5 4C1013.4 1775 1015.3 1776.5 1016.8 1778.7z"/><path d="M1092.9 832.5c0.1 5.6-3.6 9.1-9.4 9.2 -5.9 0-10.2-3.8-10.4-9.1 -0.1-5.9 4.4-10.7 10-10.8C1089 821.7 1092.8 825.9 1092.9 832.5zM1082.9 836.7c1.7-1.9 3.6-3.3 3.4-4 -0.6-1.7-2.1-3.1-3.2-4.6 -1.2 1.3-3 2.5-3.4 4.1C1079.4 833 1081.3 834.6 1082.9 836.7z"/><path d="M701.6 1537.6c-5.9 0.1-10.3-3.6-10.5-9 -0.2-5.9 4.2-10.8 9.9-10.9 5.9-0.1 9.8 4 10 10.6C711 1534 707.4 1537.5 701.6 1537.6zM705.9 1528.4c-2.1-2-3.5-4.2-4.6-4.1 -1.4 0.2-2.6 2.3-3.8 3.6 1.3 1.1 2.5 2.7 4.1 3.2C702.3 1531.3 703.7 1529.8 705.9 1528.4z"/><path d="M40.9 526.8c-0.1 5.5-3.9 9-9.8 8.8 -6-0.2-10.1-4-10-9.4 0.1-5.9 4.7-10.6 10.3-10.4C37.2 515.9 41 520.3 40.9 526.8zM35.8 526.7c-2-2.1-3.2-4.5-4.4-4.4 -1.4 0-2.7 2.2-4 3.4 1.3 1.2 2.3 2.8 3.8 3.4C32.1 529.4 33.7 527.9 35.8 526.7z"/><path d="M791.2 2295.6c-6-0.1-10.2-3.9-10.2-9.3 0-5.9 4.5-10.6 10.2-10.6 5.9 0.1 9.7 4.4 9.6 10.9C800.9 2292.2 797.1 2295.7 791.2 2295.6zM795.9 2286.4c-2.1-2-3.5-4.2-4.6-4.1 -1.4 0.2-2.6 2.3-3.8 3.6 1.3 1.1 2.5 2.7 4 3.2C792.3 2289.3 793.7 2287.8 795.9 2286.4z"/><path d="M756.9 72.5c0 5.6-3.7 9.1-9.5 9.1 -5.9 0-10.2-3.8-10.3-9.2 -0.1-5.9 4.4-10.7 10.1-10.7C753 61.7 756.9 66 756.9 72.5zM751.9 72.4c-2.1-2-3.6-4.2-4.6-4.1 -1.4 0.2-2.6 2.3-3.8 3.6 1.3 1.1 2.5 2.7 4.1 3.2C748.3 75.3 749.8 73.7 751.9 72.4z"/><path d="M968.9 342.4c0.1 5.6-3.6 9.2-9.4 9.2 -5.9 0-10.3-3.7-10.4-9.1 -0.1-5.9 4.3-10.7 10-10.8C965 331.7 968.8 335.9 968.9 342.4zM953.7 342c2.5 1.6 3.9 3.1 5.2 3.1 1.2 0 3.5-2 3.3-2.7 -0.4-1.6-1.8-3.9-3-4C957.9 338.1 956.3 340.1 953.7 342z"/><path d="M74.9 860.5c0 5.6-3.6 9.1-9.5 9.1 -5.9 0-10.2-3.8-10.3-9.1 -0.1-5.9 4.4-10.7 10-10.7C71 849.7 74.9 853.9 74.9 860.5zM69.8 860.8c-1.9-2.1-3.2-4.5-4.3-4.5 -1.4 0-2.7 2.2-4 3.4 1.3 1.2 2.3 2.9 3.8 3.4C66.1 863.4 67.6 861.9 69.8 860.8z"/><path d="M1010.9 2308.5c0 5.6-3.6 9.1-9.5 9.1 -5.9 0-10.2-3.8-10.3-9.1 -0.1-5.9 4.4-10.7 10.1-10.7C1007 2297.7 1010.9 2301.9 1010.9 2308.5zM1001.4 2312.9c1.5-2.3 3.1-3.7 2.8-4.6 -0.4-1.6-2-2.8-3-4.3 -1.3 1.3-3.3 2.5-3.5 3.9C997.5 2309.1 999.6 2310.6 1001.4 2312.9z"/><path d="M72.9 2330.5c0 5.6-3.7 9.1-9.5 9.1 -5.9 0-10.2-3.8-10.3-9.2 -0.1-5.9 4.4-10.7 10.1-10.7C69 2319.7 72.9 2324 72.9 2330.5zM64.1 2325.5c-0.6 0-1.2 0-1.8 0 -0.9 1.5-2.8 3.1-2.6 4.5 0.2 1.2 2.4 2.6 3.9 3.1 0.6 0.2 2.7-1.9 2.6-2.9C66.2 2328.6 64.9 2327.1 64.1 2325.5z"/><path d="M682.9 866.4c0.1 5.6-3.5 9.2-9.4 9.2 -5.9 0.1-10.3-3.7-10.4-9 -0.2-5.9 4.3-10.8 9.9-10.8C678.9 855.7 682.8 859.8 682.9 866.4zM674 861.5c-0.6 0-1.2 0-1.9 0 -0.9 1.5-2.7 3.2-2.5 4.5 0.2 1.2 2.4 2.5 4 3 0.5 0.2 2.6-2 2.5-3C676.1 864.5 674.8 863 674 861.5z"/><path d="M64.9 1108.8c-0.1 5.5-3.9 9-9.8 8.9 -6-0.1-10.1-4-10.1-9.4 0-5.9 4.6-10.6 10.3-10.5C61.2 1097.8 65 1102.2 64.9 1108.8zM54.9 1112.7c1.7-1.9 3.6-3.3 3.4-4 -0.6-1.7-2.1-3.1-3.2-4.6 -1.2 1.3-3 2.5-3.4 4.1C51.4 1109 53.3 1110.6 54.9 1112.7z"/><path d="M449.6 887.6c-5.9 0.1-10.3-3.6-10.5-9 -0.2-5.9 4.2-10.8 9.9-10.9 5.9-0.1 9.8 4 10 10.6C459 884 455.4 887.5 449.6 887.6zM450.3 873.6c-0.6-0.1-1.2-0.1-1.8-0.2 -1 1.4-2.7 2.8-2.9 4.4 -0.1 1.1 1.9 3 3.2 3.2 1.1 0.2 3.3-1.6 3.4-2.6C452.4 876.9 451 875.2 450.3 873.6z"/><path d="M552.9 64.4c0.1 5.6-3.6 9.2-9.4 9.2 -5.9 0-10.3-3.7-10.4-9.1 -0.1-5.9 4.3-10.7 10-10.8C549 53.7 552.8 57.9 552.9 64.4zM547.9 64.4c-2.1-2-3.5-4.2-4.6-4.1 -1.4 0.2-2.6 2.3-3.8 3.6 1.3 1.1 2.5 2.7 4.1 3.2C544.3 67.3 545.7 65.8 547.9 64.4z"/><path d="M186.9 2348.5c0 5.6-3.7 9.1-9.5 9.1 -5.9 0-10.2-3.8-10.3-9.2 -0.1-5.9 4.4-10.7 10.1-10.7C183 2337.7 186.9 2342 186.9 2348.5zM178.1 2343.5c-0.6 0-1.2 0-1.8 0 -0.9 1.5-2.8 3.1-2.6 4.5 0.2 1.2 2.4 2.6 3.9 3.1 0.6 0.2 2.7-1.9 2.6-2.9C180.2 2346.6 178.9 2345.1 178.1 2343.5z"/><path d="M381.2 69.6c-6-0.1-10.1-4-10.1-9.4 0-5.9 4.6-10.6 10.3-10.5 5.9 0.1 9.7 4.4 9.6 11C390.8 66.3 387 69.7 381.2 69.6zM382.3 55.6c-0.6 0-1.2-0.1-1.8-0.1 -1 1.5-2.7 2.9-2.8 4.4 -0.1 1.1 1.9 3 3.2 3.2 1 0.2 3.3-1.6 3.4-2.6C384.3 58.8 383 57.2 382.3 55.6z"/><path d="M52.9 58.7c-0.1 5.6-3.9 9-9.7 8.9 -6-0.1-10.1-4-10.1-9.4 0-5.9 4.6-10.6 10.3-10.5C49.2 47.8 53 52.2 52.9 58.7zM47.9 58c-2.2-1.8-3.8-4-4.9-3.7 -1.4 0.4-2.4 2.5-3.6 3.8 1.4 1 2.7 2.5 4.3 2.9C44.5 61.3 45.8 59.6 47.9 58z"/><path d="M838.9 948.8c-0.1 5.5-3.9 9-9.8 8.8 -6-0.2-10.1-4-10-9.4 0.1-5.9 4.7-10.6 10.3-10.4C835.2 937.9 839 942.3 838.9 948.8zM830.3 943.6c-0.6-0.1-1.2-0.1-1.8-0.2 -1 1.4-2.7 2.8-2.9 4.3 -0.1 1.1 1.9 3 3.2 3.2 1.1 0.2 3.3-1.6 3.4-2.6C832.4 946.9 831 945.2 830.3 943.6z"/><path d="M336.9 954.7c0 5.6-3.8 9-9.6 9 -6-0.1-10.2-3.9-10.2-9.3 0-5.9 4.5-10.6 10.2-10.6C333.1 943.8 336.9 948.1 336.9 954.7zM331.8 954.8c-1.9-2.1-3.2-4.5-4.3-4.5 -1.4 0-2.7 2.2-4 3.4 1.3 1.2 2.3 2.9 3.8 3.4C328.1 957.4 329.6 955.9 331.8 954.8z"/><path d="M716.9 2362.4c0.1 5.6-3.6 9.2-9.4 9.2 -5.9 0-10.3-3.7-10.4-9.1 -0.1-5.9 4.3-10.7 10-10.8C713 2351.7 716.8 2355.9 716.9 2362.4zM711.9 2362.4c-2.1-2-3.5-4.2-4.6-4.1 -1.4 0.2-2.6 2.3-3.8 3.6 1.3 1.1 2.5 2.7 4 3.2C708.3 2365.3 709.7 2363.8 711.9 2362.4z"/><path d="M1116.9 1570.6c0 5.6-3.8 9.1-9.6 9 -6-0.1-10.2-3.9-10.2-9.3 0-5.9 4.5-10.6 10.2-10.6C1113.1 1559.8 1116.9 1564.1 1116.9 1570.6zM1111.9 1570.3c-2.1-1.9-3.6-4.2-4.7-4 -1.4 0.2-2.5 2.4-3.8 3.7 1.4 1.1 2.6 2.7 4.1 3.1C1108.4 1573.3 1109.8 1571.7 1111.9 1570.3z"/><path d="M664.9 392.4c0.1 5.6-3.5 9.2-9.4 9.3 -5.9 0.1-10.3-3.7-10.5-9 -0.2-5.9 4.3-10.8 9.9-10.9C660.9 381.6 664.8 385.8 664.9 392.4zM655.1 396.7c1.6-2 3.4-3.4 3.2-4.1 -0.6-1.7-2.1-3-3.3-4.5 -1.2 1.4-3 2.6-3.3 4.2C651.4 393.2 653.4 394.6 655.1 396.7z"/><path d="M467.6 1001.6c-5.9 0.1-10.3-3.6-10.5-9 -0.2-5.9 4.2-10.8 9.9-10.9 5.9-0.1 9.8 4 10 10.6C477 998 473.4 1001.5 467.6 1001.6zM468.3 987.6c-0.6 0-1.2-0.1-1.8-0.1 -1 1.5-2.7 2.9-2.8 4.4 -0.1 1.1 2 3 3.2 3.1 1 0.2 3.3-1.6 3.3-2.7C470.3 990.8 469 989.2 468.3 987.6z"/><path d="M952.9 1070.5c0 5.6-3.7 9.1-9.5 9.1 -5.9 0-10.2-3.8-10.3-9.2 -0.1-5.9 4.4-10.7 10.1-10.7C949 1059.7 952.9 1064 952.9 1070.5zM943.2 1074.7c1.5-2 3.3-3.3 3.1-4.2 -0.4-1.6-1.8-3-2.8-4.5 -1.3 1.4-3.1 2.6-3.8 4.3C939.3 1071 941.5 1072.6 943.2 1074.7z"/><path d="M684.9 1008.6c0 5.6-3.7 9.1-9.6 9 -6-0.1-10.2-3.9-10.2-9.2 0-5.9 4.5-10.6 10.2-10.6C681.1 997.8 684.9 1002.1 684.9 1008.6zM679.9 1008.3c-2.1-1.9-3.6-4.2-4.7-4 -1.4 0.2-2.5 2.4-3.8 3.7 1.4 1.1 2.6 2.7 4.1 3.1C676.4 1011.3 677.8 1009.7 679.9 1008.3z"/><path d="M878.9 50.4c0.1 5.6-3.5 9.2-9.4 9.3 -5.9 0.1-10.3-3.7-10.5-9 -0.2-5.9 4.3-10.8 9.9-10.9C874.9 39.6 878.8 43.8 878.9 50.4zM873.9 50c-2.3-1.8-3.9-3.9-4.9-3.7 -1.4 0.4-2.4 2.5-3.6 3.9 1.4 1 2.7 2.5 4.3 2.9C870.5 53.3 871.9 51.6 873.9 50z"/><path d="M486.9 2364.7c0 5.6-3.8 9-9.7 8.9 -6-0.1-10.1-3.9-10.2-9.3 0-5.9 4.5-10.6 10.2-10.6C483.1 2353.8 487 2358.1 486.9 2364.7zM481.9 2364c-2.3-1.8-3.9-3.9-4.9-3.7 -1.4 0.4-2.4 2.5-3.6 3.9 1.4 1 2.7 2.5 4.3 2.9C478.5 2367.3 479.9 2365.6 481.9 2364z"/><path d="M185.2 1027.6c-6-0.1-10.1-4-10.1-9.3 0-5.9 4.6-10.6 10.3-10.5 5.9 0.1 9.7 4.4 9.6 11C194.8 1024.3 191.1 1027.7 185.2 1027.6zM189.8 1018.7c-2-2.1-3.2-4.4-4.4-4.4 -1.4 0.1-2.7 2.2-4 3.4 1.3 1.2 2.4 2.8 3.9 3.4C186.1 1021.4 187.7 1019.9 189.8 1018.7z"/><path d="M313.5 2383.6c-5.9 0.1-10.3-3.7-10.4-9 -0.2-5.9 4.3-10.8 9.9-10.8 5.9-0.1 9.8 4.1 9.9 10.7C323 2380 319.4 2383.6 313.5 2383.6zM317.8 2374.6c-2-2-3.4-4.3-4.5-4.2 -1.4 0.1-2.6 2.2-3.9 3.5 1.3 1.2 2.4 2.8 4 3.3C314.2 2377.4 315.7 2375.8 317.8 2374.6z"/><path d="M262.9 40.3c0.1 5.7-3.4 9.2-9.3 9.3 -5.9 0.1-10.3-3.6-10.5-8.9 -0.2-5.9 4.2-10.8 9.9-10.9C258.9 29.6 262.8 33.8 262.9 40.3zM254.1 35.5c-0.6 0-1.2 0-1.8 0 -0.9 1.5-2.8 3.1-2.6 4.5 0.2 1.2 2.4 2.6 3.9 3.1 0.6 0.2 2.7-1.9 2.6-2.9C256.2 38.6 254.9 37.1 254.1 35.5z"/><path d="M648.9 36.8c-0.1 5.5-3.9 9-9.8 8.9 -6-0.1-10.1-4-10.1-9.4 0-5.9 4.6-10.6 10.3-10.5C645.2 25.8 649 30.2 648.9 36.8zM643.8 36.6c-2-2-3.4-4.3-4.5-4.2 -1.4 0.1-2.6 2.2-3.9 3.5 1.3 1.2 2.4 2.8 4 3.3C640.2 39.4 641.7 37.8 643.8 36.6z"/><path d="M561.5 835.8c0.1 5.1-4.2 9.7-9.2 9.9 -4.8 0.2-9-3.9-9-8.6 0-5.1 4.4-9.2 9.8-9.1C558 828 561.5 831.2 561.5 835.8z"/><path d="M589 646.9c4.9 0 8.4 3.3 8.5 7.8 0.1 5.3-4.5 10-9.7 10 -4.6-0.1-8.5-4-8.6-8.6C579.2 651 583.6 646.9 589 646.9z"/><path d="M571.5 654.6c0.1 5.1-4.1 9.8-9.1 10 -4.8 0.3-9.1-3.7-9.2-8.5 -0.1-4.9 4-9 9.2-9.2C567.6 646.7 571.4 649.9 571.5 654.6z"/><path d="M619.5 715.4c-0.3 5.2-4.8 9.5-9.8 9.3 -4.8-0.2-8.8-4.5-8.4-9.2 0.4-5.1 5-8.8 10.4-8.5C616.5 707.3 619.8 710.8 619.5 715.4z"/><path d="M561.9 728.7c-4.6 0-8.6-3.9-8.7-8.5 -0.1-5.1 4.3-9.2 9.7-9.2 5.1 0 8.7 3.5 8.6 8.2C571.4 724.3 566.9 728.7 561.9 728.7z"/><path d="M535 664.7c-4.6 0-8.6-3.9-8.7-8.5 -0.1-5.1 4.3-9.2 9.7-9.2 5.1 0 8.7 3.5 8.6 8.2C544.4 660.3 539.9 664.7 535 664.7z"/><path d="M610.9 644.9c4.9 0 8.5 3.1 8.7 7.7 0.2 5.3-4.3 10.1-9.5 10.1 -4.6 0-8.6-3.9-8.7-8.4C601.2 649.2 605.5 644.9 610.9 644.9z"/><path d="M571.5 738.9c0 5.1-4.4 9.7-9.4 9.8 -4.8 0.1-9-4-8.9-8.8 0.1-5.1 4.6-9.1 10-9C568.1 731 571.6 734.3 571.5 738.9z"/><path d="M610.9 577.9c4.9 0 8.5 3.1 8.7 7.6 0.2 5.3-4.3 10.1-9.5 10.1 -4.6 0-8.6-3.8-8.8-8.4C601.1 582.2 605.5 578 610.9 577.9z"/><path d="M562.2 642.7c-4.6 0.1-8.7-3.7-8.9-8.3 -0.2-5 4.1-9.4 9.4-9.5 5.1-0.1 8.8 3.2 8.8 8C571.5 638 567.2 642.5 562.2 642.7z"/><path d="M562.9 689.9c4.9 0 8.5 3.1 8.7 7.6 0.2 5.3-4.3 10.1-9.5 10.1 -4.6 0-8.6-3.8-8.8-8.4C553.1 694.2 557.5 690 562.9 689.9z"/><path d="M610.2 640.7c-4.6 0.1-8.7-3.7-8.9-8.3 -0.2-5 4.1-9.4 9.4-9.5 5.1-0.1 8.9 3.2 8.8 8C619.5 636 615.2 640.5 610.2 640.7z"/><path d="M609.9 704.7c-4.6 0-8.6-4-8.6-8.5 -0.1-5.1 4.3-9.2 9.7-9.2 5.1 0 8.7 3.5 8.5 8.3C619.3 700.3 614.9 704.7 609.9 704.7z"/><path d="M540.2 738.9c4.9 0.1 8.4 3.4 8.4 8 0 5.3-4.7 10-9.8 9.8 -4.6-0.2-8.5-4.2-8.4-8.8C530.4 742.8 534.8 738.8 540.2 738.9z"/><path d="M609.6 683.7c-4.6-0.2-8.5-4.3-8.3-8.8 0.1-5.1 4.6-9.1 10-8.9 5.1 0.2 8.6 3.7 8.2 8.5C619.2 679.6 614.6 683.9 609.6 683.7z"/><path d="M610.9 600.9c4.9 0 8.5 3.1 8.7 7.7 0.2 5.3-4.3 10.1-9.5 10.1 -4.6 0-8.6-3.9-8.7-8.4C601.2 605.2 605.5 600.9 610.9 600.9z"/><path d="M533.2 834.7c-4.6 0.1-8.7-3.7-8.9-8.3 -0.2-5 4.1-9.4 9.4-9.5 5.1-0.1 8.9 3.2 8.8 8C542.5 830 538.2 834.5 533.2 834.7z"/><path d="M561.9 619.7c-4.6-0.1-8.6-4-8.6-8.6 -0.1-5.1 4.3-9.2 9.7-9.2 5.1 0 8.7 3.5 8.5 8.3C571.3 615.3 566.9 619.7 561.9 619.7z"/><path d="M523.9 755.9c4.9 0 8.5 3.2 8.6 7.7 0.2 5.3-4.4 10.1-9.6 10.1 -4.6 0-8.6-3.9-8.7-8.5C514.2 760.1 518.5 755.9 523.9 755.9z"/><path d="M571.5 677c-0.1 5.2-4.5 9.6-9.5 9.7 -4.8 0-8.9-4.1-8.8-8.9 0.2-5.1 4.7-9 10.1-8.9C568.2 669.1 571.6 672.4 571.5 677z"/><path d="M530.5 806.9c0 5.1-4.4 9.7-9.4 9.8 -4.8 0.1-9-4-8.9-8.8 0.1-5.1 4.6-9.1 10-9C527.1 799 530.6 802.3 530.5 806.9z"/><path d="M518.8 776.9c5.1-0.1 8.8 3.3 8.7 8.1 -0.1 5.2-4.4 9.6-9.4 9.7 -4.6 0.1-8.6-3.8-8.8-8.4C509.1 781.2 513.4 777 518.8 776.9z"/><path d="M612.8 762.4c-0.1 4.7-4.1 8.5-8.8 8.5 -5.1-0.1-9.5-4.6-9.5-9.7 0-4.6 4-8.1 9-8C608.7 753.3 612.9 757.5 612.8 762.4z"/><path d="M588.8 836.3c-0.1 4.7-4.1 8.5-8.8 8.4 -5-0.1-9.5-4.7-9.4-9.8 0-4.7 3.9-8.1 9.1-7.9C584.8 827.2 588.9 831.4 588.8 836.3z"/><path d="M617.7 804.9c0.1 4.6-3.8 8.6-8.5 8.7 -5 0.1-9.6-4.3-9.8-9.4 -0.2-4.7 3.6-8.2 8.7-8.2C613.4 796 617.6 800 617.7 804.9z"/><path d="M587.1 755c-5 0.1-9.6-4.3-9.8-9.5 -0.1-4.6 3.8-8.2 8.8-8.2 5.1 0 9.5 4.2 9.5 9C595.7 750.9 591.8 754.9 587.1 755z"/><path d="M609.7 773.9c5.3 0.1 9.4 3.9 9.4 9 0 4.8-3.7 8.5-8.5 8.6 -5.1 0.1-9.5-4.3-9.6-9.5C600.9 777.2 604.5 773.8 609.7 773.9z"/><path d="M598.2 832.3c-5.2 0-9.4-4.3-9.5-9.6 0-4.6 3.4-7.8 8.4-7.9 5.5-0.1 9.8 3.9 9.7 9.1C606.8 828.7 603.1 832.3 598.2 832.3z"/><path d="M510.2 640.1c-4.7 0-8.2-3.6-8.2-8.2 0-4.8 4-8.7 9-8.7 4.7 0 8.1 3.1 8.2 7.6C519.3 635.8 515.2 640.1 510.2 640.1z"/><path d="M510.1 704.1c-4.7-0.1-8.2-3.7-8.1-8.3 0-4.8 4.1-8.6 9.1-8.6 4.7 0 8.1 3.2 8.1 7.6C519.2 699.9 515.1 704.1 510.1 704.1z"/><path d="M519.2 609c-0.1 5.1-4.3 9.3-9.2 9.1 -4.6-0.2-8.1-3.8-8-8.5 0.1-4.8 4.3-8.6 9.3-8.4C516 601.3 519.2 604.5 519.2 609z"/><path d="M502 674.6c0.1-4.8 4.3-8.6 9.3-8.5 4.7 0.1 8 3.3 7.9 7.8 0 5.1-4.3 9.3-9.2 9.1C505.3 682.9 501.8 679.2 502 674.6z"/><path d="M519.2 653.1c-0.1 5.1-4.4 9.2-9.3 9 -4.6-0.2-8-3.9-7.9-8.6 0.2-4.8 4.4-8.5 9.4-8.3C516.1 645.3 519.3 648.6 519.2 653.1z"/><path d="M519.2 585.7c0.1 5.1-4 9.4-9 9.3 -4.7 0-8.2-3.6-8.2-8.2 0-4.8 4.1-8.7 9.1-8.7C515.7 578.1 519.1 581.3 519.2 585.7z"/><path d="M510.1 724.1c-4.7-0.1-8.2-3.7-8.1-8.3 0-4.8 4.1-8.6 9.1-8.6 4.7 0 8.1 3.2 8.1 7.6C519.2 719.9 515.1 724.1 510.1 724.1z"/><path d="M68.6 2190.3c-13.5 0-23.1-8.2-23.8-18.6 -0.7-12 8.5-22.5 21-23.7 13.2-1.3 22.4 4.7 25.7 16.9 1.9 6.9-0.6 12.5-5.2 17.3C81 2187.6 74.2 2190.3 68.6 2190.3zM85.3 2168.6c-0.1-9-6.1-14.5-16-14.5 -10.1 0-18.1 7.1-18.2 16.1 -0.1 7.8 6.9 14.1 15.7 14C77.2 2184 85.3 2177.2 85.3 2168.6z"/><path d="M563.1 1246.6c-10.7-0.1-20.6-9.1-21.8-19.7 -1.3-11.5 11.9-22.1 24.6-19.3 4.7 1 9.3 2.9 13.5 5.1 6.9 3.7 9.3 11 6.7 18.4C582.9 1240.2 573.2 1246.7 563.1 1246.6zM561.8 1239c4.6-0.2 9-2.5 11.8-7.4 2.9-5.1-0.1-9.1-2.3-13.4 -1.6-3.1-4-3.6-7.1-2.7 -6.2 1.8-9.3 6.5-11.2 12.3C550.4 1235.1 553.2 1239 561.8 1239z"/><path d="M219.7 2056.5c18.9 30.9 37.8 61.7 56.5 92.2 -5.2-3.1-11-6.5-14.4-12.7 -14-25.7-27.9-51.4-41.9-77.1 -0.3-0.6-0.5-1.2-0.8-1.7C219.3 2056.8 219.5 2056.6 219.7 2056.5z"/><path d="M249.8 2041.3c2.1 3.4 4.1 6.8 6.2 10.2 13 21.7 25.9 43.5 39 65.1 3.5 5.8 3.6 11.8 3.2 17.5 -16.3-30.5-32.7-61.4-49.2-92.2C249.3 2041.7 249.6 2041.5 249.8 2041.3z"/><path d="M287.7 2156c2.5 0.7 5.1 1.3 8 2.1 0.9-3 1.8-5.8 2.6-8.6 0.4-0.1 0.8-0.1 1.2-0.2 0.3 4.2 0.9 8.4 0.7 12.5 0 0.7-3.8 2.3-4.9 1.8 -3.1-1.7-5.7-4.3-8.6-6.5C287.2 2156.7 287.5 2156.4 287.7 2156z"/><path d="M74.4 167.8c0.1 7.2-4.9 12.3-12.2 12.4 -6.9 0.1-11.6-4.5-11.7-11.5 -0.1-7.6 4.7-12 13.3-12.1C70.3 156.6 74.4 160.9 74.4 167.8zM68.2 168c-0.1-3.1-1.3-5.2-4.7-5.1 -3.6 0.2-6.7 1-6.6 5.5 0.1 3.6 1.9 5.7 5.5 5.5C66 173.7 68.1 171.7 68.2 168z"/><path d="M118.1 147.2c-6.8 0-11.8-5-11.8-11.6 0-6.4 6-11.8 13-11.7 6.2 0.1 11.5 5.5 11.3 11.6C130.5 141.9 124.8 147.2 118.1 147.2zM116.6 141.2c5-0.7 7.9-2.3 7.4-6 -0.2-1.9-3-4.7-4.8-4.8 -2.9-0.2-6.7 1.3-6.3 5.2C113.1 137.8 115.5 139.7 116.6 141.2z"/><path d="M735 775c-6.4 0-11.4-5-11.4-11.3 0-6.4 6.3-12.1 13.5-12 7.6 0.1 9.1 4.9 10.1 13.4C747.8 770.4 741.6 775 735 775zM733.5 768.7c5.3 0 9-3.1 8.1-6.1 -0.5-1.9-2.9-4-4.8-4.5 -3.3-0.8-7.4 2.9-6.6 5.7C730.6 765.9 732.7 767.6 733.5 768.7z"/><path d="M898.3 234.3c3.7-16.2 7.1-32.5 11.1-48.6 1.1-4.4 0.2-6.5-3.2-9 -9-6.6-17.7-13.5-26.4-20.6 -1.4-1.2-2.8-3.5-2.7-5.2 0.1-1.1 2.9-2.5 4.6-2.8 12.8-2.3 25.6-4.6 38.4-6.4 4-0.6 6.2-2.1 8.2-5.8 7.2-13.7 14.9-27.1 22.7-40.5 3.2-5.5 5-5.4 8.3-0.1 8.5 13.5 16.9 27.1 25.6 40.5 1 1.6 3.5 3 5.4 3.2 13.9 1.7 27.8 2.9 41.7 4.6 2.1 0.2 4 1.9 5.9 2.8 -1.1 1.9-1.7 4.3-3.3 5.7 -8.9 8-17.9 16-27.1 23.7 -2.7 2.3-3.2 4.1-2.3 7.6 4.5 15.5 8.6 31.1 12.6 46.8 0.6 2.3-0.2 5-0.3 7.6 -2.5-0.3-5.3-0.1-7.4-1.1 -15.9-7.7-31.7-15.4-47.4-23.5 -3.2-1.7-5.5-1.5-8.6 0.2 -16 8.6-32 17-48.2 25.3C901.1 240.7 898.8 239.2 898.3 234.3zM960.5 144.6c0-0.1 0-0.3 0-0.4 -9 0.6-17.9 1.1-26.9 2 -1.8 0.2-4.4 1.9-5.1 3.6 -3.5 8.1-6.3 16.4-9.6 24.6 -1.1 2.7-0.4 4.3 1.9 5.8 11.4 7.2 22.7 14.6 34.2 21.6 1.5 0.9 4.7 0.9 6.2 0 11.1-7.4 22-15 32.7-22.9 1.2-0.9 2.1-3.9 1.5-5.3 -3.4-8.6-7.2-17.2-11.2-25.6 -0.8-1.6-3.4-3.1-5.3-3.3C972.8 144.3 966.6 144.6 960.5 144.6zM952.4 207.7c-12.7-8.2-24.3-15.6-36.9-23.7 -3.5 15.9-6.8 31.3-10.1 46.6 0.6 0.3 1.2 0.7 1.8 1C921.9 223.8 936.7 216 952.4 207.7zM999.4 182.8c-12.1 8.5-23.2 16.4-35.2 24.8 16.1 8 31.3 15.5 46.5 23 0.5-0.4 0.9-0.9 1.4-1.3C1007.9 213.9 1003.7 198.6 999.4 182.8zM978.4 139c0.3-0.6 0.5-1.1 0.8-1.7 -7.7-12.3-15.4-24.6-24-38.3 -7.9 14.3-15.1 27.2-22.2 40.1C948.7 139 963.5 139 978.4 139zM1028.1 150.2c-0.1-0.5-0.2-1.1-0.4-1.6 -12.4-1.2-24.8-2.4-37.9-3.7 4.3 9.9 8.1 18.6 12.2 27.9C1011.1 164.9 1019.6 157.6 1028.1 150.2zM886.8 152.9c-0.1 0.4-0.2 0.9-0.3 1.3 8.6 6.6 17.1 13.2 26 20 3.5-9.3 6.6-17.7 10.1-27.2C909.9 149.1 898.4 151 886.8 152.9z"/><path d="M1048.6 164.5c1.7 20.2-0.1 40-7.3 59.2 -5.6 14.8-15.5 25.7-30 31.8 -29.5 12.6-59.8 13.1-90.4 4.1 -0.6-0.2-1.2-0.6-2.9-1.4 6.7 0.8 12.2 1.7 17.6 2.1 20.3 1.6 40.2-0.3 59.9-5.3 21.3-5.4 35.7-18.2 42.9-39.3C1044.1 199 1047.6 182 1048.6 164.5z"/><path d="M872.5 142.2c-0.6 3.7-0.8 7.5-1.7 11.1 -4.3 16.6-5.2 33.2-1.2 49.9 4 16.6 12.9 30.1 26.3 40.8 2.6 2.1 4.9 4.7 7.3 7.1 -0.4 0.6-0.8 1.3-1.2 1.9 -3.4-1.6-7.2-2.6-10.1-4.8 -19.7-15.4-29.7-36.2-30.3-60.9 -0.3-12 2.1-24.1 3.9-36 0.5-3.4 3.2-6.5 4.9-9.8C871 141.7 871.7 142 872.5 142.2z"/><path d="M875.9 132.5c13.3-36.2 61.4-60.1 96.5-47.6 -19.2 2.4-37.9 2.2-54.8 11.2C900.8 105 887.7 118 875.9 132.5z"/><path d="M994.3 90.2c6.1 2.8 12 4.9 17.1 8 16.8 10.2 29.6 24.1 36.5 42.8 1.2 3.3 0.9 7.2 1.3 10.8 -0.8 0.3-1.6 0.6-2.4 0.8 -5.7-12.3-10.2-25.5-20.6-34.8C1016 108.7 1005.4 99.8 994.3 90.2z"/><path d="M348.3 1362.9c0 6.9-5.4 12.1-12.6 12.1 -7 0-12.8-5.7-12.8-12.6 0-6.7 5.5-12.2 12-12.1C342.6 1350.6 348.3 1355.9 348.3 1362.9zM333.3 1355.9c-1.4 2.2-3.8 4.4-4 6.7 -0.3 3.7 2.4 6 6.3 6.2 3.6 0.2 6.5-2.8 6.3-6.1C341.8 1359.6 338.1 1356.6 333.3 1355.9z"/><path d="M732.3 525.4c0.6 1.4 1.3 2.7 1.8 4.1 1.8 5 3.7 10 5.2 15.1 0.4 1.3-1 3-1.5 4.5 -1.4-0.9-3.5-1.4-4-2.7 -2.1-4.9-3.9-9.9-5.3-15 -0.4-1.4 0.8-3.2 1.2-4.8C730.5 526.2 731.4 525.8 732.3 525.4z"/><path d="M751.3 523.7c0.8-1.1 1.4-2.8 2.3-2.8 1.2-0.1 3.2 0.6 3.6 1.5 2.1 4.9 3.9 9.9 5.4 15 0.3 0.9-1 2.8-2 3.3 -0.7 0.4-2.9-0.5-3.2-1.3C755.2 534.4 753.4 529.2 751.3 523.7z"/><path d="M143.8 686.5c5.1 1.1 9 1.9 12.8 2.9 3.7 1 4.7 3.6 3.1 7 -4.4 9.2-8.8 18.3-13.3 27.4 -1.4 2.9-3.3 2.6-4.8 0.1 -5.1-8.4-10.2-16.8-15.2-25.2 -1.8-3-0.9-5.7 2.3-6.9C133.9 689.7 139.3 688 143.8 686.5zM143.8 718.3c3.4-8.2 6.4-15.5 9.5-23.1 -7.4-2.7-14-2.1-20.7 1.7C136.3 704 139.8 710.6 143.8 718.3z"/><path d="M115.1 732.9c-14.6 0.7-15.6-0.6-12.5-12.1 2.1-7.9 6.2-14.3 12.8-19.1 4.2-3.1 6.3-2.8 8.8 1.6 4.1 7.2 8.1 14.5 11.9 21.9 2.2 4.2 1.3 5.6-3.4 6.1C125.9 732 119.1 732.5 115.1 732.9zM107.9 726.7c7.8 0 15 0 23.1 0 -4.2-6.9-8-13.2-11.9-19.7C112 712 109 718.5 107.9 726.7z"/><path d="M168.8 728.9c-5.1 0-9 0-12.8 0 -3.5 0-5.2-1.2-3.4-4.8 3.7-7.8 7.5-15.5 11.3-23.3 1.9-3.9 4.6-4.2 8-1.6 7.7 5.8 12.2 13.4 13.8 22.8 0.7 3.9-0.6 6.2-4.8 6.4C176.4 728.5 171.9 728.7 168.8 728.9zM179.2 722.1c-1.4-7.3-4.4-12.9-10.5-17.1 -3.7 6.4-7.3 12.4-11.4 19.4C165.2 723.5 172 722.8 179.2 722.1z"/><path d="M146.3 774.3c-4.9-0.9-8.9-1.5-12.7-2.4 -4-1-5.6-3.4-3.5-7.4 4.2-7.9 8.5-15.8 12.7-23.7 1.5-2.7 3.2-2.7 4.9-0.3 5.4 7.6 10.7 15.2 16 22.9 2 2.9 1 5.3-2 6.4C156.4 771.6 150.9 773 146.3 774.3zM136.2 766.2c7.7 1.8 14.3 1.9 21.1-1.7 -4-6.8-7.7-13.2-12-20.5C142.1 751.8 139.3 758.7 136.2 766.2z"/><path d="M128.1 736.8c9.3-0.4 9.5-0.2 6.2 8.4 -2.2 5.7-4.6 11.4-6.9 17.1 -1.5 3.8-4.1 4.5-7.5 2.3 -7.5-4.6-12.9-10.9-16.3-18.9 -1.9-4.4-0.7-6.5 4.3-7C114.5 737.9 121.3 737.4 128.1 736.8zM130.3 741.8c-7.2 1-13.4 1.9-21.4 3 4.7 5.3 8.5 9.6 12.9 14.6C124.9 752.9 127.3 747.9 130.3 741.8z"/><path d="M169.9 734.6c3.7 0 7.3 0.1 11 0 4.3-0.1 6.4 2.1 5.9 6.1 -1.2 9.3-6.1 16.4-13.6 21.8 -2.5 1.8-4.8 1.1-6.4-1.5 -4.2-7.2-8.3-14.4-12.4-21.7 -1.4-2.6-0.1-3.8 2.5-3.8 4.3-0.1 8.7 0 13 0C169.9 735.2 169.9 734.9 169.9 734.6zM171.1 756.3c5-4.5 8.3-9.1 9.2-15.9 -7.3-0.4-14-0.8-22-1.3C163 745.4 166.8 750.6 171.1 756.3z"/><path d="M76.3 2168.8c0 4.6-4 8.4-8.7 8.4 -4.9 0-9-4-8.9-8.8 0.1-4.8 4.1-8.6 9.1-8.7C72.3 2159.6 76.3 2163.9 76.3 2168.8z"/></svg>