<svg xmlns="http://www.w3.org/2000/svg" viewBox="0 0 1125 2436"><style>.a{fill:none;}</style><path d="M816 1602.8c6.9-5 15.5-8.9 26.3-10.6 16.2-2.5 55 9.1 65.1 32.7 10.1 23.7-4.7 46.3-46.4 56.8s-55.3 2.2-58.4 1.1" class="a"/><path d="M796.2 1625.2c1.4-2.8 1.3-4.5 4.3-8.3" class="a"/><path d="M800.5 1617c-0.9-8.2-2-23.4 1.6-25.3 3.5-1.9 12.7 9.5 13.6 10.9" class="a"/><path d="M885.7 1602.8c-2-7.9-6.4-22.9-10.4-23.4 -4-0.5-9.3 13.3-9.7 14.9" class="a"/><path d="M837.4 1616c2.5 3.6-1.8 11.4-12.5 16.4 -11.4 5.2-17.1 1.9-18.9-1C800.6 1622.2 831.2 1606.9 837.4 1616z" class="a"/><path d="M857.7 1608.6c-1.3 4.1 4.6 10.6 15.6 12.5 11.7 2.1 16-2.6 16.8-5.8C892.8 1605.1 861 1598.3 857.7 1608.6z" class="a"/><path d="M858 1619.4c1.2 2.8-5.9 6.1-8.4-1 1.7 6.5-7.9 7.9-7.7 4.1" class="a"/><circle cx="821.8" cy="1621" r="0.4" class="a"/><circle cx="872.3" cy="1608.8" r="0.4" class="a"/><path d="M855.2 1592.5c-18.8-13.9-17.2-74.8-59.1-101.8 -41.9-27-79.6-7.9-84.5-4.3" class="a"/><path d="M822.9 1687.4c6 7.7 38.9 35.5 39.1 44.5s-13.2 9.7-23.6 4.1 -65.6-48.9-84.3-71.9c-39.8-48.9-65.5-92.7-69.7-158.2s-10.6-70.1-8.4-77.8c2.2-7.7 12.2-8.4 16-4.7 7.6 7.4 19.8 30.9 26 59.4" class="a"/><path d="M871.9 1678.5c13.6 7.3 45.1 21.2 53.3 21 7.8-0.1 9.7-7.8 3.7-14.7 -6-6.8-27.3-18.6-31-20.6" class="a"/><path d="M771.7 1479.8c-0.6-7.3 5.6-52.4 16.7-60.3 11.1-8 15.2 2.1 15.2 8.8s-2.8 58.8 2.3 69.9" class="a"/><path d="M731.7 1478.1c-4.5-13.8-17.1-95.7 4.2-100.2 21.3-4.6 12.3 35.8 13.4 54.8 0.7 12 1.3 26.1 4.7 43" class="a"/><path d="M846.9 1731.2c1.6 0.6 6.6 5.3 3.1 7.9" class="a"/><path d="M854.9 1728.9c1.3 1.1 4.8 3.2 4.6 7.8" class="a"/><path d="M920.7 1691.7c2.3 0.5 4.9 4.1 4.5 7" class="a"/><path d="M925.4 1687.5c3.9 1.1 5.9 6.1 6.2 8.3" class="a"/><path d="M686.1 1430.6c3-0.3 7.8 2.8 8.1 5.1 0.2 2.2-4 4.2-6.5 2.2 -1.2 3.1-5.7 2.9-5.9 0.6C681.4 1435.9 683.1 1430.9 686.1 1430.6z" class="a"/><path d="M795.2 1426.2c2.3 1.3 3.8 6.4 2.7 8.4 -1.1 1.9-5.3 1.3-5.8-1.7 -2.6 1.9-5.6-0.7-4.5-2.6C788.9 1428 793 1424.9 795.2 1426.2z" class="a"/><polyline points="810.5 1605.5 805.8 1601.7 805.8 1609.5 " class="a"/><polyline points="872.5 1592.7 875.4 1588.1 877.9 1594.7 " class="a"/><path d="M924 2329.2c3.6-0.9 6.6-1.4 9-1.4 10.3 0 55.2-2.6 64.6-3.4s17.2-12.9 6.9-19c-10.3-6-31-3.4-36.2-11.2 -5.2-7.8-7.8-37.1-39.6-47.4" class="a"/><path d="M855.4 2348.5c7-1.1 14-2.5 20.8-4.4 8.2-2.2 16.7-5 24.7-7.7" class="a"/><path d="M885.6 2114.1c-11.2-0.9-36.2-0.9-49.1 1.7 -1.7-6-10.3-19.8-12.9-19.8 -2.6 0-9.5 23.3-9.5 29.3 -6.9 6.9-12.1 18.1-12.9 37.1 -0.6 13.8-1.7 31.9-6.9 41.4 -5.2 9.5-28.4 62.9-41.4 75s-17.4 32.9-19.8 54.3c-0.9 7.8-11.2 23.3-19 31.9 -7.8 8.6-7.8 17.2-3.5 20.7 4.3 3.4 12.9 0.9 21.5-6.9 8.6-7.8 36.2-25.9 40.5-27.6 4 0 29.1 2.2 58.5 0.2" class="a"/><path d="M885.6 2114.1c4.4-8.3 8.6-20.7 11.2-21.6 2.6-0.9 9.5 16.4 10.3 26.7 7.8 6 14.7 14.6 15.5 41.4 1 31.9 5.2 61.2 6 79.3 0.9 18.1-2.6 62.9-4.3 74.1 -1.7 11.2 0 19 1.7 25.9 1.3 5.3-12.9 13.8-22.4 2.6 -8.7-10.3-4.3-52.6-6-57.7" class="a"/><polyline points="821.8 2118.4 824.4 2108.9 828.7 2115.8 " class="a"/><polyline points="893.3 2112.3 896.8 2105.4 899.4 2114.9 " class="a"/><path d="M815.8 2279.5c0 9.5 6.3 47.1 8.6 57.7 2.6 12.1 9.5 19 18.1 19s15.5-6.9 12.1-11.2 -9.5-49.1-7.8-56.9" class="a"/><path d="M858.8 2348c15.6 10.9 56.9 32.4 71.6 42.8 10 7.1 29.3 2.6 22.4-10.3 -8.3-15.7-58-35.6-67.2-38.8" class="a"/><path d="M715.8 2376.1c-1.7 1.7-2.2 7.8 3.6 10.3" class="a"/><path d="M840.8 2346.8c1.7 1.7 2.3 7.3-2.8 8.8" class="a"/><path d="M848.5 2345.9c0.9 0.9 3.5 3.4 1.7 7.8" class="a"/><path d="M912.3 2337.3c0.9 1.7 1.9 6.4-5.1 8.3" class="a"/><path d="M920.1 2337.3c1.7 1.7 2.6 7.8 0 9.5" class="a"/><path d="M1002.8 2311.4c3.5 1.7 5 5.4 3.4 8.7" class="a"/><circle cx="890.7" cy="2141.9" r="0.4" class="a"/><circle cx="833.2" cy="2143" r="0.4" class="a"/><path d="M853.7 2157.1c-1.7 5.2 8.6 1.7 8.6-3.4 0 4.3 9.5 8.6 8.6 2.6" class="a"/><path d="M877.5 1973.3c3.1-1.6 6.3-3.1 9.7-4.4 6-2.3 39-15.1 65.6 2.3" class="a"/><path d="M975.2 2020.2c-4.6 15.6-31.2 38.5-89.9 19.3 -48-15.8-41.1-43.4-16.6-60.8" class="a"/><path d="M965.6 1983.1c0-7.3-0.9-26.6-5.5-31.2 -4.6-4.6-13.7 13.1-14.7 15.3" class="a"/><path d="M907.3 1963.3c-1.3-7.7-3.2-17.8-5.9-18.7s-15.6 19.3-17.4 24.8" class="a"/><path d="M909.7 1986.8c-4.6 6.4 33.9 18.3 38.5 11C952.8 1990.4 917.2 1976.2 909.7 1986.8z" class="a"/><path d="M893.1 1983.1c-4.7 4.7-28.4-0.9-23.8-7.3C873.2 1970.3 898.6 1977.6 893.1 1983.1z" class="a"/><path d="M896.8 1988.6c-0.9-0.9-0.9-3.7 0-3.7s4.6 0.9 4.6 2.8C901.4 1988.6 897.7 1989.5 896.8 1988.6z" class="a"/><path d="M896.8 1988.6c-0.9 0.9-25.7 13.8-25.7 13.8 -3.7-2.8-4.6-3.7-6.4-2.8s-1.8 6.4 0 8.3" class="a"/><path d="M912.5 1962.6c16.5-15.3 21-52.9 44.9-76.7s49.5-27.5 59.6-27.5c0.9-16.5 4.6-30.3-10.1-72.4s1.3-77.2 10.1-93.6c6.4-11.9 15.6-17.4 22-14.7 6.4 2.8 11 11 6.4 21.1s-17.4 38.5-15.6 57.8 22 62.4 12.8 104.6c15.6 6.4 37.6 22.9 39.4 49.5 1.8 26.6-7.3 42.2-10.1 56.9s-6.2 44.3-18.3 58.7c-10.1 11.9-21.7 11-21.1-7.3 0.9-28.4-7.3-77 20.2-88" class="a"/><path d="M1032.1 1987.6c-7.8 18.4-34.4 49.6-40.8 57.8 -6.4 8.3-25.7 48.6-43.1 45.9 -17.4-2.8 10.1-42.6 13.3-53.9" class="a"/><path d="M881.3 2038.1c-17.5 3.7-65.9 10.5-74.4-6.4 -5.5-11 38-11.9 45.6-13.8" class="a"/><path d="M812.4 2037.2c-2.8-3.2 2.8-4.6 8.3-6.4" class="a"/><path d="M956.4 2080.3c-1.8 2.8-0.9 8.3-0.9 8.3" class="a"/><path d="M948.2 2079.4c0 0-4.6 7.3-3.7 9.2" class="a"/><path d="M1045.4 2020.7c-2.8 3.7-1.8 9.2 0 11" class="a"/><path d="M1036.2 2021.6c-1.8 4.6-1.6 8.6-1.6 8.6" class="a"/><line x1="922" y1="1985" x2="917.5" y2="1994.5" class="a"/><line x1="879" y1="1975" x2="874.9" y2="1982.7" class="a"/><path d="M121.3 1432c-11 2.4-25.7 8.6-36.4 27.1 -16.2 27.8 5.9 57.8 44.6 58.1 30 0.2 54.6-17.9 56.5-39.9C187.9 1455.3 165.2 1422.3 121.3 1432z" class="a"/><polyline points="127.8 1456.1 130.6 1457.4 133.6 1455.8 " class="a"/><circle cx="159.6" cy="1468.4" r="15.8" class="a"/><circle cx="105.6" cy="1467.1" r="15.8" class="a"/><path d="M130.4 1458.3c0 0-2.3 17.1 0.1 21.3" class="a"/><circle cx="104.9" cy="1467.9" r="0.4" class="a"/><circle cx="159.3" cy="1468.5" r="0.4" class="a"/><path d="M79.8 1527.1c8.3 6.2 103.1 2.9 109-5 5.9-7.9 7.2-76.1 4.9-88.3 -0.6-3 9.7-7.4 8.1-17.3s-33.7-25.4-73.8-21.9c-40.5 3.5-62.7 22.8-63.8 30.9 -1.1 8.6 6.9 13.5 7.6 15.5S71.9 1521.2 79.8 1527.1z" class="a"/><path d="M72.1 1533.8c10.2 14.5 120.6 6.4 125.8-5.1 7-15.3 6.7-76.1 5.9-91.7 -0.2-3.6 11.4-9.9 7.1-24.2 -4-13.4-37.4-33-85.1-28.9 -48.3 4.1-70.9 27.6-72.6 37.2 -2.9 15.6 10 23.9 10 26.5C63.4 1453.4 61.8 1519.1 72.1 1533.8z" class="a"/><path d="M101.2 1540.8c-6 23.1-3.2 84.2-3.7 94 -0.6 11.5-9.5 21-7.4 27.1 2.4 6.9 16.4 8 23.1 1.1s12.2-26.4 11.5-43" class="a"/><path d="M147.7 1619.5c0.1 9.6 0.2 17 0 19.8 -0.6 11.5-9.3 21-7.3 27.1 2.3 6.9 15.7 7.9 22.2 1s13.9-33.9 13.3-50.5" class="a"/><path d="M204 1482c25.6 18 29.4 73.6 31.3 89.9s8.6 50.8-2.9 64.2c-11.3 13.1-20.1 16.3-28.8 24.9 -8.6 8.6-17.3 26.8-25.9 24.9 -8.6-1.9-6.7-14.4 6.7-32.6 -3.8-20.1 1-67.1 32.6-65.2" class="a"/><path d="M169.5 1653.9c6.3-0.7 11.4-1.6 14.6-2.5" class="a"/><path d="M119.3 1652.4c7.3 1.6 14.9 2 22.9 2.3" class="a"/><path d="M97.3 1593c-11.5 7.7-9.4 39-12.5 45.1 -2.9 5.8-26.8 24-19.2 31.6 6.1 6.1 17.3-1 24-7.7" class="a"/><path d="M86.9 1624.6c-24.1 3.8-70.2 2.9-81.7 7.7s-9.6 21.1 1 23 48.5-1.9 68.1-5.8" class="a"/><path d="M152.9 1662c-2.9 1.9-3.8 8.5-1 10" class="a"/><path d="M145.2 1660.1c-1.9 1-4.3 5.5-3.6 8.5" class="a"/><path d="M103 1657.2c-1.9 1-2.9 6.7 0 9.6" class="a"/><path d="M96.3 1656.2c-2.9 1.9-3.8 4.8-2.9 8.6" class="a"/><path d="M178.8 1676.4c-1.9 1.9-2.9 8.6 0 9.6" class="a"/><path d="M72.3 1662.9c-3.8 1.9-6.2 6.4-4.1 8.5" class="a"/><path d="M384 1495.4c10.3-7.8 39.6-45.7 42.2-50.8 2.6-5.2 9.5-26.7 13.8-29.3 4.3-2.6 6.9 12.9 7.8 15.5 4.3-1.7 27.6 0.9 43.1 7.8 5.2-2.6 9.5-12.1 12.1-11.2 2.6 0.9 0 19.8 0 23.3 0 3.4 8.6 18.1 9.5 25.8 0.9 7.8-6.3 26-26.7 41.4 -3.5 2.6-2.7 12.9 17.2 12.9 19.8 0 44.8-27.6 42.2-37.9 -2.6-10.3-18.1-16.4-8.6-25.8s26.6 5.8 31 20.7c5.2 17.2-7.5 41.4-29.3 57.7 -20.7 15.5-34 17.9-36.2 22.4 -1.7 3.4 7.8 53.4 11.2 60.3s15.5 12.1 15.5 19c0 6.6-18.1 12.9-30.2 2.6 -12.1-10.3-24.1-56-27.6-60.3 -3.5-4.3-75.8-2.6-79.3-1.7 -3.5 0.9-16.8 51-20.7 59.5 -5.2 11.2-19 8.6-21.5 0.9 -3.5-10.7 4.3-53.4 6.9-68.1 2.6-14.7-1.7-45.7 8.6-67.2 -13.8-14.7-29.3-30.2-26.7-54.3 2.6-24.1 30.2-40.5 38.8-40.5s16.4 6 12.9 12.1c-3.5 6-17.2 10.3-24.1 19.8S354.7 1470.4 384 1495.4z" class="a"/><polyline points="462.3 1472.3 464.2 1474.7 466.6 1472.8 " class="a"/><circle cx="489.9" cy="1471.6" r="0.4" class="a"/><circle cx="439.3" cy="1468.3" r="0.4" class="a"/><path d="M466.4 2064.8c3.1 1.4 6.1 2.9 9 4.3 20.5 9.8 77.3 52.3 145.7 33.4" class="a"/><path d="M386.1 1953.5c-5.7 12.1-6.4 42.1 8.5 65.2 6.6 10.2 18.2 19.3 35.6 28.5" class="a"/><path d="M455 1924.6c-16.6-0.3-35.9 5.4-50 12.9" class="a"/><path d="M497.6 1966.2c-0.7-5-3-26.4-21-36.4" class="a"/><path d="M639.6 2123.9c-27.1 28.5-28.3 34.5-29.5 45 -1.3 12-28.2 15.7-27.3-10.3s25.4-52.2 42-55.2" class="a"/><path d="M496.4 1959c9 4.7 27.8 1.4 70.6 6.7s74.2 18.7 91.6 48.9c13.3 10.7 31.2 50.8 0.4 88.9" class="a"/><path d="M561.4 2060.3c-2.3 15.8 18.4 37.4 41 40.3s27.4 0.7 31.6 9.7 12 33.8 22.9 38.3 13.3-5.5 10.4-16.2 -14.7-48.3-13.6-56.5 5.3-15.5 2.5-25.5" class="a"/><path d="M601.5 2118.4c-17.6 9-53.5 27.5-63.2 21.9 -11.2-6.6-1.7-19.6 26.8-34.6" class="a"/><path d="M447.1 2030c-10.4 10.3-34.3 35.7-43 42.1s-10.5 15.5-5.4 19.9c5 4.5 24.6-4.1 41.9-12.4 17.4-8.3 51.9-31.4 58.9-39.8" class="a"/><path d="M409.8 2035.1c-15.9 5.8-64.9 22.8-71.7 8.3 -5.2-11.1 45.6-26.5 51.7-31.6" class="a"/><path d="M476.5 1929.8c-1.4-9.3-5.4-22-8.7-24.5 -3.3-2.5-11.9 15.3-12.9 19.3" class="a"/><path d="M405 1937.4c-6-6.4-17.1-11.7-20.2-12.8s-0.7 22.3 1 29.4" class="a"/><polyline points="398.2 1942.1 391.6 1937.1 392.9 1946.5 " class="a"/><polyline points="461.7 1925.3 465.9 1918.1 468.5 1926.6 " class="a"/><path d="M433.1 1975.7c0.5 3.6 8.2 0.4 6.5-6.8 1.7 7.2 10.5 6.7 8.5 2.5" class="a"/><polyline points="436.3 1966.4 439.5 1968.2 441.3 1965 " class="a"/><path d="M408 2082.6c-1.8 0.2-5.5 6.2-3.3 9.6" class="a"/><path d="M401.3 2079.8c-1.7 1.1-4.8 3.4-5.4 6.6" class="a"/><path d="M350.2 2039.4c-2.6 1.3-5.6 5.3-5.4 7.1" class="a"/><path d="M345.3 2036.4c-1.8 0.2-6.7 2.7-7.5 4.7" class="a"/><path d="M659.5 2135.8c1.4 3.5 5 8.2 8.8 6.4" class="a"/><path d="M654.9 2141.9c1.3 2.6 3 6.7 6.6 7.7" class="a"/><path d="M546.9 2132c-1.7 1.1-6.9 5.4-4.8 9.3" class="a"/><path d="M540.8 2127.4c-2.6 1.3-5.8 6.1-6.7 8.6" class="a"/><line x1="471.6" y1="1950.2" x2="474.1" y2="1958.3" class="a"/><line x1="414.3" y1="1963.9" x2="417.3" y2="1971.9" class="a"/><path d="M507.8 2232.3c0.3 4 12.3 3.1 11.7-5 2.4 4.9 13.4 4 11.9-2.9" class="a"/><path d="M535.8 2220.3c3-3 11.1-8 21.1-6" class="a"/><path d="M502.6 2232.4c-5-1-14.1 2-17.1 6" class="a"/><path d="M483.5 2285.7c2 1 4 6 3 14.1 -1 8 5.1 12.4 12.1 10.1 12.1-4 16.1-35.2 2-43.2 -14.1-8.1-25.1 3-37.2 15.1s-6.6 22.9 1 26.1c7 3 18.1-3 21.1-6" class="a"/><path d="M570 2281.6c-2 3-3 13.1-9 18.1 -4.9 4.1-19 7-17.1-12.1 2-20.1 17.1-36.2 29.2-32.2s16.1 19.1 12.1 32.2" class="a"/><path d="M560.9 2299.7c-2 7 5 15.1 10 16.1" class="a"/><path d="M476.3 2269.8c-2.8-5.3-7.8-30.4 8.2-42.4s19.1-16.1 27.1-19.1 25.1-6 36.2-5c11.1 1 21.1 10.1 28.2 15.1 7 5 10 17.1 11.1 29.1 1 12.1 21.1 31.2 7 76.4s-40.2 85.4-122.6 85.4c-76.4 0-114.6-62.3-120.6-111.6 -5.5-45.2 11.1-92.5 49.3-116.6 12.1-8 28.6 8.6 15.1 20.1 -20.1 17.1-31.8 40.5-36.2 65.3 -3 17.1-2.6 42 1 44.2 8 5 3-29.1 10-43.2s20.1-47.3 27.1-46.2c7 1 7.7 18-2 42.2 -2 5 12.9-6.8 24.1-6 14.1 1 21.1 13.1 20.1 27.1" class="a"/><path d="M473.9 2261.1c-1.4-7.6-12.5-18.7-21.5-17.7 -9 1 4-22.1-2-29.1 -6-7-21 23-23.1 45.7" class="a"/><path d="M559.5 2207c8.5-3.7 18.5-8.8 20.6-7.8s-4 18.1-4 18.1" class="a"/><path d="M482.6 2229c-10.1-2.6-17.2-2.6-19.2-1.6s6 13.1 10 16.1" class="a"/><path d="M556.9 2290.7c-3 3-3 11.1-1 11.1" class="a"/><path d="M547.9 2288.7c-1 2-3 8-2 11.1" class="a"/><path d="M487.5 2306.2c2 0.6 5-3.4 6-6.5" class="a"/><path d="M496.6 2309.8c2-1 4-7 4-9.1" class="a"/><path d="M413.4 2223.2c1.8 1.1 3.8 3.1 3.8 6.1" class="a"/><path d="M445.3 2216.3c2 2 2 4 1 7" class="a"/><path d="M690.4 1824.8c12.1-7.3 21.8-10 27.3-10.4 2.6-12 0.4-17.3 2.9-19.3s16.3 10.4 19.1 22.9c9.4 3.8 34.4 10.8 47.8 40.5 12.4 7.1 19.3 13.8 20.5 17.3 1.2 3.5-17.8 4.2-20.4 5.3 -0.2 8.2-15.6 52.8-75.8 59.8 -53.9 6.3-70.2-15.1-72.1-27.6" class="a"/><path d="M688.6 1923.7c5.1-14.9-29-33-43.4-31.8 -18 1.5-13.5 23.8 16.4 34" class="a"/><path d="M665.7 1865.8c-8.6-5.6-26.8-4-27.5 6.8 -0.8 11.9 36.5 24.2 48.5 15.9 14.7-10.1-4.9-37.7-9.9-42.7" class="a"/><path d="M648.8 1825.5c-5.3 1.3-22.1 15.5-0.9 37.8" class="a"/><path d="M713.2 1815.1c-4.3-8.1-18.4-14.2-24.5-21.9 -6.1-7.7-40.3-48.3-72.6-55.7 -32.3-7.3-65.7-15.4-84.1-30.2 -18.5-14.8-30.2-14.7-35.2-8.9 -3.7 4.4-2.5 13.8 10.1 23.6 12.6 9.8 21.8 22.7 29.2 34.8 7.3 12.1 21.9 23.6 44 27.2" class="a"/><path d="M533.4 1752.5c-9.7-2.8-32.4-25.4-42.9-30.9 -10.4-5.5-18.2-0.3-16.3 11.3s27 30.4 33.3 40.8 20.6 43.3 39 65.7c18.1 22.1 46 42.5 89.4 67.4" class="a"/><path d="M597.7 1733.2c-3.7-11.1 8.8-24.8 27-23.6 18.2 1.2 43.9 15.4 58.6 6.9 14.7-8.5 0.7-24.5 14.7-30.2s27.5 14.9 19.4 37.4c-8.1 22.4-34.2 25.5-53.7 19.8s-39.1-16.4-43.3-4.9" class="a"/><path d="M643.7 1864.8c0.4 2.8 4.2 5.2 7.9 5.8" class="a"/><path d="M638.5 1870.5c0.6 2.9 5.3 5.3 8.2 6.8" class="a"/><path d="M635.3 1903.7c2.7-0.2 7.3 1.2 10.2 2.8" class="a"/><path d="M636.4 1895.8c3.5-1.6 10.1 1.4 12.1 3.1" class="a"/><path d="M503.4 1694.9c0.6 2.9 5.5 7.9 5.5 7.9" class="a"/><path d="M495.6 1700.5c0.7 2.5 4.6 5.8 6.5 7.5" class="a"/><path d="M481.8 1719.4c-1.1 3 2.9 7.2 4.8 8.8" class="a"/><path d="M474.6 1725.6c0.1 1.8 5.2 7.7 5.2 7.7" class="a"/><path d="M705.7 1833.4c-2.5 2.9-0.3 8.2 7.7 16.6 5.7 6.1 12.4 8.1 16 6.9s1.9-10.1-7.8-18.4C715.6 1833.6 708.1 1830.5 705.7 1833.4z" class="a"/><path d="M776.1 1886.6c-2.3 3.1-7.9 2.1-17.9-3.6 -7.2-4.2-10.7-10.2-10.4-13.9 0.3-3.7 9.4-4.2 19.7 3.4C773.7 1876.9 778.3 1883.5 776.1 1886.6z" class="a"/><polyline points="738.1 1858.3 738.4 1862.8 742.8 1861.7 " class="a"/><line x1="738.8" y1="1862.5" x2="727.8" y2="1871.5" class="a"/><circle cx="719.5" cy="1846.7" r="0.3" class="a"/><circle cx="762" cy="1877.6" r="0.3" class="a"/><path d="M167.4 1834.5c8.6-10.3 29.4-15.4 37.9-9.5 8.6 6 3.4 45.7-13.8 49.1 -17.2 3.4-11.2-22.4-8.6-28.4" class="a"/><path d="M190.7 1810.4c-9.5-6.9-23.3-2.6-32.8 12.1 -9.5 14.7-15.5 35.3-3.4 44.8 12.1 9.5 25.3-5.6 25.3-5.6" class="a"/><path d="M277.7 1870.7c-7.8 12.9-31.9 22.4-38.8 9.5s24.1-38.8 38.8-34.5 14.6 21.6 10.3 31" class="a"/><path d="M176.9 1806.9c-6-8.6-5.2-27.6 21.6-55.2 1.7-14.7 0-25 1.7-27.6s16.4 11.2 19.8 15.5c6.9-3.4 42.2-9.5 52.6-5.2 0 0-2.6-17.2 0-18.1s21.5 12.1 24.1 31c11.2 11.2 19 35.3 14.6 59.5s-9.5 37.1-9.5 37.1c1.7 8.6 7.8 36.2-17.2 56.9 -25 20.7-32.8-4.9-30.2-14.5" class="a"/><path d="M157.9 1822.4c-19.8 0-63.8 11.2-70.7 51.7s12.1 70.7 31.9 78.4" class="a"/><path d="M196.7 1927.6c-5.2-11.2-30.2-19-55.2 5.2 -0.9-12.1-6.9-41.4-21.6-34.5 -12.6 5.9-1.7 19.8-0.9 37.1 0.9 17.2-0.9 27.6 7.8 31.9s11.3-0.2 20.7 2.6c14.6 4.3 75.6 16.6 116.7-61.1" class="a"/><path d="M126 1829.2c-4.3-10.2-16.4-13.4-25-12.7 -11.2 0.9-25.8 16.4-27.6 35.3 -9.5-7.8-28.4-18.1-34.5-9.5 -5.6 8 16.4 20.7 25.8 33.6 6.7 9.1 16.4 15.5 21 10.5" class="a"/><path d="M92.2 1923.4c-17.9 5-48-4.4-71.3-14.8 -23.4-10.4-40.5-14.7-45.7-5.2s6.3 30.3 47.4 42.2c38.8 11.2 75.7 5 87.4 1.7" class="a"/><path d="M192.4 1779.3c-0.3 6.1 7.3 10.7 20.2 11.2 12.9 0.6 20.9-4.3 20.2-9.5s-8.1-11.6-21-13C198.9 1766.7 192.6 1773.3 192.4 1779.3z" class="a"/><line x1="211.6" y1="1774.1" x2="211.2" y2="1781.9" class="a"/><path d="M295.8 1774.8c0.6 6.1-6.8 11-19.6 12.2 -12.9 1.2-21.1-3.2-20.7-8.4 0.4-5.2 7.5-12 20.3-14C288.6 1762.6 295.2 1768.8 295.8 1774.8z" class="a"/><line x1="276.4" y1="1770.6" x2="277.1" y2="1778.3" class="a"/><path d="M236.3 1789.7c0 4.3 9.5 3.4 9.5-2.6 1.7 6 8.6 6 9.5 2.6" class="a"/><path d="M180.6 1868.6c3.1 3 10-3.1 10-7.4" class="a"/><path d="M191.5 1874.2c4.3-1.7 5.2-6.9 6-10.3" class="a"/><path d="M250.1 1885.3c-1.7-1.7 1.7-9.5 5.2-10.3" class="a"/><path d="M239.8 1880.2c0-2.6 3.4-7.8 7.8-8.6" class="a"/><path d="M128.5 1898.5c-4.2 0.7-4.2 5.9-3.3 9.3" class="a"/><path d="M118.3 1899.1c-2.6 3.4-0.9 7.8 0 10.3" class="a"/><path d="M47.6 1844c-2.6-1.7-8.5 0.4-8.6 4.5" class="a"/><polyline points="211.4 1743.2 206.2 1737.1 206.2 1745.7 " class="a"/><polyline points="279.4 1737.1 279.4 1729.4 285.5 1740.6 " class="a"/><path d="M762.2 2075.1c1.5 4.6 11.5 12.9 19.1 5.5 7.7-7.5-8.2-45.8-15.4-47.2s-24.7 21.2-26.3 33.8C738 2079.9 753.1 2087.7 762.2 2075.1z" class="a"/><path d="M721.1 2146.1c-8-0.9-28.7 6.3-28.4 12.5s15.6 1 20.8-3c-0.5 8.8-5.1 17.8 3.6 16.2C723.9 2170.6 721.1 2146.1 721.1 2146.1z" class="a"/><path d="M721.1 2146.1c0 0 51.7-21.7 39.9-69.6" class="a"/><path d="M738 2087.5c5.5 9.8 19.9 14.7 44.2 4.4" class="a"/><path d="M739.5 2103.8c4.6 10.3 24.8 11.9 33 7.4" class="a"/><path d="M735.1 2119.1c2.4 6.2 16.7 8.9 22.7 9.9" class="a"/><path d="M727.7 2132.8c2 7.5 14.6 9 14.6 9" class="a"/><circle cx="769.3" cy="2059.9" r="0.5" class="a"/><path d="M996 2195c-13 0-22.6-13.9 15-39 12-8 36.5-1.1 41 17 4 16-3 22-12 22S1006 2195 996 2195z" class="a"/><path d="M1041 2157c2-5 10-10 16-7s4.6 14.8-7.2 17.4" class="a"/><path d="M1009.9 2156.7c-2.9-6.7-8.9-10.7-14.9-7.7s-2.2 11.5 5.4 14.7" class="a"/><path d="M1012.9 2154.9c13.1-8.9 40.1-27.9 63.1-18.9s21 35 17 44 -23 14-52 15" class="a"/><path d="M1095.5 2170.7c5.5 5.3 8.5-0.7 20.5 4.3s13 19 23 22" class="a"/><circle cx="1033" cy="2175" r="1" class="a"/><circle cx="1000" cy="2172" r="1" class="a"/><path d="M435.8 1296.3l34.6-9.5c0 0 18.5 11.7 21.5 14.6 2.9 2.9-87.8 27.3-87.8 27.3l-25.4-14.6 -16.6 20.5 -154.1-5.8 19.5-19.5" class="a"/><path d="M250.4 1235c-14.1 17.9-15.2 35.3-18.9 40.1 -3.9 4.9-21.5 18.5-1.9 33.2 26.3 1.9 148.3 3.9 148.3 3.9l5-1.4" class="a"/><path d="M330 1215.8c-17.4-3.7-36.8-2.9-52.6 2" class="a"/><path d="M371 1262.4c-0.7-9.9-2.4-24.4-14.8-34.9" class="a"/><line x1="259.8" y1="1260.3" x2="259.8" y2="1273.8" class="a"/><line x1="327.1" y1="1260.3" x2="327.1" y2="1273.8" class="a"/><polyline points="289 1271.2 292 1274.1 294.9 1271.2 " class="a"/><path d="M292 1274.1c-2.9 4.9-3.9 18.5 0 27.3" class="a"/><path d="M356.3 1227.3c0 0 1-22.4-3.9-25.4 -4.9-2.9-22.4 12.7-22.4 12.7" class="a"/><path d="M277.3 1217.5c-2.9-7.8-20.2-13.3-21.5-12.7 -3.9 1.9-6.9 22.1-5.9 29.3" class="a"/><polyline points="338.8 1218.5 346.6 1213.6 347.5 1222.4 " class="a"/><polyline points="267.6 1222.4 260.7 1217.5 259.8 1227.3 " class="a"/><path d="M358.2 1229.3c13.7-0.1 54.9-5.2 82 10.6 23.4 13.7 31.2 37.1 30.2 46.8" class="a"/><path d="M371.9 1276c-12.7 8.8-14.4 35.5 12.3 34.3s51.2-8.5 51.6-14.1c0.5-7.5-10.2-16.3-43.4-10.5" class="a"/><path d="M421.7 1295.6c2.9 1 10.7-1.9 11.7-3.9" class="a"/><polyline points="225.1 1329.4 229.5 1353.1 379.8 1359.9 470.5 1334.6 473.7 1308.8 " class="a"/><line x1="378.8" y1="1314.1" x2="378.8" y2="1359.9" class="a"/><path d="M67.8 2141.8c-2.7 12.4 1.7 28.4 10.6 28.4 11.5 0 16.8-35.4 9.8-48.8s-29.3 0.9-37.2 8.9" class="a"/><path d="M35 2170.2c2.7 4.4 15.7 15.4 33.1-11.8" class="a"/><path d="M165.3 2141.8c-8 11.5-10.6 29.3 0 30.1 10.6 0.9 27.5-29.3 20.4-42.5s-30.1-4.4-41.7 15.1" class="a"/><path d="M136.1 2171.9c0.9 7.1 17.8 12.3 27.1-0.5" class="a"/><path d="M104.1 2084.2c0 5.3 15.9 8 19.5 0 -0.9 6.2 5.3 12.4 12.4 9.8" class="a"/><path d="M162 2126.7c3.3-7.1-0.2-23.9-10.9-34.5 -10.6-10.6-15.9-14.2-30.1-19.5s-31.9-3.6-45.2 0 -29.3 25.7-31.9 34.6c-11.5 15.1-51.4 85.1 23.9 166.6 -4.4 8 1.8 20.4 29.3 35.4 1.8 23.9 4.4 47.9 13.3 49.6 8.9 1.8 12.4-52.3 13.3-57.6 17.7-6.2 63.8-34.6 71.8-81.5 12.4-4.4 42.5-29.4 39-43.4 -3.6-14.2-36.3 15.1-41.7 17.7 6.2-18.6 1.8-41.2-13.3-33.5" class="a"/><path d="M182.5 2252.8c7.6 4.3 28.9 13.1 43 29.1 12.1 13.6 24.8 48.8 8.9 55.8s-16.8-26.6-25.7-38.1c-8.5-11.1-26.1-24.6-39.2-30" class="a"/><path d="M87.8 2070.2c-0.5-2-11.1-13.5-12.9-14.4 -1.8-0.9-4.6 14.9-5 19.4" class="a"/><path d="M149.3 2089.5c8.9-1.8 15.9-4.4 17.7-3.6 1.8 0.9-4.7 19.5-6.8 20.4" class="a"/><path d="M71.3 2164.9c2.3 0.5 4.4-5.3 5.3-8.9" class="a"/><path d="M78.4 2170.2c3.6-0.9 4.4-8.9 4.4-10.6" class="a"/><path d="M159.1 2164.9c0.9 0.9 3.6-0.9 6.2-4.4" class="a"/><path d="M163.5 2171.1c2.7-0.9 6.2-5.3 7.1-7.1" class="a"/><path d="M234.1 2175.4c-2.3-1.6-7.6 3.7-7.6 3.7" class="a"/><path d="M109.5 2347.4c-0.9 0.9 1.8 7.4 4.4 9" class="a"/><path d="M349 2129.3c22.6 22.8 0.3 34.7-33.1 46.7s-59.4 41.4-36.9 65.6c22.5 24.2 46.3 7.3 38.7-5.9s-57.2-13.7-65.7 40.3c-8.5 54 42.6 90.5 52.7 124 10.5 34.7-16.3 64.8-45.5 45.2" class="a"/><path d="M1065.6 1629.1c5.9-4.3 32.9 14.7 44.7 38s15.9 41.6 15.9 41.6c11.9 4.7 21.7 16.8 19 21.3 -2.6 4.5-18.6-11.3-18.6-11.3 3.5 6.3 7.6 23.6 3.1 24 -8.8 0.8-11.8-21.3-13.2-25.6C1070.7 1701.4 1053.8 1644.9 1065.6 1629.1z" class="a"/><path d="M1070.8 1675.6c4.6 4.2 29.5-7.7 30.1-21.8" class="a"/><line x1="1066.6" y1="1628.6" x2="1076.7" y2="1643.5" class="a"/><circle cx="1069.8" cy="1651.5" r="0.9" class="a"/><path d="M1082.3 1681.6c2.9 1.5 7.6-1.1 7.4-5.2" class="a"/><path d="M1096.8 1672.5c2.9 1.5 7.6-1.1 7.4-5.2" class="a"/><path d="M1094.6 1685.1c2.9 1.5 7.6-1.1 7.4-5.2" class="a"/><path d="M1094.3 1697.6c2.9 1.5 7.6-1.1 7.4-5.2" class="a"/><path d="M1106 1689c2.9 1.5 7.6-1.1 7.4-5.2" class="a"/><path d="M1107 1701.9c2.9 1.5 7.6-1.1 7.4-5.2" class="a"/><path d="M289.3 1655.2c0.3-9.6 11.6-16.5 17.4-11.9 8.3 6.6 0.1 36.7-5 44s-34.4-16.2-33.7-29.7C268.5 1648.6 285 1646.4 289.3 1655.2z" class="a"/><path d="M879.8 1451.3c-7.7-3.7-26.9-2.4-29.2 7.7s37.8 24.8 43.6 17.6C898.7 1471 892.9 1457.6 879.8 1451.3z" class="a"/><path d="M841.2 1452.5c-3-2.7-13.5-19.6 2.1-30 4.2-2.8 10.8-0.5 15.8 3.4 0.2-12.7 23.1-22.2 29.4 0.8 12.8-9.3 33.5 4.3 22.2 18.4 19.3-3.8 24.2 27.6-6.2 29.6 -2.7 10.7-5.6 20.2-9.3 26.4 -5.2 8.8-65.9-11.5-63.2-22.2C836.1 1462.3 839.3 1456.2 841.2 1452.5z" class="a"/><circle cx="305" cy="2106.3" r="51" class="a"/><path d="M261.1 2129.7c16.7 9.2 66.1-0.2 94.1-32.3" class="a"/><path d="M266 2139.1c17.7 9.3 59.6 6.8 90.1-31.3" class="a"/><path d="M286.4 2153.5c14 4 47.6-6.6 65.5-26.9" class="a"/><path d="M301.5 2129.2c10.4-9.2 18.1-65.1 3.5-73.9" class="a"/><path d="M315.4 2125c11.4-15.8 20.2-53.8 7.2-66.6" class="a"/><path d="M331.9 2116.8c8.7-10.8 14-36.2 9.2-46.6" class="a"/><path d="M267.6 2071.7c1.8 12.5 26 32.2 40.6 35.3" class="a"/><path d="M258.5 2086.3c0.9 8.2 27.5 31.7 47.7 31.3" class="a"/><line x1="297.3" y1="2073.3" x2="288.6" y2="1971.4" class="a"/><line x1="284.8" y1="2082" x2="218.3" y2="2009" class="a"/><line x1="282.8" y1="1971.3" x2="295" y2="1970.7" class="a"/><line x1="214.5" y1="2011.4" x2="221.4" y2="2003.9" class="a"/><path d="M19.1 739.9c4.1-13.1 22.3-18.4 28.6-9.8 9 12.3-13.9 50.7-23.7 58.9s-41.3-35.6-35.2-54C-7.1 722.7 16.6 726 19.1 739.9z" class="a"/><path d="M651.9 1275c-16.4 3.3-75.6 38.3-81.1 21.9 -5.5-16.4 29.6-31.8 39.4-38.3 -36.2-69-16.4-85.4-5.5-86.5 -4.4-18.6-1.1-46 9.9-62.4 11-16.4 62.4-61.3 86.5-73.4s60.3-17.5 62.4-14.2c0.6 0.9-7.7 12.1-12 15.3 1.1 2.2 30.7 35.1 34 41.6 0 0 14.2-6.6 17.5-2.2 3.3 4.4-23 60.3-51.5 77.8 0 0 2.2 26.3 1.1 35.1 6.6-1.1 19.7 0 21.9 10.9s-5.5 50.4-8.8 62.4c8.8 5.5 35 21.9 29.6 30.7 -5.5 8.8-37.4 0.7-68-22.6" class="a"/><path d="M697.3 1270c-4.8 0.4-9.8 0.9-14.7 1.3" class="a"/><path d="M678.2 1219.1c0 7.7 3.3 47.1 4.4 53.7 1.1 6.6-11 16.4-23 13.2 -11.7-3.2-4.4-15.3-5.5-21.9 -1.1-6.6-4.4-36.2-5.5-41.6" class="a"/><path d="M695 1217.6c0.9 7.6 2.5 47.2 2.2 53.8s12.9 15 24.4 10.2c11.2-4.6 2.5-15.8 2.8-22.4 0.3-6.7-0.1-36.4 0.3-42" class="a"/><circle cx="711.6" cy="1063" r="17" class="a"/><circle cx="753.2" cy="1106.8" r="17" class="a"/><polyline points="731.8 1082.2 730.7 1086.6 735.1 1085.5 " class="a"/><circle cx="753.7" cy="1106.3" r="1.1" class="a"/><circle cx="712.1" cy="1063.6" r="1.1" class="a"/><path d="M659.5 1273.9c-1.1 2.2-3.4 9.1-1.2 11.7" class="a"/><path d="M668.3 1276.1c-1.1 2.2-2.2 6.6 0 9.9" class="a"/><path d="M711 1272.8c2.2 3.3 1.1 7.7 0 8.8" class="a"/><path d="M720.9 1271.7c1.1 1.1 2.2 4.4 1.1 8.8" class="a"/><path d="M782.2 1288.1c2.2 1.1 2.2 6.6 1.1 7.7" class="a"/><path d="M788.8 1285.9c2.2 0 5.5 3.3 5.5 3.3" class="a"/><path d="M586.1 1290.3c-4.4 2.2-2.2 9.9-2.2 9.9" class="a"/><path d="M577.4 1288.1c-2.2 2.2-5.5 5.5-5.5 8.8" class="a"/><path d="M783.1 1273.9c19.9 7.7 29.8 14.2 26.5 27.4 -3.3 13.2-25.2 18.6-39.4 20.8 -14.2 2.2-9.9 23 7.7 21.9s52.6-18.6 54.8-40.5 -27.4-42.7-62.4-47.1" class="a"/><polyline points="740.6 1030.7 747.2 1029.6 743.9 1034 " class="a"/><polyline points="786.6 1086.6 793.2 1084.4 789.9 1089.9 " class="a"/><path d="M224.6 607.6c14.9 14.1 23.8 32.2 23.8 52 0 45-46.3 81.4-103.5 81.4S41.4 704.6 41.4 659.6c0-19.7 8.9-37.7 23.6-51.8" class="a"/><path d="M224.6 607.6c-14.8-19.2-2.2-28.3-6.7-29.5 -4.5-1.1-119.9 0-147.1 0 -3.4 0 6.8 18.1-7.9 31.7" class="a"/><path d="M204.3 640.4c-7.9-5.7-27.1-36.2-18.7-62.7 8.5-26.5 32.2-48.1 49.2-41.3 17 6.8-13.6 20.4-22.6 37.3 -9.1 17-0.9 36.8 2.3 40.7 4.5 5.7 32.8 33.9 18.1 67.9 -13.9 32-55.4 46.4-88.2 46.4 -22.6 0-65.6-10.2-82.6-41.8 -17-31.7-1.1-54.3 4.5-62.2s13.6-21.5 13.6-29.4 -2.3-27.2-1.1-30.5c0 0-14.7-14.7-15.8-18.1s21.5-2.3 21.5-2.3 33.9-19.2 75.8-11.3c12.4-5.7 21.5-7.9 23.8-6.8 0 3.4-7.9 20.4-7.9 20.4 3.4 2.3 14.7 15.8 12.4 24.9" class="a"/><path d="M84.8 566c-1.4 8 32 7.3 32.3-0.7C117.4 557.2 86.7 555 84.8 566z" class="a"/><polyline points="78.7 555.5 74.2 551 81 551 " class="a"/><polyline points="165.8 537.4 172.6 535.2 170.4 540.8 " class="a"/><path d="M143.1 563.2c-0.4 8.5 32.7 4.6 31.9-3.8C174.2 551.1 143.6 551.6 143.1 563.2z" class="a"/><line x1="157.9" y1="556.7" x2="160.2" y2="564.7" class="a"/><line x1="102.5" y1="560" x2="101.4" y2="570.2" class="a"/><polyline points="127.4 562.3 130.8 564.6 133 561.2 " class="a"/><path d="M91.2 621.1c6.8-10.2 24-16.8 32.8-11.3 9.1 5.7 25.1 39.7 9.1 48.6 -10.2 5.7-20.4-19.2-20.4-26" class="a"/><path d="M233.9 678.9c0.9-13.7-10.4-34-44.3-43.1 -7.9-3.4-15.8-17-23.8-22.6 -7.9-5.7-23.8-4.5-19.2 6.8s20.4 20.4 19.2 21.5c-15.8 7.9-28.3 29.4-5.7 48.6" class="a"/><path d="M127.4 658.5c3.4-2.3 1.1-7.9 1.1-7.9" class="a"/><path d="M135.3 647.2c1.1 2.3 1.6 8 1.6 8" class="a"/><path d="M152.6 610c-2.6 4.3 0.8 8.8 0.8 8.8" class="a"/><circle cx="313.9" cy="465" r="23.7" class="a"/><circle cx="385.8" cy="439.6" r="23.7" class="a"/><path d="M347.6 471.9c2.3 0.7 9.2-2.8 7-8.9 1.7 6.1 9.8 5.1 11.3 1.6" class="a"/><path d="M438.2 437.3c11.5 32.7-16.6 72.4-62.8 88.8 -46.3 16.3-93.1 3.1-104.7-29.6 -5.1-14.5-2.4-30.5 6.2-45.1 -3.6-11.6-3-32.7 0.4-36.6 3.1-3.6 12.1 3.6 18.8 14.2 10.3-8.8 22.9-16.1 37.4-21.3 14.3-5.1 28.7-7.3 42.1-7 -4-9.5-4.7-21.4 1.1-20.1 3.8 0.8 15.1 6.5 28.3 25.5C420.9 412 433 422.7 438.2 437.3z" class="a"/><line x1="382.6" y1="429.3" x2="387.9" y2="444.2" class="a"/><line x1="308.9" y1="455.3" x2="314.2" y2="470.2" class="a"/><path d="M153.9 1058.9c-3.2 34.6-8.3 56.8-10.9 62.1 -3 6 19 26 18 53 -0.9 23-13.5 51.1-12 60 1 6 8 12 4 19 -2.5 4.3-17 4-22-4 -3.4-5.4-1-30-4-38s-5-12-7-14" class="a"/><path d="M69 964c2-13 24-47 31-54 2-10 8-27 12-29 2.5-1.3 9 15 11 20 6 0 35 9 42 16 11-7 18-10 20-10 3 0-4 25-7 29s2.9 30.2 1 38c-6 24-14.2 26-20 47" class="a"/><path d="M37.3 1037.1c4.7-46 16.1-72.3 28.7-73.1 16-1 27 17 30 28s13 23 31 27 59 0 68 4 16 13 4 18 -76 17-95 14 -41-22-46-28" class="a"/><path d="M105 1137c9 9 24 41 13 62s-13 23-13 29c0 14 10 17 10 28 0 6-15 10-24 2 -11.6-10.3-16-62-20-73s-37-36-36-107c0.1-8.1 0.4-15.9 0.8-23.2" class="a"/><path d="M94.2 1052.2c-24.8 0.9-46.7 4.5-57.2 2.8 -12-2-27.9-18 27.1-22" class="a"/><path d="M177.4 1046.7c-0.5 5.4-2.1 9.7-5.4 11.3 -8.5 4.2-23.9-0.5-42.4-3.6" class="a"/><path d="M166 1006c3.3 2.9 5.4 8 7.7 15" class="a"/><path d="M53.9 1159.1C37 1179 28 1203 24 1224s-18 30-36 34c-18.2 4.1-23.7-17.3-5-21 30-6 13-47 60-101" class="a"/><polyline points="108 904 111 895 115 901 " class="a"/><polyline points="169 923 176 919 173 928 " class="a"/><line x1="109.5" y1="940.1" x2="107.2" y2="946.7" class="a"/><line x1="156.5" y1="955.1" x2="154.2" y2="961.7" class="a"/><polyline points="130 949 131 952 134 951 " class="a"/><line x1="131" y1="952" x2="123" y2="975" class="a"/><path d="M204.8 1031.4c-1.8-2.4-9.8-0.4-9.8-0.4" class="a"/><path d="M196.8 1023.9c-0.8-0.9-5.8 1.1-5.8 1.1" class="a"/><path d="M37 1047c-3 0-6 3-7 4" class="a"/><path d="M35 1042c-3 0-8 2-8 2" class="a"/><path d="M101 1254c3 2 2 7 2 7" class="a"/><path d="M108 1252c2 1 4 6 3 8" class="a"/><path d="M141 1246c1 1 2 6 0 8" class="a"/><path d="M149 1246c1 1 2 5 1 8" class="a"/><path d="M924 288c-2-11-12-35-23-43 -6-14-10-29-14-30s-13 19-14 21c-7-2-36-1-41 1 -6-8-13-19-16-20s-13 25-14 33c-10 11-20 43-22 50s-25 46-3 97c2 20 13 32 42 30s40.6-7 40-14c-1-12-26-15-49-13" class="a"/><path d="M901 395c-23 1-41 4-42 18s27 12 42 11 42.3-7.1 44-14c4-1 33.8 3.1 69-12 7-3 85 11 87-5s-64-34-70-51 -13-116-130-97" class="a"/><path d="M771.6 381.7c-13.6 2.3-43 23.2 6.7 22.8" class="a"/><path d="M1025.2 319c20.8 4 80.8-3 99.8-7s34-3.8 37 8c3 12-34.6 34.4-118.3 34.2" class="a"/><path d="M868 276c0 11 39 8 39-1C907 265 868 264 868 276z" class="a"/><path d="M799 277c0 11 39 8 39-1C838 266 799 265 799 277z" class="a"/><line x1="895.5" y1="268.3" x2="896" y2="281" class="a"/><line x1="828.2" y1="269.2" x2="828.2" y2="282.6" class="a"/><polyline points="881 238 886 230 889 240 " class="a"/><polyline points="822 240 818 232 815 243 " class="a"/><path d="M860.5 407.5C862 409 872 408 872 408" class="a"/><path d="M861 416c5 2 10 0 10 0" class="a"/><path d="M846 409c3 1 10 0 10 0" class="a"/><path d="M847 416c2 1 10 2 12 0" class="a"/><path d="M1091 388c1 1 7 3 9 3" class="a"/><path d="M1088 396c2 1 5 1 10 1" class="a"/><path d="M751 394.6c2 0.4 9-1.6 9-1.6" class="a"/><path d="M754 400c1 0 9-1 9-1" class="a"/><path d="M767 882c-20-6-34-33-21-70 -7-20-9.7-27.1-9-29 2-5 21 4 27 9 8-2 50-5 55-3 -1-13-3.4-17.8-3-20 1-5 21.9 4.7 31 32 3 9 4 37 14 54s10 29 8 43 -13 62-27 70 -61 13-76 12 -20-15-2-23 53-14 58-19" class="a"/><path d="M803 842c0 9 34 5 33-3C835.1 832 803 836 803 842z" class="a"/><line x1="826" y1="836" x2="828" y2="845" class="a"/><path d="M749 848c0 9 34 5 33-3C781.1 838 749 842 749 848z" class="a"/><line x1="772" y1="842" x2="774" y2="851" class="a"/><polyline points="788 843 791 845 794 842 " class="a"/><line x1="791" y1="845" x2="797" y2="859" class="a"/><path d="M741 836c-9-6-18-2-29 9 -10.5 10.5-23.5 36.7-14 44 13 10 31-20 45.2-33.3" class="a"/><path d="M709.9 847.2C682 847 638 857 609 889s-38 50-48 62 -22 30-18 36 13 8 24-2 27-31 32-34 59-14 65-31" class="a"/><path d="M753.7 973.9C743 979 702 988 657 983c-39.1-4.3-66-4-69-4" class="a"/><path d="M562 988.8c0.3 21.8 0 44 0 53.2 0 14 24 19 26 0s4-54-3.8-75.4" class="a"/><path d="M600.8 898.3c-21.4 5.3-39.4 23.3-39.9 52.7" class="a"/><path d="M545.4 973.9C533 972 526 965 529 958s15.3-7.9 31.1-6" class="a"/><path d="M543 985c2 1 5-2 5-2" class="a"/><path d="M549.9 991.7c3.1-0.7 5.1-5.7 5.1-5.7" class="a"/><path d="M529 960c2 2 5 4 5 4" class="a"/><path d="M532.7 954c2.3 3 5.3 4 5.3 4" class="a"/><path d="M766 972c-3 0-5 3-5 5" class="a"/><path d="M760 964c-2 1-7 3-7 7" class="a"/><path d="M709 881c-1 1-4 7-3 9" class="a"/><path d="M700 877c-1 2-3.3 8.8-2.7 11.4" class="a"/><path d="M826 782c0 0 4 5 5 9" class="a"/><path d="M749 794c1 0 6 3 7 5" class="a"/><path d="M913 484c10-4 32-5 36 2 3.3 5.8-1 19-26 21s-42-8-39-25 28-33 63-32" class="a"/><path d="M948 573c-10 8-19 34-11 45 9.3 12.8 45-1 43-12s-20-9-28-6" class="a"/><path d="M963.8 597.7C972 595 978 587 978 584" class="a"/><path d="M964 560c1 13 19 31 37 39 0 0-20 7-18 24s20 21 28 20" class="a"/><path d="M1020 630c7 4 39 11 56 1" class="a"/><path d="M1054 637c1 5-10 12-25 18s-33 19-44 18 -8-16 20-30" class="a"/><path d="M989 663c-4 2-4 7 0 9" class="a"/><path d="M938 487c2 1 9 1 10-1" class="a"/><path d="M937 497c2 1 8.8 1 10.4 0" class="a"/><path d="M966 605c2 1 8.4-1.9 10.7-4.5" class="a"/><path d="M970 612c2 0 7.3-1 9.7-3" class="a"/><path d="M884 479c-9 4-23 21-25 25 -5 4-25 24-22 30s20 1 20 1c1 6 12 33 22 40 -9 3-15 9-13 12 1.2 1.9 16 5 37 0 10 0 32-3.2 38.5-6.1" class="a"/><path d="M890 534c9-2-5-31-14-27S878.1 536.6 890 534z" class="a"/><path d="M902 530c2-5 9 6 2 8 7-3 12 8 6 7" class="a"/><line x1="884" y1="520" x2="888" y2="518" class="a"/><polyline points="853 521 848 527 855 526 " class="a"/><polyline points="883 580 878 583 887 583 " class="a"/><path d="M912 575c9-2-5-31-14-27S900.1 577.6 912 575z" class="a"/><line x1="906" y1="561" x2="910" y2="559" class="a"/><path d="M933.9 450.3C982 433 1022 428 1072 454s61 85 62 110 -1 64-27 104 -39.4 66-41 81c-2 19-30 19-30-2s5-45 40-90" class="a"/><path d="M1100 514c-19-10-53-5-56 20s28 57 35 65c0 10-11 65 6 67s24-46 22-65" class="a"/><path d="M1083 651c-4 2-4 10-4 10" class="a"/><path d="M1092 652c1 1 3 7 2 9" class="a"/><path d="M388.5 1040.5c-1.2 7.1-19 20.2-39.3 20.2" class="a"/><path d="M346.8 1058.4c2.4 5.9 17.9 33.3 7.1 39.3s-40.5-14.3-32.1-53.6 86.9-61.9 121.4-59.5 83.3 32.1 85.7 67.8 -13.1 53.6-6 83.3 8.3 52.4 1.2 70.2c-7.1 17.9-32.1 13.1-23.8-9.5 8.3-22.6 2.4-52.4-2.4-66.7s-2.4-25 1.2-32.1" class="a"/><path d="M434.9 1033.4c-17.9 2.4-48.8 51.2-38.1 88.1 -7.1 4.8-50 10.7-47.6 26.2 1.7 11.2 40.5 4.8 60.7 0s28.6-4.8 34.5-13.1c6-8.3 11.9-14.3 20.2-15.5 8.3-1.2 21.8-3.6 31.7-14.3" class="a"/><path d="M356.4 1096.5c8.3 8.3 27.1 17.2 39.2 19.3" class="a"/><path d="M478.1 1116.2c-0.3 6.5-5.1 17.2-33.6 18.4" class="a"/><path d="M384.9 1113.2c-17.1 1-47.7 13.3-27.4 22.7" class="a"/><path d="M320.6 1069.1c-10.7-2.4-29.8 9.5-17.9 25s52.4 22.4 42.9 4" class="a"/><path d="M421.6 985.6c0.2-4.6-5.8-16.5-7-18.9s2.4-14.3 0-21.4c-2.4-7.1-19 8.3-21.4 10.7 -6-2.4-46.4 6-51.2 8.3 -6-3.6-20.2-6-25-6s4.8 21.4 7.1 26.2c-4.8 8.3-11 29.6-1.9 57.6" class="a"/><polyline points="331.4 976.3 329 970.3 336.1 971.5 " class="a"/><polyline points="368.3 987 371.8 989.3 374.2 985.8 " class="a"/><line x1="384.9" y1="982.2" x2="406.4" y2="978.6" class="a"/><line x1="359.9" y1="987" x2="336.1" y2="991.7" class="a"/><path d="M350.4 1088.2c1.2 2.4 3.4 4 7 4.4" class="a"/><path d="M343.3 1091.7c0 0 4.3 6.7 7.5 6.9" class="a"/><path d="M339.7 1101.2c2.4 2.4 3.6 2.4 6 2.4" class="a"/><path d="M361.1 1144.1c-1.2 0-8.3 3.6-7.1 5.9" class="a"/><path d="M352.8 1131c1.2-3.6 7.1-4.8 7.1-4.8" class="a"/><polyline points="401 960 406 955 406 962 " class="a"/><path d="M278.9 291.8c3.3-9.8 37-30.5 46.8-41.4s1.1-23.9-13.1-16.3 -28.3 8.7-46.8 18.5 -23.9 25-39.2 46.8c-18.5 12-30.5 27.2-32.7 39.2 -4.4 3.3-19.6 18.5-18.5 21.8 0.8 2.3 14.2 4.4 26.1 0 3.3 6.5 27.2 33.8 37 39.2 -2.2 4.4-3.3 21.8 0 21.8s16.3-6.5 26.1-17.4c16.3-3.3 41.5-32.7 50.1-39.2 13.1-9.8 38.1-19.6 51.2-43.5s17.4-54.4 7.6-61c-9.8-6.5-14.2 14.2-19.6 24 -5.4 9.8-18.5 28.3-31.6 33.8" class="a"/><path d="M291.1 241.7c-26.9-10.7-66.3-14.5-123.2 0.1" class="a"/><path d="M344.3 298.8c0-5.6-6.3-24.9-26.2-41.4" class="a"/><path d="M214.7 377.1c-23.9 0.8-68.6 0.8-145.9-71.1 -6.5 4.4-17.4-2.2-31.6-24s-19.6-42.5-9.8-44.6c9.8-2.2 32.7 37 34.8 39.2 2.2-17.4 34.8-63.1 82.7-23.9" class="a"/><path d="M224.5 231.9c-5.4-14.2-16.3-39.2-66.4-14.2 -6.5 3.3-4.4-5.4 0-15.2s12-26.1 4.4-30.5 -28.3 16.3-41.4 65.3" class="a"/><path d="M109.1 340.8c-17.6 8.3-45.7 33.8-53.3 53.4 -10.6 27.3 1.1 43.5-16.3 46.8S5.6 372.4 89.5 326.7" class="a"/><polyline points="194 348.4 189.6 353.9 197.3 352.8 " class="a"/><polyline points="245.2 402.9 244.1 410.5 250.6 405.1 " class="a"/><path d="M259.3 359.3c-5.4 4.4 17.4 28.3 24 21.8C289.8 374.6 268.4 352.1 259.3 359.3z" class="a"/><line x1="268" y1="373.5" x2="276.8" y2="364.7" class="a"/><path d="M222.3 325.6c-5.4 4.4 17.4 28.3 23.9 21.8C252.8 340.8 231.4 318.3 222.3 325.6z" class="a"/><line x1="231" y1="339.7" x2="239.8" y2="331" class="a"/><polyline points="252.8 350.6 256.1 350.6 256.1 353.9 " class="a"/><line x1="267" y1="340.8" x2="256.1" y2="350.6" class="a"/><path d="M22.4 245.7c3.9 0.4 7.1 2.6 8.2 4.8" class="a"/><path d="M155.2 173.1c2.8 1.1 3.9 7.6 2.8 9.8" class="a"/><path d="M360 84c3-16 12-47 17-50s12 14 12 14c4-2 41-3 52-1 4-10 6-16 8-16s10 11 15 26 38 66 7 92" class="a"/><path d="M476 149c-7 0-38 1-39 14s29 11 39 7 17.3-21 2.1-29" class="a"/><path d="M416.3 45.9C366 3 290-7 259 71s5 119 116 103c23 13 64 1 62-11 -1.7-10.1-27-10-36-10" class="a"/><path d="M383 84c0 0 15-4 25 0" class="a"/><path d="M435 82c0 0 12-5 22-1" class="a"/><polyline points="418 82 422 85 425 81 " class="a"/><path d="M424 108c0 0 1-17-2-24" class="a"/><path d="M427 161c1 0 7.1 0.8 7.5-2.1" class="a"/><path d="M427 168c2 1 6 0 8-1" class="a"/><path d="M438.2 159.4C438 159 442 162 447 160" class="a"/><path d="M438 166c1 1 7 2 9 1" class="a"/><path d="M623.8 264.2c0 0-15.8-1-23.2 5.3 -14.8-23.2-55.9-79.1-70.7-75.9s-2.1 19 6.3 41.1c8.4 22.1 10.5 64.3 14.8 84.4 4.2 20 32.7 54.8 72.8 61.2s107.6-13.7 114.9-52.7 -19-84.4-33.7-96 -9.5-21.1-14.8-38 -11.6-21.1-11.6-28.5 -3.2-19-7.4-21.1c-4.2-2.1-13.7 14.8-13.7 14.8s-56.9 2.1-70.7 30.6 6.3 53.8 22.1 63.3" class="a"/><path d="M605.1 171.8c0 0-11.9-13-15.1-11.9 -3.2 1.1-2.3 18.3-1.2 26" class="a"/><path d="M640.7 243.1c-12.7 1.1-37.4 8.1-40.9 25.1" class="a"/><path d="M631.2 197.8c1.3 5.1 35.8 1.1 34.8-5.3C664.9 186.2 629 189.4 631.2 197.8z" class="a"/><path d="M616.4 199.9c1.5 5.2-26.4 11.6-28.5 4.2C585.8 196.7 614.3 192.5 616.4 199.9z" class="a"/><path d="M547.5 295.9c-15.5-11.6-32.4-9.5-35.5-2.1 -3.2 7.4 29.9 19.1 42.4 34.9" class="a"/><path d="M569.9 350.8c-43.2-2.2-91.7 10.5-108.5 25.3s-2.3 29 16.9 20c33.7-15.8 71.7-24.5 123.9-22.3" class="a"/><line x1="655.4" y1="190.4" x2="656.5" y2="196.7" class="a"/><line x1="605.8" y1="196.7" x2="607.8" y2="205.7" class="a"/><path d="M524.7 202c1 0 6.3 4.2 6.3 4.2" class="a"/><path d="M528.9 194.6c2.1 1.1 6.3 5.3 6.3 5.3" class="a"/><path d="M513.1 295.9c2.1-2.1 9.5-2.1 10.5-1" class="a"/><path d="M621.9 560.6c-18.3 0-42.3-25.2-39.7-46.2 2.2-17.4 19.3-30.8 31.2-40 8.3-6.5 34.4-21.5 61.2-4.1 9.7-7.2 19.3-13.3 21.5-13.3 4.3 0 2.2 22.6 0 28.7 6.5 6.2 16.1 21.5 22.6 36.9 6.5 15.4 23.6 22.6 33.3 44.1s29 131.3-49.4 143.6" class="a"/><path d="M615 473.2c-0.6-1.8-13.5-14.1-15.7-14.1s-2.2 20.5 0 25.6" class="a"/><path d="M637 507.3c0 6.2 35.5 6.2 35.5-1C672.4 499.1 637 497 637 507.3z" class="a"/><path d="M618.7 506.3c0 4.1-26.8 6.2-27.9-1C589.7 498 618.7 498 618.7 506.3z" class="a"/><path d="M618.7 514.5c0 2 8.6 3.1 8.6-3.1 1.1 4.1 4.3 7.2 7.5 3.1" class="a"/><line x1="663.8" y1="505.2" x2="663.8" y2="511" class="a"/><line x1="610.1" y1="505.2" x2="610.1" y2="509.6" class="a"/><path d="M668.1 535c-12.9 6.2-40.8 6.2-67.7 64.6 -26.8 58.5-29 120 63.4 113.9 14 4.1 20.4 13.3 66.6 17.4s103.1 2 117.1-6.2 5.4-17.4-10.7-18.5 -53.7 7.2-96.7 4.1c-14-1-20.7-4.7-20.7-4.7" class="a"/><path d="M688.5 583.2c4.3-7.2 32.5-15.3 40.8-3.1 14 20.5-20.6 66.2-39.7 68.7 -23.6 3.1-50.5-42.1-45.1-62.6C648.2 572.2 677.8 565.8 688.5 583.2z" class="a"/><path d="M979 40c-38 14-31 62-16 84 -52-9-63.3 10.3-61 18 3 10 33.8 2.8 59 10 28 8 39 7 51 9s25-6 23-2c-12 14-36.1 27-76 22 -32-4-50-19-57-6 -8 15 16.2 35.5 76 31 67-5 91-38 106-67s39-104-27-148S902-25 878-6c-10.7 8.5-30.3 6.7-42 21 -14.5 17.8-20.8 51-23 55 -6 11-9 30-7 32s14 0 20-3c2-1 24 16 51 22 5 6 17 14 20 13 1-0.3-2-13 0-16s6-14 6-14" class="a"/><path d="M908 47c-1 9-14 31-11 45s15 20 34 18 23-13 15-19 -29-4-29-4" class="a"/><path d="M899.8 112.2C903 118 935 125 955 112" class="a"/><path d="M939 97c2 1 8 1 9-1" class="a"/><path d="M938 104c1 1 4 1 6 1" class="a"/><path d="M913 138c-3 1-6.1 4.8-3.5 8.9" class="a"/><polyline points="861 89 864 88 864 91 " class="a"/><path d="M870 95c1 2 14 7 19 7" class="a"/><path d="M833 81c1 2 15 8 21 7" class="a"/><line x1="817" y1="85" x2="815" y2="93" class="a"/><line x1="888" y1="118" x2="891" y2="124" class="a"/><path d="M1039 1266.7c5.2 12.6 14.7 28.8 3.2 34.9s-43.7-28.2-35.9-52c7.9-23.8 38.2-21 49.3-10.5 7.7 7.3 17.8 30.5 24.6 50 12.4 14.9 32.2 34.2 37.1 88 4.9 53.8 3.7 96.1 15.1 132.2 7 10.4 13.9 20.8 2.6 28.9s-34-9.9-58.8-83c-3.6 15.4-24.8 69.5-41 68 -16.2-1.5-1-33.1-1-33.1" class="a"/><path d="M1039.6 1482.5c-5.3 7.5-22.8 25.2-39.8 14.7s-9.1-44.4-0.7-63.2c-6.8-19.5-9.3-36.3-10.8-52.2" class="a"/><path d="M991.4 1372.4c-1.4 7.2-10.6 17.1-16.4 18.6 -12.8 3.2-22.3-13-40.8-7.3 -5.8 1.8-35.4 19.3-43.2 11 -7.8-8.3 15.8-25.5 29.1-33.8s31-12.9 32.8-15 0.5-16.1 7.2-20.7" class="a"/><path d="M1027.3 1231.7c-13.3-7.9-41.6-21.4-77.6 2s-40.4 101.9 6.1 97.8" class="a"/><path d="M937.3 1263.9c0.5 5 11.8-3.1 8-11.8 6.4 4.4 20.3-8.9 12.2-9.2" class="a"/><path d="M977.7 1221.8c3.1-10.1 10.7-14.8 11.7-14.9 1-0.1 7.6 6.3 11.2 13" class="a"/><path d="M922.9 1279.3c0 2-14.1 12.3-15.7 16.4s15.8 8.6 15.8 8.6" class="a"/><path d="M1036.8 1286.9c0.4 5 7.7 10 10.3 8.9" class="a"/><path d="M1030.2 1290.6c0.2 2 2.5 8.3 4.9 10.9" class="a"/><path d="M900.2 1384.8c-2.9 1.3-6.3 9.2-3 12.1" class="a"/><path d="M1041.9 1508.4c-2.7 3.3-3.3 11.2-1.9 13.7" class="a"/><path d="M1032.8 1507.2c-2.8 2.3-4.5 6.8-4.7 9.2" class="a"/><path d="M1123.7 1524.1c3.3 2.7 3.6 11 0.6 14.6" class="a"/><path d="M1133.5 1521.2c2.1 0.8 5.7 7.5 5.3 13.6" class="a"/><path d="M1010.5 1500.6c-19.7 18.5-52.4 45.6-90.8 54.1 -19.9 4.4-23.4-13.9-4.1-22.7 19.3-8.8 57.6-27 74.5-52.3" class="a"/><path d="M1036 862.7c41.3 21.8 58 47.4 63 67.3 6 24 1 86-23 117 0 7 2 22-3 35s-11 27-3 31 35 8 34 19 -58 0-62-7 -8-50-11-52 -38-8-45-27c-18 15-59 22-78 23s-50-2-72-18c-20.6-15-0.1-27.5 12-19 27 19 85 22 126 5" class="a"/><path d="M924.9 898c-0.1-12.6 3.1-23.8 4.1-29 1.9-9.7 16-40.9 73.1-21.2" class="a"/><path d="M957.7 945.6c-7.2-2.6-14-6.7-19.7-12.6 -3.6-3.7-6.3-7.8-8.2-11.9" class="a"/><path d="M1008 945c-5.3 2.6-15.4 4.9-26.8 4.7" class="a"/><path d="M931.3 1066.9c-15.9 15.4-36.8 28.9-33.3 34.1 6 9 30.8-3.2 42-8 14-6 26-17 35-20s26.8-5.8 30.9-8.9" class="a"/><path d="M990.3 949.3C999 956 1003 980 995 994c-7.1 12.3-31.3 31.7-45.8 50.5" class="a"/><path d="M1008 903c-5-4-4-28-4-41s-9.7-41.1-8-51c2-12 20-24 31-21s-2.2 16.8-5 21c-6 9 17 50 17 66" class="a"/><path d="M966.8 841.4C959 839 935 828 927 820s-17-14-24-9 3.8 31.7 31.9 45.3" class="a"/><path d="M957.9 945.7C957 952 959 970 962 971s18.7-19.5 19.8-21.3" class="a"/><path d="M924.9 898c-9.9 4-17.9 20-18.9 22s20.6 2.1 23.8 1.1" class="a"/><path d="M964 910c2 6 11 11 21 13" class="a"/><path d="M931 886c0 3 9 11 15 12" class="a"/><path d="M952 895c1-5 8 0 6 6 4-4 8-4 10 0" class="a"/><path d="M965 958c0 0 6-7 7-9" class="a"/><path d="M917 915c0 0 8 0 11-1" class="a"/><path d="M1030.9 792.8c-2.9-0.8-7.9 4.2-7.9 5.2" class="a"/><path d="M1023 790c-3 1-6 4-6 5" class="a"/><path d="M907 810c0 2 3 5 3 5" class="a"/><path d="M901.2 813.8C901 817 906 821 906 821" class="a"/><path d="M1093 1129c1 1 4 3 3 7" class="a"/><path d="M911 1091c-1.6 1.6-3 5-2 6s7 1 9-1 -2-4-3-4C915 1091 913 1089 911 1091z" class="a"/><path d="M372.1 636c-10.2 8.2-37.8 3.1-49.1-21.5 -8.6-18.7-16.4-22.5-23.5-21.5s-22.5-3.1-10.2-16.4 29.6-8.2 38.9 0c8.7 7.7 12.3 25.6 26.6 27.6s31.7-17.4 36.8-20.4c5.1-3.1 17.4-44 53.2-53.2 26.6-18.4 30.7-19.4 32.7-17.4 2 2-1 16.4-4.1 19.4 4.1 0 25.6 10.2 30.7 15.3 5.1-7.2 12.3-17.4 15.3-16.4 3.1 1 4.1 26.6 0 33.7 2 8.2 7.2 25.6-20.4 66.5" class="a"/><path d="M479.4 667.7c-6.1 14.3-17.4 24.5-30.7 18.4s18.4-64.4 41.9-56.2 19.4 52.1-12.3 72.6c-5.1 19.4-9.2 36.8-25.6 60.3 6.1 15.3 9 29.4 7.2 44 -2 16.4-2 33.7 3.1 36.8 5.1 3.1 39.9 6.1 39.9 17.4 0 7.2-52.1 4.1-61.3 0s-31.7-61.3-45-65.4c-22.5 3.1-48.8-5.7-55.2-2 -4 2.3-12 6.1-22.5 27.6 -5.6 11.5-13.3 17.4-19.4 19.4s-62.9 10.1-65.4-1c-3.1-13.3 40.9-16.4 42.9-26.6 1.2-5.8 3.1-45 18.4-68.5s47.7-37 56.2-53.2c11.2-21.5 13.8-51.6 13.8-51.6" class="a"/><path d="M254.5 824.1c-19.2 1.7-35.8 1.7-46 2 -33.7 1-29.6-21.5-8.2-24.5 25.5-3.6 77.7-6.1 77.7-6.1" class="a"/><path d="M372.6 795.4c-8.6 8-27.6 14.1-50 18.7" class="a"/><path d="M486.6 562.4c-2 6.1 22.5 19.4 27.6 11.2C519.2 565.7 490.6 550.3 486.6 562.4z" class="a"/><path d="M475.4 553.2c-3.1 7.2-37.8-4.1-32.7-13.3C447.8 530.7 479.2 544.3 475.4 553.2z" class="a"/><path d="M464.1 562.4c-1 4.1 8.2 6.1 11.2 2 -1 4.1 2 9.2 6.1 8.2" class="a"/><line x1="499.9" y1="572.6" x2="503" y2="567.5" class="a"/><line x1="452.9" y1="550.1" x2="455.9" y2="544" class="a"/><path d="M295.4 584.9c-2 0-3.1 6.1-1 7.2" class="a"/><path d="M462.1 676.9c-1 1-3.1 8.2-2 10.2" class="a"/><path d="M452.9 674.9c-1 1-4.1 7.2-3.1 11.2" class="a"/><path d="M492.7 857.8c2 0 4.1 2 4.1 5.1" class="a"/><path d="M250.4 834.3c-2 0-7.6 3.8-6.9 9.6" class="a"/><path d="M716 2267.5c-1 4.5-15.7 7.8-35 7.8s-35-3.5-35-7.8" class="a"/><line x1="621" y1="2213" x2="646.3" y2="2268.5" class="a"/><line x1="742" y1="2213" x2="716" y2="2268" class="a"/><path d="M709.5 2261c0 3.1-12.9 5.7-28.8 5.7s-28.8-2.6-28.8-5.7" class="a"/><line x1="641" y1="2237" x2="652" y2="2261" class="a"/><line x1="720" y1="2237" x2="709.3" y2="2261.7" class="a"/><path d="M829 1822c0 16 8 61 9 66s58 2 63 2 47-25 49-27 -5-66-6-68 -33-24-37-27l-2-14 -58 14 2 14C849 1782 829 1818 829 1822z" class="a"/><path d="M901 1887c0 0-7-71-8-73s-44-32-44-32l58-14" class="a"/><line x1="893" y1="1814" x2="944.3" y2="1796.6" class="a"/><path d="M840 1860c0 0-3-18-2-18s8 8 9 8 5-9 5-10 4 17 4 18" class="a"/><line x1="861" y1="1841" x2="864" y2="1857" class="a"/><polyline points="869 1838 872 1857 880 1856 " class="a"/><line x1="881" y1="1837" x2="885" y2="1856" class="a"/><polyline points="890 1840 884 1848 893 1855 " class="a"/><path d="M574.9 748.5c2.3 4.7 25.9 7.8 28.3 3.1 2.3-4.7 11-21.2 10.2-22.8 -0.8-1.6-14.1 3.1-14.1 3.1 -0.8-3.9-4.7-18-6.3-18s-10.2 17.3-10.2 17.3c-1.6-1.6-11-7.8-11.8-7.8C570.2 723.4 572.3 743.5 574.9 748.5z" class="a"/><path d="M910 657c0 5-23.3 11-52 11s-52-6-52-11" class="a"/><line x1="901" y1="631" x2="910" y2="657" class="a"/><line x1="815" y1="631" x2="806.1" y2="656.4" class="a"/><path d="M806.8 654.4c-7.2 2.4-9.2 6.7-7.8 10.4 2 5.2 26.4 11 59 11s56.7-7 58-11.8c1-3.8 0-8-6-10" class="a"/><path d="M130.4 1300.3c1.3 9.9 1.6 12.6 2.1 15.9 0.9 6.6-29.3 15.9-67.4 20.8s-69.6 3.6-70.5-3c-0.4-3.3-1-7.9-2.2-16.9" class="a"/><path d="M19 1321.4c11.6-3.2 26.5-6.1 42.9-8.2 16.4-2.1 34.5-3.1 46.5-3" class="a"/><line x1="64.5" y1="1337" x2="65.8" y2="1346.9" class="a"/><path d="M65.9 1347.9c6.4-4.9 14.6-3.9 15.6 4s-8.9 17.3-12.8 17.8c-4.1 0.5-16-7-16.9-13.9C50.9 1348.9 59.3 1343.8 65.9 1347.9z" class="a"/><path d="M532.5 834.1c0-15.1 5.8-47.6 9.3-54.5 0-19.7 0-23.2 3.5-25.5s17.4 12.8 19.7 16.3c3.5-1.2 39.5-3.5 53.4 0 5.8-7 13.9-15.1 17.4-13.9s1.2 24.4 1.2 26.7 7 32.5 5.8 51.1" class="a"/><path d="M641.5 811.1c15.1 3.2 24.5 7.6 24.5 12.6 0 9.6-35.6 17.4-79.5 17.4s-79.5-7.8-79.5-17.4c0-5.2 10.3-9.8 26.8-13" class="a"/><line x1="625.4" y1="805.9" x2="625.4" y2="816.7" class="a"/><line x1="569.5" y1="805.8" x2="569.4" y2="816.6" class="a"/><polyline points="587.1 808.6 589.4 810.9 591.7 808.6 " class="a"/><line x1="589.4" y1="812.1" x2="589.4" y2="829.5" class="a"/><path d="M770.7 1367.9l-175.3-36c4.6 4.4 1.6 28.6-1.8 54.2 -3.4 25.6-7.9 36 27.5 58s-9 56-1 98" class="a"/><path d="M850.6 1386.2L850.6 1386.2c0.5-2.4-1-4.8-3.4-5.4l-73.3-16c-2.4-0.5-4.8 1-5.4 3.4l0 0c-0.5 2.4 1 4.8 3.4 5.4l73.3 16C847.7 1390.2 850.1 1388.6 850.6 1386.2z" class="a"/><circle cx="630.7" cy="1557.8" r="17.5" class="a"/><path d="M638.4 1573.5c-0.2 10.3 5.4 20.9 19.2 34s14.4 20.7 14.9 26c0.6 5.3 8.4-5.6 2.7-18.4 -10.6-23.9-3.1-35.7-31.5-44.4" class="a"/><path d="M114 90l-95-9c0 12 3 62 4 65s82 16 92 14 85-41 87-43 -2-60-2-62 -41-10-46-11S78 74 73 77 111 88 114 90l84-34" class="a"/><line x1="116" y1="157" x2="114" y2="92" class="a"/><path d="M19 81c0 0 74-29 79-31s40.6-1.2 40.6-1.2" class="a"/><path d="M39 102c10 0 44.9 3.5 52 4 15 1 15 26-1 25s-48-3.9-53-5C28 124 24 102 39 102z" class="a"/><line x1="79" y1="82" x2="70" y2="85" class="a"/><line x1="82" y1="118" x2="82" y2="123" class="a"/><line x1="49" y1="116" x2="49" y2="121" class="a"/><path d="M476.7 1805c9.6 9 15.3 20.3 15.3 32.5 0 29.5-33.4 53.5-74.5 53.5s-74.5-23.9-74.5-53.5c0-12.6 6.1-24.2 16.2-33.3" class="a"/><path d="M359.2 1786.9c1 4.8 4.9 11.4-0.9 18.1" class="a"/><path d="M476.2 1787c-1 4.8-4.9 11.4 0.9 18.1" class="a"/><path d="M469.2 1812.4c8.3 7.1 13.2 16.1 13.2 25.7 0 23.4-28.9 42.4-64.5 42.4s-64.5-19-64.5-42.4c0-10 5.3-19.2 14-26.4" class="a"/><path d="M447.1 1837.5c0-1.9-13.4-10.5-27.7-10.5 -14.3 0-18.1 9.6-18.1 9.6 -3.8-6.7-22.9-15.3-4.8 2.9 -5.7 6.7-8.6 20.1 5.7 5.7 2.9 5.7 11.5 5.7 15.3 5.7C429.9 1850.9 447.1 1842.3 447.1 1837.5z" class="a"/><path d="M431.1 1828.7c-6 3-4 16.8 1.7 19" class="a"/><line x1="436.6" y1="1835.6" x2="436.6" y2="1838.5" class="a"/><path d="M328.3 884.2c3-5 18-17 28-3 7.9 11.1-19 44-22 44s-29-19-31-32S318.3 872.2 328.3 884.2z" class="a"/><path d="M341.3 875.2c5-1 18.7-4 23.7-3.9 3.8 0.1 7.7 1.9 11.1 6.6 7.9 11.1-19.3 42.8-22 44 -0.8 0.3-10.8 3.3-19.8 3.3" class="a"/><path d="M314.3 878.2c5-2 17.4-2.9 23-2" class="a"/><path d="M139.5 460.6c-1.9-10.3 2.8-17.8 6.6-18.8 3.8-0.9 11.3-0.9 16 9.4 4.7 2.8 21.6 2.8 23.5 13.2 1.9 10.3-9.4 19.7-24.4 17.8 -6.6 7.5-16.9 13.1-26.3 7.5C125.4 484.1 132 467.2 139.5 460.6z" class="a"/><path d="M117 423c-6.6 5.6 5.6 24.4 15 20.7S128.1 413.5 117 423z" class="a"/><path d="M153.6 433.4c7.5 0 11.3-25.3-0.9-25.4C142.4 408 143.1 433.4 153.6 433.4z" class="a"/><path d="M123.5 462.5c-1 5-22.5 3.7-22.5-6.6S125.4 453.1 123.5 462.5z" class="a"/><path d="M170.5 444.7c4.7 2.8 19.7-12.2 9.4-17.8C172.1 422.6 161.3 439.1 170.5 444.7z" class="a"/><path d="M1086.8 836.2c4.5-8.8 12.3-11.7 15.7-10.3 3.3 1.5 9 5.8 6.6 16.2 1.9 4.8 14.5 14.5 10 23.3s-18.3 9.4-28.5-0.7c-9.2 1.8-20.2 0.1-23.9-9.5C1062.9 845.7 1077.5 836.8 1086.8 836.2z" class="a"/><path d="M1091.5 795.3c-8.1 0.4-9.8 21.5-0.6 24C1100.1 821.9 1105.3 794.5 1091.5 795.3z" class="a"/><path d="M1113 824c5.6 4.3 23-12.5 13.8-19.5C1119.1 798.6 1105.1 818 1113 824z" class="a"/><path d="M1073.8 828.5c-3.6 3.1-19-10.1-13.1-17.8C1066.7 803 1080.6 822.6 1073.8 828.5z" class="a"/><path d="M1119.2 842.1c1.9 4.8 21.7 2.2 17.2-8C1133 826.4 1115.4 832.7 1119.2 842.1z" class="a"/><path d="M636.3 439.6c3 6 33 10 36 4s14-27 13-29 -18 4-18 4c-1-5-6-23-8-23s-13 22-13 22c-2-2-14-10-15-10S633 433.2 636.3 439.6z" class="a"/><path d="M455.3 1405.6c3 6 33 10 36 4s14-27 13-29 -18 4-18 4c-1-5-6-23-8-23s-13 22-13 22c-2-2-14-10-15-10S452.1 1399.2 455.3 1405.6z" class="a"/><path d="M425.4 926.8c0 2.4 2 3.3 4.5 3.2 4.2-0.2 9.8-1.9 9.8 0.9 0 0.3-1.5 2.1-3.2 3.8 -1.1 1.1-2.2 2.2-4.5 4.5 -2 2-3.8 4-4 6.1 -0.4 3.2 1.5 5.5 5.4 5.8 4.2 0.4 10.6 0.9 14.3 0.4 3-0.4 4.5-2.2 4.5-4.4 0-2.1-2.2-2.7-4.9-2.9 -4.2-0.3-7.5 0.5-7.5-1.7 0-1.9 4.4-5 7.9-9 1.7-1.9 2-4.2 1.8-6.2 -0.2-2.6-2.6-5.2-6-5.1 -3.7 0.1-9.3 0.1-13 0.3C427.4 922.8 425.4 924.6 425.4 926.8z" class="a"/><path d="M460.1 913.8c0 2.5 2.2 3.6 4.9 3.5 4.5-0.2 10.6-2.1 10.6 1 0 0.3-1.7 2.3-3.4 4 -1.2 1.2-2.4 2.4-4.8 4.8 -2.2 2.2-4.1 4.3-4.4 6.6 -0.4 3.5 1.6 5.9 5.8 6.3 4.6 0.4 11.5 1 15.5 0.4 3.3-0.5 4.8-2.4 4.9-4.8 0-2.3-2.4-2.9-5.3-3.1 -4.5-0.3-8.1 0.5-8.1-1.8 0-2.1 4.8-5.4 8.5-9.7 1.8-2 2.1-4.5 2-6.7 -0.2-2.8-2.8-5.6-6.5-5.5 -3.9 0.1-10 0.1-14 0.4C462.3 909.5 460.1 911.5 460.1 913.8z" class="a"/><path d="M493.8 903.1c0 2.8 2.4 4 5.4 3.8 5-0.2 11.7-2.3 11.7 1 0 0.4-1.8 2.5-3.8 4.5 -1.3 1.3-2.7 2.7-5.4 5.4 -2.4 2.4-4.5 4.8-4.8 7.3 -0.5 3.9 1.7 6.5 6.5 7 5.1 0.5 12.7 1.1 17.1 0.5 3.6-0.5 5.4-2.7 5.4-5.3 0-2.5-2.6-3.2-5.8-3.4 -5-0.3-9 0.6-9-2 0-2.3 5.2-6 9.4-10.7 2-2.3 2.3-5 2.2-7.4 -0.2-3.1-3.1-6.2-7.2-6.1 -4.4 0.1-11.1 0.1-15.5 0.4C496.3 898.3 493.8 900.5 493.8 903.1z" class="a"/><path d="M103.2 2024.7c0 2.1 1.8 3 4.1 2.9 3.8-0.2 8.8-1.7 8.8 0.8 0 0.3-1.4 1.9-2.8 3.3 -1 1-2 2-4 4 -1.8 1.8-3.4 3.6-3.6 5.5 -0.3 2.9 1.3 4.9 4.8 5.2 3.8 0.3 9.5 0.8 12.8 0.3 2.7-0.4 4-2 4-3.9 0-1.9-2-2.4-4.3-2.6 -3.7-0.2-6.7 0.4-6.7-1.5 0-1.7 3.9-4.5 7-8 1.5-1.7 1.8-3.7 1.6-5.6 -0.2-2.3-2.3-4.6-5.4-4.5 -3.3 0.1-8.3 0.1-11.6 0.3C105 2021.1 103.2 2022.8 103.2 2024.7z" class="a"/><path d="M134.1 2013.1c0 2.3 1.9 3.2 4.4 3.1 4.1-0.2 9.4-1.9 9.4 0.8 0 0.3-1.5 2.1-3 3.6 -1.1 1.1-2.2 2.2-4.3 4.3 -1.9 1.9-3.6 3.9-3.9 5.9 -0.4 3.1 1.4 5.3 5.2 5.6 4.1 0.4 10.2 0.9 13.8 0.4 2.9-0.4 4.3-2.2 4.3-4.2 0-2-2.1-2.6-4.7-2.8 -4-0.2-7.2 0.5-7.2-1.6 0-1.8 4.2-4.8 7.6-8.6 1.6-1.8 1.9-4 1.8-6 -0.2-2.5-2.5-5-5.8-4.9 -3.5 0.1-8.9 0.1-12.5 0.3C136.1 2009.2 134.1 2011 134.1 2013.1z" class="a"/><path d="M164.2 2003.6c0 2.5 2.1 3.6 4.8 3.4 4.5-0.2 10.5-2.1 10.5 0.9 0 0.3-1.6 2.3-3.4 4 -1.2 1.2-2.4 2.4-4.8 4.8 -2.1 2.1-4 4.3-4.3 6.5 -0.4 3.4 1.5 5.8 5.8 6.2 4.5 0.4 11.3 1 15.3 0.4 3.2-0.5 4.8-2.4 4.8-4.7 0-2.2-2.3-2.9-5.2-3.1 -4.4-0.3-8 0.5-8-1.8 0-2 4.7-5.3 8.4-9.6 1.8-2 2.1-4.5 1.9-6.6 -0.2-2.7-2.7-5.5-6.4-5.4 -3.9 0.1-9.9 0.1-13.8 0.3C166.4 1999.3 164.2 2001.3 164.2 2003.6z" class="a"/><path d="M847.1 1001.1c1.4 0.3 68 0 72-2s0-25-17-27 -20 9-20 9 2-15-11-14 -7 16-5 18C862.1 986.1 843.1 1000.1 847.1 1001.1z" class="a"/><path d="M919.1 999.1c9 0 14 6 9 14s0 16 7 19" class="a"/><path d="M479.9 434.9c1 1 58.5 34.7 63 35s12.8-21.5-0.8-31.9 -21.8-2.5-21.8-2.5 9.4-11.9-2.3-17.6 -14.2 10.2-13.5 12.9C500.4 429.7 476.9 432 479.9 434.9z" class="a"/><path d="M542.8 469.9c7.7 4.6 9 12.3 0.6 16.6s-8.2 13.8-3.7 19.9" class="a"/><path d="M857.7 1192.8c5-15.9 27.1-22.4 34.8-11.9 10.9 14.9-16.9 61.6-28.8 71.6s-50.2-43.2-42.8-65.6C825.9 1171.9 854.7 1175.9 857.7 1192.8z" class="a"/><path d="M939.1 1156.1c3.5-11.1 18.8-15.6 24.2-8.3 7.6 10.4-11.7 42.8-20 49.7 -8.3 6.9-34.9-30-29.7-45.6C917 1141.6 937 1144.4 939.1 1156.1z" class="a"/><path d="M994.9 1127.1c2.3-7.3 12.4-10.3 15.9-5.5 5 6.8-7.7 28.2-13.2 32.8 -5.5 4.6-23-19.8-19.6-30.1C980.3 1117.5 993.5 1119.3 994.9 1127.1z" class="a"/><path d="M0 1804.6c4.4-5.8 10.4-6.9 12.6-5.4s5.7 5.3 2.7 12.5c0.8 3.7 8.6 12.3 4.3 18s-14.4 4.4-20.4-4.1c-6.9 0.2-14.6-2.4-16.1-9.8C-18.5 1808.4-6.8 1803.9 0 1804.6z" class="a"/><path d="M8.5 1775.7c-5.9-0.7-9.7 14.3-3.5 17.3S18.6 1776.8 8.5 1775.7z" class="a"/><path d="M20.4 1799c3.5 3.8 18.1-6.1 12.4-12.3C28 1781.5 15.5 1793.7 20.4 1799z" class="a"/><path d="M-8.4 1797.4c-3 1.8-12.4-9.7-7.2-14.5C-10.4 1778.1-2.8 1793.9-8.4 1797.4z" class="a"/><path d="M22.5 1812.8c0.8 3.7 15.4 4.3 13.4-3.6C34.5 1803.3 21.1 1805.6 22.5 1812.8z" class="a"/><path d="M456.5 245.6c0.3-6.9 4.4-11.1 7-11.1s7.4 1 8.9 8.4c2.6 2.5 13.5 4.9 13.2 11.9s-8.9 11.3-18.3 7.9c-5.3 3.9-12.8 6-18 1S450.7 248.7 456.5 245.6z" class="a"/><path d="M447.4 218.1c-5 2.7 0.1 16.5 6.7 15.5C460.7 232.5 456 213.6 447.4 218.1z" class="a"/><path d="M469.5 230.1c4.8 1.1 11-14.7 3.1-16.5C466 212.1 462.8 228.6 469.5 230.1z" class="a"/><path d="M445.9 244.5c-1.4 3.1-15.1-0.9-13.6-7.5C433.9 230.3 448.5 238.7 445.9 244.5z" class="a"/><path d="M478.8 239.8c2.6 2.5 14.5-5 8.6-10.1C483 225.8 473.7 234.9 478.8 239.8z" class="a"/><circle cx="772.7" cy="497" r="40.8" class="a"/><path d="M737.5 515.8c13.3 7.3 52.9-0.2 75.3-25.8" class="a"/><path d="M741.4 523.3c14.2 7.4 47.7 5.5 72.1-25" class="a"/><path d="M757.7 534.9c11.2 3.2 38.1-5.3 52.4-21.5" class="a"/><path d="M769.8 515.3c8.3-7.4 14.5-52.1 2.8-59.1" class="a"/><path d="M781 512c9.1-12.7 16.2-43.1 5.8-53.3" class="a"/><path d="M794.1 505.5c7-8.7 11.2-29 7.4-37.3" class="a"/><path d="M742.7 469.4c1.4 10 20.8 25.8 32.5 28.3" class="a"/><path d="M735.4 481c0.7 6.6 22 25.4 38.2 25.1" class="a"/><path d="M799 528.1C773 546 767 616 821 611c27.8-2.6 63.3-11.4 92 5 21 12 57.1 51.9 25 83 -30 29-25-46 28-14s12 80-32 83" class="a"/><path d="M877.1 769.3l-6.2-5 -6.3 5.5c-1.9 1.1-4.2-0.5-3.9-2.6l2.4-8.5 -6.7-3.2c-1.6-1.5-0.9-4.1 1.3-4.5l7.6-0.1 2.2-7.6c0.9-2 3.7-2.1 4.7-0.2l3.2 7.2 7.1-0.3c2.2 0.2 3.1 2.8 1.6 4.4l-6 4.3 2.6 7.8C881.3 768.6 879.1 770.3 877.1 769.3z" class="a"/><path d="M1044.7 2262l-8.6-7.1 -8.8 7.7c-2.6 1.5-5.9-0.6-5.5-3.7l3.3-11.9 -9.3-4.5c-2.3-2-1.2-5.8 1.8-6.3l10.7-0.2 3-10.6c1.2-2.8 5.1-2.9 6.6-0.3l4.5 10.1 10-0.4c3 0.3 4.4 4 2.3 6.2l-8.3 6 3.6 10.9C1050.5 2260.9 1047.4 2263.3 1044.7 2262z" class="a"/><path d="M705.9 1979.1c-0.7-11 11.6-20.3 18.8-15.6 10.3 6.7 4 42.2-1.1 51.2s-41.3-15-41.9-30.7C681.3 1973.6 700.1 1969.3 705.9 1979.1z" class="a"/><path d="M638.8 1040.5c0 0 5.5 13.1 10.5 12.3 5.1-0.8 4.5-14.9 4.5-14.9s13.1-1.5 13-5.1c0-3.6-8.3-8.8-11.3-10.1 0 0 3.7-12.4 0-15.2s-12.7 8.9-12.7 8.9 -13.2-5.9-15.8-3.1c-2.6 2.7 4.6 13.9 4.6 13.9s-10.5 10.2-8.5 14C625.3 1044.8 634 1042.3 638.8 1040.5z" class="a"/><path d="M114.5 836.1c0 0 12.3 7.1 15.8 3.4 3.6-3.7-5.5-14.6-5.5-14.6s9.5-9.1 7.3-12c-2.2-2.8-12-2-15.1-1.2 0 0-4.6-12.1-9.2-12 -4.6 0.1-4.7 14.8-4.7 14.8s-14.1 3.3-14.4 7.1c-0.4 3.7 12.1 8.3 12.1 8.3s-2.1 14.5 1.7 16.2C106.4 847.7 111.8 840.4 114.5 836.1z" class="a"/><circle cx="1030.5" cy="233.5" r="9.5" class="a"/><path d="M626.3 2411.9c1.1 0.9 60.4 31.3 64.9 31.3s11.5-22.2-2.7-31.8 -21.9-1.2-21.9-1.2 8.7-12.4-3.3-17.5 -13.6 11-12.7 13.7C646.5 2405.5 623.2 2409.2 626.3 2411.9z" class="a"/><path d="M691.1 2443.3c8 4.1 9.7 11.8 1.6 16.6s-7.3 14.2-2.5 20.1" class="a"/><circle cx="289" cy="671" r="8" class="a"/><circle cx="227.7" cy="896.5" r="7.6" class="a"/><circle cx="265.5" cy="1395.5" r="9.5" class="a"/><circle cx="873" cy="1337" r="10" class="a"/><circle cx="62.5" cy="2435.5" r="7.5" class="a"/><path d="M1104 243.5c0 0 5.5 13.1 10.5 12.3 5.1-0.8 4.5-14.9 4.5-14.9s13.1-1.5 13-5.1c0-3.6-8.3-8.8-11.3-10.1 0 0 3.7-12.4 0-15.1 -3.7-2.7-12.7 8.9-12.7 8.9s-13.2-5.9-15.8-3.1c-2.6 2.7 4.6 13.9 4.6 13.9s-10.5 10.2-8.5 14C1090.5 247.8 1099.3 245.3 1104 243.5z" class="a"/><path d="M674.4 46.5c19.8 12.8 83.8 63.5 80.6 71.3 -4.5 11.1-101.7 5.4-113 3.8" class="a"/><path d="M751.2 110.4c17.3-3.9 46.1-1.2 47.8 4.5 1.7 5.7-13.9 12.3-24 10.1 14.5 5.9 19.9 15.1 17.5 18.1 -4.1 5.3-30.1-7.4-44.1-21.5" class="a"/><path d="M629.2 31c9.4 3.8 10.2 24 1.7 44.9 -8.5 21-23.1 34.9-32.5 31.1" class="a"/><path d="M629.2 31c-27.3-6.1-82.5 7.3-89.1 13.6s32.4 54.9 58.2 62.4" class="a"/><path d="M540.8 51.8c3.7 6.5 27.5 14.1 27.5 14.1" class="a"/><circle cx="598.8" cy="57.9" r="2.3" class="a"/><path d="M1013 1600c0-2-14-11-29-11s-19 10-19 10c-4-7-24-16-5 3 -6 7-9 21 6 6 3 6 12 6 16 6C995 1614 1013 1605 1013 1600z" class="a"/><path d="M996.3 1590.8c-6.3 3.2-4.2 17.6 1.8 19.9" class="a"/><line x1="1002" y1="1598" x2="1002" y2="1601" class="a"/><path d="M206 2388c0-2-14-11-29-11s-19 10-19 10c-4-7-24-16-5 3 -6 7-9 21 6 6 3 6 12 6 16 6C188 2402 206 2393 206 2388z" class="a"/><path d="M189.3 2378.8c-6.3 3.2-4.2 17.6 1.8 19.9" class="a"/><line x1="195" y1="2386" x2="195" y2="2389" class="a"/><path d="M979.4 2476.1c-38 14-31 62-16 84 -52-9-63.3 10.3-61 18 3 10 33.8 2.8 59 10 28 8 39 7 51 9 12 2 25-6 23-2 -12 14-36.1 27-76 22 -32-4-50-19-57-6 -8 15 16.2 35.5 76 31 67-5 91-38 106-67s39-104-27-148 -155-16-179 3c-10.7 8.5-30.3 6.7-42 21 -14.5 17.8-20.8 51-23 55 -6 11-9 30-7 32s14 0 20-3c2-1 24 16 51 22 5 6 17 14 20 13 1-0.3-2-13 0-16s6-14 6-14" class="a"/><path d="M908.4 2483.1c-1 9-14 31-11 45s15 20 34 18 23-13 15-19 -29-4-29-4" class="a"/><path d="M900.2 2548.3c3.2 5.8 35.2 12.8 55.2-0.2" class="a"/><path d="M939.4 2533.1c2 1 8 1 9-1" class="a"/><path d="M938.4 2540.1c1 1 4 1 6 1" class="a"/><path d="M913.4 2574.1c-3 1-6.1 4.8-3.5 8.9" class="a"/><polyline points="861.4 2525.1 864.4 2524.1 864.4 2527.1 " class="a"/><path d="M870.4 2531.1c1 2 14 7 19 7" class="a"/><path d="M833.4 2517.1c1 2 15 8 21 7" class="a"/><line x1="817.4" y1="2521.1" x2="815.4" y2="2529.1" class="a"/><line x1="888.4" y1="2554.1" x2="891.4" y2="2560.1" class="a"/><path d="M349-307.2c22.6 22.8 0.3 34.7-33.1 46.7 -33.4 12-59.4 41.4-36.9 65.6 22.5 24.2 46.3 7.3 38.7-5.9s-57.2-13.7-65.7 40.3 42.6 90.5 52.7 124c10.5 34.7-16.3 64.8-45.5 45.2" class="a"/><path d="M626.3-24.6c1.1 0.9 60.4 31.3 64.9 31.3 4.5 0.1 11.5-22.2-2.7-31.8s-21.9-1.2-21.9-1.2 8.7-12.4-3.3-17.5 -13.6 11-12.7 13.7C646.5-31 623.2-27.3 626.3-24.6z" class="a"/><path d="M691.2 6.8c8 4.1 9.7 11.8 1.6 16.6s-7.3 14.2-2.5 20.1" class="a"/><circle cx="62.5" cy="-1" r="7.5" class="a"/><circle cx="227" cy="1121.2" r="51" class="a"/><path d="M183.1 1144.5c16.7 9.2 66.1-0.2 94.1-32.3" class="a"/><path d="M187.9 1153.9c17.7 9.3 59.6 6.8 90.1-31.3" class="a"/><path d="M208.4 1168.4c14 4 47.6-6.6 65.5-26.9" class="a"/><path d="M223.4 1144c10.4-9.2 18.1-65.1 3.5-73.9" class="a"/><path d="M237.4 1139.9c11.4-15.8 20.2-53.8 7.2-66.6" class="a"/><path d="M253.9 1131.7c8.7-10.8 14-36.2 9.2-46.6" class="a"/><path d="M189.6 1086.6c1.8 12.5 26 32.2 40.6 35.3" class="a"/><path d="M180.5 1101.2c0.9 8.2 27.5 31.7 47.7 31.3" class="a"/><path d="M200 1165c23 13-9 51-23 102s-6 101 73 153 108-17 76-23 -77 44-62 87 64 75 21 118" class="a"/><path d="M531.1 1273.4c-2 0.4-7.6 16.1-4.2 30.7 3.4 14.6 14 16.3 14 16.3 -5.9 5.5-10.2 27 4 4.2 8.2 4.3 22.5 4.1 4.5-7.2 5.2-4.3 3.2-13 2.3-16.9C548.8 1287.8 536 1272.2 531.1 1273.4z" class="a"/><path d="M525.9 1291.8c4.5 5.4 18.1 0.2 19-6.2" class="a"/><line x1="531.6" y1="1284.5" x2="534.5" y2="1283.9" class="a"/><path d="M215.3 178.3l-8.6-7.1 -8.8 7.7c-2.6 1.5-5.9-0.6-5.5-3.7l3.3-11.9 -9.3-4.5c-2.3-2-1.2-5.8 1.8-6.3l10.7-0.2 3-10.6c1.2-2.8 5.1-2.9 6.6-0.3l4.5 10.1 10-0.4c3 0.3 4.4 4 2.3 6.2l-8.3 6 3.6 10.9C221.1 177.2 218.1 179.6 215.3 178.3z" class="a"/><circle cx="765" cy="1770" r="10" class="a"/><circle cx="399" cy="345" r="10" class="a"/><path d="M362.1 1709.4c1.3 0.4 66 2.7 70 0.9 4-1.8 1-24.3-15.5-26.9s-19.8 8-19.8 8 2.5-14.5-10.1-14 -7.4 15.3-5.5 17.3C377.3 1695.4 358.3 1708.3 362.1 1709.4z" class="a"/><path d="M432.1 1710.3c8.7 0.3 13.4 6.4 8.2 13.9s-0.6 15.5 6 18.7" class="a"/><path d="M595.4 1642.6l-7.8-1.6 -3 7.8c-1.2 1.8-3.9 1.5-4.7-0.5l-1.8-8.7 -7.4 0.3c-2.1-0.6-2.7-3.3-1-4.6l6.7-3.7 -1.6-7.7c-0.1-2.2 2.3-3.6 4.1-2.3l6.2 4.9 6.2-3.5c2-0.8 4.1 1.1 3.5 3.2l-3.3 6.5 5.8 5.7C598.7 1640 597.6 1642.5 595.4 1642.6z" class="a"/><circle cx="752.5" cy="202.3" r="7.9" class="a"/><circle cx="116" cy="1719" r="9" class="a"/><path d="M-12.7 2337.3c-7.7-3.7-26.9-2.4-29.2 7.7 -2.3 10.1 37.8 24.8 43.6 17.6C6.2 2357.1 0.4 2343.7-12.7 2337.3z" class="a"/><path d="M-51.3 2338.6c-3-2.7-13.5-19.6 2.1-30 4.2-2.8 10.8-0.5 15.8 3.4 0.2-12.6 23.1-22.2 29.4 0.8 12.8-9.3 33.5 4.3 22.1 18.4 19.4-3.8 24.2 27.6-6.2 29.6 -2.7 10.7-5.6 20.1-9.3 26.4 -5.2 8.8-65.9-11.5-63.2-22.2C-56.4 2348.4-53.3 2342.3-51.3 2338.6z" class="a"/><path d="M1112.1 2337.4c-7.7-3.7-26.9-2.4-29.2 7.7 -2.3 10.1 37.8 24.8 43.6 17.6C1131 2357.1 1125.2 2343.7 1112.1 2337.4z" class="a"/><path d="M1073.5 2338.6c-3-2.7-13.5-19.6 2.1-30 4.2-2.8 10.8-0.5 15.8 3.4 0.2-12.6 23.1-22.2 29.4 0.8 12.8-9.3 33.4 4.3 22.2 18.4 19.3-3.8 24.2 27.6-6.2 29.6 -2.7 10.7-5.6 20.1-9.3 26.4 -5.2 8.8-65.9-11.5-63.2-22.2C1068.4 2348.4 1071.6 2342.3 1073.5 2338.6z" class="a"/><path d="M545.6 649.1c0 0 8.8 4.9 11.2 2.2 2.5-2.6-4-10.3-4-10.3s6.6-6.5 5-8.5 -8.5-1.3-10.7-0.7c0 0-3.4-8.5-6.6-8.4 -3.2 0.1-3.2 10.5-3.2 10.5s-9.9 2.5-10.1 5.1c-0.2 2.6 8.6 5.7 8.6 5.7s-1.3 10.3 1.4 11.5C540 657.4 543.8 652.2 545.6 649.1z" class="a"/><path d="M1245 1430.8c-11 2.4-25.7 8.6-36.4 27.1 -16.2 27.8 5.9 57.8 44.6 58.1 30 0.2 54.6-17.9 56.5-39.9C1311.6 1454.1 1288.9 1421.1 1245 1430.8z" class="a"/><polyline points="1251.5 1454.8 1254.2 1456.2 1257.3 1454.7 " class="a"/><circle cx="1283.2" cy="1467.3" r="15.8" class="a"/><circle cx="1229.3" cy="1465.9" r="15.8" class="a"/><path d="M1254.1 1457.1c0 0-2.3 17.1 0.1 21.3" class="a"/><circle cx="1228.6" cy="1466.7" r="0.4" class="a"/><circle cx="1282.9" cy="1467.3" r="0.4" class="a"/><path d="M1203.5 1525.9c8.3 6.2 103.1 2.9 109-5 5.9-7.9 7.2-76.1 4.9-88.3 -0.6-3 9.7-7.4 8.1-17.3 -1.6-9.9-33.7-25.4-73.8-21.9 -40.5 3.5-62.7 22.8-63.8 30.9 -1.1 8.6 6.9 13.5 7.6 15.5S1195.6 1520 1203.5 1525.9z" class="a"/><path d="M1195.8 1532.6c10.2 14.5 120.6 6.4 125.8-5.1 7-15.3 6.7-76.1 5.9-91.7 -0.2-3.6 11.4-9.9 7.1-24.2 -4-13.4-37.4-33-85.1-28.9 -48.3 4.1-70.9 27.6-72.6 37.2 -2.9 15.6 10 23.9 10.1 26.5C1187.1 1452.2 1185.5 1517.9 1195.8 1532.6z" class="a"/><path d="M1224.9 1539.7c-6 23.1-3.2 84.2-3.7 94 -0.6 11.5-9.5 21-7.4 27.1 2.4 6.9 16.4 8 23.1 1.1 6.7-6.8 12.2-26.4 11.5-43" class="a"/><path d="M1271.4 1618.3c0.1 9.6 0.2 17 0 19.8 -0.6 11.5-9.3 21-7.3 27.1 2.3 6.9 15.7 7.9 22.2 1s13.9-33.9 13.3-50.5" class="a"/><path d="M1327.7 1480.8c25.6 18 29.4 73.6 31.3 89.9s8.6 50.8-2.9 64.2c-11.3 13.1-20.1 16.3-28.8 24.9s-17.3 26.8-25.9 24.9c-8.6-1.9-6.7-14.4 6.7-32.6 -3.8-20.1 1-67.1 32.6-65.2" class="a"/><path d="M1293.2 1652.7c6.3-0.7 11.4-1.6 14.7-2.5" class="a"/><path d="M1243 1651.2c7.3 1.6 14.9 2 22.9 2.3" class="a"/><path d="M1220.9 1591.8c-11.5 7.7-9.4 39-12.5 45.1 -2.9 5.8-26.8 24-19.2 31.6 6.1 6.1 17.3-1 24-7.7" class="a"/><path d="M1210.6 1623.4c-24.1 3.8-70.2 2.9-81.7 7.7s-9.6 21.1 1 23c10.6 1.9 48.4-1.9 68.1-5.8" class="a"/><path d="M1276.6 1660.8c-2.9 1.9-3.8 8.5-1 10" class="a"/><path d="M1268.9 1658.9c-1.9 1-4.3 5.5-3.6 8.5" class="a"/><path d="M1226.7 1656c-1.9 1-2.9 6.7 0 9.6" class="a"/><path d="M1220 1655c-2.9 1.9-3.8 4.8-2.9 8.6" class="a"/><path d="M1302.4 1675.2c-1.9 1.9-2.9 8.6 0 9.6" class="a"/><path d="M1196 1661.7c-3.8 1.9-6.2 6.4-4.1 8.5" class="a"/><path d="M1291.1 1833.3c8.6-10.3 29.4-15.4 37.9-9.5 8.6 6 3.4 45.7-13.8 49.1 -17.2 3.4-11.2-22.4-8.6-28.4" class="a"/><path d="M1314.4 1809.2c-9.5-6.9-23.3-2.6-32.8 12.1 -9.5 14.7-15.5 35.3-3.4 44.8s25.3-5.6 25.3-5.6" class="a"/><path d="M1401.4 1869.5c-7.8 12.9-31.9 22.4-38.8 9.5s24.1-38.8 38.8-34.5 14.7 21.6 10.3 31" class="a"/><path d="M1300.6 1805.7c-6-8.6-5.2-27.6 21.6-55.2 1.7-14.7 0-25 1.7-27.6s16.4 11.2 19.8 15.5c6.9-3.4 42.2-9.5 52.6-5.2 0 0-2.6-17.2 0-18.1s21.6 12.1 24.1 31c11.2 11.2 19 35.3 14.7 59.5 -4.3 24.1-9.5 37.1-9.5 37.1 1.7 8.6 7.8 36.2-17.2 56.9 -25 20.7-32.8-4.9-30.2-14.5" class="a"/><path d="M1281.6 1821.2c-19.8 0-63.8 11.2-70.7 51.7s12.1 70.7 31.9 78.4" class="a"/><path d="M1320.4 1926.4c-5.2-11.2-30.2-19-55.2 5.2 -0.9-12.1-6.9-41.4-21.6-34.5 -12.6 5.9-1.7 19.8-0.9 37.1 0.9 17.2-0.9 27.6 7.8 31.9s11.3-0.2 20.7 2.6c14.7 4.3 75.6 16.6 116.7-61.1" class="a"/><path d="M1249.7 1827.9c-4.3-10.2-16.4-13.4-25-12.7 -11.2 0.9-25.8 16.4-27.6 35.3 -9.5-7.8-28.4-18.1-34.5-9.5 -5.6 8 16.4 20.7 25.8 33.6 6.7 9.1 16.4 15.5 21 10.5" class="a"/><path d="M1215.9 1922.2c-17.9 5-48-4.4-71.3-14.8 -23.4-10.4-40.5-14.7-45.7-5.2s6.3 30.3 47.4 42.2c38.8 11.2 75.7 5 87.4 1.7" class="a"/><path d="M1316.1 1778.2c-0.3 6.1 7.3 10.7 20.2 11.2 12.9 0.6 20.9-4.3 20.2-9.5s-8.1-11.6-21-13C1322.6 1765.5 1316.3 1772.1 1316.1 1778.2z" class="a"/><line x1="1335.3" y1="1772.9" x2="1334.9" y2="1780.7" class="a"/><path d="M1419.5 1773.7c0.6 6.1-6.8 11-19.6 12.2s-21.1-3.2-20.7-8.4c0.4-5.2 7.5-12 20.3-14C1412.3 1761.3 1418.9 1767.6 1419.5 1773.7z" class="a"/><line x1="1400.1" y1="1769.4" x2="1400.8" y2="1777.2" class="a"/><path d="M1360 1788.5c0 4.3 9.5 3.4 9.5-2.6 1.7 6 8.6 6 9.5 2.6" class="a"/><path d="M1304.3 1867.4c3.1 3 10-3.1 10-7.4" class="a"/><path d="M1315.2 1872.9c4.3-1.7 5.2-6.9 6-10.3" class="a"/><path d="M1373.8 1884.2c-1.7-1.7 1.7-9.5 5.2-10.3" class="a"/><path d="M1363.5 1879c0-2.6 3.4-7.8 7.8-8.6" class="a"/><path d="M1252.2 1897.3c-4.2 0.7-4.2 5.9-3.3 9.3" class="a"/><path d="M1242 1897.9c-2.6 3.4-0.9 7.8 0 10.3" class="a"/><path d="M1171.3 1842.8c-2.6-1.7-8.6 0.4-8.6 4.5" class="a"/><polyline points="1335 1741.9 1329.9 1735.9 1329.9 1744.5 " class="a"/><polyline points="1403.1 1735.9 1403.1 1728.2 1409.2 1739.4 " class="a"/><path d="M1142.8 738.7c4.1-13.1 22.3-18.4 28.6-9.8 9 12.3-13.9 50.7-23.7 58.9s-41.3-35.6-35.2-54C1116.6 721.5 1140.3 724.8 1142.8 738.7z" class="a"/><path d="M1277.6 1057.7c-3.2 34.6-8.3 56.8-10.9 62.1 -3 6 19 26 18 53 -0.8 23-13.5 51.1-12 60 1 6 8 12 4 19 -2.5 4.3-17 4-22-4 -3.4-5.4-1-30-4-38s-5-12-7-14" class="a"/><path d="M1192.7 962.8c2-13 24-47 31-54 2-10 8-27 12-29 2.5-1.3 9 15 11 20 6 0 35 9 42 16 11-7 18-10 20-10 3 0-4 25-7 29s2.9 30.2 1 38c-6 24-14.2 26-20 47" class="a"/><path d="M1160.9 1035.9c4.7-46 16.1-72.3 28.7-73.1 16-1 27 17 30 28s13 23 31 27 59 0 68 4 16 13 4 18 -76 17-95 14 -41-22-46-28" class="a"/><path d="M1228.7 1135.8c9 9 24 41 13 62s-13 23-13 29c0 14 10 17 10 28 0 6-15 10-24 2 -11.6-10.3-16-62-20-73s-37-36-36-107c0.1-8.1 0.4-15.9 0.8-23.2" class="a"/><path d="M1217.9 1051c-24.8 0.9-46.7 4.5-57.2 2.8 -12-2-27.8-18 27.1-22" class="a"/><path d="M1301.1 1045.4c-0.5 5.4-2.2 9.7-5.4 11.3 -8.5 4.2-23.9-0.5-42.4-3.6" class="a"/><path d="M1289.7 1004.8c3.3 2.9 5.4 8 7.7 15" class="a"/><path d="M1177.6 1157.9c-16.9 19.9-25.9 43.9-29.9 64.9s-18 30-36 34c-18.2 4.1-23.7-17.3-5-21 30-6 13-47 60-101" class="a"/><polyline points="1231.7 902.8 1234.7 893.8 1238.7 899.8 " class="a"/><polyline points="1292.7 921.8 1299.7 917.8 1296.7 926.8 " class="a"/><line x1="1233.2" y1="938.9" x2="1230.9" y2="945.5" class="a"/><line x1="1280.2" y1="953.9" x2="1277.9" y2="960.5" class="a"/><polyline points="1253.7 947.8 1254.7 950.8 1257.7 949.8 " class="a"/><line x1="1254.7" y1="950.8" x2="1246.7" y2="973.8" class="a"/><path d="M1328.4 1030.2c-1.8-2.4-9.8-0.4-9.8-0.4" class="a"/><path d="M1320.5 1022.7c-0.8-0.9-5.8 1.1-5.8 1.1" class="a"/><path d="M1160.7 1045.8c-3 0-6 3-7 4" class="a"/><path d="M1158.7 1040.8c-3 0-8 2-8 2" class="a"/><path d="M1224.7 1252.8c3 2 2 7 2 7" class="a"/><path d="M1231.7 1250.8c2 1 4 6 3 8" class="a"/><path d="M1264.7 1244.8c1 1 2 6 0 8" class="a"/><path d="M1272.7 1244.8c1 1 2 5 1 8" class="a"/><path d="M1254.1 1299.1c1.3 9.9 1.6 12.6 2.1 15.9 0.8 6.6-29.3 15.9-67.4 20.8 -38.1 4.9-69.6 3.6-70.5-3 -0.4-3.3-1-7.9-2.2-16.9" class="a"/><path d="M1142.7 1320.2c11.6-3.2 26.5-6.1 42.9-8.2 16.4-2.1 34.5-3.1 46.5-3" class="a"/><line x1="1188.2" y1="1335.8" x2="1189.5" y2="1345.8" class="a"/><path d="M1189.6 1346.7c6.4-4.9 14.6-3.9 15.6 4s-8.9 17.3-12.8 17.8c-4.1 0.5-16-7-16.9-13.9S1183 1342.6 1189.6 1346.7z" class="a"/><path d="M1123.7 1803.4c4.4-5.8 10.4-6.9 12.6-5.4s5.7 5.3 2.7 12.5c0.8 3.7 8.7 12.3 4.3 18s-14.4 4.4-20.4-4.1c-6.9 0.2-14.6-2.4-16.1-9.8S1116.8 1802.7 1123.7 1803.4z" class="a"/><path d="M1132.2 1774.4c-5.9-0.7-9.7 14.3-3.5 17.3S1142.3 1775.6 1132.2 1774.4z" class="a"/><path d="M1144.1 1797.8c3.5 3.8 18.1-6.1 12.4-12.3C1151.7 1780.3 1139.2 1792.5 1144.1 1797.8z" class="a"/><path d="M1115.3 1796.2c-3 1.8-12.4-9.7-7.2-14.5C1113.3 1776.9 1120.9 1792.8 1115.3 1796.2z" class="a"/><path d="M1146.2 1811.7c0.8 3.7 15.4 4.3 13.4-3.6C1158.2 1802.1 1144.8 1804.4 1146.2 1811.7z" class="a"/><path d="M-128.6 2194.4c-13 0-22.6-13.9 15-39 12-8 36.5-1.1 41 17 4 16-3 22-12 22S-118.6 2194.4-128.6 2194.4z" class="a"/><path d="M-83.6 2156.4c2-5 10-10 16-7s4.6 14.8-7.2 17.4" class="a"/><path d="M-114.6 2156.1c-2.9-6.7-8.9-10.7-14.9-7.7 -6 3-2.2 11.5 5.4 14.7" class="a"/><path d="M-111.7 2154.3c13.1-8.9 40.1-27.9 63.1-18.9s21 35 17 44 -23 14-52 15" class="a"/><path d="M-29.1 2170.1c5.5 5.3 8.5-0.7 20.5 4.3s13 19 23 22" class="a"/><circle cx="-91.6" cy="2174.4" r="1" class="a"/><circle cx="-124.6" cy="2171.4" r="1" class="a"/><path d="M-59 1628.5c5.9-4.3 32.9 14.7 44.7 38s15.9 41.6 15.9 41.6c11.9 4.7 21.7 16.8 19 21.3 -2.6 4.5-18.6-11.3-18.6-11.3 3.5 6.3 7.6 23.6 3.1 24 -8.8 0.8-11.8-21.3-13.2-25.6C-53.9 1700.8-70.8 1644.3-59 1628.5z" class="a"/><path d="M-53.8 1675c4.6 4.2 29.5-7.7 30.1-21.8" class="a"/><line x1="-57.9" y1="1628.1" x2="-47.9" y2="1642.9" class="a"/><circle cx="-54.8" cy="1650.9" r="0.9" class="a"/><path d="M-42.2 1681c2.9 1.5 7.6-1.1 7.4-5.2" class="a"/><path d="M-27.7 1671.9c2.9 1.5 7.6-1.1 7.4-5.2" class="a"/><path d="M-30 1684.5c2.9 1.5 7.6-1.1 7.4-5.2" class="a"/><path d="M-30.3 1697c2.9 1.5 7.6-1.1 7.4-5.2" class="a"/><path d="M-18.5 1688.4c2.9 1.5 7.6-1.1 7.4-5.2" class="a"/><path d="M-17.6 1701.3c2.9 1.5 7.6-1.1 7.4-5.2" class="a"/><path d="M-200.6 287.4c-2-11-12-35-23-43 -6-14-10-29-14-30s-13 19-14 21c-7-2-36-1-41 1 -6-8-13-19-16-20s-13 25-14 33c-10 11-20 43-22 50s-25 46-3 97c2 20 13 32 42 30s40.6-7 40-14c-1-12-26-15-49-13" class="a"/><path d="M-223.6 394.4c-23 1-41 4-42 18s27 12 42 11 42.3-7.1 44-14c4-1 33.8 3.1 69-12 7-3 85 11 87-5s-64-34-70-51 -13-116-130-97" class="a"/><path d="M-353 381.1c-13.6 2.3-43 23.2 6.7 22.8" class="a"/><path d="M-99.4 318.4c20.8 4 80.8-3 99.8-7s34-3.8 37 8c3 12-34.6 34.4-118.3 34.2" class="a"/><path d="M-256.6 275.4c0 11 39 8 39-1C-217.6 264.4-256.6 263.4-256.6 275.4z" class="a"/><path d="M-325.6 276.4c0 11 39 8 39-1C-286.6 265.4-325.6 264.4-325.6 276.4z" class="a"/><line x1="-229.1" y1="267.7" x2="-228.6" y2="280.4" class="a"/><line x1="-296.4" y1="268.6" x2="-296.4" y2="282" class="a"/><polyline points="-243.6 237.4 -238.6 229.4 -235.6 239.4 " class="a"/><polyline points="-302.6 239.4 -306.6 231.4 -309.6 242.4 " class="a"/><path d="M-264 406.9c1.5 1.5 11.5 0.5 11.5 0.5" class="a"/><path d="M-263.6 415.4c5 2 10 0 10 0" class="a"/><path d="M-278.6 408.4c3 1 10 0 10 0" class="a"/><path d="M-277.6 415.4c2 1 10 2 12 0" class="a"/><path d="M-33.6 387.4c1 1 7 3 9 3" class="a"/><path d="M-36.6 395.4c2 1 5 1 10 1" class="a"/><path d="M-373.6 394c2 0.4 9-1.6 9-1.6" class="a"/><path d="M-370.6 399.4c1 0 9-1 9-1" class="a"/><path d="M-211.6 483.4c10-4 32-5 36 2 3.3 5.8-1 19-26 21s-42-8-39-25 28-33 63-32" class="a"/><path d="M-176.6 572.4c-10 8-19 34-11 45 9.3 12.8 45-1 43-12s-20-9-28-6" class="a"/><path d="M-160.8 597.1c8.2-2.7 14.2-10.7 14.2-13.7" class="a"/><path d="M-160.6 559.4c1 13 19 31 37 39 0 0-20 7-18 24s20 21 28 20" class="a"/><path d="M-104.6 629.4c7 4 39 11 56 1" class="a"/><path d="M-70.6 636.4c1 5-10 12-25 18s-33 19-44 18 -8-16 20-30" class="a"/><path d="M-135.6 662.4c-4 2-4 7 0 9" class="a"/><path d="M-186.6 486.4c2 1 9 1 10-1" class="a"/><path d="M-187.6 496.4c2 1 8.8 1 10.4 0" class="a"/><path d="M-158.6 604.4c2 1 8.4-1.9 10.7-4.5" class="a"/><path d="M-154.6 611.4c2 0 7.3-1 9.7-3" class="a"/><path d="M-240.6 478.4c-9 4-23 21-25 25 -5 4-25 24-22 30s20 1 20 1c1 6 12 33 22 40 -9 3-15 9-13 12 1.2 1.9 16 5 37 0 10 0 32-3.2 38.5-6.1" class="a"/><path d="M-234.6 533.4c9-2-5-31-14-27C-257.6 510.4-246.4 536-234.6 533.4z" class="a"/><path d="M-222.6 529.4c2-5 9 6 2 8 7-3 12 8 6 7" class="a"/><line x1="-240.6" y1="519.4" x2="-236.6" y2="517.4" class="a"/><polyline points="-271.6 520.4 -276.6 526.4 -269.6 525.4 " class="a"/><polyline points="-241.6 579.4 -246.6 582.4 -237.6 582.4 " class="a"/><path d="M-212.6 574.4c9-2-5-31-14-27S-224.4 577-212.6 574.4z" class="a"/><line x1="-218.6" y1="560.4" x2="-214.6" y2="558.4" class="a"/><path d="M-190.6 449.7c48.1-17.3 88.1-22.3 138.1 3.7s61 85 62 110 -1 64-27 104 -39.4 66-41 81c-2 19-30 19-30-2s5-45 40-90" class="a"/><path d="M-24.6 513.4c-19-10-53-5-56 20s28 57 35 65c0 10-11 65 6 67s24-46 22-65" class="a"/><path d="M-41.6 650.4c-4 2-4 10-4 10" class="a"/><path d="M-32.6 651.4c1 1 3 7 2 9" class="a"/><path d="M-75.1 1267.5c4.3 12.9 12.7 29.7 0.8 35s-41.7-31-32.3-54.3c9.5-23.2 39.5-18.4 49.8-7.2 7.2 7.8 15.7 31.6 21.2 51.5 11.4 15.7 29.9 36.3 31.1 90.3 1.3 54-2.8 96.1 6.1 132.9 6.3 10.9 12.5 21.7 0.7 29 -11.8 7.3-33.3-12.2-53-86.8 -4.7 15.1-29.4 67.7-45.5 65.1s1.2-33 1.2-33" class="a"/><path d="M-89.1 1482.9c-5.8 7.1-24.5 23.6-40.7 11.9 -16.3-11.6-6-44.9 3.5-63.1 -5.5-19.9-6.9-36.8-7.2-52.8" class="a"/><path d="M-129.7 1369.8c-1.8 7-11.7 16.4-17.6 17.4 -12.9 2.3-21.3-14.5-40.2-10.1 -5.9 1.4-36.6 16.9-43.8 8 -7.2-8.8 17.4-24.4 31.3-31.7s31.8-10.7 33.7-12.8 1.6-16 8.5-20.2" class="a"/><path d="M-84.4 1231.8c-12.7-8.8-40.1-24.1-77.6-3.3 -37.5 20.9-47.2 99-0.5 98" class="a"/><path d="M-176.3 1257.8c0.1 5 11.9-2.3 8.7-11.2 6.1 4.9 20.8-7.5 12.8-8.3" class="a"/><path d="M-133.2 1218.6c3.8-9.8 11.7-14 12.7-14.1s7.2 6.8 10.3 13.8" class="a"/><path d="M-191.8 1272.2c-0.1 2-14.9 11.3-16.8 15.3s15.2 9.7 15.2 9.7" class="a"/><path d="M-78.6 1287.6c0.1 5 7 10.5 9.6 9.6" class="a"/><path d="M-85.6 1290.7c0.1 2 1.9 8.5 4.1 11.2" class="a"/><path d="M-221.6 1375.9c-3 1.1-6.9 8.7-3.8 11.9" class="a"/><path d="M-88.5 1508.8c-2.9 3.1-4 10.9-2.8 13.5" class="a"/><path d="M-97.5 1507.1c-2.9 2.1-4.9 6.5-5.3 8.8" class="a"/><path d="M-8 1530c3.1 2.9 2.8 11.2-0.4 14.6" class="a"/><path d="M2 1527.8c2 0.9 5.2 7.9 4.3 13.9" class="a"/><path d="M-119.4 1498.9c-20.9 17.2-55.4 42-94.3 47.9 -20.2 3.1-22.4-15.5-2.5-22.9 19.8-7.5 59.3-23.1 77.8-47.2" class="a"/><path d="M-37.7 835.7c4.5-8.8 12.3-11.7 15.7-10.3s9 5.8 6.6 16.2c1.9 4.8 14.5 14.5 10 23.3s-18.3 9.4-28.5-0.7c-9.2 1.8-20.2 0.1-24-9.5S-47.1 836.3-37.7 835.7z" class="a"/><path d="M-33 794.7c-8.1 0.4-9.8 21.5-0.6 24C-24.5 821.3-19.2 793.9-33 794.7z" class="a"/><path d="M-11.6 823.4c5.6 4.3 23-12.5 13.8-19.5C-5.5 798-19.4 817.4-11.6 823.4z" class="a"/><path d="M-50.7 827.9c-3.6 3.1-19-10.1-13.1-17.8C-57.9 802.4-43.9 822-50.7 827.9z" class="a"/><path d="M-5.4 841.5c1.9 4.8 21.7 2.2 17.2-8C8.4 825.8-9.1 832.1-5.4 841.5z" class="a"/><path d="M-20.5 242.9c0 0 5.5 13.1 10.5 12.3 5.1-0.8 4.5-14.9 4.5-14.9s13.1-1.5 13-5.1c0-3.6-8.3-8.8-11.3-10.1 0 0 3.7-12.4 0-15.1s-12.7 8.9-12.7 8.9 -13.2-5.9-15.8-3.1c-2.6 2.7 4.6 13.9 4.6 13.9s-10.5 10.3-8.5 14C-34 247.2-25.3 244.7-20.5 242.9z" class="a"/></svg>