<svg xmlns="http://www.w3.org/2000/svg" viewBox="0 0 1125 2436"><style>.a{fill:none;}</style><path d="M433.3 1699.4c-0.9 2.8-3.7 5-6.4 5 -3.3-0.1-4.1-3.5-7-3.3 -2.6 0.2-2.8 3-5.8 3.5 -2.7 0.5-6.2-1.3-7.4-4.2 -1.3-3.2 0.7-6.3 1.3-7.3 3.5-5.6 11.1-5.7 11.9-5.8 4.8 0 10.9 2.3 12.9 7C433.2 1695 434 1697.1 433.3 1699.4z" class="a"/><path d="M699.1 1231.6c-2.4 1.7-6 1.6-8.1-0.1 -2.5-2.1-1-5.3-3.4-6.9 -2.2-1.5-4.1 0.6-6.7-0.8 -2.4-1.3-4.1-4.9-3.2-7.9 1-3.3 4.4-4.5 5.5-4.9 6.2-2.2 12.3 2.4 12.9 2.9 3.8 3 7.2 8.5 5.8 13.5C701.7 1228.1 701.1 1230.3 699.1 1231.6z" class="a"/><path d="M675 1170c-1.7-2.4-1.7-6 0-8.1 2-2.5 5.3-1.1 6.9-3.5 1.4-2.2-0.6-4.1 0.8-6.7 1.3-2.4 4.8-4.1 7.9-3.3 3.3 0.9 4.6 4.4 5 5.4 2.3 6.2-2.3 12.3-2.8 12.9 -3 3.8-8.5 7.2-13.4 5.9C678.6 1172.6 676.4 1172 675 1170z" class="a"/><path d="M1119.9 1556c1.5 2.5 1.2 6.1-0.7 8.1 -2.3 2.3-5.3 0.6-7.1 2.9 -1.6 2 0.3 4.1-1.3 6.6 -1.5 2.3-5.2 3.7-8.1 2.6 -3.2-1.2-4.2-4.8-4.5-5.8 -1.8-6.4 3.3-12.1 3.8-12.7 3.3-3.6 9-6.5 13.9-4.8C1116.6 1553.2 1118.7 1553.9 1119.9 1556z" class="a"/><path d="M582.5 2197.1c1.5 2.5 1.2 6.1-0.7 8.1 -2.3 2.3-5.3 0.6-7.2 2.9 -1.6 2 0.3 4.1-1.3 6.6 -1.5 2.3-5.2 3.7-8.2 2.6 -3.2-1.2-4.2-4.8-4.5-5.9 -1.7-6.4 3.3-12 3.9-12.6 3.3-3.6 9-6.5 13.9-4.8C579.2 2194.2 581.3 2195 582.5 2197.1z" class="a"/><path d="M1108.7 2334.5c-2.9 0.5-6.2-1-7.3-3.4 -1.4-2.9 1.3-5.2-0.3-7.7 -1.4-2.2-3.9-1.2-5.7-3.5 -1.7-2.2-1.7-6.1 0.4-8.5 2.2-2.6 5.9-2.3 7-2.2 6.6 0.6 10.2 7.3 10.5 8 2.2 4.3 3 10.7-0.3 14.7C1112.5 2332.4 1111 2334.1 1108.7 2334.5z" class="a"/><path d="M568.3 2135.3c2.9-0.4 6.1 1.2 7.2 3.7 1.3 3-1.4 5.2 0 7.7 1.3 2.3 3.9 1.3 5.6 3.7 1.6 2.3 1.5 6.2-0.7 8.5 -2.3 2.5-6 2.1-7.1 1.9 -6.6-0.8-9.9-7.6-10.3-8.3 -2.1-4.4-2.6-10.8 0.8-14.7C564.4 2137.3 565.9 2135.6 568.3 2135.3z" class="a"/><path d="M73.6 1392.1c-0.1 2.9-2.3 5.8-4.9 6.4 -3.2 0.8-4.8-2.4-7.6-1.4 -2.5 0.8-2 3.6-4.7 4.8 -2.5 1.2-6.3 0.3-8.3-2.2 -2.1-2.8-1-6.3-0.6-7.3 2-6.3 9.3-8.4 10.1-8.6 4.7-1.2 11.1-0.6 14.3 3.5C72.3 1387.9 73.7 1389.7 73.6 1392.1z" class="a"/><path d="M91.8 1338.6c2 2.1 2.5 5.7 1.1 8 -1.7 2.8-5.1 1.7-6.3 4.4 -1.1 2.3 1.1 3.9 0.1 6.7 -0.9 2.6-4.3 4.7-7.4 4.3 -3.4-0.5-5.1-3.8-5.6-4.7 -3.1-5.9 0.6-12.5 1-13.2 2.4-4.2 7.4-8.3 12.5-7.7C87.9 1336.5 90.2 1336.8 91.8 1338.6z" class="a"/><path d="M743.7 1001.5c-2.9 0.4-6.2-1.1-7.3-3.6 -1.3-3 1.4-5.2-0.1-7.7 -1.3-2.3-3.9-1.3-5.7-3.7 -1.6-2.2-1.5-6.2 0.6-8.5 2.3-2.5 6-2.2 7.1-2 6.6 0.7 10 7.5 10.4 8.2 2.1 4.3 2.7 10.8-0.6 14.7C747.6 999.4 746.1 1001.1 743.7 1001.5z" class="a"/><path d="M471.6 879.2c2.7-1 6.3-0.2 7.9 1.9 2 2.6-0.2 5.3 1.7 7.5 1.8 1.9 4.1 0.4 6.3 2.3 2.1 1.8 2.8 5.7 1.3 8.5 -1.7 3-5.4 3.4-6.5 3.5 -6.6 0.7-11.4-5.2-11.9-5.8 -3-3.8-5-10-2.5-14.5C468.2 882.1 469.3 880.1 471.6 879.2z" class="a"/><path d="M691.7 546c1 2.7 0 6.3-2.1 7.8 -2.6 1.9-5.3-0.4-7.5 1.6 -2 1.7-0.5 4.1-2.5 6.2 -1.9 2-5.8 2.7-8.5 1.1 -2.9-1.8-3.3-5.4-3.3-6.6 -0.6-6.6 5.4-11.3 6.1-11.7 3.9-2.9 10.1-4.7 14.5-2.2C688.9 542.6 690.9 543.8 691.7 546z" class="a"/><path d="M638.3 533.5c-2.2 1.8-5.9 2.2-8.1 0.7 -2.7-1.8-1.5-5.2-4-6.6 -2.3-1.3-4 0.9-6.7-0.2 -2.5-1.1-4.5-4.5-3.9-7.6 0.7-3.4 4-4.9 5-5.4 6-2.8 12.4 1.3 13.1 1.7 4 2.6 7.9 7.9 7 12.9C640.6 529.8 640.2 532 638.3 533.5z" class="a"/><path d="M749 312.1c-2.7 1-6.3 0-7.8-2.1 -1.9-2.6 0.4-5.4-1.5-7.6 -1.7-2-4.1-0.5-6.2-2.5 -2-1.9-2.7-5.8-1-8.5 1.8-2.9 5.5-3.2 6.6-3.3 6.6-0.5 11.2 5.5 11.7 6.1 2.9 3.9 4.7 10.1 2.1 14.5C752.4 309.3 751.3 311.3 749 312.1z" class="a"/><path d="M759.3 14.8c2.7-1.1 6.2-0.3 7.9 1.8 2 2.6-0.2 5.4 1.9 7.5 1.8 1.9 4.1 0.3 6.3 2.3 2.1 1.8 2.9 5.6 1.4 8.4 -1.6 3-5.3 3.5-6.4 3.6 -6.6 0.8-11.5-5-12-5.6 -3.1-3.7-5.1-9.9-2.8-14.4C756 17.7 757.1 15.7 759.3 14.8z" class="a"/><path d="M778.3 89.9c-2.1 2-5.7 2.7-8 1.4 -2.8-1.6-1.9-5-4.6-6.2 -2.4-1.1-3.9 1.3-6.7 0.4 -2.6-0.9-4.9-4.1-4.5-7.2 0.4-3.4 3.6-5.2 4.5-5.8 5.7-3.3 12.5 0.2 13.2 0.6 4.3 2.3 8.5 7.1 8.1 12.3C780.3 86 780 88.2 778.3 89.9z" class="a"/><path d="M255.5 433c0.8 2.8-0.3 6.3-2.5 7.7 -2.7 1.8-5.3-0.6-7.6 1.2 -2.1 1.6-0.7 4-2.8 6.1 -2 1.9-5.9 2.4-8.5 0.6 -2.9-1.9-3-5.6-3-6.7 -0.2-6.6 6-11 6.7-11.4 4-2.7 10.3-4.2 14.6-1.4C253 429.5 254.9 430.7 255.5 433z" class="a"/><path d="M198 381.4c2.7-1.1 6.2-0.5 7.9 1.6 2.1 2.5 0 5.4 2 7.4 1.8 1.9 4.1 0.2 6.4 2.1 2.1 1.8 3.1 5.6 1.6 8.4 -1.6 3-5.2 3.6-6.3 3.8 -6.5 1-11.6-4.7-12.1-5.3 -3.1-3.7-5.4-9.8-3.1-14.4C194.7 384.3 195.7 382.3 198 381.4z" class="a"/><path d="M440.2 1346.3c-8.9 12.9-17.8 25.8-26.7 38.7 4.9 0.5 9.7 1.1 14.6 1.6 -2.3 9-4.6 18-6.9 27 7.4-11.3 14.7-22.5 22-33.7 -4.3-0.8-8.6-1.7-12.9-2.5C433.6 1366.9 436.9 1356.6 440.2 1346.3z" class="a"/><path d="M523.2 83.9c-1 15.6-2 31.3-3 46.9 4.4-2.1 8.9-4.1 13.3-6.2 2.7 8.9 5.3 17.8 8 26.7 0.5-13.4 1-26.8 1.5-40.3 -4.1 1.5-8.2 3-12.3 4.4C528.2 105 525.7 94.4 523.2 83.9z" class="a"/><path d="M1092.5 1764.8c-7.2 13.9-14.5 27.8-21.7 41.7 4.9-0.1 9.8-0.2 14.7-0.3 -1.2 9.2-2.3 18.4-3.5 27.7 5.9-12.1 11.8-24.2 17.7-36.2 -4.4-0.3-8.7-0.6-13.1-0.9C1088.6 1786.1 1090.6 1775.5 1092.5 1764.8z" class="a"/><path d="M1010.6 858.9c-13 8.8-25.9 17.6-38.9 26.4 4.3 2.3 8.7 4.5 13 6.7 -5.4 7.6-10.8 15.1-16.2 22.7 10.9-7.8 21.8-15.7 32.8-23.5 -3.7-2.3-7.4-4.7-11.1-7C997 875.8 1003.8 867.3 1010.6 858.9z" class="a"/><path d="M298.9 1870.3c8.3 13.3 16.6 26.6 24.9 39.8 -4.9 0.3-9.8 0.6-14.6 0.9 1.9 9.1 3.8 18.2 5.7 27.3 -6.8-11.6-13.6-23.1-20.5-34.7 4.3-0.7 8.6-1.3 13-1.9C304.5 1891.2 301.7 1880.8 298.9 1870.3z" class="a"/><path d="M1056.7 442.7c-2.4-1.7-3.7-5.1-2.8-7.6 1.1-3.1 4.6-2.8 5.2-5.7 0.6-2.5-2-3.6-1.6-6.5 0.4-2.7 3.1-5.5 6.3-5.8 3.4-0.3 5.8 2.5 6.5 3.4 4.3 5 2.1 12.3 1.9 13.1 -1.4 4.6-5.4 9.7-10.6 10.2C1060.9 443.9 1058.7 444.1 1056.7 442.7z" class="a"/><path d="M1087.8 393.7c2.4-1.7 6-1.8 8.1-0.1 2.5 2 1.1 5.2 3.6 6.8 2.2 1.4 4.1-0.6 6.7 0.7 2.4 1.3 4.2 4.8 3.3 7.9 -0.9 3.3-4.3 4.6-5.4 5 -6.2 2.3-12.3-2.1-12.9-2.6 -3.9-2.9-7.3-8.4-6.1-13.4C1085.2 397.3 1085.8 395.1 1087.8 393.7z" class="a"/><path d="M610.8 1820.1c-6.8-3.1-14.2-1.2-17.5 3.7 -2.2 3.3-2.5 7.8-0.9 11.2 2.9 5.8 11.8 8.7 21.1 5 0.8 1.5 2.5 4.5 5.9 6.6 5.5 3.3 11.4 1.9 13.4 1.4 4-1 6.9-3.1 8.5-4.4 6.9 4 15 2.2 18.5-2.9 2.6-3.9 2.3-9.2-0.1-13 -3.1-5-9.6-7.3-15.8-5.4 0-0.5 0.1-9.3-6.8-13.7 -6.6-4.2-13.9-0.8-15.8 0.1C614 1811.9 611.4 1818.6 610.8 1820.1z" class="a"/><path d="M700.6 1823.7c-7.3-3.3-14.9-1.7-18.3 3.1 -1.7 2.3-2.7 5.9-1.5 8.9 2 5.1 9.9 8.3 18.8 5.7 1.3 1.5 4 4.1 8.1 5.9 6.1 2.6 11.6 1.8 13.4 1.4 6-1.2 9.9-4.6 11.3-6 6.8 2.2 13.5-0.3 15.9-5 1.5-3.1 1.1-6.7-0.3-9.4 -2.6-4.8-9.1-7.3-15.8-5.4 0-0.6-0.1-8.6-6.9-13.1 -7.2-4.7-15-0.9-15.7-0.5C704.3 1812 700.8 1817.5 700.6 1823.7z" class="a"/><path d="M651.2 1821.7c0.2-11.3 9.8-20 20.3-19.3 9.7 0.6 17.8 9.1 17.8 19.4" class="a"/><path d="M598.9 1819.3c3.5-41.1 39.7-71.4 78.6-68.2 36 2.9 65.6 33.8 66.8 71.9" class="a"/><path d="M637.2 1808.4c5.2-15 19.6-25 35.3-24.5 16.1 0.5 30 11.7 34 27.5" class="a"/><path d="M617.2 1811.1c5.9-27.4 30.7-46.3 57-44.6 23.3 1.4 43.6 18.6 49.6 42.4" class="a"/><path d="M717.3 770.6c0.7 0.1 2.6 0.4 4.1-0.8 0 0 1.3-1 1.6-3.3 1.3-9.6-23.4-26.3-23.4-26.3 -13.8-9.4-25.4-14.9-38-20.8 -11.1-5.2-24.6-11.4-40.1-18.4 -5.3 6.3-10.9 13.6-16.5 22 -6.6 10.1-11.8 19.7-15.9 28.3 12.4 14.4 21.2 26.9 26.9 35.7 11.3 17.2 19.4 33.1 27.2 31.6 1.9-0.4 3.1-1.7 3.6-2.2 5.5-6 1.9-20.2-7.8-35.7 8.4 7.8 15.5 14.3 20.8 19.2 23.1 21.2 16.8 15 17.3 15.5 10.7 10.5 15.2 16.8 20.4 15.7 3.4-0.8 5.2-4.4 5.4-4.7 6.2-12.6-25.7-40.6-32.2-46.3" class="a"/><path d="M680.7 742.6c5.4 3.7 11.5 7.9 18 12.6 0 0 13.8 9.9 24.1 22 1.5 1.7 4.6 5.6 3.9 10 -0.3 2-1.4 3.3-1.7 3.5 -2 2.2-5.6 2.9-9.2 1.8" class="a"/><path d="M676 759.9c9.5 5.7 17.1 11.2 22.6 15.5 0 0 14.9 11.6 23.7 25.9 1.5 2.4 3.9 6.7 2.7 11.3 -0.2 0.8-0.8 3.1-2.9 4.7 0 0-1.7 1.2-4.1 1.4 -6.5 0.4-16.4-10.1-25-18.4 -2.6-2.5-6.6-6.3-11.7-10.9" class="a"/><path d="M621.6 701c-2.5-13.4-8-22.4-13.6-22.5 -1.9 0-4.2 1-5.6 2.8 -3.1 3.7-3 10.4 0.5 16.7 -4-7.3-10.6-10.8-16-9.2 -0.5 0.2-4 1.3-5.7 4.7 -2.5 5.3 0.3 13.8 7.9 19.9 -6.5-4.4-13.7-4.4-17.8-0.5 -0.5 0.4-2.8 2.7-3.3 6.5 -0.8 5.9 3.4 12.6 10.6 15.9 -7.4-0.1-13.2 3.3-14.5 8 -0.6 2.2-0.3 4.8 0.9 6.7 3.2 4.9 13 5.7 24.2 1.3" class="a"/><circle cx="625.7" cy="714.5" r="1.2" class="a"/><circle cx="614.8" cy="731" r="1.2" class="a"/><circle cx="604" cy="749.1" r="1.3" class="a"/><path d="M240.9 2352.6c1.8 1.7 13.2 11.7 30 10.2 17.5-1.5 27-14.2 28.4-16.1 2.3 0.9 11 3.9 20.4 0 10.5-4.4 18.6-16.1 16.4-26 -2.6-11.4-19-20.8-37.2-14.8 -0.7-3.2-3-11-10-16.3 -11.8-8.9-31.5-6.4-40.2 5.6 -5.4 7.4-4.9 16-4.6 19.3 -10.1-5-21.6-4-29.5 2.4 -5.5 4.5-10.7 12.8-8.9 20.7C208.2 2348.2 223.1 2356.8 240.9 2352.6z" class="a"/><path d="M243.3 2368.9c-0.8 1.8-8.6 19.4-3.4 24.9 0.6 0.6 2.5 2.5 4.7 2.3 2.1-0.3 3.4-2.4 4-3.2C252.7 2386.3 244.4 2370.8 243.3 2368.9z" class="a"/><path d="M272.7 2380.1c-0.8 1.8-8.6 19.4-3.4 24.9 0.5 0.6 2.5 2.5 4.7 2.3 2.1-0.3 3.4-2.4 4-3.2C282 2397.5 273.7 2382 272.7 2380.1z" class="a"/><path d="M303.4 2362.6c-0.8 1.8-8.6 19.4-3.4 24.9 0.5 0.6 2.5 2.5 4.7 2.3 2.1-0.3 3.4-2.4 4-3.2C312.8 2380 304.4 2364.5 303.4 2362.6z" class="a"/><path d="M389.1 1946.9c-6.3 31.1-12.5 62.3-18.8 93.4 48.8 9.4 97.5 18.8 146.2 28.3 6-31.2 12-62.4 18.1-93.6" class="a"/><path d="M415.6 1951.1c-1.1 5.7-2.2 11.4-3.3 17.1 30.8 5.9 61.6 11.9 92.4 17.8 0.9-4.9 1.8-9.9 2.7-14.8" class="a"/><path d="M381.7 1944.5c13.5 2.6 27 5.2 40.4 7.8 -4-15.8-8-31.5-12-47.2C400.6 1918.2 391.1 1931.4 381.7 1944.5z" class="a"/><path d="M501.6 1967.7c13.5 2.6 27 5.2 40.4 7.8 -4-15.8-8-31.5-12-47.2C520.5 1941.4 511 1954.5 501.6 1967.7z" class="a"/><path d="M442.4 1917.8c-3.4 18.1-6.9 36.1-10.3 54.2" class="a"/><path d="M496.6 1927.3c-3.4 18.1-6.9 36.1-10.3 54.2" class="a"/><path d="M435.8 1914.2c23 4.4 46 8.9 69 13.3 -7.9-21.4-15.8-42.8-23.7-64.2C466 1880.3 450.9 1897.2 435.8 1914.2z" class="a"/><path d="M424.5 2049.2c1.9-9.7 3.8-19.4 5.6-29.1 3.4-12.5 11.7-21.2 20.8-21.9 4.4-0.3 7.8 1.3 8.8 1.9 7.9 4.2 12 15 10.4 27.2 -2 10.4-4 20.8-6 31.2" class="a"/><path d="M394.6 2018.9c1-5.1 2-10.3 3-15.4 1.7-6.6 6-11.3 10.6-11.6 2.2-0.2 4 0.7 4.5 1 4 2.2 6.1 7.9 5.2 14.3 -1 5.2-2 10.4-3 15.7C408.1 2021.5 401.3 2020.2 394.6 2018.9z" class="a"/><path d="M483 2037c1-5.1 2-10.3 3-15.4 1.7-6.6 6-11.3 10.6-11.6 2.2-0.2 4 0.7 4.5 1 4 2.2 6.1 7.9 5.2 14.3 -1 5.2-2 10.4-3 15.7C496.4 2039.6 489.7 2038.3 483 2037z" class="a"/><path d="M454.3 1958.5c0.8-4 1.5-8 2.3-12 1.3-5.2 4.7-8.8 8.3-9.1 1.8-0.1 3.1 0.5 3.5 0.8 3.2 1.7 4.8 6.1 4 11.2 -0.8 4.1-1.6 8.2-2.4 12.2C464.8 1960.5 459.5 1959.5 454.3 1958.5z" class="a"/><path d="M410.2 1905.1c1.1-5.8 2.2-11.6 3.4-17.3 -7.6-0.2-15.2-0.3-22.8-0.5 7 3.4 13.9 6.8 20.9 10.3" class="a"/><path d="M530.2 1927.8c1.1-5.8 2.2-11.6 3.3-17.3 -7.6-0.2-15.2-0.3-22.8-0.5 7 3.4 13.9 6.8 20.9 10.3" class="a"/><path d="M480.9 1863.3c1.3-6.7 2.6-13.4 3.9-20 -8.8-0.2-17.6-0.4-26.4-0.5 8.1 4 16.1 7.9 24.2 11.9" class="a"/><path d="M152.1 723.8c2.9-3.5 5.8-7 8.7-10.5 4.6 0.5 9.3 0.9 13.9 1.3 -2.3-3.8-4.6-7.5-7-11.3 1.7-3.7 3.4-7.3 5.1-11 -4.4 0.8-8.9 1.7-13.3 2.5 -3.6-3.3-7.1-6.7-10.6-10 -0.6 4.9-1.2 9.8-1.9 14.7 -3.8 2.5-7.5 5-11.3 7.5 4.3 1.4 8.6 2.7 12.9 4.1C149.8 715.4 150.9 719.6 152.1 723.8z" class="a"/><path d="M43.9 1868c3.5-2.9 7-5.8 10.5-8.6 4.5 1.3 8.9 2.7 13.4 4 -1.6-4.1-3.1-8.3-4.7-12.4 2.4-3.3 4.8-6.6 7.2-9.8 -4.5 0-9 0-13.6-0.1 -2.8-3.9-5.7-7.9-8.5-11.9 -1.5 4.7-3.1 9.4-4.6 14.1 -4.2 1.7-8.4 3.5-12.5 5.2 4 2.2 8 4.3 11.9 6.5C43.2 1859.3 43.5 1863.7 43.9 1868z" class="a"/><path d="M534.6 1476.6c-1.8-1.1-7.6-4.5-15.2-3.5 -0.6 0.1-13.2 1.9-17.5 13.1 -3.1 8.2-1 19.3 7.6 24.3 8.3 4.9 19.9 2.5 24.7-4.9 2.7-4.2 4.5-11.7 0-16.9 -4-4.7-10.8-5-15.3-3.2 -1 0.4-4.8 1.9-6.3 5.8 -0.3 0.8-1.3 3.3-0.2 6 0.1 0.2 1.6 3.4 5 4 1.6 0.3 4.6 0.1 5.7-2.1 0.8-1.6 0.2-3.3 0-3.7" class="a"/><path d="M48 1627.9c-0.6-2-2.8-8.4-9.2-12.6 -0.5-0.3-11.2-7.2-21.8-1.6 -7.7 4.1-13.4 13.9-10.2 23.4 3.1 9.2 13.4 14.9 21.9 12.4 4.8-1.4 11-5.9 11.1-12.8 0-6.2-4.9-10.9-9.5-12.4 -1-0.3-4.9-1.7-8.6 0.3 -0.8 0.4-3.2 1.7-4.1 4.4 0 0.2-1.1 3.6 1.2 6.3 1 1.2 3.4 3.1 5.7 2.2 1.6-0.7 2.3-2.3 2.4-2.8" class="a"/><path d="M309.6 2213.5c1.4-1.6 5.6-6.8 5.8-14.5 0-0.6 0.1-13.3-10.3-19.2 -7.6-4.3-18.9-3.9-25.2 3.9 -6.1 7.5-5.4 19.3 1.2 25.2 3.7 3.3 10.9 6.2 16.8 2.5 5.2-3.3 6.6-10 5.4-14.7 -0.3-1-1.2-5-4.8-7.1 -0.8-0.5-3.1-1.8-5.9-1.1 -0.2 0.1-3.6 1-4.7 4.4 -0.5 1.5-0.8 4.5 1.2 6 1.4 1 3.2 0.7 3.7 0.6" class="a"/><path d="M975.8 295.8c-1.6 1.3-6.7 5.8-8.1 13.3 -0.1 0.6-2.3 13.1 6.9 20.7 6.8 5.5 18 7 25.5 0.4 7.3-6.4 8.6-18.1 3-25 -3.1-3.9-9.7-7.9-16.1-5.3 -5.7 2.3-8.1 8.7-7.8 13.6 0.1 1.1 0.3 5.2 3.5 7.9 0.7 0.6 2.8 2.3 5.6 2 0.2 0 3.8-0.4 5.4-3.5 0.7-1.4 1.6-4.3-0.2-6.1 -1.2-1.3-3-1.2-3.5-1.2" class="a"/><path d="M349.5 1011.3c0.6-2 2.1-8.6-1.1-15.5 -0.2-0.5-5.7-12-17.6-12.8 -8.7-0.6-18.7 4.7-21 14.4 -2.2 9.4 3.5 19.7 12 22.1 4.8 1.4 12.5 0.8 16.2-5 3.3-5.2 1.6-11.8-1.5-15.6 -0.7-0.8-3.3-4-7.4-4.3 -0.9-0.1-3.6-0.3-5.8 1.6 -0.1 0.1-2.8 2.5-2.3 6 0.2 1.6 1.2 4.4 3.6 4.9 1.7 0.3 3.2-0.8 3.5-1.1" class="a"/><path d="M1069.1 539.8c3.6-2.8 7.2-5.5 10.8-8.2 4.4 1.5 8.8 3 13.2 4.5 -1.4-4.2-2.8-8.4-4.2-12.5 2.5-3.2 5-6.4 7.5-9.6 -4.5-0.2-9-0.4-13.6-0.6 -2.7-4-5.4-8.1-8.1-12.2 -1.7 4.6-3.4 9.3-5.1 13.9 -4.2 1.6-8.5 3.2-12.7 4.7 3.9 2.3 7.8 4.6 11.7 6.9C1068.8 531.1 1068.9 535.4 1069.1 539.8z" class="a"/><path d="M379 118c4.5 0.3 9 0.6 13.6 0.9 2.4 4 4.7 8 7.1 12 1.7-4.1 3.4-8.2 5-12.2 4-0.8 8-1.5 11.9-2.3 -3.3-3.1-6.6-6.2-9.9-9.3 0.6-4.8 1.3-9.7 1.9-14.5 -4.3 2.4-8.7 4.7-13 7.1 -4.2-1.6-8.5-3.2-12.7-4.8 1.4 4.3 2.9 8.6 4.3 12.9C384.5 111.2 381.8 114.6 379 118z" class="a"/><path d="M509 1787.2c2.6-3.7 5.1-7.5 7.7-11.2 4.7 0 9.3 0.1 14 0.1 -2.7-3.5-5.3-7.1-7.9-10.6 1.4-3.8 2.8-7.6 4.2-11.4 -4.3 1.2-8.7 2.5-13 3.7 -3.8-3-7.7-6-11.5-9 -0.2 4.9-0.4 9.9-0.5 14.8 -3.5 2.8-7.1 5.6-10.6 8.5 4.4 1 8.8 1.9 13.3 2.9C505.9 1779 507.5 1783.1 509 1787.2z" class="a"/><path d="M612.3 1380.8c71.6-39.1 123.9-67.5 127.7-69.5 1.3-0.7 3.9-1.8 6.2-0.9 0.3 0.1 1.1 0.4 1.6 1.2 1.7 2.3-1 6.9-1.6 8.1 -3.2 5.7-31.3 57.6-70 129.2" class="a"/><path d="M605.8 1457.5c-15.4-2-28-4.8-37.1-7.2 -18-4.7-24.1-8.2-27.7-10.5 -1.7-1.1-10.9-7.2-18.3-17.4 -13-18.3-12.4-39-11.6-56.5 1.1-24.4 8.3-63.4 20.8-64.4 4.4-0.3 8.1 4.3 13.4 11.5 9.3 12.7 21.7 33.3 30.1 63.1 6.3 24.4 16.1 62.2 37.6 91.1 26.3 35.3 67 52.8 100 55 28.1 1.9 51.4-7.4 52.7-11.4 0.8-2.3 0-4 0-4 -0.9-2-3.4-2.6-4.1-2.8 -4.2-1.2-26.8-9.4-58-20.9 -9.2-11.4-18.5-22.9-27.7-34.3 -45.2-47.3-90.4-94.7-135.6-142" class="a"/><path d="M617.9 1377.8c6.7 0.3 24.7 2 42.3 15.1 17.6 13.1 24.5 29.9 26.7 36.2" class="a"/><path d="M644.9 1363c6 1.3 16.2 4.4 25.8 12.8 19.4 16.8 20.3 41 20.4 45.5" class="a"/><path d="M680.3 1441.3c-3.1-9-8.1-20.8-16.6-33.3 -7.5-11-15.4-19.3-21.9-25.2" class="a"/><path d="M784.2 1341.5c6.5-0.4 12.9-0.8 19.4-1.3 -3.6 5.3-7.1 10.7-10.7 16 2.8 5.8 5.5 11.5 8.3 17.3 -6.2-1.5-12.5-3-18.7-4.5 -4.8 5-9.7 10.1-14.5 15.1 -0.3-7.3-0.6-14.7-0.8-22 -6.4-2.8-12.8-5.6-19.2-8.3 6.3-2.3 12.6-4.5 18.9-6.8 1.5-7 2.9-14 4.4-21C775.5 1331.1 779.8 1336.3 784.2 1341.5z" class="a"/><path d="M747.8 1311.6c3.2-2.9 5.9-3.3 7.2-3.4 6.5-0.3 13.8 6.7 16.2 17.8" class="a"/><path d="M72 1711.4c-2.1 1-4.3 2.1-6.4 3.1 20.9 29.3 41.7 58.5 62.6 87.8 33.3-16.7 66.6-33.4 99.9-50.2 2.1 0.6 6.3 1.6 11.3 0.6 5.9-1.1 9.7-4.3 11.9-6.2 3.5-3 5.7-6.1 7-8.3 28.8-14.6 57.7-29.3 86.5-43.9 -5.2-5.2-10.4-10.4-15.7-15.6" class="a"/><path d="M310.4 1657.2c4.9 4.6 9.9 9.1 14.8 13.7 3.1 6.4 6.2 12.8 9.4 19.2 -27.7 13.6-55.5 27.2-83.2 40.8 -0.9-1.2-4-5.4-9.4-6.4 -7.5-1.3-15.1 4.4-16.7 11.2 -0.7 3-0.1 5.6 0.3 7.1 -31.9 16-63.8 31.9-95.7 47.9 -19.3-26.4-38.6-52.8-57.9-79.2 -2.2-11.6-4.4-23.2-6.6-34.7 6.8-2.8 13.6-5.6 20.4-8.4" class="a"/><path d="M65.4 1676.7c22.3 27.1 44.7 54.3 67 81.4 4.8 0.1 12.5-0.1 21.5-2.3 21.1-5.2 28.5-16.1 49.8-23.6 6.2-2.2 15.7-4.8 28.4-5.5" class="a"/><path d="M238.2 1722.3c5-6.3 12.2-13.8 22.3-19.7 16.3-9.5 28.1-7.1 46-17.4 8.8-5 15-10.7 18.6-14.3" class="a"/><path d="M234.1 1725.6c-21.8-28.8-43.6-57.5-65.4-86.3 -19.4-11-33-11-42-8.8 -9.9 2.5-14.1 7.6-26.7 11.1 -13 3.7-24.7 2.8-32.7 1.4 9.5 12.8 19.3 26.9 29 42.2 9.7 15.2 18.3 30 25.9 44 6.4 6.2 16.2 13.4 27.9 13.2 16.1-0.2 22.8-14.1 41.7-19.9C201 1719.8 214.8 1718.4 234.1 1725.6z" class="a"/><path d="M170.3 1641.3c5.8-18.7 14.6-27.2 21.5-31.5 10.8-6.7 19.9-5 35.6-13.4 9.6-5.1 16.3-11 20.4-15 22.2 22 44.4 44 66.6 66 -2.1 6.6-6.3 16.2-15.1 23.7 -13.7 11.7-26.8 8.4-41.1 17.4 -8 5.1-18 15-24.2 37" class="a"/><path d="M225.6 1742.7c2.1 0.6 5.9 1.4 10.6 0.5 1.8-0.3 5.5-1.1 9.2-4 3.7-3 5.4-6.6 6.1-8.3" class="a"/><path d="M180.7 1617.8c-4.2-2-12.7-6.8-19.5-16.5 -8-11.4-8.9-23-9-27.6 4 2.5 7.9 5 11.9 7.5 2.3-5.3 4.6-10.5 6.9-15.8 0.8 6.4 3.3 17.9 11.4 29.3 4.3 5.9 8.9 10.2 12.7 13.2" class="a"/><path d="M205.7 1602.9c-3.1-4.6-6.2-9.1-9.3-13.6 5.7-1.9 11.4-3.9 17.1-5.8 3 4.6 6 9.2 9.1 13.7" class="a"/><path d="M131.9 1789.6c0.1-10.5 0.3-21 0.4-31.5" class="a"/><path d="M192 1629.9c2.2-2.8 5.9-6.8 11.5-10.3 6.9-4.2 11.5-4.4 20-7.9 4.2-1.7 10.3-4.7 17.3-9.8" class="a"/><path d="M201.7 1640.1c2.2-2.8 5.9-6.8 11.5-10.3 6.9-4.2 11.5-4.4 20-7.9 4.2-1.7 10.3-4.7 17.3-9.8" class="a"/><path d="M212.3 1649.9c2.3-2.5 5.6-5.5 10-8.3 3.9-2.5 7.5-4.1 10.5-5.1" class="a"/><path d="M276.2 1628.5c6.8 7.1 13.7 14.2 20.5 21.3 -1.4 2.5-4.5 7.4-10.5 11.2 -4.8 3.1-9.5 4.1-12.1 4.5 -6.4-8-12.8-16.1-19.3-24.1 2.7-0.4 6.6-1.4 10.8-3.7C271 1634.7 274.4 1630.9 276.2 1628.5z" class="a"/><path d="M90.1 1653.5c5.6 8.9 11.1 17.8 16.7 26.7 2.7 0 5.7-0.1 8.9-0.6 6.9-1 12.7-3 16.9-4.9 -5.7-9-11.4-18-17.1-26.9 -4.1 1.8-9.3 3.6-15.5 4.7C96.4 1653.1 93 1653.4 90.1 1653.5z" class="a"/><path d="M132.6 1719.5c3.1 2 8 4.5 13.9 4.3 9.7-0.4 14.7-7.8 24-13.4 6.2-3.7 16.1-7.6 31.3-7.1" class="a"/><path d="M126.3 1706.1c3.5 1.2 8.9 2.6 15.1 1.3 9.3-1.9 12.9-8.4 21.1-13.4 5.4-3.3 14.1-6.8 28.1-6" class="a"/><path d="M120.1 1692.8c3.8 1.4 9.6 2.8 15.9 1.3 9.4-2.1 12.5-8.8 21.8-13.7 4.9-2.6 12.4-5.2 23.7-4.6" class="a"/><path d="M146.7 1670.2c2.1-1.8 6-4.8 11.7-6.4 4.4-1.2 8.3-1.2 10.8-1" class="a"/><path d="M140 1658.6c2.4-1.7 6-4 10.8-5.6 5-1.7 9.4-2.1 12.4-2.1" class="a"/><path d="M883.7 314.3c7.1-5.7 17.7-14.3 30.8-24.5 15.8-12.4 23.3-17.8 27.3-21 25-19.7 22.2-33.2 48.2-63.8 14.7-17.3 62.6-68.6 78.1-77.7 0.8-0.5 3.3-1.9 3.2-3.9 -0.2-4.5-13.1-10.4-24.6-10.5 -8.2 0-15.4 4.3-29.7 12.5 -11.8 6.7-17 11.6-18.7 13.1 -1.3 1.2-6.3 6-11.8 14 -7.3 10.7-8.8 17.2-18.3 39 -3.2 7.3-6.2 13.9-7.6 16.8 -12.1 25.2-30.2 42.2-60 69.5 -6.5 6-16 14.5-27.8 24.3" class="a"/><path d="M1037.9 114.3c-0.9 0.3-4.4 1.6-6.3 5.3 -1.4 2.6-2.4 7.1-0.4 10.2 3.9 6 16.9 3.5 21.9 2.6 7.8-1.5 13.6-4.5 17-6.6" class="a"/><path d="M824.8 330.4c1.4-1 2.9-1.9 4.3-2.9 5.7 1 15.2 3.6 24.8 10.4 6.1 4.4 10.4 9.1 13.3 12.9 -1.5 1.3-3.8 3-6.8 4.4 -3.7 1.7-7 2.2-9.2 2.4 -2.2-4-5.3-8.7-9.8-13.6C835.5 337.5 829.4 333.2 824.8 330.4z" class="a"/><path d="M824.8 330.4c5.4 12.5 10.8 24.9 16.3 37.4 1.9-1.7 3.9-3.6 5.9-5.7 1.5-1.5 2.9-3 4.2-4.5" class="a"/><path d="M825.5 332.2c-1.8 0.1-4.4 0.5-7.3 1.7 -3.2 1.3-5.4 3.1-6.8 4.4 3 4.7 6.5 9.7 10.6 14.9 5.4 6.8 10.8 12.5 15.8 17.2 1.7-1.4 3.3-2.8 5-4.2" class="a"/><path d="M813.2 340.9c-9.8-0.7-30.8-0.8-53.1 10.7 -6 3.1-25.4 13.5-38.4 35.5 -17.6 29.8-5.2 50.2-24 75.1 -8.2 10.8-18.1 17.1-25.3 20.8 9-0.9 22.5-2.5 38.5-6 33.5-7.4 64-14.1 88.3-36.3 8.5-7.8 29.5-29.6 36.8-72.2" class="a"/><path d="M817.3 346.8c-8 0.3-19.5 1.8-32.2 6.9 -19.6 7.8-32 20.2-38.2 27.3" class="a"/><path d="M785.1 365.3c-7.5 4.3-17 10.5-26.5 19.6 -10.9 10.4-18.2 20.8-23 28.9" class="a"/><path d="M822.2 380.7c-4 8.2-9.3 17.4-16.5 26.7 -19.3 25-42.3 38.7-57.3 45.9" class="a"/><path d="M814.7 361.4c-6 2.9-13.4 7.1-21.1 13.4 -5.8 4.7-10.3 9.5-13.8 13.8" class="a"/><path d="M864.6 344.3c7.5-5 15.1-10.1 22.6-15.1 -0.8-3.3-5.7-23-22.1-29.3 -2.2-0.9-5-1.6-8.3-1.8 -7.4 9.6-14.8 19.1-22.3 28.7" class="a"/><path d="M861.2 311.2c-6 6.9-11.9 13.9-17.9 20.8" class="a"/><path d="M884 319.8c-6.7 4.9-13.3 9.8-20 14.6" class="a"/><path d="M861.4 322.9c-4 4.1-8 8.1-12 12.2" class="a"/><path d="M918.3 1906.4c0.9-2.4 3.2-9.7 0.1-17.6 -1.8-4.6-4.6-7.4-6-8.8 -9.3-9-22.3-9-26-9 -0.6 0-7.1 0-13.5 2.1 -28.9 9.8-52.5 53.8-43.4 83.7 0.5 1.5 1.7 5.2 4.2 9.3 9.8 16 29.1 21 38.8 19.3 3.9-0.7 7.4-2.9 7.4-2.9s4.8-2.6 9-7.5c4.9-5.7 14.2-25 22.7-52.3" class="a"/><path d="M920 1897c2.4-1.7 6.3-4 11.6-5.2 13.2-3 27.3 2.7 35.2 12.3 1.6 1.9 7.9 10 7.8 28.2 -0.1 26.9-14 69.9-44.1 75 -12.9 2.2-31.1-2.4-41.1-15.2 -3-3.9-4.7-7.7-5.7-10.5" class="a"/><path d="M894.6 1871.6c-1-2.7-2.7-6.5-5.9-10.2 -10.5-12.1-27.1-12.2-30.3-12.3 -33.5-0.3-68.5 50.6-58.9 78.4 4.9 14.4 15.9 21 15.9 21 5 3 9.9 4.1 13.2 4.6" class="a"/><path d="M954.1 1894.4c3.1-1.6 8.5-3.9 15.3-4.2 0 0 11.9-0.4 22.6 7.2 24.6 17.4 17.1 82.9-6.9 100.4 -3.2 2.4-10.6 7.7-20.5 7.2 -6.8-0.4-11.9-3.3-14.6-5.2" class="a"/><path d="M900.2 1872.9c4.1 0 10-0.7 15.7-4 11.5-6.6 17.8-20.6 17.1-36.2 -0.2-2.4 0-5.5 1.1-8.8 4.1-11.5 16.9-15.2 18.6-15.6 0.2 1.3 1.2 9.3-4.4 16.4 -5.7 7.3-14 8-15.3 8.1" class="a"/><path d="M952.7 1808.3c1.5 9.5 0.8 17 0 22 -2.3 13.4-9.6 30.1-12.1 44.3 -0.3 1.7-0.9 5.1 0.5 9.1 1.4 4.2 4.3 7 6.3 8.5" class="a"/><path d="M942.2 1867.7c0.3-1.7 3.9-17.6 18.6-23.9 8.9-3.8 23.7-4.8 31 4.7 5.4 7.1 5.5 18.9-0.6 25.2 -3.4 3.5-10 6.6-14.1 3.9 -3.4-2.2-3.9-7.7-3.2-11.3 1.9-9.3 14.1-17.4 25.9-15.9 8.8 1.1 18.5 7.7 20.1 17.3 1.6 9.5-5 20.1-10.5 20.5 -1.2 0.1-3.6-0.2-4.8-2 -1.3-2.1 0-4.8 0.2-5.1" class="a"/><path d="M933.8 1823c-1.8-6.3-6.9-10.9-12.9-11.7 -8.1-1-15.8 5.4-16.7 12.5 -0.6 4.4 1.2 10.6 5.8 12.3 3.3 1.3 7.3-0.3 9.5-2.6 0.7-0.7 2.3-2.5 1.7-4.4 -0.4-1.4-1.9-2.6-3.6-2.5 -1.7 0.1-2.6 1.3-2.8 1.5" class="a"/><path d="M257.1 759c-0.5-3.2-2.9-20.8 4.5-31.3 0.6-0.8 4.6-6.3 7.2-5.3 2.7 1.1 2.1 8.6 2.1 9.9C269.9 745.1 260.1 755.9 257.1 759z" class="a"/><circle cx="210.3" cy="914.2" r="8.5" class="a"/><path d="M207.8 922.4c-0.9 4.1-2.4 10.7-5 18.6 -2.8 8.3-4.8 11.9-7.8 20.3 -1.7 4.8-4.1 12-6.3 21.1" class="a"/><path d="M205.8 931.2c-5.5 4.1-37.1 28.2-35.7 61.4 0.8 19.1 12.3 38.5 19 40.2 2.6 0.7 4.6-0.1 4.6-0.1 3.7-1.5 4.8-6.5 5.2-8.4 7-30.7 10.6-30.1 11.2-50C210.4 963.9 209.9 948.9 205.8 931.2z" class="a"/><path d="M164.9 889.6c-3.3 9.8-7.1 20-11.4 30.4 -2.5 6-5 11.8-7.5 17.3" class="a"/><path d="M261.2 918.5c-0.8 7.5-2.1 15.8-4.3 24.9 -1.8 7.3-3.8 13.8-5.9 19.7" class="a"/><path d="M162.6 897.1c-7.7 4-18.6 11.3-26 24.1 -8.7 15-12.9 38.2-4.4 45.2 0.4 0.3 1.3 1.2 2.7 1.5 3.1 0.7 6.8-2 13.5-10.5 6.8-8.7 10.1-13 12.8-19.6C168.5 919.7 164.3 902.9 162.6 897.1z" class="a"/><path d="M260.5 924.7c-6.7 6.3-18.4 19.4-21.3 38.3 -2.4 15.9 2.4 28.8 6.3 32.6 1.2 1.1 2.1 1.3 2.6 1.4 3.2 0.3 6.2-4.2 10-11.2 5.6-10.4 8.4-15.6 9.6-20.8C272.1 946 263.1 929.2 260.5 924.7z" class="a"/><path d="M256.7 758.9c-27 13.1-42.6 42-38.7 71.4 4.1 30.5 28.3 54.8 59.1 59.3" class="a"/><path d="M257.1 759c14.1 24.3 13.5 54-1.6 75.9 -18.3 26.5-54.9 36.9-87.2 23.3" class="a"/><path d="M275.5 890.7c8.3-28.5-1.2-59.1-23.9-76.9 -25-19.7-61.2-20-87.6-0.2 16.6 23.8 45.3 36.2 73.9 32.2 28.7-4.1 52.8-24 62.1-51.5 -28.3-9.8-59.8-1.2-78.9 21.4 -19.8 23.4-22.4 57.2-6.6 83.7 28.4-12.5 45.5-42 42.2-72.8 -3.3-30.5-26-55.5-56.1-61.9 -7.2 29.1 3.2 59.7 26.4 78 22.1 17.4 52.3 21 78.2 9.4 -11.9-27.4-39.1-44.9-68.5-44.1 -31 0.8-58.4 21.9-67.5 52.1" class="a"/><path d="M305.2 852.1c-0.4-0.6-0.9-1.4-1.5-2.3" class="a"/><polyline points="875.2 875.7 910 1018.1 903.4 1019.7 868.6 877.3 " class="a"/><path d="M850.3 894c7.1-6.6 14.2-13.2 21.2-19.7 9.7 2.2 19.3 4.5 29 6.7 -3.9-8.6-7.7-17.2-11.6-25.8 4.7-7.3 9.3-14.6 14-21.8 -9.6 0.5-19.3 1.1-28.9 1.6 -6.6-8-13.1-16.1-19.7-24.1 -2.7 10.2-5.4 20.4-8 30.5 -8.7 4.2-17.3 8.4-26 12.7 8.7 4.1 17.5 8.2 26.2 12.2C847.8 875.6 849 884.8 850.3 894z" class="a"/><path d="M876.7 800.9c0.9-6 1.8-11.9 2.7-17.9" class="a"/><path d="M856.9 930.2c1.1-7.5 2.3-14.9 3.4-22.3" class="a"/><path d="M909.6 900.1c3.9 4 7.7 7.9 11.6 11.9" class="a"/><path d="M812.1 800.2c4.3 4.4 8.7 8.9 13 13.3" class="a"/><path d="M908.7 819.7c4.7-4.3 9.3-8.5 14-12.8" class="a"/><path d="M808.3 911.2c5.3-4.8 10.5-9.6 15.8-14.4" class="a"/><path d="M919.9 857.6c6.3 0.1 12.6 0.2 18.9 0.3" class="a"/><path d="M787.1 855.7c6.3 0 12.6 0.1 18.9 0.1" class="a"/><path d="M465.2 2497.1c-31.7-74.6-42.3-136.6-33.8-163.5 6.2-19.8 18.3-31.3 18.3-31.3 12.1-11.6 25.5-15 28.8-15.8 5.2-1.2 16-3 28.5 0.2 0 0 16.6 4.2 31.9 20.1 19.2 19.8 39.2 79.3 47.9 160.6 -5.3 3.3-13 7.8-22.8 12.3 -31.6 14.5-58.8 17.1-68.4 17.8C488.2 2497.9 477.7 2498.2 465.2 2497.1z" class="a"/><path d="M583.5 2452.2c1.6 6.2-24.8 18.2-58.8 26.8s-62.9 10.6-64.5 4.4c-1.6-6.2 24.8-18.2 58.8-26.8S581.9 2446 583.5 2452.2z" class="a"/><path d="M468.5 2279.5c-9.7-0.4-18.4-7.1-20.9-17 -3-12.1 4.3-24.3 16.3-27.3s24.3 4.3 27.3 16.3c2.5 9.8-1.9 19.7-10.1 24.7" class="a"/><path d="M472.1 2288.4c-1.1-3.7-1.9-6.8-2.6-9.4 -0.6-2.5-0.8-3.4-0.4-4.4 1.3-3 6.7-4.4 9.2-2.5 0.9 0.7 1.2 1.7 1.6 3 0.8 2.8 1.8 6.3 2.9 10.5" class="a"/><path d="M475.3 2287.3c-1.2 0.8-4.5 3.2-8 6.8 -31.1 32.5-13.4 100.3-1.7 145.1 2.9 10.9 7.6 27.5 15.2 47.5" class="a"/><path d="M478.5 2286.5c0.1 0.3 1.6 8 1.6 8.3 1.8 9.5 3.7 19.1 3.8 19.5 1.6 8 12.8 51.1 43.6 164" class="a"/><path d="M478.5 2286.5c4.9 0.6 12.7 1.9 21.1 5.8 34.2 15.8 46.6 57.9 60.3 107.1 4 14.4 9.1 35 12.8 60.3" class="a"/><path d="M496.9 2463c-6.4-20.5-11.4-37.8-15-50.4 -16.4-58.9-18.3-78.2-15.1-98.4 1.8-11.6 4.9-20.8 6.9-26.2" class="a"/><path d="M546.9 2449.3c-4.5-26.6-9.8-48.7-14.3-65.2 -14-51.7-25.4-70-35-82.2 -5.8-7.3-11.2-12.8-14.8-16.3" class="a"/><path d="M465.2 61.4c-31.7-74.6-42.3-136.6-33.8-163.5 6.2-19.8 18.3-31.3 18.3-31.3 12.1-11.6 25.5-15 28.8-15.8 5.2-1.2 16-3 28.5 0.2 0 0 16.6 4.2 31.9 20.1 19.2 19.8 39.2 79.3 47.9 160.6 -5.3 3.3-13 7.8-22.8 12.3 -31.6 14.5-58.8 17.1-68.4 17.8C488.1 62.3 477.7 62.5 465.2 61.4z" class="a"/><path d="M583.5 16.5c1.6 6.2-24.8 18.2-58.8 26.8s-62.9 10.5-64.5 4.3c-1.6-6.2 24.8-18.2 58.8-26.8C553 12.3 581.9 10.3 583.5 16.5z" class="a"/><path d="M468.5-156.1c-9.7-0.4-18.4-7.1-20.9-17 -3-12.1 4.3-24.3 16.3-27.3s24.3 4.3 27.3 16.3c2.5 9.8-1.9 19.7-10.1 24.7" class="a"/><path d="M472-147.3c-1.1-3.7-1.9-6.8-2.6-9.4 -0.6-2.5-0.8-3.4-0.4-4.4 1.3-3 6.7-4.4 9.2-2.5 0.9 0.7 1.2 1.7 1.6 3 0.8 2.8 1.8 6.3 2.9 10.5" class="a"/><path d="M475.2-148.3c-1.2 0.8-4.5 3.2-8 6.8C436.2-109 453.9-41.2 465.6 3.6c2.9 10.9 7.6 27.5 15.2 47.5" class="a"/><path d="M478.4-149.2c0.1 0.3 1.6 8 1.6 8.3 1.8 9.5 3.7 19.1 3.8 19.5 1.6 8 12.8 51.1 43.6 164" class="a"/><path d="M478.4-149.2c4.9 0.6 12.7 1.9 21.1 5.8 34.2 15.8 46.5 57.9 60.3 107.1 4 14.4 9.1 35 12.8 60.3" class="a"/><path d="M496.9 27.3c-6.4-20.5-11.4-37.8-15-50.4 -16.4-58.8-18.3-78.2-15.1-98.4 1.8-11.6 4.9-20.8 6.9-26.2" class="a"/><path d="M546.9 13.6c-4.5-26.6-9.8-48.7-14.3-65.2 -14-51.7-25.4-70-35-82.2 -5.8-7.3-11.2-12.8-14.8-16.3" class="a"/><path d="M166.7 219.1c3.8-2.8 8.3-5.8 13.5-8.7 5.6-3.1 10.9-5.5 15.6-7.3" class="a"/><path d="M325.2 298c-0.7 4.1-2.2 10.1-5.5 16.7 -12.5 24.6-38.6 32.7-45.3 34.8 -30.5 9.4-56.9-1.8-66.3-5.8 -9.5-4-36.8-16.1-51.5-45.8 -3.7-7.4-16.1-32.5-6-57.2 2.3-5.6 5.3-9.9 7.6-12.8" class="a"/><path d="M317.3 255.2c1.8 4.3 3.6 9.3 5.2 14.8 1.6 5.8 2.7 11.2 3.5 16" class="a"/><path d="M301.4 199c22.3 14.4 35 31.5 30.2 43.2 -3.9 9.4-18.3 13.3-37.2 11.6" class="a"/><path d="M206.5 214.7c-10.8-10.6-15.8-21.2-12.4-29.3 6.6-15.9 42.6-16 80.6-0.3 1.2 0.5 2.5 1 3.7 1.6" class="a"/><path d="M240 237.6c-5.4-2.7-10.4-5.5-15-8.5" class="a"/><path d="M298.5 212.4c12.5 7.8 19.8 15.2 18 19.4 -2.9 6.9-28.9 2.7-58.1-9.4s-50.6-27.5-47.8-34.4c1.1-2.6 5.4-3.6 11.9-3.3" class="a"/><path d="M163.3 310.6c-5.3 5.5-10.6 10.9-15.9 16.3 0.3 0.5 0.9 1.3 1.9 1.9 1.7 1.1 3.8 0.9 5.6 0.5 6.3-1.4 17.7-6.5 18.5-6.9" class="a"/><path d="M139 203.8c5.9-2.3 21.6 7.2 31.7 23.3 3.3 5.2 11.5 18.3 6.5 27.1 -2.6 4.7-7.3 6.1-7.3 6.1 -0.6 0.2-5.9 1.7-10.2-1.6 -3.4-2.6-4-6.5-4.2-7.4 -0.9-6 3.4-7.7 4.1-13.8 1.1-8.8-6.3-19.9-13.2-20.7 -2.2-0.3-4.8 0.4-8-1.3 -1-0.5-2.7-1.5-3.6-3.5 -0.1-0.2-1-2.6 0.1-4.9C135 207.1 136.1 204.9 139 203.8z" class="a"/><path d="M146 217.3c-0.8 0.8-2.2 2.1-4.4 2.7 -3.8 1.1-8.5 0-11.4-3.5 -2.8-3.3-3.3-7.9-1.3-11.7 1.6-3.9 3.2-7.7 4.8-11.6 0.3-0.6 1.8-4.3 6-5.9 0.3-0.1 5.8-2 10.3 1.7 2.9 2.4 4.3 6.3 3.5 10 -0.9 2.4-1.8 4.8-2.7 7.3" class="a"/><path d="M152.5 190.9c3.2 1 7.4 2.8 11.9 5.8 7.1 4.9 11.2 10.8 13.4 14.5" class="a"/><path d="M153 202c1.9 0.2 5.6 1 9.2 3.7 5.3 3.9 6.9 9.3 7.3 11" class="a"/><path d="M263.3 352c-0.1 7.6-0.2 15.2-0.3 22.8 -0.6 0.1-1.6 0.3-2.7 0 -2-0.5-3.3-2.1-4.3-3.6 -3.5-5.4-7.5-16.1-7.9-17.1" class="a"/><path d="M355.9 293.4c-2.5-5.8-20.4-10.1-38.9-5.9 -6 1.4-21 4.9-23.8 14.6 -1.5 5.2 0.8 9.5 0.8 9.5 0.3 0.6 3 5.4 8.4 6.1 4.2 0.6 7.4-1.8 8.2-2.3 4.9-3.6 3-7.9 6.8-12.7 5.5-7 18.5-9.6 24-5.4 1.7 1.3 3.1 3.6 6.6 4.7 1.1 0.4 3 0.9 5 0.1 0.2-0.1 2.5-1.1 3.4-3.6C356.3 298.6 357.1 296.3 355.9 293.4z" class="a"/><path d="M341.4 298c0 1.1 0.1 3 1.2 5 1.9 3.4 6 6 10.5 5.6 4.3-0.4 7.9-3.3 9.1-7.4 1.6-3.9 3.1-7.7 4.7-11.6 0.3-0.6 1.8-4.3-0.1-8.4 -0.1-0.3-2.6-5.5-8.5-6.1 -3.8-0.4-7.5 1.4-9.5 4.6 -1.1 2.4-2.1 4.7-3.2 7" class="a"/><path d="M355.4 274.8c-3-1.5-7.2-3.3-12.5-4.2 -7.9-1.4-14.4-0.4-18.4 0.5" class="a"/><path d="M347.2 282.3c-1.4-1.1-4.5-3.2-9.1-3.9 -5.5-0.8-9.7 1-11.3 1.8" class="a"/><circle cx="300.5" cy="133.1" r="9.8" class="a"/><path d="M238.6 201.7c0.1-0.8 0.8-4.2 4-6.5 4.4-3.3 9.5-1.4 9.7-1.3 3.6 1.4 6 4.7 6.5 8.3 0.5 4.1-1.7 7.1-2.2 7.8" class="a"/><path d="M244.6 147.9c-1.7 1.6-3.5 3.3-5.2 4.9" class="a"/><path d="M266 127.6c-1.8 1.7-3.6 3.4-5.3 5.1" class="a"/><path d="M255.1 150.3c0.8 2.5 1.5 5 2.3 7.6" class="a"/><path d="M246.8 122.9c0.7 2.4 1.5 4.9 2.2 7.3" class="a"/><path d="M262.2 142c2.6 0.5 5.1 1 7.7 1.5" class="a"/><path d="M234.9 136.7c2.6 0.5 5.1 1 7.6 1.5" class="a"/><path d="M213.3 195.2c0.8-0.1 1.6-0.3 2.4-0.4 9.2-1.1 17.4 0.7 24.1 3.4" class="a"/><path d="M259.5 205.3c8.1 2.7 14.7 5.7 19.6 8.1 16.4 8 26.5 16.5 29.1 18.7 1.4 1.2 2.5 2.1 3.2 2.8" class="a"/><path d="M902 2292.5c-4.5-11.1-9.8-22.8-16.2-35.1 -7.8-15.1-15.8-28.7-23.7-40.6 -4.1-0.4-15.6-0.9-27.6 5.9 -11.6 6.6-17 16.2-18.9 19.9 17.7 31 30.5 56.1 38.8 73.3 12.2 24.9 22 46.4 37.6 47.4 7 0.4 13.9-4.4 13.9-4.4 3-1.6 5.3-3.3 6.9-4.7" class="a"/><path d="M888.2 2350.3c-2.2-4.7-16.5-35.3-7.9-45.5 0.3-0.4 1-1.1 1.9-2 6.6-6.4 11.3-5.4 19.8-10.2 7.9-4.5 9.7-8.1 16.6-9 2.7-0.3 5-0.1 6.1 0.1 17.9 3.2 31.1 58.9 42.7 81.1 0.5 0.9 0.8 1.5 1.5 2.1 7.2 5.2 23.9-18.1 48.3-18.3 3.6 0 8.5 0 13.1 3 8.3 5.4 12.4 18 9.9 27.5 -3.4 13-17 10.7-49.3 31.2 -18.2 11.5-28.6 21.5-37.9 17.4 -4.7-2.1-8.2-7.4-9.6-9.6 -2.3-3.6-2.9-6-7.2-18.3 -1.1-3.2-2.3-6.4-3.4-9.6 -2.7-7.8-13.1-28.3-41.7-77.1" class="a"/><path d="M835.8 2279.2c3.7-4.7 9.7-11.1 18.3-16.7 11.2-7.3 21.8-10.1 28.4-11.3" class="a"/><path d="M847.5 2301.7c6-5.6 14.5-12.4 25.5-18.4 7.7-4.1 15-6.9 21.2-8.9" class="a"/><path d="M829.2 2244.2c2.8 5.5 5.7 11 8.5 16.5" class="a"/><path d="M856.5 2228.2c2.7 5.2 5.4 10.3 8.1 15.5" class="a"/><path d="M841.8 2234.3c2.9 5.4 5.8 10.7 8.7 16.1" class="a"/><path d="M877.6 2315.9c-5.3 3.6-10.6 7.2-15.9 10.8" class="a"/><path d="M884.6 2346.1c-2.2 3.2-4.5 6.5-6.7 9.7" class="a"/><path d="M883.6 2339.6c6.2-3.2 12.5-6.3 18.7-9.5" class="a"/><path d="M893.4 2316.8c4.2-4.4 10-9.8 17.9-14.7 9-5.7 17.5-8.9 23.8-10.7" class="a"/><path d="M906.2 2338.7c5.9-4.1 12.4-8.3 19.6-12.4 7.6-4.3 14.8-8 21.6-11.1" class="a"/><path d="M921.1 2362c11.8-6.6 23.7-13.2 35.5-19.9" class="a"/><path d="M935.2 2392.3c3.5-2.1 11.3-6.2 20.3-6.2 2.6 0 9.3 0.6 15.3 5.2 11.2 8.5 10.3 23.7 10.2 25.2" class="a"/><path d="M1004.4 2350.7c1 5.2 2.4 11.1 4.6 17.3 3.8 10.8 8.5 19.5 12.8 26.1" class="a"/><path d="M967.3 2364.6c-11.4 7-22.8 14-34.1 20.9" class="a"/><path d="M972.4 2368.8c-0.8 5.7-1.9 11.6-3.4 17.8 -0.2 1-0.5 2-0.8 2.9" class="a"/><path d="M986.3 2361.3c0.6 6.1 1.8 13.1 3.9 20.9 2.2 8.1 4.9 15 7.5 20.7" class="a"/><circle cx="640.2" cy="2401.8" r="9" class="a"/><circle cx="886.1" cy="1672" r="9" class="a"/><circle cx="502.3" cy="701" r="9" class="a"/><circle cx="989.6" cy="1111.2" r="9" class="a"/><circle cx="943.5" cy="1153.5" r="15.3" class="a"/><circle cx="851.2" cy="238.9" r="15.3" class="a"/><circle cx="974.7" cy="2062.7" r="15.3" class="a"/><circle cx="947.5" cy="363.9" r="8.9" class="a"/><circle cx="478.2" cy="1092.6" r="9" class="a"/><circle cx="597.4" cy="951.2" r="73" class="a"/><path d="M552.5 917c-8.9 12.5-10.9 25-11.5 29.7 -0.8 6.5-0.4 12 0.1 15.7" class="a"/><path d="M576.9 898c-1.9 0.6-4 1.4-6.4 2.6 -2.3 1.2-4.2 2.4-5.8 3.5" class="a"/><path d="M567.7 1017.9c0.8 5 1.5 10 2.3 14.9 6.7 2.6 21.7 7.3 40.7 4.3 17.6-2.7 29.8-10.7 35.5-15 -0.6-5.1-1.2-10.2-1.7-15.2" class="a"/><path d="M578.9 1013.1c7.6-2.6 17.2-5.2 28.5-6.5 7.4-0.8 14.1-0.9 19.9-0.7" class="a"/><path d="M636.8 1028c1.6 16.7 9.7 28.9 18.8 30.3 7.5 1.2 12.9-3.1 12.9-3.1 1.1-0.8 4.3-3.4 5-7.9 0.8-4.5-0.9-10.4-5.8-12.8 -4.1-2.1-10.3-1.6-12.8 2.3 -1.8 3-1.6 8.2 1.5 9.9 2.6 1.4 5.8-0.3 6.2-0.5" class="a"/><path d="M580.9 1036.9c3 16.5-1.4 30.5-9.8 34.3 -6.9 3.2-13.3 0.5-13.3 0.5 -1.3-0.5-5-2.2-7-6.2 -2-4.1-2-10.2 2.1-13.9 3.4-3.1 9.5-4.4 12.9-1.3 2.6 2.4 3.8 7.4 1.2 9.9 -2.1 2.1-5.7 1.3-6.1 1.2" class="a"/><path d="M616 960.8c1.3 8.7 2.6 17.4 3.8 26.1" class="a"/><path d="M607.8 974.9c6.2-0.9 12.4-1.9 18.6-2.8" class="a"/><path d="M623 904.5c1.3 10 2.7 20 4 30.1" class="a"/><path d="M614.9 921c6.7-0.9 13.3-1.9 20-2.8" class="a"/><path d="M569.3 949.2c1.3 9.3 2.6 18.6 3.9 27.9" class="a"/><path d="M561.4 963.1c6.8-1 13.6-1.9 20.4-2.9" class="a"/><circle cx="600.8" cy="942.2" r="1.1" class="a"/><circle cx="639" cy="946.8" r="1.1" class="a"/><circle cx="592.9" cy="986.9" r="1.1" class="a"/><path d="M518.2 1182.1c-12.5 8.9-25 17.7-37.5 26.6 35.8-10.2 71.7-20.4 107.5-30.6 -3.6-2.1-8.7-4.6-15.2-6.2 -4.9-1.3-9.3-1.7-12.9-1.8" class="a"/><path d="M480.7 1208.6c2.8 13.7 5.6 27.4 8.4 41.1 13.8-3.5 27.8-6.9 42.2-10.3 19.8-4.6 39.1-8.7 58-12.4 1.3 0 3.6-0.2 5.7-1.6 0 0 2-1.4 3.2-4 1.9-4.1 2.1-23 0.2-48.4 5.9-1.9 9-6.3 8.2-9.2 -0.6-2.4-3.6-3.6-4.1-3.8 -4.3-1.6-8.2 1.4-8.5 1.6 -0.5-0.8-2.8-4.1-7.2-5.2 -5.7-1.4-10.1 2.2-10.6 2.6 -0.5-0.6-3.6-4.1-8.8-4.3 -5.1-0.2-8.4 2.9-8.9 3.4 -0.4-0.5-3.7-3.9-8.5-3.5 -2.6 0.2-4.5 1.5-5.3 2.1" class="a"/><path d="M487.3 1241.3c31.6-7.7 63.2-15.4 94.8-23.1 1.6-0.6 4.2-1.7 6-4.3 2.2-3 2.2-6.3 2.1-8.4 -0.2-11.1-1.7-24.6-2-27.5" class="a"/><path d="M505.5 1216.8c0.3-0.1 1.5-0.4 2.4-1.6 0.9-1.2 0.8-2.5 0.8-2.8" class="a"/><path d="M521.9 1209.9c0.1-0.8 0.2-1.6 0.3-2.3" class="a"/><path d="M519.1 1219.6c-0.1 0.3-0.2 0.7-0.3 1.1" class="a"/><path d="M569.9 1193.8c-0.1 0.1-1.2 1-1.2 2.4 0 0.7 0.3 1.3 0.5 1.5" class="a"/><path d="M573.5 1204.5c-0.5 0.5-1.1 1.1-1.6 1.6" class="a"/><path d="M529.3 1183.3c-0.7 0.5-2.2 1.4-4.2 1.8 -1.6 0.2-2.9 0-3.7-0.2 -1.5-1.2-5.3-4.4-6.1-9.7 -0.3-2.3 0-4.2 0.3-5.2 2.2-8.7 12-9.5 15-18.3 0.4-1.3 1-3.4 0.7-6.4 1.6 5.6 4.2 8.3 6.2 9.6 5.1 3.5 11.1 2.2 17.3 7.5 1.3 1.1 1.8 1.8 2 2.1 3.2 4.8 0.3 11.6-0.7 13.8 -0.8 0.6-2.4 1.6-4.6 2 -2.7 0.5-4.9-0.2-5.8-0.6" class="a"/><path d="M528.4 1170.8c-0.4 0.9-1.5 3.5-0.8 6.8 0.2 0.9 0.8 3.6 3 5.4 4.3 3.5 12.6 1.6 14.9-3.1 0.7-1.4 0.7-2.9 0.6-4" class="a"/><path d="M200.5 1312.9c1.4 5.4 3.2 13.7 3.1 23.9 -0.3 26.6-13 34.4-10.3 52.6 2.1 14.5 13.1 30.8 29.1 34.8 14.8 3.7 29.9-4.1 38.4-12.9 12.2-12.7 7.7-24.7 21.2-46 6.1-9.7 13-16.5 18-20.9" class="a"/><path d="M235.7 1277.1c0 0.6-0.2 3.3-2.4 5.4 -2.5 2.3-5.6 2-6.5 1.9 -4.6-0.7-6.8-5-7-5.4 -2.6-5.4 1.5-11.1 2-11.9 3-4.2 8.3-6.7 13.5-6.1 5.2 0.6 8.9 4 10.6 6.5 5.4 7.7 2.1 22-9.1 34.8" class="a"/><path d="M269.1 1255c0.1 0.2 1.7 3.6-0.2 6.4 -1.8 2.6-5.2 2.8-7.3 2.3 -4.2-1.1-5.6-5.9-5.8-6.9 -1.2-4.3 0.3-9 3.3-12 5.4-5.3 13.4-3.1 14.6-2.7 7.3 2.2 10.3 8.9 11.1 10.8 4 9.9-2.1 19.6-2.6 20.3 -5.8 8.9-13.8 7.3-20.9 15.6 -5.4 6.3-6.7 14.1-6.9 20.2" class="a"/><path d="M274.6 1314.3c-0.1-3 0.1-12.3 6.8-19.9 1.8-2 5.3-6 11.4-7.2 1.3-0.3 8.1-1.6 13.7 2.9 1 0.8 5.3 4.2 5.5 9.9 0.2 5.1-2.9 10.8-8 12.3 -0.3 0.1-5.8 1.6-9.3-2.1 -1.6-1.7-3.2-5-1.7-8 1.3-2.6 4.1-3.4 4.6-3.5" class="a"/><path d="M213.2 1421.7c-4.1 12.4-8.2 24.8-12.3 37.3 -7 0.4-16.7 1.7-27.6 6 -4.8 1.9-5.2 2.5-5.3 3 -1.6 8.4 63 30.6 66.5 23.6 0.4-0.7-0.1-1.6-1.2-3.6 -3.6-6.1-9.8-15.2-20.4-24.9 4.1-12.4 8.3-24.8 12.4-37.2" class="a"/><path d="M271.6 1388.9c2.1-3 8.1-10.6 19-12.8 3.6-0.7 9.5-1.9 15 1.3 6.3 3.7 7.6 10.5 7.9 12.1 2.1 11.5-8.6 19.2-9.4 19.8 -1.4 1-7.4 5.1-15 4.1 -1.1-0.2-5.5-0.8-9-3.9 -2.1-1.9-2.3-3.2-2.3-3.6 -0.1-1.6 0.9-3.3 2.5-3.9 3.2-1.2 6.4 3.2 9.4 2.1 2.5-0.8 3.8-4.9 2.3-8 -1-2.1-3.2-3.1-3.9-3.4 -5-2.3-12.4-0.8-16.5 3.3 -5.3 5.2-4.8 14-0.4 19.8 4.7 6.2 12.6 7.3 16.2 7.8 12.9 1.8 22.3-5.1 24.4-6.7 1.7-1.3 10.7-8.2 12.3-20.6 0.5-3.9 1.6-13-5.3-21 -6.1-7.1-14.6-8.8-16.5-9.1 -13.6-2.4-23.1 6.2-24 7.1" class="a"/><path d="M197.3 1364.3c0.1-3.6-0.3-13.3-7.8-21.5 -2.5-2.7-6.6-7.1-12.9-7.8 -7.3-0.8-12.3 4-13.5 5.1 -8.5 8-4.4 20.6-4.1 21.5 0.6 1.6 2.9 8.5 9.7 12.2 1 0.6 4.9 2.6 9.5 2.2 2.9-0.3 3.8-1.3 4-1.5 1-1.2 1.2-3.2 0.3-4.6 -1.9-2.9-7-1.2-8.8-3.8 -1.5-2.1-0.1-6.2 2.9-7.8 2.1-1.1 4.4-0.7 5.2-0.5 5.4 1.1 10.5 6.7 11.4 12.4 1.2 7.3-4.4 14.1-11.4 16.2 -7.4 2.2-14.4-1.5-17.7-3.3 -11.5-6.2-15-17.3-15.8-19.8 -0.6-2.1-3.8-12.9 2.2-23.8 1.9-3.4 6.4-11.5 16.6-13.8 9-2.1 16.3 1.2 18.7 2.3 12.6 6.3 15.9 19.6 16.3 21.7" class="a"/><path d="M245.4 1362.1c-1.8 5.5-5.8 9.1-8.9 8.1 -3.1-1-4.2-6.3-2.4-11.7 1.8-5.5 5.8-9.1 8.9-8.1S247.1 1356.6 245.4 1362.1z" class="a"/><path d="M262 1362.9c-2.2 4.5-2.2 9-0.1 10s5.5-1.8 7.7-6.3c2.2-4.5 2.2-9 0.1-10S264.2 1358.4 262 1362.9z" class="a"/><path d="M543.1 588.3c2.5-14.8 5.1-29.6 7.6-44.4 6.3-4.8 12.5-9.6 18.8-14.4 2.2 4.7 4.3 9.3 6.5 14 -2 22.4-4 44.8-5.9 67.1" class="a"/><path d="M505.8 607.4c-4.8-21.2-9.6-42.3-14.3-63.5 4.8-21.6 9.6-43.2 14.4-64.8 9.8 8.6 19.6 17.1 29.4 25.7 3.9 20.4 7.8 40.9 11.6 61.3" class="a"/><path d="M505.4 480.9c6 16.7 11.9 33.4 17.9 50.1 4.3 18.5 8.7 36.9 13 55.4" class="a"/><path d="M491.4 543.9c11-3.4 22-6.8 33-10.2 3.6-9.6 7.2-19.2 10.8-28.9" class="a"/><path d="M499.7 623.4c7-15.3 14-30.6 21-45.8 13.3 7.5 26.7 15.1 40 22.6" class="a"/><path d="M560.7 600.2c-6.7 7.1-13.5 14.3-20.2 21.4 -13.6 0.6-27.2 1.2-40.8 1.8" class="a"/><path d="M520.7 577.5c6.4 14.2 12.8 28.3 19.2 42.5 0 8.4 0 16.8 0.1 25.2" class="a"/><path d="M499.8 619.4c-4.6-1.8-9.1-3.6-13.7-5.3 -2.6 3.6-5.3 7.3-7.9 10.9 7 6.2 14.1 12.3 21.1 18.5 1.9-1.1 3.7-2.3 5.5-3.4 12 2.4 24.1 4.8 36.2 7.1 7.9-5.3 15.7-10.6 23.6-15.9 5.7-4.1 11.3-8.2 17-12.3 1.2-3.8 2.4-7.5 3.6-11.3 -7.8 1.5-15.5 2.9-23.3 4.4" class="a"/><path d="M560.7 600.2c0.9 10.7 1.8 21.3 2.7 32" class="a"/><path d="M499.7 623.4c1.7 5.6 3.4 11.1 5.1 16.7" class="a"/><path d="M483.3 617.9c-3.9-9-7.7-18-11.6-26.9 0.7-6 1.5-11.9 2.2-17.8 4.1 0.9 8.1 1.8 12.2 2.7 6 8 12 16 17.9 23.9" class="a"/><path d="M996.4 1641.3c7.2 0.1 15.3-0.2 24.3-1.3 8.5-1 16.1-2.5 22.8-4.1 0.6-1.5 1.7-4.6 1.1-8.6 -0.4-3.1-1.7-5.4-2.5-6.7 -7.1 0.3-14.7 0.8-22.7 1.6 -8.9 1-17.1 2.3-24.7 3.8 -0.6 0.9-2.1 3.4-2.1 6.8C992.7 1637.7 995.8 1640.8 996.4 1641.3z" class="a"/><path d="M1018.3 1668.6c-10.2-12.7-26.4-18.3-41.2-14.5 -14.1 3.6-23.8 15.2-27.4 26.9 -5.5 17.8 2.5 38.4 20 50 22.5 12.7 44.9 25.5 67.4 38.2 17.7-16.8 35.4-33.6 53.2-50.5 16.5-15.4 20.2-38.7 10.3-55 -6.9-11.4-20.3-18.9-34.3-18.9 -15 0-28.9 8.4-36.1 21.8" class="a"/><path d="M1004.2 1641.3c0.7 5.7 1.3 11.3 2 17" class="a"/><path d="M1036.3 1639.3c0.7 5.7 1.3 11.3 2 17" class="a"/><path d="M1011.8 1623.2c-2.7-0.8-7-2.5-11.3-6.2 -3.7-3.2-7.9-6.8-8-12.5 -0.1-4.7 2.6-10.5 7.7-12.2 5.9-2 13.8 1.9 16.5 10 0.2-7.5 6-13 12.1-12.9 6.1 0.1 10.5 5.9 11.3 10.8 0.8 5.3-2.5 9.5-5.5 13.3 -3.5 4.4-7.5 7-10 8.3" class="a"/><path d="M966.3 1682.3c-1.1 1.7-2.2 3.8-2.9 6.4 -2.8 10.5 3.3 19.7 4.8 21.8" class="a"/><path d="M983.5 1667.2c-1.1 0.2-2.4 0.6-3.8 1.1 -2.7 1.1-4.8 2.5-6.3 3.7" class="a"/><path d="M631.1 1610.1c3.3 2.3 10 7.8 14.5 17.2 4.5 9.6 4.4 18.2 4.1 22.1 0 0-0.2 3.8-1 7.4 -6.1 28.3-37.3 45.6-69.6 38.6s-53.6-35.6-47.4-64c0.7-3.3 1.9-6.6 2.1-7.1 6.8-16.9 22.5-25 29.7-28.1" class="a"/><path d="M580.5 1591.2c4.9-0.5 12.3-0.7 20.9 1.4 7.9 1.9 14 4.9 18 7.4" class="a"/><path d="M619.4 1599.9c3.8-5 10.1-12 19.8-17.8 5.8-3.5 11.2-5.6 15.7-7 2.4 6 6.3 17.6 5.2 32.5 -1.1 15.9-7.2 27.5-10.6 33.1" class="a"/><path d="M580.5 1591.2c-1.9-6.9-5.5-16.4-12.4-26.2 -3.8-5.4-7.8-9.7-11.3-13.1 -4.5 4.5-12.6 14-17.2 28.5 -4.8 15.2-3.3 28.1-2.1 34.4" class="a"/><path d="M655.6 1581c-4.4 2.7-10.8 7.4-16.6 14.9 -3.9 5.2-6.4 10.2-8 14.1" class="a"/><path d="M552.7 1556.4c2.8 3.2 7.7 9.7 10.2 19.3 2.3 8.9 1.4 16.4 0.7 20.5" class="a"/><path d="M586.6 1660.6c-1.1-0.7-2.2-1.5-2-1.9 0.3-0.6 4.6 0.3 4.6 1C589.2 1660.1 587.8 1660.4 586.6 1660.6z" class="a"/><path d="M570.9 1667.5c0.7 0.8 2.6 2.7 5.8 3.4 4 0.9 7.1-0.7 7.9-1.2 0.5 0.7 2.6 3.6 6.7 4.5 3.2 0.7 5.7-0.3 6.7-0.7" class="a"/><path d="M586.4 1661.7c-0.6 2.7-1.2 5.4-1.8 8.1" class="a"/><path d="M598.9 1646.3c-1-13.2 10-23.4 21.5-22.8 9.6 0.5 18.4 8.5 19.8 19.2 -0.8 9.4-7.8 16.9-16.9 18.5C613 1662.9 602.3 1656.6 598.9 1646.3z" class="a"/><path d="M620.4 1635.8c-1 4.5-1.9 9-2.9 13.5" class="a"/><path d="M582.8 1643c6.3-11.6 0.5-25.4-10.2-29.6 -8.9-3.5-20.3 0.1-25.9 9.3 -3.2 8.8 0.1 18.6 7.7 23.8C563.1 1652.3 575.5 1651 582.8 1643z" class="a"/><path d="M567.6 1624.6c-1 4.5-1.9 9-2.9 13.5" class="a"/><path d="M614.4 1671.4c9.5-1.9 23.2-3.5 39.3-1.6 12.1 1.4 22.2 4.4 29.8 7.3" class="a"/><path d="M613.4 1677.5c7.8 0 19.4 0.9 32.6 5.7 10.4 3.8 18.4 8.8 24 12.8" class="a"/><path d="M556.4 1659.1c-7.9-5.7-19.7-12.8-35.2-17.7 -11.6-3.7-22-5.2-30.1-5.7" class="a"/><path d="M554.8 1665.1c-7-3.2-18-7.2-32-8.3 -11-0.9-20.4 0.3-27.1 1.8" class="a"/><path d="M988.5 688.6c-20.5-35.2-41-70.4-61.6-105.5 27.6-1.5 55.2-3 82.8-4.5 23.2 34.2 46.4 68.3 69.5 102.5C1049 683.5 1018.7 686.1 988.5 688.6c-4.6-1.1-9.3 0.2-12.2 3.5 -2.2 2.5-4 6.8-2.3 10.7 1.9 4.3 7.7 6.7 13.5 4.8 29.5-2.9 59.1-5.8 88.6-8.8" class="a"/><path d="M926.9 583c-1-0.4-3.6-1.4-6.6-0.6 -5 1.4-6.6 6.5-6.8 7.4 -0.9 3-0.3 5.6 0.1 6.7 20.2 35.4 40.3 70.8 60.5 106.2" class="a"/><path d="M1079.2 681c-1 1.1-3.3 3.9-4.1 8.1 -0.9 4.7 0.5 8.3 1.1 9.7" class="a"/><path d="M988.5 688.6c-1 2.7-1.9 6-2.5 10 -0.5 3.6-0.5 6.9-0.4 9.5" class="a"/><path d="M1067.2 699.8c6.9 12.3 13.7 24.6 20.6 36.8 -42.7-1.9-85.4-3.8-128.1-5.7 -1.7 2.3-4.4 6.5-5.6 12.6 -1.1 5.5-0.6 10.2 0 12.8 42.8 1.5 85.6 2.9 128.4 4.4 -0.9-1.5-3.1-5.6-2.6-11 0.8-8.1 6.9-12.5 7.9-13.2" class="a"/><path d="M959.6 730.9c-16.8-36.9-33.6-73.8-50.4-110.7 -1.2-0.2-4.1-0.6-7.4 0.8 -1.1 0.5-4.1 1.8-5.8 5.2 -2.2 4.4-0.5 8.7-0.2 9.4 15.7 37.5 31.5 75.1 47.2 112.6" class="a"/><path d="M959.6 730.9c-1.1-0.4-5.8-1.9-10.4 0.5 -5.8 2.9-8.7 10.6-6.1 16.8 2.8 6.8 10.5 8.1 10.9 8.2" class="a"/><path d="M909.3 620.2c6.3 0.7 12.6 1.4 18.9 2.1" class="a"/><path d="M955.9 598.4c6.3 10.5 12.7 21 19.1 31.5 16.1-1.7 32.3-3.3 48.4-5 -6.3-9.8-12.6-19.7-18.9-29.5C988.2 596.4 972 597.4 955.9 598.4z" class="a"/><path d="M988.5 638.8c11-1.3 22.1-2.6 33.1-3.9" class="a"/><path d="M985.5 648.7c16.5-2.1 33-4.3 49.5-6.4" class="a"/><path d="M1056.6 1275.3c-0.5 4.6-0.6 10.3 0.7 16.7 0.4 1.9 0.8 3.7 1.4 5.3 2.2 0.7 5.3 1.5 9.2 1.4 2.4 0 4.4-0.4 6-0.8 -0.2 2.9-0.9 7.4-3.6 11.9 -4.7 7.6-13.1 11.8-20.6 12.1 -2.9 0.1-3.4-0.4-11.6-2 -7.1-1.3-12.9-2.1-16.6-2.5 4.7-2.4 7.7-5.3 9.3-7.2 1.5-1.7 2.7-3.1 3.2-5.3 1-4.1-1.2-7.7-2-8.9" class="a"/><path d="M1035.9 1320.7c-5.9 15.5-2.6 30.6 6.5 36.5 6.3 4.1 14.3 2.9 16.3 2.6 1.7-0.3 13.6-2.2 18.7-11.5 5.2-9.4 1.8-23.5-9.4-32.7" class="a"/><path d="M1096.1 1240.5c-2.4-0.6-5.9-1.1-9.8-0.1 -8.1 2.3-12 10.2-15.7 16.4 0 0-11.3 18.9-28.3 31.8 -6.8 5.1-17.1 12-31.7 13.2 -5.3 0.4-19 1.6-25.4-6.7 -0.5-0.7-4-5.4-3.5-11.4 0.1-1.4 0.7-4.1 4.2-9.4 5.3-8 9.7-8.8 13.4-14.5 1.3-2.1 3.2-5.8 3.6-15.7 1.1-27.7-11.9-39.1-5-54 0.9-1.9 3.7-7.8 10-10.6 6.7-3 13.3-0.9 14.5-0.5 12.5 4.2 18.3 20.3 21.6 29.7 4.7 13.1 4.9 23.3 12.5 26.2 1.5 0.6 2.7 0.6 4.7 0.7 13.8 0.4 19.9-10.5 26.4-8.8 6.2 1.6 9.9 13.8 8.7 23.2 -1.9 15.5-17.8 28.9-40 34.3" class="a"/><path d="M1031.1 1184.6c-0.8 0.1-4.7 0.6-7.5 4.1 -0.5 0.6-3.2 4.1-2.3 8.6 1.1 5.7 7.4 7.9 7.7 8 6.7 2.2 12.4-2.7 12.7-2.9 -0.5-1.4-1.3-3.3-2.4-5.5 -0.7-1.5-1.6-3.4-2.9-5.4C1035.4 1189.7 1033.6 1187.3 1031.1 1184.6z" class="a"/><path d="M1023.7 1220.7c-4.4-0.1-8.4 2.2-10.6 5.5 -3.6 5.5-1.4 12.2 1.3 15.9 0.5 0.7 5 6.7 10.3 6 7.6-1 13.6-15.1 8.6-22.5C1031.3 1222.6 1027.5 1220.8 1023.7 1220.7z" class="a"/><path d="M998.2 1275.3c-0.7 1.4-2.5 5.2-1 8.5 1.8 4 7.5 4.6 9.3 4.8 7.8 0.9 18.1-3.2 20.1-11 0.3-1.2 1-4.9-1.1-7.9 -4-5.8-15.6-4.7-22.1-0.2C1000 1271.8 998.5 1274.6 998.2 1275.3z" class="a"/><path d="M1052.4 1251.1c-3.2-2-9.7 1.6-11.9 6.7 -1.4 3.1-1.7 7.9 0.7 9.6 3 2.1 9.7-0.9 12.2-6C1055 1257.9 1054.9 1252.7 1052.4 1251.1z" class="a"/><path d="M109.4 2138.3c-6.2-3-10.2-9.7-9.5-17 0.9-9.4 9.3-16.2 18.7-15.3 9.4 0.9 16.2 9.3 15.3 18.7 -0.7 7.2-5.7 12.8-12.2 14.7" class="a"/><path d="M58 2180.1c14.7 4 32.5 7.8 53 9.7 19.5 1.9 37 1.7 51.8 0.7 -1.6-0.7-4.4-2-7.4-4.1 -13.8-9.7-11.8-22-24.4-31.6 -1.8-1.4-8.2-6.1-17.3-6.9 -8.9-0.8-15.8 2.6-17.7 3.6 -13.7 7.1-13.5 19.9-27.3 26.1C64.3 2179.5 60.4 2180 58 2180.1z" class="a"/><path d="M143 2191.9c-2 20.6-4.1 41.1-6.1 61.6 -9.7 0.4-20.9 0.2-33.2-1.1 -12.1-1.2-22.9-3.2-32.2-5.4 2-20.7 4-41.4 6-62.1" class="a"/><path d="M70.3 2243.7c-8.1 1.2-10.1 2.7-10.2 3.9 -0.4 4.3 22.7 10.5 43 12.6 19.9 2 43.3 0.6 43.8-3.4 0.1-1.1-1.3-2.8-9-5.6" class="a"/><path d="M70.9 2253.8c0.7 0.9 1.8 2.2 3.2 3.8 3.7 4.5 5.5 7.2 6.3 8.3 5.8 7.4 20.6 8.9 22 9 2 0.2 16.3 1.5 22.8-4.6 1.3-1.2 3.5-3.8 8-7.2 1.6-1.2 2.9-2.1 3.8-2.7" class="a"/><path d="M106.5 2281.1c-0.3 2.9-2.8 4.9-5.7 4.6s-4.9-2.8-4.7-5.7c0.3-2.9 2.8-4.9 5.7-4.6C104.7 2275.7 106.8 2278.2 106.5 2281.1z" class="a"/><path d="M87.8 2174.6c1.4-2.7 2.8-5.4 4.2-8.1" class="a"/><path d="M132.3 2170.9c0.9 2.8 1.8 5.6 2.8 8.4" class="a"/><path d="M112.3 2168.2c-0.4 3.2-0.7 6.4-1.1 9.7" class="a"/><path d="M109.6 2146.4c0.4-4.5 0.8-9 1.1-13.5 0.9-0.3 2.8-0.9 5.2-0.6 2 0.2 3.5 1 4.4 1.4 -0.4 4.6-0.9 9.3-1.3 13.9" class="a"/><path d="M94.8 2251.4c0.7-5.4 1.5-10.9 2.2-16.3 2.5-0.4 5.8-0.6 9.6-0.2 3.3 0.3 6.1 1 8.2 1.8 -0.3 5.6-0.7 11.1-1.1 16.6" class="a"/><path d="M106.9 2227.8c-3-0.4-5.9-2.3-7.1-4.9 -1.6-3.4 0.3-7 3.6-13.3 2.2-4.2 4.6-7.6 6.5-9.9 1.2 2.2 3 5.6 4.5 10.2 2.2 6.6 3.7 11.4 1.1 14.8C113.6 2226.9 110.2 2228.2 106.9 2227.8z" class="a"/><path d="M107.6 2223c-0.3 3.9-0.7 7.9-1 11.9" class="a"/><path d="M48 2242.6c-8.1 2.4-16.2 4.7-24.2 7" class="a"/><path d="M194 2200.2c-10 2.9-20.1 5.8-30.1 8.7" class="a"/><path d="M162.2 2253.9c7.6 4.1 15.2 8.2 22.9 12.2" class="a"/><path d="M30.8 2183.6c8 4.3 16 8.6 24.1 12.9" class="a"/><path d="M169.2 2230.1c10.5 1.1 20.9 2.1 31.4 3.2" class="a"/><path d="M15 2214.3c9.9 1 19.9 2 29.8 3.1" class="a"/><path d="M650.1 142.5c-5.3-14.5-10.6-29-15.9-43.5 12.8 9.2 25.7 18.5 38.5 27.7 9.9-14.6 19.8-29.1 29.7-43.7 2.9 17.1 5.8 34.1 8.8 51.2 15.1-3.7 30.2-7.3 45.3-11 -10.1 11.3-20.2 22.5-30.3 33.8" class="a"/><path d="M643 178.1c-10.1 11.9-20.2 23.7-30.3 35.5 15.6-3.6 31.3-7.3 46.9-10.9 3 16.6 6 33.2 9 49.8 9.1-14.4 18.2-28.9 27.3-43.3 11.9 9.5 23.7 19 35.6 28.5 -4.4-14.4-8.8-28.9-13.2-43.3" class="a"/><path d="M718.3 194.5c17-3.5 33.9-7.1 50.9-10.6 -14.3-9-28.7-17.9-43-26.9" class="a"/><path d="M643 178.1c-14.1-9.3-28.3-18.5-42.4-27.8 16.5-2.6 33-5.2 49.5-7.8" class="a"/><path d="M676.6 125.8c9.9 4.1 15.6 14.6 13.5 24.9 -2 9.9-10.6 17.4-20.8 17.9 4.3 1.7 8.7 3.4 13 5.1 0.1 2.3 0.3 9.2-4.4 14.6 -6.2 7.1-18.5 8.7-29.4 2.6" class="a"/><circle cx="703.3" cy="162.9" r="4" class="a"/><circle cx="667.5" cy="155.7" r="4" class="a"/><path d="M664.9 178.7c1.1 1.5 5.7 7.6 14.5 9.5 9.3 2 16.4-2.2 17.9-3.1" class="a"/><path d="M1102.6 226.4c-4.5 20.5-7.7 35.3-8.5 39.5 -0.1 0.8-0.5 2.8-2.1 4.6 -0.3 0.3-1.7 1.9-4.6 2.6 -3.5 0.9-5.6-0.3-9.7-1 -1.7-0.3-8.1-1.3-13.9 0.9 -4.1 1.6-6.6 4.2-7.9 5.6 -9.8 10.4-8.9 28.9-8.8 30.8 0.2 3.1 2.2 29.7 25.2 43.9 3.2 2 14.3 8.6 29.4 7.5 25.3-1.7 38.8-23.2 41.2-26.9 0.9-1.5 10.3-16.7 7.7-31.9 -0.8-4.5-2.2-7.1-3.6-8.9 -4.8-6.2-12.6-7.1-14.8-7.2 -1.8-0.4-5.3-1.3-8.3-4.3 -0.8-0.8-2.2-2.3-3-4.6 -0.9-2.9-0.3-5.5 0-6.5 1.2-4.8 4-18.4 7.9-36.8" class="a"/><path d="M1115 227.2c-5.6-1.2-11.2-2.4-16.8-3.7 -2.3-1.2-3.5-3.7-3.1-6.2 0.4-2.6 2.5-4.7 5.2-5.1 11.9 2.6 23.9 5.2 35.8 7.8 3.2 0.8 5.2 4 4.4 7.2 -0.7 3.1-3.8 5.1-6.9 4.6 -2.8-0.6-5.6-1.2-8.4-1.8" class="a"/><path d="M1088.9 359.9c4.4-20 8.8-40.1 13.2-60.1 0.6-1 3.5-5.8 9.9-7.4 5.8-1.5 11.8 0.4 15.6 3.9 4.3 4 4.8 9.3 5.1 12.8 1.8 19.1-13.4 34.8-16.8 38.4 -3.5 3.6-9.5 9-18.5 13.5" class="a"/><path d="M1102 299.8c-0.2-0.9-2-9.6-10.1-13.3 -0.6-0.3-6.4-2.8-12.9-0.4 -9.4 3.4-12.4 14.5-13.7 19.1 -3.8 13.7 1 25.8 3.7 32.9 3.4 8.8 8 15.3 11.1 19.1" class="a"/><path d="M1078.5 272.2c0.4 1.7 0.7 4.4 0.3 7.5 -0.5 3.6-1.8 6.3-2.7 7.9" class="a"/><path d="M1134.5 286.9c-0.8 1.3-1.7 2.9-2.3 4.9 -1.5 4.4-1.1 8.3-0.8 10.5" class="a"/><path d="M-22.5 226.3c-4.5 20.5-7.7 35.3-8.5 39.5 -0.1 0.8-0.5 2.8-2.1 4.6 -0.3 0.3-1.7 1.9-4.5 2.6 -3.5 0.9-5.6-0.3-9.7-1 -1.7-0.3-8-1.3-13.9 0.9 -4.1 1.6-6.6 4.2-7.9 5.6 -9.8 10.4-8.9 28.9-8.8 30.8 0.2 3.1 2.2 29.7 25.2 43.9 3.2 2 14.3 8.6 29.4 7.5C2 359 15.6 337.5 17.9 333.8c0.9-1.5 10.3-16.7 7.7-31.9 -0.8-4.5-2.2-7.1-3.6-8.9 -4.8-6.2-12.6-7.1-14.9-7.2 -1.8-0.4-5.3-1.3-8.3-4.3 -0.8-0.8-2.2-2.3-3-4.6 -0.9-2.9-0.3-5.5 0-6.5 1.2-4.8 4-18.4 7.9-36.8" class="a"/><path d="M-10.1 227.2c-5.6-1.2-11.2-2.4-16.8-3.7 -2.3-1.2-3.5-3.7-3.1-6.2 0.4-2.6 2.5-4.7 5.2-5.1 11.9 2.6 23.9 5.2 35.8 7.8 3.2 0.8 5.2 4 4.4 7.2 -0.7 3.1-3.8 5.1-6.9 4.6 -2.8-0.6-5.6-1.2-8.4-1.8" class="a"/><path d="M-36.2 359.8c4.4-20 8.8-40.1 13.2-60.1 0.6-1 3.5-5.8 9.9-7.4 5.8-1.5 11.8 0.4 15.6 3.9 4.3 4 4.8 9.3 5.1 12.8 1.8 19.1-13.4 34.8-16.9 38.4 -3.5 3.6-9.5 9-18.5 13.5" class="a"/><path d="M-23 299.7c-0.2-0.9-2-9.6-10.1-13.3 -0.5-0.3-6.4-2.8-12.9-0.4 -9.4 3.4-12.4 14.5-13.7 19.1 -3.8 13.7 1 25.8 3.7 32.9 3.4 8.8 8 15.3 11.1 19.1" class="a"/><path d="M-46.6 272.1c0.4 1.7 0.7 4.4 0.3 7.5 -0.5 3.6-1.8 6.3-2.7 7.9" class="a"/><path d="M9.4 286.8c-0.8 1.3-1.7 2.9-2.3 4.9 -1.5 4.4-1.1 8.3-0.8 10.5" class="a"/><path d="M1080.8 1943.9c-2.5-1.4-5-2.8-7.5-4.2 4.6-3.6 10.7-8.9 16.8-16.4 0.6-0.8 10.7-13.4 8.9-15.2 -1.2-1.2-6.9 2.7-9.4 4.4 -3.9 2.7-10.6 7.8-19.2 19.1 -11.2 14.8-9.6 19-9.1 20 0.3 0.6 0.7 1.4 1.6 2 7.1 4.4 27.6-17.8 30.3-20.9 8.1-8.8 20.3-22.1 16.9-32.7 -0.3-1-1-3-2.8-4.2 -5-3.5-13.9 1.5-22.8 6.6 -5.2 3-12.6 7.7-20.7 14.9 3.7 2.5 7.3 5 11 7.5" class="a"/><path d="M1099 1908.1c2.2 2.7 4.5 5.4 6.7 8.1" class="a"/><path d="M1108.5 1897c12.1 18.6 26.2 38.3 42.4 58.6 25.8 32.1 51.9 58.7 75.9 80.5 0.8 1.9 1.5 4.2 1.6 6.9 0.8 16-18.7 33.3-37.1 33.9 -3.1 0.1-5.6-0.3-7.1-0.6 -6.7-16.6-13.1-30.3-18.3-40.6 -14-28-21.5-37-29-43.8 -1.4-1.2-6-5.4-15.5-11.6 -12.2-7.9-31.4-18.5-58.6-26.6" class="a"/><path d="M1133.7 1989c2.8-1.1 7-3.2 10.6-7.2 9.3-10.3 7-24.2 6.7-26.2" class="a"/><path d="M1141.6 1996.4c2.9-0.6 9.5-2.5 15.6-8.1 5.9-5.4 8.3-11.5 9.2-14.3" class="a"/><path d="M1148.9 2005.5c2.6 0.9 10.3 3.4 19.7 0.7 9.6-2.7 14.9-9.1 16.6-11.2" class="a"/><path d="M1152 1992.2c3.3-0.4 8.5-1.4 13.9-4.6 3.2-1.8 5.6-3.9 7.3-5.7" class="a"/><path d="M1145.4 2000.8c0.3 4.7 0.4 17.7-8.1 30.4 -12.7 19.1-34.2 21.6-37.3 22 2.8 1.9 5.6 3.7 8.4 5.6 -0.2 3.6-0.3 7.1-0.5 10.7 5.2-1.8 12.4-4.9 20.2-10.2 3.2-2.2 9.1-6.4 14.1-12.6 9.7-12.2 11.1-26.6 11.2-34.1" class="a"/><path d="M1145.3 2007.5c-11.5 8.5-18.8 7.9-22 7.2 -3.9-0.9-12.8-4.4-16.1-5.7 -3.5-1.4-3.2-1.4-4-1.6 -8-2.3-15.8 1.7-20.2 3.9 -9.3 4.7-15 11.6-18.1 16.1 3.7 0.6 7.3 1.1 11 1.7 -0.7 4-1.4 8-2.1 12 5.8-7 11.8-11.1 15.8-13.4 3.6-2.1 7.1-4.1 12.1-4.9 7.7-1.3 11.6 1.3 18.5 2 5.1 0.5 12.8-0.1 22.8-5.5" class="a"/><path d="M-44.3 1943.9c-2.5-1.4-5-2.8-7.5-4.2 4.6-3.6 10.7-8.9 16.8-16.4 0.6-0.8 10.7-13.4 8.9-15.2 -1.2-1.2-6.9 2.7-9.4 4.4 -3.9 2.7-10.6 7.8-19.2 19.1 -11.2 14.8-9.6 19-9.1 20 0.3 0.6 0.7 1.4 1.6 2 7.1 4.4 27.5-17.8 30.3-20.9 8.1-8.8 20.3-22.1 16.9-32.7 -0.3-1-1-3-2.8-4.2 -5-3.5-13.9 1.5-22.8 6.6 -5.2 3-12.6 7.7-20.7 14.9 3.7 2.5 7.3 5 11 7.5" class="a"/><path d="M-26 1908.1c2.2 2.7 4.5 5.4 6.7 8.1" class="a"/><path d="M-16.5 1897c12.1 18.6 26.1 38.3 42.4 58.6 25.8 32.1 51.9 58.7 75.9 80.5 0.8 1.9 1.5 4.2 1.6 6.9 0.8 16-18.7 33.3-37.1 33.9 -3.1 0.1-5.6-0.3-7.1-0.6 -6.7-16.6-13.1-30.3-18.3-40.6 -14-28-21.5-37-29-43.8 -1.4-1.2-6-5.4-15.5-11.6 -12.2-7.9-31.4-18.5-58.6-26.6" class="a"/><path d="M8.6 1989c2.8-1.1 7-3.2 10.6-7.2 9.3-10.3 7-24.2 6.6-26.2" class="a"/><path d="M16.5 1996.4c2.9-0.6 9.5-2.5 15.5-8.1 5.9-5.4 8.3-11.5 9.2-14.3" class="a"/><path d="M23.8 2005.5c2.6 0.9 10.3 3.4 19.7 0.7 9.6-2.7 14.9-9.1 16.6-11.2" class="a"/><path d="M26.9 1992.2c3.3-0.4 8.5-1.4 13.9-4.6 3.2-1.8 5.6-3.9 7.3-5.7" class="a"/><path d="M20.3 2000.8c0.3 4.7 0.4 17.7-8.1 30.4 -12.7 19.1-34.2 21.6-37.3 22 2.8 1.9 5.6 3.7 8.4 5.6 -0.2 3.6-0.3 7.1-0.5 10.7 5.2-1.8 12.4-4.9 20.2-10.2 3.2-2.2 9.1-6.4 14.1-12.6 9.7-12.2 11.1-26.6 11.2-34.1" class="a"/><path d="M20.3 2007.5c-11.5 8.5-18.8 7.9-22 7.2 -3.9-0.9-12.8-4.4-16.1-5.7 -3.5-1.4-3.2-1.4-4-1.6 -8-2.3-15.8 1.7-20.2 3.9 -9.3 4.7-15 11.6-18.1 16.1 3.7 0.6 7.3 1.1 11 1.7 -0.7 4-1.4 8-2.1 12 5.8-7 11.8-11.1 15.8-13.4 3.6-2.1 7.1-4.1 12.1-4.9 7.7-1.3 11.6 1.3 18.5 2 5.1 0.5 12.8-0.1 22.8-5.5" class="a"/><path d="M362.8 1095.5c0.3-11-4-16.2-5.8-18.1 -1.3-1.4-1.9-1.3-12.5-7.3 -9.2-5.2-11.7-6.6-13.1-5.6 -1.3 1-0.6 3.4 0.6 10.8 1.9 11.6 1.3 11.7 2 14 3 9.3 14.4 14.2 21.6 16.5" class="a"/><path d="M372.8 1098.2c0.3-1.6 0.8-3.8 1.8-6.4 0 0 0.2-0.6 0.5-1.1 1.4-3 5-8.8 15.4-12.9 4.2 14.9-0.1 23.2-1.5 25.6 -2.8 4.7-8.3 10.1-11.4 13.1 -2.5 2.5-4.8 4.4-6.3 5.7 -0.6-2-1.2-4.1-1.8-6.1" class="a"/><path d="M349.2 1116.8c-2.6-0.5-6.4-0.9-10.7-0.3 -7.7 1.1-13.1 4.7-15.7 6.7 3.4 1.3 8.5 3.4 14.5 6.7 5.5 3 6.8 4.2 9.3 5.1 4.6 1.7 12 1.7 23.9-6 -1.7-1.5-3.4-3-5.1-4.5" class="a"/><path d="M367.8 1117.4c6.9 14 14 31.8 19 53.1 8.3 35.4 7.4 66.2 5 87.3" class="a"/><path d="M350.3 1166.8c9.4 3.9 19.6 10 28.6 19.6 35.7 37.9 20 96.8 18.4 102.5" class="a"/><path d="M386.1 1203.2c0.5-1.3 2-4.6 5.5-6.8 1.7-1.1 3.4-1.6 4.6-1.8" class="a"/><path d="M388.5 1211.1c1.1-1.3 2.9-3.3 5.5-5 2.2-1.4 3.9-2 3.8-2.7 -0.1-1-3.6-1.4-5.5-1.4 -2.6 0-4.8 0.6-6.2 1.1" class="a"/><path d="M379.7 1143.8c-0.1-2.2 0-5.3 0.8-9 0.3-1.6 1.5-7.4 4.3-11.2 6.2-8.6 20.4-7.7 21.9-7.5 -1.2 3.7-3.6 9.6-8.7 15.4C391.3 1139.1 383.6 1142.4 379.7 1143.8z" class="a"/><path d="M350.3 1166.8c-0.2-0.6-4.3-13.8-17.8-17.2 -12.9-3.2-22.4 5.5-23.1 6.1 2 1.4 5 3.5 8.5 6.1 5.2 3.9 6.7 5.4 8.2 6.4C329.8 1170.8 336.7 1172.2 350.3 1166.8z" class="a"/><path d="M359.8 1171.4c-1.3 0-9.9 0.3-16 7.6 -6.4 7.6-4.9 16.6-4.7 17.8 1.9-1 4.8-2.5 8.5-4.4 7.4-3.8 8.8-4.3 10.2-5.8C359.3 1185 361.9 1180.9 359.8 1171.4z" class="a"/><path d="M372.6 1180.4c-1.1-2.2-3-5.7-5.7-9.8 -4.2-6.4-6.3-8.1-7.6-12 -1-2.8-1.6-7.4 0.6-14 2.7 1.2 7.1 3.7 10.5 8.5C378.7 1164.7 373.2 1179.1 372.6 1180.4z" class="a"/><circle cx="366.4" cy="1104.6" r="8" class="a"/><path d="M365.1 1113c0.3 0.5 0.6 1.1 0.9 2 0 0 0.4 1.2 0.4 2.5 0 4.7-3.8 8.5-8.5 8.5 -4.7 0-8.5-3.8-8.5-8.5s3.8-8.5 8.5-8.5" class="a"/><path d="M388.5 1169.7c-3.1-8.3-0.5-17 5.5-20.7 5.5-3.4 11.7-1.5 12.8-1.2 -2.6 3.3-5.3 6.8-8.2 10.2C395.3 1162.1 391.9 1166 388.5 1169.7z" class="a"/><path d="M686.3 2137.5c7.5-2.1 22-5.2 33.7-0.3 1.6 0.7 2.8 1.3 3.9 2.6 7.4 8.5-5.2 29.4-6.6 31.6 -0.4-3.4-2.2-14.2-11.3-23.3C698.5 2140.6 689.9 2138.3 686.3 2137.5z" class="a"/><path d="M690.7 2133.9c-0.5-1.6-4.9-13.7-14.6-16.1 -11-2.7-26.5 7.6-30.5 27.1 4.3-2.9 13-7.7 24.8-8.6 6.5-0.5 12 0.4 16 1.4" class="a"/><path d="M721.4 2125.9c1.4-2.3 3.3-4.9 5.9-7.4 6.8-6.7 14.3-9.4 18.7-10.6 -7.8-1.6-14.2-1.9-18.7-1.9 -7.1 0-11.1 0.1-15.6 2.3 -5.8 2.8-9 7.5-10.5 10.2 -0.3-3.3-1.3-10.3-6.7-15.4 -1.3-1.2-3.4-2.9-9.7-5.2 -4.8-1.8-11.8-4-20.8-5.1 4 3.5 9.8 9.8 13.7 19.2 0.9 2.1 1.5 4.1 2.1 6" class="a"/><path d="M707.9 2134.7c1.8-2 5.5-5.6 11.3-7.3 6.7-2 12.4-0.2 16.6 1.1 11.1 3.6 17.9 11.4 21 15.5 -5.5-1.7-12.4-3.2-20.3-3.9 -4.5-0.4-8.7-0.4-12.5-0.2" class="a"/><path d="M678.7 2136.3c0.3 1.7 0.7 4.3 1.4 7.4 1.8 8.3 2.7 12.4 5.2 15.1 0.4 0.4 5.1 5.3 11.4 4.4 5.6-0.8 10.4-5.8 11.7-12.5" class="a"/><path d="M708.8 2070.1c-0.2 8.1-0.8 17.2-2.1 26.9 -2.1 14.7-5.4 27.5-8.9 38.2 1.1-5.8 2.4-16.4-0.7-29 -2.8-11.7-8.1-20-11.6-24.6" class="a"/><path d="M701.5 2132.5c2.8-5.7 5.9-11.6 9.5-17.7 5.7-9.8 11.5-18.5 17.2-26.2" class="a"/><path d="M731.8 2084.7c-1.6 1.8-3.2 3.6-4.8 5.4" class="a"/><path d="M709.1 2068c-0.2 2.6-0.3 5.2-0.5 7.8" class="a"/><path d="M682.9 2078.4c1.3 1.8 2.7 3.5 4 5.3" class="a"/><path d="M693 2163.1c-3.2 13.1-7.8 27.8-14.6 43.3 -16.6 37.9-39.2 64.9-56.8 82.2" class="a"/><path d="M660.8 2243.9c7.5-1.4 20.3-4.8 33.3-14.1 9.6-6.8 16-14.4 19.9-19.9 4.4 0.4 9.9 0.4 16-0.6 14.5-2.5 24.6-9.8 29.6-14.1 -3.9-0.3-9.3-0.8-15.8-1.3 -27.7-2.1-32.2-1.4-36.2 0 -6.5 2.3-11.2 7-20.2 16.4C680.3 2217.9 670.7 2228.9 660.8 2243.9z" class="a"/><path d="M667.1 2229.9c3.8-10.5 9.5-31.1-0.1-42.9 -3.7-4.4-8.1-5.8-21.6-16.3 -6.2-4.9-11.1-9.1-14.2-11.9 1.2 7.1 3.9 17 11 26.2 5.6 7.3 9.8 9.1 15.2 15.7C661.6 2205.8 666.5 2214.7 667.1 2229.9z" class="a"/><path d="M852.6 1207c-17.3-41.7 26.6-73.1 13.7-117.1 -1.5-5.1-6.7-22.8-22.9-32.3 -8.7-5.1-22.8-9.1-37.1-5.7 -1 0.2-1.8 0.5-2.3 0.6 -17 4.8-27.3 16.9-31.2 21.3 -18.6 21.5-19.4 56.1-19.4 60.4 -0.6 45.8 26.7 77 30.8 81.4 34.7 38.3 82.1 39.2 92.8 36.3 1.3-0.3 4.2-1.1 5.1-3.4 1.8-4.7-9.6-10.3-18.9-22.2C863.1 1226.4 858 1219.9 852.6 1207z" class="a"/><path d="M770.2 1150.3c0.1 4.5 0.7 13.3 4.6 20.4 1.3 2.5 2.8 4.2 5 5 2 0.8 4.8 0.8 6.8-0.7 2.3-1.7 2.6-4.9 2.8-7.1 0.7-8.3 0.9-16 0.9-21.8" class="a"/><path d="M821.6 1149.7c-0.5 5.5-0.8 13.4-0.1 21.3 0.2 2.1 0.5 5.1 2.4 7.5 0.6 0.8 2.6 3.2 5.5 3.2 0 0 1.9 0 3.8-1.5 3.5-2.7 6.1-11.5 6.8-23.1" class="a"/><path d="M840.9 1100.8c0 3.1-2.5 5.7-5.7 5.7s-5.7-2.6-5.7-5.7c0-3.1 2.5-5.7 5.7-5.7C838.3 1095.1 840.9 1097.7 840.9 1100.8z" class="a"/><circle cx="791.4" cy="1095.3" r="5.7" class="a"/><path d="M799.5 1112.8c-1.8 7.6 2.9 14.3 8 15.2 5.5 1 12.7-4.4 12.8-12.8 -2.6 0.4-6 0.7-10.1 0.3C805.6 1115 802 1113.8 799.5 1112.8z" class="a"/><path d="M66.1-76.4c-0.6-2.5-1.1-5.1-1.7-7.6 -11 0.6-19.5 3.2-25.1 5.4 -9.4 3.8-26.9 13-25.5 20.4 0.1 0.5 0.4 1.5 1.6 2.8 9.4 10 36.3 0.9 43.3-1.4 3.7-1.3 28.1-9.4 27.1-15 -0.7-4-14.4-4.9-22.6-4.5C46.8-75.4 31.3-67.9 31.9-65c0.4 2 8.2 2.1 12.2 1.7 5.8-0.6 9.9-3.2 11.8-4.5 1 3.7 1.9 7.3 2.8 10.9" class="a"/><path d="M85.8-71.8c-0.5 11.1-0.6 23.1 0.1 35.9 0.4 7.5 1 14.7 1.7 21.5" class="a"/><path d="M14.6-56.5C25.1-43.5 36.4-27 46.2-6.7c3.9 8.1 7.2 15.9 9.9 23.4 3.9 21.8 6.7 46.4 7 73.4 0.1 8.6 0 16.9-0.4 24.9 2.5 1.6 6.4 3.7 11.5 5.2 3.5 1 14.1 4 26.2-0.2 3.4-1.2 9.7-3.4 15.3-9.6 3.9-4.3 5.7-8.8 6.6-11.6 -7.6-19-15.2-38-22.7-57" class="a"/><path d="M31.9-65c1.5 4.6 2.9 9.1 4.4 13.7" class="a"/><path d="M77.5 12.6c-1.1-1-2.5-2.5-3.4-4.8 -2.8-7.1 2.3-14.2 3-15.1 3.8-5.1 11-8.8 17.2-7.6 14.4 2.7 24 31.4 15.4 48 -1 2-3.6 6.7-8.5 8.3 -8.1 2.8-18.9-3.7-23-12.6C74.9 21.9 76.7 15 77.5 12.6z" class="a"/><path d="M51.7 5.4c7.3 0.3 14.6 0.7 21.9 1" class="a"/><path d="M60.4 38.7c6.2-2.6 12.5-5.3 18.7-7.9" class="a"/><path d="M56.3 17.8c6.7 1.7 13.5 3.4 20.2 5.1" class="a"/><path d="M85 37.5c-2.7 5.2-5.4 11.5-7.7 18.7C75.4 62.3 74.1 68 73.2 73c3.6-2.9 7.1-5.7 10.7-8.6 2.6 4.3 5.2 8.5 7.8 12.8 0.6-7.6 1.3-15.4 2.2-23.3 0.4-3.7 0.9-7.3 1.3-10.9" class="a"/><path d="M106.5 37.7c1.7 1.6 7.1 6.7 8.8 8.3 4.1 3.9 10.6 10.1 14.7 14 0.1-3.6 0.1-7.3 0.2-10.9 2.9-0.9 5.7-1.9 8.5-2.8 -3.8-3.5-9.3-7.7-16.6-11.1 -4.2-2-8.2-3.3-11.6-4.1" class="a"/><path d="M94.2-1.9c-1.1 0-2.5 0.2-3.9 1.1 -0.7 0.5-3 2.3-2.9 10.1 0.1 3.9 0.3 17.3 7.5 19.7 0.3 0.1 3.1 1 5.4-0.5 3.5-2.3 4.4-9.1 1.1-17.1" class="a"/><path d="M66.2 2359.7c-0.6-2.5-1.1-5.1-1.7-7.6 -11 0.6-19.5 3.2-25.1 5.4 -9.4 3.8-26.9 13-25.5 20.4 0.1 0.5 0.4 1.5 1.6 2.8 9.4 10 36.3 0.9 43.3-1.4 3.7-1.3 28.1-9.4 27.1-15 -0.7-4-14.4-4.9-22.6-4.5 -16.4 0.9-31.8 8.4-31.3 11.4 0.4 2 8.2 2.1 12.2 1.7 5.8-0.6 9.9-3.2 11.8-4.5 1 3.6 1.9 7.3 2.8 10.9" class="a"/><path d="M85.9 2364.3c-0.5 11.1-0.6 23.1 0.1 35.9 0.4 7.5 1 14.7 1.7 21.5" class="a"/><path d="M14.7 2379.6c10.5 13 21.8 29.5 31.7 49.8 3.9 8.1 7.2 15.9 9.9 23.4 3.9 21.9 6.7 46.4 7 73.4 0.1 8.6 0 16.9-0.4 24.9 2.5 1.6 6.4 3.7 11.5 5.2 3.5 1 14.1 4 26.2-0.1 3.4-1.1 9.7-3.4 15.3-9.6 3.9-4.3 5.7-8.8 6.6-11.6 -7.6-19-15.2-38-22.7-57.1" class="a"/><path d="M32 2371.1c1.5 4.6 2.9 9.1 4.4 13.7" class="a"/><path d="M77.6 2448.7c-1.1-1-2.5-2.5-3.4-4.8 -2.8-7.1 2.3-14.2 3-15.1 3.8-5.1 11-8.8 17.2-7.6 14.4 2.7 24 31.4 15.4 48 -1 1.9-3.6 6.6-8.5 8.4 -8.1 2.8-18.9-3.7-23-12.6C75.1 2457.9 76.8 2451.1 77.6 2448.7z" class="a"/><path d="M51.8 2441.6c7.3 0.3 14.6 0.7 21.9 1" class="a"/><path d="M60.5 2474.8c6.2-2.6 12.5-5.3 18.7-7.9" class="a"/><path d="M56.4 2453.9c6.7 1.7 13.5 3.4 20.2 5.1" class="a"/><path d="M85.1 2473.6c-2.7 5.2-5.4 11.4-7.7 18.7 -1.9 6.1-3.2 11.8-4.1 16.8 3.6-2.9 7.1-5.7 10.7-8.6 2.6 4.3 5.2 8.5 7.8 12.8 0.6-7.6 1.3-15.4 2.2-23.3 0.4-3.7 0.9-7.3 1.3-10.9" class="a"/><path d="M106.6 2473.8c1.7 1.6 7.1 6.7 8.8 8.4 4.1 3.9 10.6 10.1 14.7 13.9 0.1-3.6 0.1-7.3 0.2-10.9 2.9-0.9 5.7-1.9 8.5-2.8 -3.8-3.4-9.3-7.7-16.6-11.1 -4.2-2-8.2-3.3-11.6-4.1" class="a"/><path d="M94.3 2434.2c-1.1 0-2.5 0.2-3.9 1.1 -0.7 0.5-3 2.4-2.9 10.1 0.1 3.9 0.3 17.3 7.5 19.7 0.3 0.1 3.1 1 5.4-0.5 3.5-2.3 4.4-9.1 1.1-17.1" class="a"/><path d="M866.9 98.9c1.3-3.6 2.7-7.3 4-10.9 -3.3-0.8-6.5-1.5-9.7-2.3 -0.5 3.8-0.9 7.7-1.4 11.5C862.2 97.8 864.5 98.4 866.9 98.9z" class="a"/><path d="M870.6 88.5c5.3-1.6 11.9-3.1 19.7-3.8 8.7-0.7 16.3-0.2 22.2 0.7 0.4 1.9 0.8 5.2 0 9.1 -1.2 5.6-4.2 9.2-5.7 10.8 -4.8-0.3-10.8-1.1-17.4-3 -8.4-2.4-15.1-5.8-19.9-8.7" class="a"/><path d="M866.9 98.9c3.7 4 8.3 10 11.9 18 2 4.5 3.4 8.7 4.3 12.3 3-2.9 6.1-5.9 9.1-8.8 -1-3.1-2.6-7-5.3-11.1 -5.3-8.1-12.1-12.7-16.2-15" class="a"/><path d="M860.7 86.3c-4-3.7-9.4-7.9-16.1-11.9 -7.6-4.4-14.6-7.2-20.3-8.9 -1.2 1.6-3 4.3-3.9 8.2 -1.3 5.5-0.2 10.1 0.5 12.2 4.5 1.8 10.2 3.7 17 4.8 8.6 1.4 16.1 1.3 21.7 0.7" class="a"/><path d="M859.5 97.3c-5.1 2.1-11.8 5.4-18.5 11.1 -3.8 3.2-6.8 6.4-9.2 9.3 -1.5-4-3-7.9-4.4-11.9 2.3-2.4 5.4-5.2 9.5-7.7 8.3-5.1 16.4-6.2 21-6.6" class="a"/><path d="M860.8 97.5c-6.2 27-12.4 54-18.6 81.1 2.1 0.5 4.1 0.9 6.2 1.4 6.2-27.3 12.3-54.5 18.5-81.8" class="a"/><path d="M842.2 72.5c-6.1-9.1-8.1-20.3-5.7-31 4.8-21.4 26.4-35 47.8-30.1 21.4 4.8 35 26.4 30.1 47.8 -2.3 10.3-8.7 19.3-17.6 24.9" class="a"/><path d="M878 86.1c1.8-0.7 15.3-5.8 19.9-20.1 0.3-0.9 5.8-18.8-5.9-29.3 -9.6-8.6-27.3-9-35.3 1.4 -6 7.8-6.4 21.3 1.6 28.1 5.5 4.7 15.1 6.4 21.5 1.5 4-3.1 6.7-8.9 5.5-14.4 -0.2-1-1.5-6.6-6.5-8.5 -3.8-1.4-8.9-0.3-11.1 3.3 -1.1 1.8-2.2 5.3-0.2 7.4 1.8 2 5.5 2.2 8.5 0" class="a"/><path d="M839.2 1569c5.2-3.1 10.4-6.1 15.5-9.2 9.7-24.4 19.5-48.8 29.2-73.3 -5.9-2.8-11.8-5.5-17.8-8.3 -8.1 16.3-16.3 32.6-24.4 48.8C840.9 1541 840.1 1555 839.2 1569z" class="a"/><path d="M857.5 1484c8.7 6.6 17.3 13.1 26 19.7" class="a"/><path d="M880.2 1506c-8.5-4.9-16.9-9.9-25.4-14.8" class="a"/><path d="M851.7 1496.7c8.7 5.1 17.5 10.2 26.2 15.2" class="a"/><path d="M875.6 1481.2c3.5-1.8 8.6-5 13.5-10.2 3.3-3.4 10.2-10.7 12-21.6 1.9-10.9-1.1-27-11.4-31.3 -5.2-2.2-13.3-1.8-17.1 3.4 -2.7 3.6-3.6 10.1 0.2 13.8 3.1 3 8.7 3.6 11.8 0.8 2-1.7 3.3-4.9 2.3-7.4 -0.2-0.4-0.8-2.1-2.6-2.5 -1.6-0.4-2.9 0.5-3.1 0.6" class="a"/><path d="M882 1494.1c2.6 1.1 10.8 4.2 20.6 1.4 2.4-0.7 8.2-2.4 13-7.8 7.5-8.4 9.3-22.2 4.4-30.3 -1.3-2.2-3-3.8-3.6-7.1 -1-5.4 1.9-10.1 2.5-11.1 4.3-7 13.7-11.1 22.5-9.7 7.6 1.2 17.5 7 18.1 16 0.4 6.2-3.7 13.4-9.8 15.1 -3.2 0.9-8.1 0.6-10.5-2.7 -1.3-1.8-2.1-5-0.5-7.3 1.2-1.7 3.8-3 5.9-2.2 0.8 0.3 1.4 0.9 1.7 1.3" class="a"/><path d="M840.3 1568.3c2.3-6.5 4.7-13 7-19.4 10.1-21.8 20.3-43.5 30.4-65.3" class="a"/><path d="M862.7 1539.9c-5.2 3.2-10.4 6.4-15.6 9.6 -1.8-7.5-3.6-15-5.3-22.4" class="a"/><path d="M27.6 1047.8c5.4 4 11.8 8.3 19.1 12.5 7 3.9 13.6 7 19.6 9.5 1.3-0.8 3.8-2.6 5.6-5.9 1.4-2.6 1.8-5.1 1.8-6.5 -5.5-3.7-11.6-7.5-18.1-11.3 -7.3-4.2-14.3-7.7-20.8-10.8 -1 0.4-3.5 1.4-5.4 4.1C26.8 1043 27.5 1047 27.6 1047.8z" class="a"/><path d="M44.7 1039.5c1.6-6.3 3.3-11 4.2-12.9 1.2-2.6 2.6-3.6 3.2-3.9 0 0 0.1-0.1 0.3-0.2 6.3-3.4 22.3 5.8 22.6 12.8 0 0.2 0 0.4 0 0.4 -0.1 2.2-1.1 3.8-1.9 4.8 -1.3 1.8-4.3 5.7-8.6 10.7" class="a"/><path d="M33.3 1051.9c-15.6 27.5-31.3 55-46.9 82.5 -0.6 0.9-4.3 6.4-2.7 13.3 0.3 1.2 1.6 7.4 7.6 10.5 5.2 2.7 10.3 1.2 11.8 0.7 7.1-2.2 10.3-8.3 10.8-9.6 15.6-27.4 31.2-54.7 46.8-82.1" class="a"/><path d="M19 1092.6c-8.6 15.3-17.2 30.6-25.8 46 -3.7 4.7-2.1 11 1.5 13s9.8 0.2 12-5.4c8.7-15.2 17.5-30.5 26.2-45.7C28.3 1097.8 23.7 1095.2 19 1092.6z" class="a"/><path d="M1151.5 1047.8c5.4 4 11.8 8.3 19.1 12.5 7 3.9 13.6 7 19.6 9.5 1.3-0.8 3.8-2.6 5.6-5.9 1.4-2.6 1.8-5.1 1.8-6.5 -5.5-3.7-11.6-7.5-18.1-11.3 -7.3-4.2-14.3-7.7-20.8-10.8 -1 0.4-3.5 1.4-5.3 4.1C1150.7 1043 1151.4 1047 1151.5 1047.8z" class="a"/><path d="M1168.6 1039.5c1.6-6.3 3.3-11 4.2-12.9 1.2-2.6 2.6-3.6 3.2-3.9 0 0 0.1-0.1 0.3-0.2 6.3-3.4 22.3 5.8 22.6 12.8 0 0.2 0 0.4 0 0.4 -0.1 2.2-1.1 3.8-1.9 4.8 -1.3 1.8-4.3 5.7-8.6 10.7" class="a"/><path d="M1157.2 1051.9c-15.6 27.5-31.3 55-46.9 82.5 -0.7 0.9-4.3 6.4-2.7 13.3 0.3 1.2 1.7 7.4 7.6 10.5 5.2 2.7 10.3 1.2 11.8 0.7 7.1-2.2 10.3-8.3 10.8-9.6 15.6-27.4 31.2-54.7 46.8-82.1" class="a"/><path d="M1142.9 1092.6c-8.6 15.3-17.2 30.6-25.8 46 -3.7 4.7-2.1 11 1.5 13s9.8 0.2 12-5.4c8.7-15.2 17.5-30.5 26.2-45.7C1152.2 1097.8 1147.6 1095.2 1142.9 1092.6z" class="a"/><path d="M1059.4 2208c21.4 9.3 35 28.1 32.2 47.7 -3.5 24.7-31.9 41.1-63.3 36.7 -31.5-4.5-54.1-28.1-50.6-52.8 3-20.9 23.6-35.8 48.9-37.3" class="a"/><path d="M1028.4 2189.4c-0.6 4.3-1.2 8.5-1.8 12.8" class="a"/><path d="M1061.5 2193.8c-0.7 4.5-1.3 8.9-2 13.4" class="a"/><path d="M1022.2 2187.4c6.9 1.8 14.8 3.6 23.6 4.8 8.4 1.2 16.1 1.7 22.9 1.8 0.9-1.2 2.7-3.8 3.2-7.6 0.3-2.9-0.3-5.4-0.7-6.7 -6.9-1.5-14.3-2.9-22.2-4.1 -8.7-1.3-17-2.1-24.7-2.6 -0.8 0.7-2.9 2.6-3.6 5.7C1019.6 2183.2 1021.8 2186.8 1022.2 2187.4z" class="a"/><path d="M1076.6 2232.7c3.5 6.1 5 12.9 4.1 19.8 -2.8 20-25.8 33.3-51.3 29.7s-43.8-22.8-41-42.8c1-7.2 4.6-13.5 10-18.5" class="a"/><path d="M1076.2 2233.2c-0.7 4.6-18.7 5.8-40.3 2.8 -21.6-3.1-38.6-9.3-37.9-13.9s18.7-5.8 40.3-2.8C1059.9 2222.4 1076.9 2228.6 1076.2 2233.2z" class="a"/><path d="M1035.6 2173.6c-0.9-6.5-1.1-11.4-1-13.6 0.2-2.9 1.2-4.3 1.6-4.8 0 0 0.1-0.1 0.2-0.2 4.8-5.4 24.1-2.6 27.1 3.9 0.1 0.2 0.2 0.4 0.2 0.4 0.8 2.1 0.4 3.9 0.1 5.2 -0.5 2.1-1.9 6.9-4.3 13.1" class="a"/><path d="M216.8 1926.6c-8.9 34-45.3 48.4-71.8 42 -15.4-3.7-25.3-13.9-30-19.5 3 0.7 16 3.6 29.4-3.8 11.9-6.5 16.6-17 17.9-20.1 -6.2-4.7-12.4-9.4-18.7-14.1 12-2.8 21.1-11.6 22.7-21.8 2.2-14.1-10.1-30.3-29.2-32 6.7-2.7 21.3-7.3 37.6-2.6C201.1 1862.4 225.7 1892.8 216.8 1926.6z" class="a"/><circle cx="185.4" cy="1901.8" r="6.5" class="a"/><path d="M153 1939c1.9 1.3 6.1 3.7 11.9 4 8.2 0.5 14-3.3 15.8-4.6" class="a"/><path d="M235.5 2039.5c0.5 2.1 5.8 24 23.2 29.3 2.5 0.8 6 1.4 10.3 1 -3.1 2.1-7 5.5-10.1 10.6 -9 14.9-2.9 31.6-1.9 34.2" class="a"/><path d="M294.9 2023.8c0.6 1.7 7.9 22.3-3.6 35.7 -1.7 2-4.3 4.3-8.2 6.3 3.8 0.2 8.9 1 14.2 3.7 15.5 7.7 19.8 24.3 20.5 27.3" class="a"/><path d="M227.4 2029.7c0.9 3.4 1.9 6.8 2.9 10.2 23.3-6.6 46.5-13.2 69.8-19.7 -1-3.5-2-6.9-3-10.4C273.9 2016.4 250.7 2023 227.4 2029.7z" class="a"/><path d="M252.1 2116.1c0.9 3.4 1.9 6.8 2.9 10.2 23.3-6.6 46.5-13.2 69.8-19.7 -1-3.5-2-6.9-3-10.4C298.5 2102.8 275.3 2109.5 252.1 2116.1z" class="a"/><path d="M262.8 2105c0.9-1.9 6.2-12.2 18.7-16.3 13.7-4.4 25 2.4 26.6 3.4C293 2096.4 277.9 2100.7 262.8 2105z" class="a"/><path d="M250.5 2053.8c1.4 1.8 4 4.5 7.9 6.6 2.1 1.1 8.7 4.5 16.5 2.1 7.7-2.4 11.3-8.7 12-10 2.1-3.9 2.4-7.5 2.4-9.5 -5.4-0.1-13 0.4-21.7 3.1C260.4 2048.2 254.6 2051.3 250.5 2053.8z" class="a"/><path d="M274.3 2062.7c1.1 3.9 2.1 7.8 3.2 11.8" class="a"/><path d="M279.2 2081.1c0.1 0.4 0.2 0.8 0.3 1.2" class="a"/><path d="M384.7 1598.5c0.7 0.5 1.8 1.1 3.3 1.3 1.8 0.3 3.2 0 4-0.3 2.3-23.7 4.6-47.4 6.8-71.1 0.9-1.6 2.4-3.9 4.8-5.8 3.6-2.9 5.7-2.2 7.9-5 2-2.6 2.3-6 2.5-8.4 0.2-2.5 0.5-5.8-0.8-8.3 -1-1.9-2.8-3.3-15.1-4.4 -11.4-1.1-13.5-0.3-14.9 1.5 -1.5 1.9-1.9 4.5-2.3 7.2 -0.4 2.8-0.8 5.6 0.2 8.4 1.2 3.4 3.5 3.5 6.5 7.3 2.1 2.7 3.3 5.4 3.9 7.2 -1.8 17.4-3.5 34.7-5.2 52.1 -2.7-0.3-5.4-0.5-8-0.8 -0.5 4.4-0.9 8.8-1.3 13.3 2.7 0.3 5.5 0.6 8.2 0.9C385 1595.2 384.9 1596.9 384.7 1598.5z" class="a"/><path d="M389.4 1505.4c1.1-2.1 4.3-1.7 9.3-1 4.6 0.6 7.3 0.9 7.9 2.9 0.6 2.1-1.4 4.8-2.8 6 -2.6 2.4-5.8 2.1-7 1.9 -1.3-0.2-4.4-0.5-6.3-3.5C389.6 1510.3 388.4 1507.3 389.4 1505.4z" class="a"/><path d="M427.2 1539.4c-4.3 1.2-7.8 1.5-9.8 1.5 0.3 0.4 2.2 3.1 1.2 5.3 -1.2 2.5-5.6 2.3-7.2 2.2 -6.4-0.3-11-4.8-13.1-7.1 8.6-9.3 17.3-14.6 23-17.6 0 0 13.6-7 29.3-6.3 1.2 0.1 2.6 0.2 3.1 1.1C455.6 1521.8 442.9 1535.1 427.2 1539.4z" class="a"/><path d="M398.1 1543.8c0.2 4.4 1.4 17.6 11 24.1 4.9 3.3 12 4.9 13.2 3.1 0.5-0.8 0-2.6-7.4-10.7C410.7 1555.7 405.2 1550 398.1 1543.8z" class="a"/><path d="M361.9 1533.4c4 2 7.4 2.9 9.3 3.3 -0.4 0.3-2.8 2.7-2.2 4.9 0.7 2.7 5.1 3.3 6.7 3.5 6.4 0.9 11.7-2.7 14.2-4.5 -6.7-10.8-14.2-17.6-19.3-21.6 0 0-12-9.4-27.5-11.7 -1.2-0.2-2.6-0.3-3.2 0.4C337.4 1510.8 347.4 1526.2 361.9 1533.4z" class="a"/><path d="M389.7 1543.2c-1 4.3-4.7 17-15.4 21.6 -5.5 2.3-12.7 2.6-13.5 0.6 -0.4-0.9 0.5-2.5 9.3-9.2C375 1552.5 381.6 1547.9 389.7 1543.2z" class="a"/><circle cx="802.7" cy="1642.8" r="9.2" class="a"/><rect x="797.6" y="1674.3" transform="matrix(0.9654 -0.2608 0.2608 0.9654 -417.1875 268.0007)" width="7.2" height="63.4" class="a"/><path d="M804.1 1731.6l-13.7 3.7c-0.7-2.5-1.4-5-2-7.5 2.3-0.6 4.5-1.2 6.8-1.8 -0.5-1.7-0.9-3.4-1.4-5.2 -2.2 0.6-4.5 1.2-6.7 1.8 -0.5-1.8-1-3.6-1.5-5.4 4.6-1.2 9.2-2.5 13.7-3.7L804.1 1731.6z" class="a"/><path d="M787.2 1676.9c-0.7-1.9-1.4-3.8-2-5.8 4.3-1.2 8.5-2.3 12.8-3.5 0.3 2 0.7 4 1 6.1C795 1674.8 791.1 1675.8 787.2 1676.9z" class="a"/><path d="M803.8 1652c-0.8 0.3-6.1 2.3-8.1 7.9 -1.3 3.6-0.5 6.7-0.2 7.9" class="a"/><path d="M770.9 1660.9c1.3-0.4 4.5-1.3 8.1-0.1 6.6 2.2 8.5 9.1 8.6 9.7" class="a"/><path d="M951.5 482.5c2.4 5.9-0.8 14.5-7.8 17.6 -7 3-15.6-0.4-18.2-6.2 -1-2.3-1-4.6-0.7-6.2 -3.8-0.1-6-1.4-7.4-2.4 -6.6-5.2-6.6-19.3 1.2-34.5 3.5 9.5 7.1 18.9 10.7 28.4 0.8-0.8 2.1-2 4-2.9 1.9-0.9 3.7-1.2 4.8-1.3 -4.1-9.1-8.3-18.2-12.4-27.3 15.3 3.6 25.2 12.9 25.1 21.8 0 1.8-0.5 4.8-3 8.4C949 478.8 950.6 480.3 951.5 482.5z" class="a"/><path d="M952.3 487.2c7.9-8.3 9.6-15.1 9.5-20 -0.1-7.1-4-11.2-3.4-20.7 0.3-5.3 1.8-9.1 2.8-11.6 6.9-17.7 27.9-28.5 31.5-30.4 -1.6 2.3-5.9 9.4-5.2 19 1 13.8 11.3 21.5 12.9 22.7 -6.9 1.9-12.2 7.5-13.8 14.4 -1.6 7 0.7 14.3 6.1 19.1 -0.7 0-11.8 0.2-17.4 9.4 -3.6 6-2.6 12.2-2.3 13.9 -2.6-0.1-8.6-0.1-11.1 3.7 -0.6 1-0.8 1.9-0.9 2.4 -1.2 6.8-0.2 24.8 0 28.5" class="a"/><path d="M926.8 497.1c-9.5-0.5-14.7-3.7-17.8-6.5 -5.6-5.1-5.6-10.6-12.9-16.5 -4.1-3.3-7.9-4.8-10.5-5.8 -17.7-6.9-39.9 1.2-43.7 2.6 2.8 0.4 10.9 2 17.6 9.1 9.5 10 8.2 22.9 7.9 24.8 6.1-3.8 13.8-3.9 20-0.4 6.2 3.5 10 10.2 9.9 17.4 0.5-0.5 8.2-8.6 18.7-6.4 6.9 1.4 10.8 6.4 11.8 7.8 1.7-2 5.8-6.4 10.2-5.6 1.1 0.2 1.9 0.7 2.4 1 5.8 3.7 18 16.5 20.6 19.2" class="a"/><circle cx="944.5" cy="484.7" r="0.7" class="a"/><path d="M933.3 489.6c0.2 0.4 0 0.8-0.4 0.9s-0.8 0-0.9-0.4 0-0.8 0.4-0.9S933.2 489.2 933.3 489.6z" class="a"/><path d="M939.3 489.1c0.5 1.2 1.1 2.5 1.6 3.7" class="a"/><path d="M938.1 495.3c-0.3-0.3-0.6-0.6-0.9-0.9 2.4-1.1 4.9-2.1 7.3-3.2 0 0.4 0 0.7 0.1 1.1" class="a"/><path d="M35.1 870.8c2.9 21 5 37.6 6.3 47.6 0.6 4.7 1 8.3 0.7 13.1 -0.6 7.6-2.4 9.3-1.3 11.6 3.9 8.2 35.6 4.7 37.7-4.3 0.6-2.4-1.4-3.5-4.1-10.7 -1.5-3.9-2.2-7.2-3.4-14.7 -2.6-16.2-4.8-35.7-5.2-39.2 -0.4 4.6 2 8.2 4.7 8.6 2.8 0.5 5.8-2.5 6.6-5.3 1.3-4.4-3-6-5.8-15.1 -2.1-6.8-1.2-11.1-5.1-13.9 -0.6-0.4-1.9-1.4-3.8-1.6 -5.8-0.8-7.6 6.1-12.7 6.3 -5.4 0.2-7.6-7.4-17-9.8 -1.2-0.3-2.5-0.5-3.8 0.1 -2.4 1.3-1.5 4.5-3.4 9.4 -2.1 5.4-4.7 5.5-5.1 9.7 -0.1 0.7-0.5 4.4 1.9 7.1C25.3 872.9 31 873.6 35.1 870.8c3.9-2.7 5.4-8 3.5-12.7" class="a"/><path d="M49.8 853.2c0-3-0.1-6.4-0.4-10 -0.5-4.4-1.2-8.4-2.1-11.8" class="a"/><path d="M35.2 772.8c-1.6 1.9-1.2 4.2-1 5 0.8 4.8 6.8 7 12.8 11 1.2 0.8 9.2 6.2 13.1 12.9 6.9 12 2.3 31.2-8.2 35.2 -2.6 1-4.8 0.8-6.1 0.7 -9.4-0.8-16.5-10-17.7-18.4 -0.1-1-0.4-2.7 0-5 1.4-9.7 10.4-12.4 12.2-19.7 0.7-2.9 0.5-7.4-4.8-13.9" class="a"/><path d="M40.5 825.6c-0.7-1.4-1.1-2.7-1.3-3.8 -1-7 4.6-12.5 5.5-13.4 1.1 0.7 7.2 4.9 7.6 11.7 0.1 1.5-0.1 2.8-0.4 4" class="a"/><path d="M583.6 358.8c3.1 0 6.4-1.6 8-4.1 2-3 0.8-6.4 0.1-11.1 -0.3-1.6-1.9-11.9-0.1-19.5 1.9-7.6 8.6-17.2 17.9-17.6 4.5-0.2 9.2 1.7 12.2 5 6.8 7.5 3 19.5 2.3 21.6 -0.1 0.3-0.1 0.3-7.9 15.7 -0.6 1.1-2.4 4.8-2.3 9.6 0 2 0.1 3 0.7 3.7 2.4 2.9 8.3-1.8 15.8 0.3 0.8 0.2 7.5 2.1 8.7 7.1 0.5 2.3-0.1 5-1.7 6.9 -3.7 4.3-10.3 1.8-20.6 2.3 -12.7 0.7-12.1 5-21.9 5 -11.8 0-24.2-6.3-28.8-15.9 -0.3-0.7-4-8.4-0.9-11.7 2-2.2 6.2-1.5 7.8-1.3C578.4 355.7 579.3 358.9 583.6 358.8z" class="a"/><path d="M591 384.8c-0.3 1.1-1 2.9-2.5 4.5 -3.5 3.6-8.3 3.3-9.1 3.2 0 0.8-0.1 4.7 2.6 6.6 1.9 1.4 4.3 1.2 6.5 0.9 4.8-0.5 5.8-2.5 8.3-1.8 2.4 0.7 2 2.7 5.1 4.3 3.3 1.6 6.6 0.7 7.3 0.6 3.6-1 5.5-3.6 6-4.4 -0.7-0.1-6.7-1.3-9.6-7 -2.5-4.8-1.2-9.3-0.9-10.3" class="a"/><path d="M590 399.9c-0.7 2.1-1.8 5.4-3.6 9.2 -2.5 5.5-4 6.9-3.7 9.7 0.4 3.4 3.2 6.7 7 7.9 4.4 1.3 9.2-0.6 11-3.7 1.5-2.6 0-4.7-0.4-11.6 -0.2-4 0-7.3 0.2-9.4" class="a"/><path d="M592.2 322.4c1.7-5.4 8-8.5 12.5-6.8 5.5 2.2 7.4 11.5 3 16.2 -2.7 2.8-7.8 4-11.8 1.5C592 330.9 591 326 592.2 322.4z" class="a"/><path d="M616.9 347.5c-0.9-4.4-5.3-7.2-9.5-6.1 -4.6 1.2-6.8 6.5-5.2 10.2 1.7 4 7.4 6 12 3.1" class="a"/><path d="M589.9 365c-2.5-0.6-6.6-0.3-8.2 2.4 -0.8 1.5-0.7 3.4 0 4.8 2.2 4.4 11.2 5.2 13.6 1.8 1.3-1.8 0.3-4.5 0.2-4.8C594.3 366 590.7 365.2 589.9 365z" class="a"/><path d="M618 364c-0.6 0.2-2.4 0.8-3.6 2.7 -0.4 0.6-1.5 2.2-1 3.5 0.9 3 10.2 5.3 14.4 0.9 2.5-2.6 2.2-6.5 2-7.5" class="a"/><path d="M415.6 1013.3l-7.8 1.8 -16-70.6 7.8-1.8c3.1 13.7 6.2 27.5 9.4 41.2 5-1.1 9.9-2.2 14.9-3.3 0.7 3 1.4 6 2 9 -1.1 0.3-2.3 0.5-3.4 0.8 -1.5-1.1-3.5-1.2-5-0.4 -1.7 0.9-2.8 2.9-2.5 4.9 0.4 2.1 2.3 3.5 4.2 3.7 1.9 0.2 3.8-0.9 4.7-2.6 1.1-0.3 2.2-0.5 3.2-0.7 0.7 2.9 1.3 5.8 2 8.7 -5 1.1-9.9 2.3-14.9 3.4C414.7 1009.3 415.2 1011.3 415.6 1013.3z" class="a"/><path d="M391.8 944.5c-4.1-2.5-8.6-5.7-13.3-9.5 -4.7-3.9-8.7-7.8-12-11.4 1.6-4.3 3.9-9.4 7.1-14.8 3.6-5.9 7.5-10.6 10.8-14.2 4.1 1.8 8.9 4.2 13.9 7.6 5.5 3.7 9.8 7.5 13.1 10.8 -1.4 4.6-3 9.4-5 14.5 -2.2 5.5-4.5 10.6-6.8 15.2" class="a"/><path d="M395.8 944.1c0-6.6 0-13.1-0.1-19.7 5.2-3.8 10.5-7.6 15.7-11.4 -6.1 0.4-12.2 0.8-18.3 1.2 -2.9-6.5-5.8-13-8.6-19.5 -0.2 7.2-0.4 14.3-0.5 21.5 -5.8 2.5-11.6 5-17.4 7.4 6.8 1 13.6 2 20.3 3C389.8 932.4 392.8 938.3 395.8 944.1z" class="a"/><path d="M315.9 515c4.7-8.2-9.3-47.4 2.2-71.1 0.9-1.8 6.3-12.6 18.2-17.6 13.3-5.6 28.8-1.5 38.6 6.1 19.9 15.5 15.6 45.5 14.4 53.5 -0.9 6.2-5 34.4-28.8 48.7 -27.7 16.6-66 4.3-68.7-4.9 -0.2-0.7-0.9-2.8 0.2-4.5 2-3 7.8-0.5 14.1-2.6l0 0c0.3-0.1 3-0.8 5.5-2.7C311.7 519.9 314.2 518 315.9 515z" class="a"/><path d="M378.3 493.7c-0.5 2.9-1.8 8.4-5 12.5 -1.1 1.4-2.2 2.4-3.7 2.7 -1.4 0.3-3.1 0-4.3-1.1 -1.3-1.3-1.2-3.4-1.1-4.8 0.4-5.3 1.1-10.3 1.6-14" class="a"/><path d="M343 489.9c-0.2 3.5-0.7 8.4-2 13.3 -0.4 1.3-0.9 3.1-2.4 4.4 -0.5 0.4-2.2 1.7-4.2 1.4 0 0-1.3-0.2-2.5-1.4 -2.2-2-3.2-7.9-2.5-15.1" class="a"/><path d="M334.1 454c-0.3 2.1 1.1 4.1 3.2 4.4 2.1 0.3 4.1-1.1 4.4-3.2 0.3-2.1-1.1-4.1-3.2-4.4C336.4 450.4 334.4 451.9 334.1 454z" class="a"/><circle cx="367.9" cy="455.6" r="3.9" class="a"/><path d="M359.5 467.5c-1.2 2-3.3 3.2-5.5 3.1 -2.6 0-4.9-1.8-5.8-4.4" class="a"/><path d="M1014 979.3c1.8 1.8 1.5 3.7 4 5.4 3.8 2.5 10.1 2.1 12.9-1.2 2.4-2.7 0.6-5.3 2.3-8 3.2-4.9 14.7-5.4 21.2-1.9 13.7 7.5 20.2 40.8 2.6 59.5 -12.4 13.2-34 16-49.4 7.5 -23.4-12.8-27.6-48.3-16.7-58.8C996.6 976.5 1009.4 974.7 1014 979.3z" class="a"/><path d="M1056.5 975c10.5-1.2 18.4-7.8 19.9-15.9 0.9-5-0.7-10-3.4-13.4 -6.1-7.7-19.9-9.4-33.6-2.9 -0.6-1.5-1.3-3-1.9-4.5 -2.8 1.1-5.5 2.2-8.2 3.3 -0.7-1.4-1.4-2.8-2.1-4.2 2.9-2.6 13.8-11.7 29.4-11.3 4.5 0.1 16.8 0.4 25.4 10.1 1.2 1.4 8.1 9.4 7.3 21.2 -0.7 10.4-7 16.9-9.4 19.3 -5.9 6-12.6 8.1-15.8 8.9" class="a"/><path d="M1026.8 1014.3c0.8 5 1.6 10 2.5 15 2.3-0.3 4.6-0.7 6.9-1 -0.8-5.1-1.7-10.1-2.5-15.2 0.3-0.2 3.8-3.3 3.2-7.8 -0.6-4.1-4.4-7.4-8.7-7.2 -4.3 0.1-8.2 3.6-8.2 8C1019.9 1009.9 1022.7 1013.4 1026.8 1014.3z" class="a"/><path d="M172.8 1139.5c1.8-1.3 4.9-3.1 9-4.1 3.5-0.9 6.5-0.9 8.6-0.7" class="a"/><path d="M167 1155.5c0.6 2.8 1.5 6.1 3.3 9.4 6.8 12.9 19.9 17.6 24.1 18.9 2.8-3.2 11.4-14 10.5-28.5 -0.3-4-1.2-7.5-2.3-10.3" class="a"/><path d="M190.4 1134.7c-0.3-1.1-2.8-11.8 4.1-18.9 1-1 4.4-4.5 9.5-4.7 6.2-0.2 11 4.8 13.1 9 3.9 8-0.7 15.8-1 16.4 -4.5 7.3-12.4 8.3-13.4 8.4" class="a"/><path d="M194.8 1153.2c0.1 0.5-0.2 0.9-0.7 1.1 -0.5 0.1-1-0.1-1.1-0.6 -0.1-0.5 0.2-0.9 0.7-1.1C194.2 1152.5 194.7 1152.8 194.8 1153.2z" class="a"/><path d="M211.8 1113.8c-1.3 0-6.1 0-10.2 3.4 -3.9 3.2-4.9 7.3-5.3 8.9 -2.3 9.8 5.5 18 6.3 18.8" class="a"/><path d="M172.3 1140c-0.3-1.1-3.6-11.6-13.1-14.2 -1.3-0.4-6.1-1.7-10.5 0.8 -5.4 3-7.1 9.7-6.7 14.5 0.7 8.9 8.7 13.3 9.3 13.6 7.6 4 14.9 0.8 15.8 0.3" class="a"/><path d="M176.3 1159.4c0.3 0.9 1.2 1.5 2.1 1.2s1.5-1.2 1.2-2.1 -1.2-1.5-2.1-1.2S176 1158.4 176.3 1159.4z" class="a"/><path d="M143.2 1133c1.1-0.7 5.2-3.1 10.6-2.3 5 0.8 8 3.8 9.1 4.9 7 7.3 4.5 18.3 4.2 19.4" class="a"/><path d="M187.4 1181c0.3-0.5 1.9-3.3 5.5-4.2 3.1-0.7 5.5 0.5 6.1 0.8" class="a"/><path d="M198.4 1178.4c2.4-2.5 6.4-6.2 12.4-9.1 5.1-2.4 9.7-3.3 12.9-3.7" class="a"/><path d="M197.5 1179.7c3.1-1.3 7.7-2.8 13.4-3.3 4.9-0.4 9.1 0.1 12.2 0.7" class="a"/><path d="M186.8 1181.5c-3.3-1-8.7-2.1-15.3-1.5 -5.6 0.5-10.1 2.1-13 3.4" class="a"/><path d="M188.3 1182.2c-3.3 0.5-8.1 1.5-13.2 4.1 -4.4 2.2-7.8 4.7-10.1 6.8" class="a"/><path d="M503.3 232.6c4.7-1.6 9.4-3.2 14.1-4.8 0.7 1.9 1.4 3.8 2.1 5.8 -2.2 0.8-4.4 1.6-6.6 2.4 0.7 1.9 1.4 3.9 2 5.8 2.2-0.8 4.4-1.5 6.6-2.3 0.8 2.4 1.6 4.8 2.4 7.3 -4.8 1.7-9.5 3.4-14.3 5.1 0.5 1.5 1 3 1.4 4.5 -0.7 0.8-2.6 2.5-5.5 3.3 -2.2 0.6-4 0.4-5.1 0.2 -5.7-16.4-11.3-32.7-17-49.1 -15.4-0.8-26.1-8.9-26.4-16.5 -0.5-10.5 19.3-17.3 20.8-17.8 2-0.7 21.1-6.8 27 1.7 4.3 6.2 0.9 19.1-10.7 28.9C497.3 215.5 500.3 224 503.3 232.6z" class="a"/><path d="M492.5 186.1c3.2 3.7 0.8 12.9-5.3 15.5 -6.7 2.9-15.6-3.2-15.6-8.1 0-4.8 8.7-8 9.1-8.1C481.4 185.1 489.3 182.4 492.5 186.1z" class="a"/><path d="M644.8 1982.4c6.2 0.6 12.4 1.1 18.6 1.7 -4.2 4.6-8.3 9.1-12.5 13.7 1.8 5.9 3.6 11.8 5.4 17.6 -5.7-2.3-11.4-4.7-17.2-7 -5.3 4.1-10.7 8.1-16 12.2 0.8-7 1.6-14.1 2.4-21.1 -5.7-3.6-11.3-7.2-17-10.8 6.3-1.2 12.7-2.4 19-3.7 2.4-6.4 4.8-12.9 7.2-19.3C638.1 1971.3 641.4 1976.8 644.8 1982.4z" class="a"/><path d="M639.2 1973.1c3.6-9.1 12.2-27.3 30.8-43.2 19-16.3 38.7-21.9 48.3-24 -4 3.1-8.5 7.2-13.1 12.3 -3.8 4.4-6.8 8.6-9.2 12.3 3.5 0.5 7.1 0.9 10.6 1.4 -4.8 5.1-9.7 10.1-14.5 15.2 4.7-0.9 10.1-1.6 16.2-1.8 7.3-0.2 13.7 0.3 19.1 1.1 -10.1 4.3-18.6 7.9-24.7 10.6 -20 8.8-25.5 11.7-29.3 13.8 -8.6 4.8-15.3 9.3-19.6 12.4" class="a"/><path d="M465 790.5c-6.8 2.5-13.6 5.1-20.5 7.7 6.1 3.8 12.2 7.7 18.3 11.5 -0.2 7.2-0.4 14.3-0.5 21.5 5.7-4.4 11.4-8.8 17.1-13.3 7.3 2.9 14.5 5.8 21.8 8.7 -3.1-7.7-6.2-15.3-9.3-23 5.3-5.8 10.5-11.6 15.8-17.4 -7.5 0.6-15 1.2-22.5 1.8 -4.7-6.5-9.4-13-14.2-19.5C469.1 775.8 467 783.1 465 790.5z" class="a"/><path d="M468.4 778.2c-6.9-9.2-22.2-26.9-48.1-39 -26.5-12.4-50.4-12.6-61.9-12 5.4 2.3 11.8 5.4 18.5 9.8 5.6 3.7 10.4 7.5 14.2 11 -3.8 1.6-7.6 3.3-11.5 4.9 7 4.2 14 8.4 21 12.6 -5.5 0.5-11.9 1.4-18.8 3.1 -8.3 2-15.3 4.6-21.1 7.1 12.7 1.6 23.3 3.1 31.1 4.2 25.2 3.6 32.3 5.2 37.2 6.4 11.2 2.7 20.1 5.7 26 7.8" class="a"/><path d="M775.6 587.4c12.8 11.2 17.8 29.7 11 46.4 -8.5 21.1-32.5 31.2-53.6 22.7 -21.1-8.5-31.2-32.5-22.7-53.6 7.2-17.8 25.4-27.8 43.6-25.4" class="a"/><path d="M761.2 560.1c-2.4 5.8-4.8 11.7-7.3 17.5" class="a"/><path d="M783 569.5c-2.5 6-4.9 11.9-7.4 17.9" class="a"/><path d="M756.2 556.4c4.6 2.6 10 5.3 16.2 7.7 5.8 2.3 11.3 4.1 16.3 5.4 0.9-0.7 2.7-2.4 3.8-5.2 0.8-2.2 0.8-4.1 0.8-5.2 -4.7-2.3-9.8-4.7-15.3-6.9 -6.1-2.5-11.9-4.6-17.4-6.3 -0.7 0.4-2.6 1.5-3.8 3.7C755.1 552.8 756 555.8 756.2 556.4z" class="a"/><path d="M781 613.2c1 5.8 0.4 12-2 17.9 -6.9 17.1-26.3 25.3-43.4 18.4 -17.1-6.9-25.3-26.3-18.4-43.4 2.5-6.1 6.6-11.1 11.6-14.7" class="a"/><path d="M768.6 548.2c0.6-5.1 1.4-8.9 2-10.5 0.7-2.1 1.7-3 2.1-3.4 0 0 0.1-0.1 0.2-0.2 4.5-3.3 18 2.2 18.9 7.7 0 0.2 0 0.3 0 0.3 0.2 1.7-0.5 3-1 4 -0.8 1.5-2.7 4.9-5.6 9.2" class="a"/><path d="M356.8 1802.8c1.4-1.1 21.4-16.2 27.8-11 1.8 1.4 2.2 4.2 2.2 4.3 0.9 6.3-7.2 11.5-7.9 11.9 -8.3 5.1-18 1.5-19.7 0.9" class="a"/><path d="M353 1799.1c0.9-1.7 2.3-4.4 3.7-8 3.1-7.6 5.3-13.2 2.7-16.2 -1.6-1.8-4.1-1.9-4.6-1.9 -2.1-0.1-7.5 3.5-9.8 9 -3 7.1 0.4 14.1 1.1 15.3" class="a"/><path d="M360.1 1810.4c8.5 4.5 13.9 9.7 12.9 12.9 -0.4 1.5-2.2 2.7-3.6 3.1 -3.6 1.1-7-1.9-7.9-2.7 -3.3-2.9-3.9-6.7-4-8" class="a"/><circle cx="892.8" cy="1333.4" r="11.7" class="a"/><path d="M898.2 1323.1c0.8-1.6 12.6-23.7 20.5-21.7 2.2 0.6 3.7 2.8 3.8 3 3.5 5.3-1.7 13.5-2.2 14.2 -5.3 8.2-15.7 9-17.5 9.1" class="a"/><path d="M893.3 1321.3c0.1-1.9 0.2-5 0-8.8 -0.4-8.2-0.8-14.2-4.4-15.8 -2.2-1-4.6 0-5 0.2 -2 0.8-5.3 6.3-5.1 12.3 0.3 7.7 6.3 12.6 7.5 13.4" class="a"/><path d="M904.5 1328.6c9.7 0.5 16.7 2.9 17.2 6.3 0.3 1.6-0.9 3.3-2 4.3 -2.8 2.5-7.1 1.2-8.2 0.9 -4.2-1.2-6.4-4.5-7-5.6" class="a"/><path d="M833.7 681.8c-8.7 16.2-17.4 32.5-26.1 48.7 18.6-0.2 37.2-0.5 55.8-0.7C853.5 713.8 843.6 697.8 833.7 681.8z" class="a"/><path d="M820.7 706c9.1-0.3 18.2-0.7 27.3-1 -4.3 8.4-8.6 16.8-12.9 25.2C830.3 722.1 825.5 714.1 820.7 706z" class="a"/><path d="M450.1 376c-0.1-1.8-1.1-26.4-9.1-28 -2.2-0.4-4.5 1-4.6 1 -5.4 3.3-4.2 12.7-4.1 13.5 1.3 9.5 10.2 14.7 11.7 15.5" class="a"/><path d="M455.2 376.5c0.7-1.7 1.9-4.5 3.7-7.9 3.9-7.1 6.7-12.3 10.6-12.2 2.4 0 4.1 2 4.3 2.3 1.4 1.6 2 7.9-0.7 13.1 -3.5 6.7-11 8.5-12.4 8.8" class="a"/><path d="M442.2 378.2c-8.8-3.6-16.1-4.5-18-1.7 -0.9 1.3-0.6 3.4-0.1 4.7 1.4 3.4 5.8 4.1 7 4.3 4.2 0.7 7.6-1.3 8.6-2" class="a"/><circle cx="413.2" cy="2157.5" r="18.3" class="a"/><path d="M426.7 2143.4c-0.9-1.3-3.3-4.9-3.3-10 0-6.6 3.9-10.9 4.8-11.8 0.7 0.1 1.8 0.4 2.9 1.3 2.4 2 2.4 5.1 2.4 5.6 0.4-0.1 3.9-0.6 6.5 1.9 2.1 1.9 2.8 5 2 7.8 0.7 0.1 1.6 0.2 2.7 0.8 2.2 1.1 3.2 3.1 3.5 3.8 -1 0.9-4.6 3.9-10.1 4.2C431.9 2147.3 427.7 2144.2 426.7 2143.4z" class="a"/><path d="M399.1 2172.5c0.9 1.1 3.5 4.6 3.8 9.9 0.3 5.7-2.5 9.7-3.3 10.8 -0.6 0-2.1 0-3.5-0.9 -2.5-1.5-2.9-4.1-3-4.6 -0.4 0.1-3.8 0.8-6.6-1.6 -2.1-1.8-3.1-4.8-2.4-7.7 -0.7 0-1.7-0.1-2.7-0.6 -2.3-1-3.3-3-3.6-3.7 1-1 4.5-4.1 9.9-4.7C393.7 2168.8 398 2171.7 399.1 2172.5z" class="a"/><circle cx="1068.7" cy="60.3" r="18.3" class="a"/><path d="M1084.7 71.6c1.1-1.1 4.3-4 9.4-4.7 6.5-0.9 11.3 2.3 12.3 3.1 0 0.7-0.2 1.9-0.9 3.1 -1.6 2.7-4.7 3.1-5.2 3.2 0.1 0.4 1.2 3.7-0.9 6.7 -1.6 2.3-4.5 3.5-7.4 3.1 0 0.7 0 1.7-0.4 2.8 -0.8 2.4-2.7 3.6-3.3 4 -1.1-0.9-4.5-4-5.6-9.4C1081.6 77.3 1084.1 72.7 1084.7 71.6z" class="a"/><path d="M1051.9 48.4c-1 1.1-4.1 4.2-9.2 5.2 -5.6 1.1-10-1.1-11.2-1.7 -0.1-0.6-0.3-2 0.4-3.6 1.1-2.6 3.7-3.5 4.1-3.6 -0.1-0.4-1.3-3.7 0.6-6.8 1.5-2.4 4.3-3.7 7.3-3.4 -0.1-0.7-0.1-1.7 0.2-2.8 0.7-2.4 2.5-3.7 3.1-4.1 1.1 0.9 4.7 3.8 6.1 9.2C1054.8 42.6 1052.5 47.3 1051.9 48.4z" class="a"/><path d="M121.1 612.9c1.9 1 5 2.4 9 2.6 9.7 0.5 16.5-6.5 18.3-8.4 7.3-7.5 8.1-16.8 8.3-19.9 0.7-10.3-3.3-18.1-6.7-24.3 -9.7-18-20.1-19.3-28.7-37.5 -2.1-4.4-1.3-3.9-5.1-15.2 -10.7-31.4-17.2-49.8-31.3-54.4 -4.8-1.5-11.3-1.8-17.2 0.8 -6.7 3-10 8.6-11.2 10.5 -8.8 15.1 0.7 31.5 1.7 67.5 0.1 3.8 0.1 7-0.9 10.9 -3.1 12.7-11.5 15.4-17.4 26.1 -0.7 1.3-8.1 15.4-3.5 31 2.8 9.3 10.8 22.2 23 23.6 3.8 0.5 7.1-0.3 9.4-1.1" class="a"/><path d="M65.7 579.5c-1.8 2.3-7.2 10.1-6.7 21.1 0.1 2.8 0.6 11.1 7 18.3 5.7 6.4 12.8 8.2 16.1 9 11.2 2.7 26.4 0.4 34.5-9.9 4.2-5.3 5.5-11.6 6-13.8 1.2-5.7 0.8-10.6 0.4-13.7" class="a"/><path d="M115.8 566.5c-2.7-3.4-6.1-8.4-9.2-14.8 -1.9-3.8-3.6-8.1-5.9-15.8 -2.2-7.5-4.8-17.8-6.8-30.7" class="a"/><path d="M75 531.3c1.3 6.2 1.7 11.5 1.8 15.3 0 2.5 0.1 5.6-0.6 9.7 -0.7 4.5-1.8 8.1-2.8 10.7" class="a"/><path d="M62.6 459.9c0.4-1 5.7-13.4-1.3-24 -1.3-2-6.5-8.9-15.4-9.7 -1.4-0.1-9.7-0.8-14.6 5.5 -3.5 4.5-4.4 11.6-1 16.6 2.1 3 6.4 6.3 11.2 5.4 2.7-0.5 6.1-2.6 6.8-6.1 0.6-3-0.7-7.1-3.4-7.6 -2-0.4-3.8 1.5-4.2 1.9" class="a"/><path d="M82.1 453c-6.1-18.1-12.5-24.3-17.3-26.4 -1.5-0.7-6.4-2.5-10-7.3 -1.9-2.5-2.8-5-3.3-6.6" class="a"/><path d="M49 426.8c-0.4-0.8-2.4-4.6-1-9.1 0.8-2.6 2.5-4.3 3.3-5" class="a"/><path d="M146.6 557.2c-0.6-14.1 6.3-27 17.7-32.8 1.1-0.5 14.4-7 27.5-0.6 4.2 2.1 7.1 4.9 8.8 6.8" class="a"/><path d="M156.7 587.2c4.1 2.7 10.8 6.3 19.6 6.7 2.4 0.1 21.5 0.6 30.5-14.2 5.8-9.5 3.9-19.6 3.2-22.8" class="a"/><path d="M208.5 579.8c2.8 0.3 6.6 0.2 10.5-1.5 14.1-5.9 20.1-27.6 15.7-44.2 -0.6-2.4-5.5-20.6-20.1-24.2 -8.5-2.1-16.3 1.8-17.2 2.3 -5.6 2.9-8.7 7.1-10 9.2" class="a"/><path d="M162.3 524.2c-1.3-2-4.8-6.9-11.4-9.6 -10-4-18.9 0.4-20.2 1.1 -5.4 2.8-8.4 7-9.6 9" class="a"/><path d="M192.5 515.5c-3.8-0.3-11.7-1.4-17.9-7.4 -9.8-9.4-10.1-25.6-6-29.3 2.2-2 4.4-1.8 4.4-1.8 0.3 0 1.9 0.2 2.8 1.6 0.6 0.9 0.6 1.8 0.6 2.2" class="a"/><path d="M159.3 518.2c1.7-0.7 5.5-2.4 6-5.5 0.3-2.1-0.9-3.8-1.6-4.7 -3-4.2-8.5-13-10-18.6 -1.6-5.8-0.3-14 5.2-19 6-5.4 14-4.4 15.4-4.2 3.1 1.4 5.1 4.3 5.2 7.4 0.1 3.4-2 5.7-2.4 6.1" class="a"/><path d="M139.2 513.2c2-2.2 6.4-6.4 13.3-8.3 3.2-0.9 6.1-1.1 8.4-1.1" class="a"/><path d="M173.2 504.5c1.8-1.5 6.9-5.5 14.4-5.9 12.4-0.6 20.2 9.1 21 10.1" class="a"/><path d="M1072.9 1458.3c11.7 0.8 29.8 3.4 49.6 12.6 27.3 12.7 43.1 31 55.5 45.3 10 11.6 23.5 29.7 34.8 54.7 -0.9-2.4-2.7-6.1-6.3-9.6 -2.2-2.2-4.4-3.6-6.2-4.6 1.2-1.1 2.4-2.1 3.6-3.2" class="a"/><path d="M1191.4 1533.4c-2.2-4.8-5.8-12.1-10.7-20.6 -17.8-30.9-36.7-63.7-71-75.7 -3.6-1.3-39.1-13.2-64.9 5.7 -2.5 1.8-23.4 17.1-19.5 35.8 1.9 9.4 9.5 17.1 17.9 20 14.4 4.9 33.4-3.7 42.9-22.7 -3.9 7.8-7.9 15.6-11.8 23.4 3.3-1.1 7.7-2.9 12.3-6 2.8-1.9 5.1-3.9 6.8-5.8 -0.9 3.1-1.8 6.2-2.8 9.3 1.6 0.2 3.8 0.2 6.4-0.3 2.7-0.5 4.8-1.5 6.2-2.3 0.1 1.7 0.1 3.4 0.2 5.2 11.4-0.3 31.9 0.6 54.4 11C1173.3 1517.5 1184.3 1526.6 1191.4 1533.4z" class="a"/><path d="M-51.3 1458.3c11.7 0.8 29.8 3.4 49.6 12.6 27.3 12.7 43.1 31 55.5 45.3 10 11.6 23.5 29.7 34.8 54.7 -0.9-2.4-2.7-6.1-6.3-9.6 -2.2-2.2-4.4-3.6-6.2-4.6 1.2-1.1 2.4-2.1 3.6-3.2" class="a"/><path d="M67.6 1533.4c-2.2-4.8-5.8-12.1-10.7-20.6 -17.8-30.9-36.7-63.7-71-75.7 -3.6-1.3-39.1-13.2-64.9 5.7 -2.5 1.8-23.4 17.1-19.5 35.8 1.9 9.4 9.5 17.1 17.9 20 14.4 4.9 33.4-3.7 42.9-22.7 -3.9 7.8-7.9 15.6-11.8 23.4 3.3-1.1 7.7-2.9 12.3-6 2.8-1.9 5.1-3.9 6.8-5.8 -0.9 3.1-1.8 6.2-2.8 9.3 1.5 0.2 3.8 0.2 6.4-0.3 2.7-0.5 4.8-1.5 6.2-2.3 0.1 1.7 0.1 3.4 0.2 5.2 11.4-0.3 31.9 0.6 54.4 11C49.4 1517.5 60.5 1526.6 67.6 1533.4z" class="a"/><circle cx="284" cy="644" r="26.3" class="a"/><path d="M314.3 644.3c-1.2-3.7-0.1-7.6 2.6-10 0.2-0.1 3.6-2.9 7.8-1.7 3.7 1.1 6.4 4.8 6.5 9.1" class="a"/><path d="M862.5 2084.2c0 0 1-2.1 1.6-4.3 2.6-9.6-7-22.8-4.2-34 0.3-1.3 1.1-3.5 3-5.2 1.8-1.6 4.7-2.8 7.3-2.1 0.8 0.3 2.6 1 4.3 3.7 6.3 10.2 3.3 35.7 12.1 40.7 6.2 3.6 16.6-4.1 20.9 0.9 0.9 1 1.2 2.3 1.3 2.4 1 4-2.4 7.9-4.3 10 -1.5 1.7-6.3 7.2-14.5 8.6 -6 1.1-6.6-1.2-13.4-0.4 -7.2 0.9-7.4 3.6-14.9 5.1 -2.7 0.5-13.3 2.6-19.1-3.4 -1.5-1.6-4.4-5.4-3.2-8.1 1.8-4.2 10.8-0.7 17.7-6.9C860.5 2088.4 862.5 2084.2 862.5 2084.2z" class="a"/><path d="M892.3 2135.2c0.8-0.9 2.1-2.1 4-3 2.2-1.1 3.4-1 4.9-1.9 1.4-0.8 3-2.4 3.9-6.3" class="a"/><path d="M908.5 2107.5c1.6-2.5 1.7-4.2 2.3-6 1.1-2.8 3.8-6.4 7-6.6 1.4-0.1 3 0.5 4.1 1.8 3.7 4.3-2.9 12.4 0.3 16 2.3 2.5 7.2 0.4 8.9 3.4 0.9 1.5 0.3 3.3 0.2 3.6 -1.5 4.7-10.1 6.8-16.4 6.5 -6.4-0.3-15.5-3.1-17.8-9.6 -0.6-1.8-1.2-5 0.4-6.3 2.1-1.8 6.7 1.4 9.6-1.1C907.6 2108.9 907.8 2108.5 908.5 2107.5z" class="a"/><path d="M913.7 2127.2c-1.3 4.3-0.8 7.1-0.1 8.9 0.7 1.8 1.8 2.9 1.7 4.8 -0.2 2.2-2 3.7-2.7 4.4 -5.5 4.8-20.1-0.5-20.8-0.8 -0.9 0.6-6.5 4.6-12.7 2.7 -0.9-0.3-4-1.2-6.1-4.1 -4.5-6.3 2-14.1 0-27.2 -0.6-3.7-1.6-6.6-2.4-8.5" class="a"/><path d="M883.7 2105.8c-0.1 13.5 2 18.6 4.1 20.6 0.1 0.1 0.3 0.3 0.6 0.6 2.7 2.6 4.3 5.1 5.3 7" class="a"/><path d="M741.8 2386c-3.9 2.8-8.9 3.2-12.9 1.1 -3.5-1.9-5.6-5.5-6-8.9 -0.8-8 8.3-13.3 9.3-13.8 8.2-4.6 20-3.1 26.6 4.2 0.4 0.4 7.9 9.1 4.3 17.2 -0.2 0.5-2.9 6.2-8.9 7C749.4 2393.4 744.4 2390.8 741.8 2386z" class="a"/><path d="M71.5 1279.4c-1.9 4.4-5.9 7.4-10.5 7.6 -4 0.2-7.6-1.7-9.7-4.5 -4.8-6.4 0.2-15.6 0.7-16.6 4.6-8.2 15.5-13.1 24.9-10.3 0.5 0.2 11.5 3.7 12.6 12.5 0.1 0.6 0.7 6.8-3.9 10.6C81.8 1281.8 76.2 1282.1 71.5 1279.4z" class="a"/><path d="M1072.5 827.3c-2.8 2-6.5 2.3-9.4 0.8 -2.5-1.4-4.1-4-4.3-6.5 -0.5-5.8 6-9.7 6.7-10.1 5.9-3.4 14.6-2.3 19.3 3 0.3 0.3 5.8 6.6 3.1 12.5 -0.2 0.4-2.1 4.5-6.5 5.1C1078 832.7 1074.4 830.8 1072.5 827.3z" class="a"/><path d="M264.2 59c-1.5 4.4-5.2 7.5-9.5 8 -3.8 0.4-7.4-1.2-9.6-3.7 -5-5.8-0.9-15-0.4-16 3.8-8.2 14-13.6 23.1-11.5 0.5 0.1 11.3 2.7 12.9 11.1 0.1 0.5 1.2 6.5-3.1 10.5C274.3 60.7 268.9 61.3 264.2 59z" class="a"/></svg>